<?xml version="1.0" encoding="utf-8" standalone="no"?>
<!DOCTYPE svg PUBLIC "-//W3C//DTD SVG 1.1//EN"
  "http://www.w3.org/Graphics/SVG/1.1/DTD/svg11.dtd">
<svg xmlns:xlink="http://www.w3.org/1999/xlink" width="460.8pt" height="345.6pt" viewBox="0 0 460.8 345.6" xmlns="http://www.w3.org/2000/svg" version="1.1">
 <metadata>
  <rdf:RDF xmlns:dc="http://purl.org/dc/elements/1.1/" xmlns:cc="http://creativecommons.org/ns#" xmlns:rdf="http://www.w3.org/1999/02/22-rdf-syntax-ns#">
   <cc:Work>
    <dc:type rdf:resource="http://purl.org/dc/dcmitype/StillImage"/>
    <dc:date>2025-11-15T18:35:48.883804</dc:date>
    <dc:format>image/svg+xml</dc:format>
    <dc:creator>
     <cc:Agent>
      <dc:title>Matplotlib v3.9.4, https://matplotlib.org/</dc:title>
     </cc:Agent>
    </dc:creator>
   </cc:Work>
  </rdf:RDF>
 </metadata>
 <defs>
  <style type="text/css">*{stroke-linejoin: round; stroke-linecap: butt}</style>
 </defs>
 <g id="figure_1">
  <g id="patch_1">
   <path d="M 0 345.6 
L 460.8 345.6 
L 460.8 0 
L 0 0 
z
" style="fill: #ffffff"/>
  </g>
  <g id="axes_1">
   <g id="patch_2">
    <path d="M 57.6 307.584 
L 414.72 307.584 
L 414.72 41.472 
L 57.6 41.472 
z
" style="fill: #ffffff"/>
   </g>
   <g id="matplotlib.axis_1">
    <g id="xtick_1">
     <g id="line2d_1">
      <defs>
       <path id="m5c593f583c" d="M 0 0 
L 0 3.5 
" style="stroke: #000000; stroke-width: 0.8"/>
      </defs>
      <g>
       <use xlink:href="#m5c593f583c" x="102.224375" y="307.584" style="stroke: #000000; stroke-width: 0.8"/>
      </g>
     </g>
     <g id="text_1">
      <!-- 2500 -->
      <g transform="translate(89.499375 322.182437) scale(0.1 -0.1)">
       <defs>
        <path id="DejaVuSans-32" d="M 1228 531 
L 3431 531 
L 3431 0 
L 469 0 
L 469 531 
Q 828 903 1448 1529 
Q 2069 2156 2228 2338 
Q 2531 2678 2651 2914 
Q 2772 3150 2772 3378 
Q 2772 3750 2511 3984 
Q 2250 4219 1831 4219 
Q 1534 4219 1204 4116 
Q 875 4013 500 3803 
L 500 4441 
Q 881 4594 1212 4672 
Q 1544 4750 1819 4750 
Q 2544 4750 2975 4387 
Q 3406 4025 3406 3419 
Q 3406 3131 3298 2873 
Q 3191 2616 2906 2266 
Q 2828 2175 2409 1742 
Q 1991 1309 1228 531 
z
" transform="scale(0.015625)"/>
        <path id="DejaVuSans-35" d="M 691 4666 
L 3169 4666 
L 3169 4134 
L 1269 4134 
L 1269 2991 
Q 1406 3038 1543 3061 
Q 1681 3084 1819 3084 
Q 2600 3084 3056 2656 
Q 3513 2228 3513 1497 
Q 3513 744 3044 326 
Q 2575 -91 1722 -91 
Q 1428 -91 1123 -41 
Q 819 9 494 109 
L 494 744 
Q 775 591 1075 516 
Q 1375 441 1709 441 
Q 2250 441 2565 725 
Q 2881 1009 2881 1497 
Q 2881 1984 2565 2268 
Q 2250 2553 1709 2553 
Q 1456 2553 1204 2497 
Q 953 2441 691 2322 
L 691 4666 
z
" transform="scale(0.015625)"/>
        <path id="DejaVuSans-30" d="M 2034 4250 
Q 1547 4250 1301 3770 
Q 1056 3291 1056 2328 
Q 1056 1369 1301 889 
Q 1547 409 2034 409 
Q 2525 409 2770 889 
Q 3016 1369 3016 2328 
Q 3016 3291 2770 3770 
Q 2525 4250 2034 4250 
z
M 2034 4750 
Q 2819 4750 3233 4129 
Q 3647 3509 3647 2328 
Q 3647 1150 3233 529 
Q 2819 -91 2034 -91 
Q 1250 -91 836 529 
Q 422 1150 422 2328 
Q 422 3509 836 4129 
Q 1250 4750 2034 4750 
z
" transform="scale(0.015625)"/>
       </defs>
       <use xlink:href="#DejaVuSans-32"/>
       <use xlink:href="#DejaVuSans-35" x="63.623047"/>
       <use xlink:href="#DejaVuSans-30" x="127.246094"/>
       <use xlink:href="#DejaVuSans-30" x="190.869141"/>
      </g>
     </g>
    </g>
    <g id="xtick_2">
     <g id="line2d_2">
      <g>
       <use xlink:href="#m5c593f583c" x="146.866607" y="307.584" style="stroke: #000000; stroke-width: 0.8"/>
      </g>
     </g>
     <g id="text_2">
      <!-- 5000 -->
      <g transform="translate(134.141607 322.182437) scale(0.1 -0.1)">
       <use xlink:href="#DejaVuSans-35"/>
       <use xlink:href="#DejaVuSans-30" x="63.623047"/>
       <use xlink:href="#DejaVuSans-30" x="127.246094"/>
       <use xlink:href="#DejaVuSans-30" x="190.869141"/>
      </g>
     </g>
    </g>
    <g id="xtick_3">
     <g id="line2d_3">
      <g>
       <use xlink:href="#m5c593f583c" x="191.508839" y="307.584" style="stroke: #000000; stroke-width: 0.8"/>
      </g>
     </g>
     <g id="text_3">
      <!-- 7500 -->
      <g transform="translate(178.783839 322.182437) scale(0.1 -0.1)">
       <defs>
        <path id="DejaVuSans-37" d="M 525 4666 
L 3525 4666 
L 3525 4397 
L 1831 0 
L 1172 0 
L 2766 4134 
L 525 4134 
L 525 4666 
z
" transform="scale(0.015625)"/>
       </defs>
       <use xlink:href="#DejaVuSans-37"/>
       <use xlink:href="#DejaVuSans-35" x="63.623047"/>
       <use xlink:href="#DejaVuSans-30" x="127.246094"/>
       <use xlink:href="#DejaVuSans-30" x="190.869141"/>
      </g>
     </g>
    </g>
    <g id="xtick_4">
     <g id="line2d_4">
      <g>
       <use xlink:href="#m5c593f583c" x="236.151072" y="307.584" style="stroke: #000000; stroke-width: 0.8"/>
      </g>
     </g>
     <g id="text_4">
      <!-- 10000 -->
      <g transform="translate(220.244822 322.182437) scale(0.1 -0.1)">
       <defs>
        <path id="DejaVuSans-31" d="M 794 531 
L 1825 531 
L 1825 4091 
L 703 3866 
L 703 4441 
L 1819 4666 
L 2450 4666 
L 2450 531 
L 3481 531 
L 3481 0 
L 794 0 
L 794 531 
z
" transform="scale(0.015625)"/>
       </defs>
       <use xlink:href="#DejaVuSans-31"/>
       <use xlink:href="#DejaVuSans-30" x="63.623047"/>
       <use xlink:href="#DejaVuSans-30" x="127.246094"/>
       <use xlink:href="#DejaVuSans-30" x="190.869141"/>
       <use xlink:href="#DejaVuSans-30" x="254.492188"/>
      </g>
     </g>
    </g>
    <g id="xtick_5">
     <g id="line2d_5">
      <g>
       <use xlink:href="#m5c593f583c" x="280.793304" y="307.584" style="stroke: #000000; stroke-width: 0.8"/>
      </g>
     </g>
     <g id="text_5">
      <!-- 12500 -->
      <g transform="translate(264.887054 322.182437) scale(0.1 -0.1)">
       <use xlink:href="#DejaVuSans-31"/>
       <use xlink:href="#DejaVuSans-32" x="63.623047"/>
       <use xlink:href="#DejaVuSans-35" x="127.246094"/>
       <use xlink:href="#DejaVuSans-30" x="190.869141"/>
       <use xlink:href="#DejaVuSans-30" x="254.492188"/>
      </g>
     </g>
    </g>
    <g id="xtick_6">
     <g id="line2d_6">
      <g>
       <use xlink:href="#m5c593f583c" x="325.435536" y="307.584" style="stroke: #000000; stroke-width: 0.8"/>
      </g>
     </g>
     <g id="text_6">
      <!-- 15000 -->
      <g transform="translate(309.529286 322.182437) scale(0.1 -0.1)">
       <use xlink:href="#DejaVuSans-31"/>
       <use xlink:href="#DejaVuSans-35" x="63.623047"/>
       <use xlink:href="#DejaVuSans-30" x="127.246094"/>
       <use xlink:href="#DejaVuSans-30" x="190.869141"/>
       <use xlink:href="#DejaVuSans-30" x="254.492188"/>
      </g>
     </g>
    </g>
    <g id="xtick_7">
     <g id="line2d_7">
      <g>
       <use xlink:href="#m5c593f583c" x="370.077768" y="307.584" style="stroke: #000000; stroke-width: 0.8"/>
      </g>
     </g>
     <g id="text_7">
      <!-- 17500 -->
      <g transform="translate(354.171518 322.182437) scale(0.1 -0.1)">
       <use xlink:href="#DejaVuSans-31"/>
       <use xlink:href="#DejaVuSans-37" x="63.623047"/>
       <use xlink:href="#DejaVuSans-35" x="127.246094"/>
       <use xlink:href="#DejaVuSans-30" x="190.869141"/>
       <use xlink:href="#DejaVuSans-30" x="254.492188"/>
      </g>
     </g>
    </g>
    <g id="xtick_8">
     <g id="line2d_8">
      <g>
       <use xlink:href="#m5c593f583c" x="414.72" y="307.584" style="stroke: #000000; stroke-width: 0.8"/>
      </g>
     </g>
     <g id="text_8">
      <!-- 20000 -->
      <g transform="translate(398.81375 322.182437) scale(0.1 -0.1)">
       <use xlink:href="#DejaVuSans-32"/>
       <use xlink:href="#DejaVuSans-30" x="63.623047"/>
       <use xlink:href="#DejaVuSans-30" x="127.246094"/>
       <use xlink:href="#DejaVuSans-30" x="190.869141"/>
       <use xlink:href="#DejaVuSans-30" x="254.492188"/>
      </g>
     </g>
    </g>
   </g>
   <g id="matplotlib.axis_2">
    <g id="ytick_1">
     <g id="line2d_9">
      <defs>
       <path id="m8ea274cf67" d="M 0 0 
L -3.5 0 
" style="stroke: #000000; stroke-width: 0.8"/>
      </defs>
      <g>
       <use xlink:href="#m8ea274cf67" x="57.6" y="282.197849" style="stroke: #000000; stroke-width: 0.8"/>
      </g>
     </g>
     <g id="text_9">
      <!-- −4 -->
      <g transform="translate(35.857813 285.997068) scale(0.1 -0.1)">
       <defs>
        <path id="DejaVuSans-2212" d="M 678 2272 
L 4684 2272 
L 4684 1741 
L 678 1741 
L 678 2272 
z
" transform="scale(0.015625)"/>
        <path id="DejaVuSans-34" d="M 2419 4116 
L 825 1625 
L 2419 1625 
L 2419 4116 
z
M 2253 4666 
L 3047 4666 
L 3047 1625 
L 3713 1625 
L 3713 1100 
L 3047 1100 
L 3047 0 
L 2419 0 
L 2419 1100 
L 313 1100 
L 313 1709 
L 2253 4666 
z
" transform="scale(0.015625)"/>
       </defs>
       <use xlink:href="#DejaVuSans-2212"/>
       <use xlink:href="#DejaVuSans-34" x="83.789062"/>
      </g>
     </g>
    </g>
    <g id="ytick_2">
     <g id="line2d_10">
      <g>
       <use xlink:href="#m8ea274cf67" x="57.6" y="227.737554" style="stroke: #000000; stroke-width: 0.8"/>
      </g>
     </g>
     <g id="text_10">
      <!-- −2 -->
      <g transform="translate(35.857813 231.536773) scale(0.1 -0.1)">
       <use xlink:href="#DejaVuSans-2212"/>
       <use xlink:href="#DejaVuSans-32" x="83.789062"/>
      </g>
     </g>
    </g>
    <g id="ytick_3">
     <g id="line2d_11">
      <g>
       <use xlink:href="#m8ea274cf67" x="57.6" y="173.277259" style="stroke: #000000; stroke-width: 0.8"/>
      </g>
     </g>
     <g id="text_11">
      <!-- 0 -->
      <g transform="translate(44.2375 177.076477) scale(0.1 -0.1)">
       <use xlink:href="#DejaVuSans-30"/>
      </g>
     </g>
    </g>
    <g id="ytick_4">
     <g id="line2d_12">
      <g>
       <use xlink:href="#m8ea274cf67" x="57.6" y="118.816964" style="stroke: #000000; stroke-width: 0.8"/>
      </g>
     </g>
     <g id="text_12">
      <!-- 2 -->
      <g transform="translate(44.2375 122.616182) scale(0.1 -0.1)">
       <use xlink:href="#DejaVuSans-32"/>
      </g>
     </g>
    </g>
    <g id="ytick_5">
     <g id="line2d_13">
      <g>
       <use xlink:href="#m8ea274cf67" x="57.6" y="64.356669" style="stroke: #000000; stroke-width: 0.8"/>
      </g>
     </g>
     <g id="text_13">
      <!-- 4 -->
      <g transform="translate(44.2375 68.155887) scale(0.1 -0.1)">
       <use xlink:href="#DejaVuSans-34"/>
      </g>
     </g>
    </g>
   </g>
   <g id="line2d_14">
    <path d="M 57.6 245.314272 
L 58.528558 183.060187 
L 58.6357 196.949096 
L 58.707127 243.600114 
L 59.117836 186.503254 
L 59.617829 205.258404 
L 60.189249 190.352954 
L 60.224963 244.416795 
L 60.546387 210.523419 
L 61.332091 251.086614 
L 61.51066 183.56763 
L 61.546373 233.723984 
L 62.385647 175.008676 
L 61.707085 245.274427 
L 62.546359 223.597517 
L 62.635644 186.517163 
L 62.59993 256.172808 
L 63.332063 222.692293 
L 63.349919 264.736253 
L 63.939197 183.249069 
L 64.332049 234.920421 
L 64.689186 191.091452 
L 64.974897 265.373944 
L 65.296321 197.120203 
L 65.314178 281.528799 
L 66.224879 175.093553 
L 66.296307 216.762922 
L 66.707015 185.473664 
L 66.832014 267.151766 
L 67.224865 203.08989 
L 67.242722 251.864402 
L 67.635574 187.410125 
L 68.224851 230.00121 
L 68.992698 184.692642 
L 68.814129 263.332509 
L 69.242694 206.183095 
L 69.43912 255.559501 
L 70.171253 184.176962 
L 70.224823 211.570841 
L 70.52839 180.749481 
L 70.314108 258.083161 
L 71.206952 200.457185 
L 71.528376 252.233963 
L 71.367664 189.837276 
L 72.206938 218.152383 
L 73.064069 173.428744 
L 72.778359 276.342335 
L 73.189067 185.831906 
L 74.099769 259.598066 
L 73.974771 181.291715 
L 74.189053 228.322797 
L 74.367622 180.280913 
L 75.081898 251.346946 
L 75.189039 196.837045 
L 75.956886 244.965257 
L 75.510464 188.615263 
L 76.189025 210.343162 
L 76.385451 182.293159 
L 76.921158 253.302336 
L 77.117584 221.428831 
L 77.153298 251.111483 
L 77.88543 187.814535 
L 78.099713 232.432985 
L 78.617563 181.58117 
L 78.206854 250.316498 
L 79.099699 207.194296 
L 79.313982 256.913538 
L 79.867545 180.303979 
L 80.099685 217.260815 
L 80.742533 185.859728 
L 80.778247 240.515165 
L 81.081814 235.27715 
L 81.296097 183.109338 
L 81.992516 260.081925 
L 82.099657 194.066882 
L 82.385367 243.757042 
L 83.010359 182.862142 
L 83.099643 209.791303 
L 83.599636 182.182891 
L 83.188927 288.354086 
L 84.081772 192.718232 
L 84.796048 267.525261 
L 84.171057 185.016962 
L 85.081758 231.943077 
L 85.849604 187.282375 
L 85.171043 252.035408 
L 86.081744 196.56707 
L 86.671022 255.662487 
L 86.385311 176.674928 
L 87.08173 232.149694 
L 87.992432 185.658087 
L 88.028145 251.159003 
L 88.081716 203.534755 
L 88.153144 273.267752 
L 88.349569 183.7522 
L 89.099559 234.026007 
L 89.867405 181.539747 
L 89.635266 260.775763 
L 90.117402 206.522631 
L 90.313828 272.841918 
L 90.813821 190.618802 
L 91.099531 195.69275 
L 91.492383 183.779088 
L 91.331671 245.136685 
L 92.010233 222.508628 
L 92.438798 255.808539 
L 92.36737 186.334877 
L 92.903077 231.039551 
L 93.313786 185.071762 
L 93.456641 258.574859 
L 93.903063 218.864492 
L 93.92092 253.311155 
L 94.117346 187.447054 
L 94.885192 194.329596 
L 95.028047 277.688567 
L 95.170903 188.877772 
L 95.903035 202.908388 
L 96.063747 190.995242 
L 96.242316 257.994393 
L 96.760166 216.284556 
L 96.903021 262.90641 
L 97.135161 188.218166 
L 97.724438 223.517992 
L 97.956578 182.709974 
L 98.170861 241.981674 
L 98.706567 208.490822 
L 99.349415 253.485828 
L 99.402986 172.630986 
L 99.688696 244.365204 
L 100.206546 163.892615 
L 100.581541 254.463456 
L 100.688682 223.688623 
L 101.27796 176.570775 
L 101.152962 256.984119 
L 101.688668 206.55917 
L 102.635084 259.183823 
L 102.045806 175.999398 
L 102.652941 229.654088 
L 102.670798 173.655238 
L 103.527928 255.244701 
L 103.63507 210.033996 
L 103.974351 271.036177 
L 104.563628 188.566719 
L 104.635056 230.088336 
L 105.295761 185.563711 
L 105.188619 249.142729 
L 105.599328 209.623951 
L 105.974323 257.056223 
L 105.956466 184.289051 
L 106.581457 199.03918 
L 106.84931 178.288315 
L 106.813597 253.029585 
L 107.456445 226.746604 
L 108.385003 263.003551 
L 107.956438 189.771534 
L 108.438574 227.208756 
L 108.902853 173.117901 
L 109.081422 242.557997 
L 109.43856 219.969995 
L 109.920696 190.788717 
L 109.813555 252.141427 
L 110.438546 196.737033 
L 110.777827 276.279778 
L 111.224249 181.079616 
L 111.456389 223.710172 
L 111.492103 183.170177 
L 111.777813 260.72949 
L 112.456375 193.871453 
L 112.545659 260.250128 
L 113.188507 191.8789 
L 113.456361 216.719443 
L 113.724214 184.707832 
L 113.759928 249.881916 
L 114.456347 200.485104 
L 114.581345 250.875103 
L 115.331335 189.478406 
L 115.47419 248.18833 
L 115.777757 179.382453 
L 115.652759 249.467321 
L 116.492033 215.67567 
L 116.742029 274.293307 
L 116.688458 182.112938 
L 117.438448 205.527415 
L 117.509875 174.209466 
L 117.795586 257.636495 
L 118.40272 205.397094 
L 119.331279 261.389477 
L 119.170567 174.251991 
L 119.384849 196.419404 
L 119.67056 177.487518 
L 119.599132 286.748427 
L 120.24198 213.55077 
L 120.545547 255.036158 
L 120.509833 181.426782 
L 121.241966 242.514362 
L 122.045526 181.734661 
L 121.741959 264.275192 
L 122.259809 195.539723 
L 123.170511 253.760737 
L 122.349093 176.271611 
L 123.259795 197.805794 
L 123.563362 257.071675 
L 123.9205 184.364039 
L 124.277638 212.14496 
L 124.795488 182.260818 
L 124.9562 254.552197 
L 125.259767 224.182792 
L 125.795474 179.640709 
L 125.402622 256.441445 
L 126.206182 196.323329 
L 126.956172 249.719283 
L 126.902601 189.890109 
L 127.206168 221.565909 
L 127.259739 179.16962 
L 127.938301 248.289579 
L 128.206154 219.785408 
L 129.170427 181.609252 
L 128.295439 251.250493 
L 129.188283 207.569022 
L 129.598992 245.628746 
L 129.295425 182.677169 
L 130.170413 193.333167 
L 130.384695 242.7736 
L 130.259697 180.533291 
L 131.206112 214.005286 
L 132.116814 180.126957 
L 131.331111 252.449748 
L 132.170385 234.974198 
L 132.36681 260.233188 
L 132.634664 180.343784 
L 133.1168 221.616781 
L 133.420367 189.893206 
L 133.92036 254.302781 
L 134.098929 225.372488 
L 134.866775 256.436922 
L 134.366782 184.862382 
L 135.063201 222.606877 
L 135.866761 184.570348 
L 135.331055 247.544808 
L 136.081044 193.318089 
L 137.009602 245.209352 
L 136.152472 181.660957 
L 137.098887 235.282617 
L 137.973875 177.797485 
L 137.277456 251.577089 
L 138.098873 232.431787 
L 138.40244 176.673239 
L 138.581009 252.477657 
L 139.098859 185.107075 
L 139.973847 265.645059 
L 139.580995 180.970751 
L 140.098845 213.506607 
L 140.723836 249.143931 
L 140.938119 179.825618 
L 141.04526 221.285107 
L 141.205972 182.137067 
L 141.170259 242.308466 
L 142.045246 211.896507 
L 142.705951 178.460808 
L 142.83095 254.131947 
L 143.027375 184.290805 
L 143.295229 245.710646 
L 144.009504 180.896641 
L 144.027361 228.940428 
L 144.688066 189.336856 
L 144.580925 246.622266 
L 145.045204 200.229814 
L 145.670196 241.694864 
L 145.813051 183.984956 
L 146.063047 240.789553 
L 146.313044 180.349295 
L 146.759466 253.140996 
L 147.098747 202.273153 
L 147.188031 187.476357 
L 147.759452 252.514511 
L 148.009448 207.04903 
L 148.92015 245.304114 
L 148.527298 176.894967 
L 149.009434 213.231474 
L 149.295145 250.848557 
L 149.812995 170.644581 
L 149.95585 227.269523 
L 150.652269 189.269073 
L 150.598698 253.033314 
L 150.955836 204.375221 
L 151.187975 259.562928 
L 151.223689 189.14722 
L 151.955822 235.199442 
L 152.062963 178.780411 
L 152.277246 246.820163 
L 152.955808 196.157317 
L 153.080806 256.563212 
L 152.991522 182.504731 
L 153.955794 210.514452 
L 154.812925 179.294274 
L 154.116506 260.511892 
L 154.920066 211.456931 
L 155.652199 258.009058 
L 155.295061 191.079054 
L 155.920052 233.316356 
L 156.830754 178.035187 
L 156.330761 257.750186 
L 156.920038 220.275325 
L 156.937895 267.509587 
L 157.759312 179.624161 
L 157.902167 221.755469 
L 158.795012 188.342563 
L 158.473588 238.879392 
L 158.884296 215.29099 
L 159.652143 258.65622 
L 159.634286 178.834386 
L 159.866425 228.887518 
L 160.205706 188.780002 
L 160.75927 255.282926 
L 160.866411 204.790879 
L 161.473546 262.569647 
L 161.759256 187.133109 
L 161.84854 219.747279 
L 162.402104 179.685479 
L 162.027109 253.522201 
L 162.848526 205.232315 
L 163.062809 242.782305 
L 163.152094 179.983982 
L 163.812799 226.158922 
L 164.687786 177.612185 
L 164.044938 261.42988 
L 164.812785 204.767611 
L 164.937783 245.724121 
L 165.741343 185.336507 
L 165.794914 219.961792 
L 166.652045 241.979081 
L 166.7949 186.02707 
L 167.473462 260.080154 
L 166.884184 175.527567 
L 167.794886 219.948723 
L 168.419877 188.065393 
L 168.669873 252.887796 
L 168.794872 214.538957 
L 168.830586 245.003278 
L 169.312722 188.791776 
L 169.777001 225.307304 
L 170.52699 187.559857 
L 170.205566 251.417298 
L 170.794844 202.185758 
L 171.169838 270.140028 
L 171.598404 181.250469 
L 171.830544 269.563095 
L 171.866257 194.008154 
L 172.83053 228.007038 
L 173.526948 178.288558 
L 173.68766 260.686868 
L 173.848372 193.241608 
L 174.580505 260.255796 
L 173.991228 181.745429 
L 174.866215 222.350412 
L 175.544777 188.218647 
L 175.47335 252.411556 
L 175.812631 212.935774 
L 175.830488 261.973998 
L 176.56262 181.649316 
L 176.812617 225.053794 
L 177.330467 259.778606 
L 177.562606 187.602962 
L 177.723318 220.183026 
L 177.741175 184.880099 
L 178.348309 248.205923 
L 178.723304 212.342104 
L 179.509007 184.266569 
L 179.455437 250.257864 
L 179.705433 211.802888 
L 180.098285 253.501752 
L 179.848288 180.080102 
L 180.669705 217.139849 
L 180.901845 183.779407 
L 181.491123 252.453291 
L 181.669691 207.46607 
L 181.741119 238.792209 
L 182.616107 183.201933 
L 182.651821 230.735036 
L 183.026815 183.276112 
L 183.455381 253.815064 
L 183.651807 213.287394 
L 183.991088 252.021935 
L 184.098229 188.500724 
L 184.633936 225.503434 
L 185.276784 186.267005 
L 185.383925 258.938346 
L 185.633922 219.419279 
L 185.973203 183.218924 
L 186.508909 265.513419 
L 186.651765 198.615837 
L 186.866047 265.903432 
L 186.991046 174.969236 
L 187.633894 221.44944 
L 188.40174 184.644813 
L 188.276742 252.203229 
L 188.616023 206.937959 
L 189.2053 252.61328 
L 189.187443 186.963611 
L 189.616009 213.634797 
L 190.562424 240.143098 
L 189.758864 177.254326 
L 190.633852 237.105435 
L 190.651709 183.132388 
L 191.169558 252.417557 
L 191.633838 218.734007 
L 192.258829 251.625344 
L 192.169544 180.298103 
L 192.615967 209.196855 
L 193.187387 262.58835 
L 193.276672 176.018294 
L 193.615953 214.212844 
L 193.68738 242.51362 
L 193.91952 191.574201 
L 194.008804 228.071954 
L 194.937363 187.553888 
L 194.865935 250.859181 
L 195.00879 215.106907 
L 195.133789 181.402762 
L 195.508783 255.651304 
L 196.008776 212.51744 
L 196.205202 266.980434 
L 196.383771 186.053256 
L 196.973049 215.718972 
L 197.31233 180.225391 
L 197.008762 256.498975 
L 197.955178 229.010847 
L 198.348029 185.050982 
L 198.865879 253.087522 
L 198.990878 196.101671 
L 199.830152 187.551984 
L 199.990864 255.43195 
L 200.883708 188.349082 
L 200.776567 258.023376 
L 200.99085 222.203004 
L 201.312274 182.892566 
L 201.097991 284.395332 
L 202.008692 201.11351 
L 202.240832 280.842148 
L 202.455115 183.015259 
L 202.758682 189.9289 
L 202.776539 174.341219 
L 203.63367 253.094515 
L 203.740811 203.330918 
L 204.580085 181.429265 
L 204.490801 248.322077 
L 204.72294 198.613648 
L 205.00865 265.938164 
L 204.758654 180.600382 
L 205.705069 203.555299 
L 206.27649 187.227031 
L 206.455059 259.020674 
L 206.651485 210.141097 
L 207.455045 249.964335 
L 207.437188 181.106647 
L 207.651471 248.963121 
L 207.955038 188.016101 
L 208.651457 232.046428 
L 208.705027 189.70843 
L 209.526444 253.931274 
L 209.669299 199.076325 
L 210.47286 260.829962 
L 210.615715 189.286722 
L 210.669285 221.717048 
L 211.437132 183.107503 
L 211.454989 248.082497 
L 211.669271 210.484769 
L 212.115694 187.16245 
L 212.651401 283.296233 
L 213.008538 186.03773 
L 213.651387 237.140525 
L 214.097809 180.585764 
L 213.972811 256.720148 
L 214.633516 231.012285 
L 214.687086 254.145481 
L 215.401362 186.283103 
L 215.579931 211.214895 
L 216.222779 180.519688 
L 215.972783 289.060991 
L 216.579917 184.122809 
L 217.115624 242.559806 
L 217.133481 175.034586 
L 217.615617 226.374801 
L 218.544175 183.435047 
L 218.062039 246.363478 
L 218.615603 191.147318 
L 219.062025 251.769599 
L 219.579875 179.501102 
L 219.615589 238.067443 
L 219.865585 182.618966 
L 219.847728 244.663227 
L 220.633432 207.432016 
L 221.401278 193.07868 
L 221.097711 246.216748 
L 221.56199 206.414456 
L 222.169124 260.632679 
L 222.454835 181.141442 
L 222.544119 228.49209 
L 223.472678 182.970204 
L 223.508391 243.767291 
L 223.544105 225.947175 
L 224.276238 181.989458 
L 224.383379 248.337629 
L 224.561948 190.301055 
L 224.758374 253.188399 
L 225.52622 185.429945 
L 225.561934 204.779863 
L 226.544063 259.020742 
L 225.919072 177.149243 
L 226.56192 215.180041 
L 226.901201 186.918607 
L 226.972629 259.931462 
L 227.561906 195.59986 
L 228.16904 243.281644 
L 227.59762 184.653943 
L 228.561892 236.400338 
L 229.15117 185.378126 
L 228.63332 253.611244 
L 229.561878 213.799378 
L 229.865445 249.524031 
L 230.079728 189.483458 
L 230.561864 218.497585 
L 231.222569 192.389595 
L 230.829717 256.037966 
L 231.56185 208.952024 
L 231.936845 274.66989 
L 232.31184 186.124321 
L 232.561836 219.021242 
L 233.293969 184.443396 
L 232.901117 253.826108 
L 233.543965 219.696903 
L 233.561822 244.357324 
L 233.740391 190.759117 
L 234.526094 217.032357 
L 234.651093 180.938894 
L 235.276084 250.946334 
L 235.490367 213.564939 
L 235.561794 253.665922 
L 235.901075 172.180955 
L 236.472496 209.57972 
L 236.722492 255.795836 
L 236.936775 182.329663 
L 237.436768 235.880663 
L 237.579623 182.022427 
L 237.954618 264.19907 
L 238.436754 235.131969 
L 239.401026 187.840101 
L 238.936747 242.248402 
L 239.43674 213.189894 
L 240.00816 180.199479 
L 239.776021 248.929106 
L 240.2403 215.592839 
L 240.258157 251.631893 
L 240.704579 184.983433 
L 241.240286 218.158121 
L 241.525996 195.011287 
L 241.347427 244.180247 
L 241.722422 214.770654 
L 242.508125 261.973669 
L 242.008132 180.344204 
L 242.722408 224.71845 
L 243.133117 237.160658 
L 242.829549 186.678502 
L 243.525968 213.535482 
L 243.740251 182.703473 
L 243.650967 282.861055 
L 244.490241 217.915586 
L 244.936663 249.024857 
L 245.24023 185.084517 
L 245.47237 227.497546 
L 245.829507 178.642852 
L 246.222359 248.251546 
L 246.472356 210.462102 
L 247.454485 263.283669 
L 247.275916 196.618322 
L 247.472342 210.608856 
L 248.365186 191.868266 
L 248.025905 261.68228 
L 248.490185 195.577901 
L 249.079462 256.831352 
L 248.63304 181.184423 
L 249.490171 212.706711 
L 249.543741 183.163348 
L 249.990164 252.171506 
L 250.490157 212.398949 
L 251.222289 245.065864 
L 250.99015 186.573269 
L 251.507999 243.740407 
L 251.775853 184.379801 
L 251.597284 256.323729 
L 252.507985 221.917628 
L 253.204404 186.403785 
L 253.16869 260.398515 
L 253.507971 194.752404 
L 253.561542 254.831704 
L 253.811539 189.407248 
L 254.507957 208.625338 
L 255.132949 187.435394 
L 254.579385 259.960412 
L 255.382945 202.336451 
L 255.507943 267.783196 
L 256.240076 180.490241 
L 256.382931 231.13627 
L 257.025779 185.997915 
L 256.740069 257.37396 
L 257.347203 208.666122 
L 257.668627 265.189528 
L 257.686484 185.484512 
L 258.347189 215.301743 
L 258.91861 172.684797 
L 258.543615 274.513849 
L 259.293605 204.38031 
L 259.579315 264.007857 
L 260.043594 180.8672 
L 260.293591 205.004058 
L 260.900725 260.560339 
L 260.507873 174.624051 
L 261.27572 200.883419 
L 261.79357 195.370307 
L 261.597144 253.954619 
L 261.829283 199.034126 
L 261.936425 256.408004 
L 262.739985 178.983601 
L 262.811413 228.706461 
L 263.739971 168.077949 
L 263.043552 261.392252 
L 263.811399 213.858581 
L 263.829255 249.218948 
L 264.686386 179.363043 
L 264.793528 206.208783 
L 265.579231 249.736315 
L 265.347091 180.518459 
L 265.739943 213.787238 
L 266.632788 187.418434 
L 265.954226 263.606239 
L 266.739929 209.81596 
L 266.829213 248.335948 
L 267.507775 180.060177 
L 267.704201 222.138899 
L 268.204194 178.14526 
L 267.847056 271.939906 
L 268.704187 217.295356 
L 269.43632 255.064954 
L 268.793472 185.597044 
L 269.543461 220.009567 
L 270.52559 187.711232 
L 269.686316 261.417335 
L 270.543447 208.053384 
L 271.27558 183.099844 
L 270.597018 261.502409 
L 271.418435 196.045313 
L 271.507719 261.921721 
L 272.239852 183.125404 
L 272.418421 245.937433 
L 272.954128 182.496061 
L 272.811273 252.140013 
L 273.40055 225.20875 
L 274.15054 251.119153 
L 274.20411 179.105397 
L 274.382679 205.706621 
L 275.275524 242.124128 
L 274.668389 187.754077 
L 275.364808 225.984675 
L 276.150512 189.016824 
L 276.04337 263.971763 
L 276.346937 190.920698 
L 276.811217 295.488 
L 276.971929 183.09297 
L 277.346923 202.256413 
L 278.11477 183.107492 
L 277.900487 238.847061 
L 278.311196 219.304486 
L 279.239754 245.325535 
L 278.757618 183.998173 
L 279.293325 216.305934 
L 279.311182 216.261408 
L 279.507607 255.792399 
L 279.900459 194.755236 
L 280.150456 202.293344 
L 280.168312 180.563758 
L 281.096871 254.192545 
L 281.132585 194.729157 
L 281.186155 260.676521 
L 281.632578 175.341734 
L 282.132571 207.233188 
L 282.31114 254.161164 
L 282.221855 191.618134 
L 283.1147 217.034536 
L 283.757548 175.186731 
L 283.16827 244.193207 
L 284.096829 188.141365 
L 284.596822 245.833387 
L 284.882532 178.532925 
L 285.114672 228.6994 
L 285.953946 250.844897 
L 285.882518 190.75954 
L 286.096801 235.047644 
L 286.686078 178.47858 
L 286.757506 250.897485 
L 287.07893 228.848387 
L 287.525352 263.606337 
L 287.561066 191.232166 
L 288.007488 211.889923 
L 288.311056 186.400593 
L 288.453911 236.428725 
L 288.971761 209.024552 
L 289.275328 274.904236 
L 289.900319 182.620424 
L 289.95389 217.160894 
L 290.025317 188.234866 
L 290.507453 253.007088 
L 290.971733 191.955412 
L 291.186015 251.217081 
L 291.721722 177.303065 
L 291.971719 220.587066 
L 292.632424 186.28731 
L 292.864563 248.677166 
L 292.989561 186.44601 
L 293.096703 255.746409 
L 293.953834 183.590352 
L 294.025261 236.425843 
L 294.114546 180.80771 
L 294.382399 251.009911 
L 295.060961 213.638651 
L 295.828807 264.008117 
L 295.721666 189.290046 
L 296.060947 235.09452 
L 296.078804 248.32315 
L 296.221659 188.783862 
L 297.007362 223.20036 
L 297.668067 180.800561 
L 297.828779 256.084345 
L 297.989491 213.188136 
L 298.864479 246.399764 
L 298.293059 184.893157 
L 298.953764 218.184084 
L 298.971621 186.527785 
L 299.025191 265.673411 
L 299.95375 215.916857 
L 300.310888 179.840806 
L 300.275174 268.855064 
L 300.900165 200.023455 
L 301.221589 256.576568 
L 301.882294 183.169488 
L 301.900151 228.008808 
L 301.989435 185.587955 
L 302.560856 255.560548 
L 302.864423 246.912693 
L 302.88228 246.314494 
L 303.203704 190.28595 
L 303.221561 248.760405 
L 303.900123 197.150017 
L 304.007264 254.708874 
L 304.578685 178.258285 
L 304.900109 221.478644 
L 305.382245 181.408625 
L 305.632242 274.533563 
L 305.882238 201.390669 
L 306.060807 285.29795 
L 306.435802 168.836222 
L 306.882224 211.76066 
L 307.239362 186.187929 
L 307.292933 259.956174 
L 307.864353 199.551162 
L 307.953638 251.07362 
L 308.507201 189.824775 
L 308.882196 227.620583 
L 309.060765 262.184356 
L 309.400046 191.820125 
L 309.792898 207.240012 
L 310.23932 186.929547 
L 310.721456 246.933072 
L 310.75717 195.374474 
L 311.400018 270.521477 
L 311.453589 181.162854 
L 311.739299 217.790059 
L 311.900011 178.536356 
L 312.007152 264.067603 
L 312.739285 200.898242 
L 313.578559 251.236595 
L 313.096423 180.630155 
L 313.739271 235.433573 
L 314.328548 179.973921 
L 313.989267 261.447674 
L 314.739257 203.587599 
L 315.721386 245.178446 
L 314.95354 186.542356 
L 315.7571 217.913677 
L 316.596374 174.494635 
L 315.846384 242.08232 
L 316.685658 223.247794 
L 316.703515 256.553793 
L 317.096367 169.316213 
L 317.667787 200.495836 
L 318.542775 241.933693 
L 317.774929 185.492177 
L 318.667773 208.210312 
L 319.364192 247.933167 
L 318.935627 191.999637 
L 319.48919 211.727785 
L 319.739187 185.558605 
L 320.149895 247.463463 
L 320.47132 206.055621 
L 320.578461 255.821136 
L 320.52489 178.48662 
L 321.453449 204.779934 
L 321.489162 192.103765 
L 321.899871 265.83527 
L 322.31058 215.142101 
L 322.953428 257.55331 
L 323.060569 190.802018 
L 323.328422 227.757087 
L 323.899843 182.574046 
L 323.828415 254.072583 
L 324.328408 207.439892 
L 324.506977 263.926298 
L 324.667689 180.38429 
L 325.328394 221.848071 
L 325.917672 174.76652 
L 325.953386 273.965905 
L 326.346237 199.482325 
L 326.810517 249.539056 
L 326.506949 188.104215 
L 327.346223 237.35072 
L 327.88193 180.45085 
L 328.131927 259.711393 
L 328.328352 233.164778 
L 329.060485 256.760872 
L 328.453351 170.478421 
L 329.239054 208.06032 
L 330.060471 167.014481 
L 329.828331 260.428611 
L 330.167612 216.347735 
L 330.381895 267.069489 
L 330.399752 188.797147 
L 331.167598 218.301151 
L 331.614021 179.037253 
L 331.935445 257.52771 
L 332.131871 214.196273 
L 332.917574 246.171339 
L 332.31044 174.544152 
L 333.131857 239.417786 
L 333.881846 191.630742 
L 333.667563 250.79567 
L 334.131843 193.375243 
L 334.417553 250.525851 
L 335.149685 224.127987 
L 335.47111 181.14687 
L 335.774677 248.133714 
L 336.149671 210.206133 
L 336.203242 220.690297 
L 336.185385 209.32822 
L 336.221099 217.836587 
L 337.167514 255.786802 
L 336.578237 186.615662 
L 337.221085 233.636406 
L 337.488938 187.800911 
L 337.381797 278.066017 
L 338.221071 212.099474 
L 338.667493 282.124727 
L 338.988917 180.522268 
L 339.221057 243.55049 
L 340.042474 177.23001 
L 340.167472 250.493631 
L 340.2389 198.476595 
L 340.310328 240.647796 
L 340.649608 170.860821 
L 341.238886 201.18396 
L 341.56031 263.454863 
L 342.131731 187.377541 
L 342.238872 213.944089 
L 342.721008 186.245725 
L 343.006718 262.527432 
L 343.238858 198.194287 
L 343.578139 256.81068 
L 343.453141 175.810119 
L 344.238844 212.785877 
L 344.43527 189.628243 
L 345.078118 241.045494 
L 345.113832 212.101555 
L 345.845964 247.119242 
L 345.149545 185.198636 
L 346.095961 224.641439 
L 347.042376 187.764293 
L 346.506669 247.558523 
L 347.095947 213.086158 
L 347.381657 248.896593 
L 347.31023 190.859971 
L 347.524512 226.372979 
L 347.863793 180.27613 
L 348.185217 244.881352 
L 348.506641 200.45426 
L 348.845922 265.19779 
L 349.006634 179.042425 
L 349.48877 205.306188 
L 349.506627 181.135955 
L 350.256617 257.365369 
L 350.488756 204.570106 
L 350.578041 259.466837 
L 351.060177 189.895247 
L 351.488742 220.108329 
L 351.756596 183.62503 
L 352.167304 285.370859 
L 352.488728 187.759585 
L 352.720868 264.284399 
L 353.238718 187.205152 
L 353.488714 209.054936 
L 354.185133 257.323164 
L 354.43513 182.204728 
L 354.4887 276.259123 
L 355.435116 217.472819 
L 356.292247 187.934937 
L 356.185105 244.095688 
L 356.488672 207.010282 
L 357.220805 237.155254 
L 357.149377 188.821296 
L 357.470802 205.43007 
L 358.131507 177.446826 
L 358.042222 252.107243 
L 358.327932 189.942893 
L 358.488644 269.037496 
L 358.881496 178.153008 
L 359.327918 225.472889 
L 359.667199 181.737903 
L 360.256477 263.965416 
L 360.327904 224.940254 
L 360.613615 267.717111 
L 361.220749 189.322136 
L 361.310034 224.412287 
L 362.095737 180.208764 
L 362.060023 264.780484 
L 362.31002 200.724374 
L 362.381447 253.555221 
L 362.917154 184.313388 
L 363.292149 234.053896 
L 363.613573 171.833462 
L 363.827855 252.671875 
L 364.292135 229.119721 
L 364.738557 255.781388 
L 364.95284 187.872447 
L 365.113552 219.679351 
L 365.131409 182.522369 
L 365.577831 250.412403 
L 366.113538 202.267869 
L 366.363534 181.619449 
L 366.970669 249.804625 
L 367.059953 184.22555 
L 367.809942 240.598231 
L 367.095667 181.015364 
L 368.059939 208.700325 
L 368.68493 187.181271 
L 368.417077 247.515272 
L 368.809928 211.516342 
L 369.113496 250.183429 
L 369.667059 177.31943 
L 369.792058 211.86438 
L 370.381335 190.556255 
L 370.220623 264.190575 
L 370.720616 211.250571 
L 370.845614 259.670654 
L 370.934899 180.665675 
L 371.720602 218.869524 
L 372.220595 188.553398 
L 372.238452 242.329761 
L 372.64916 210.947029 
L 373.488434 243.204481 
L 372.702731 188.614841 
L 373.649146 233.265466 
L 374.059855 190.20421 
L 374.006284 251.777607 
L 374.666989 190.292938 
L 374.809844 249.141649 
L 375.381265 185.371488 
L 375.666975 208.408379 
L 376.416965 179.025749 
L 375.952686 248.42879 
L 376.452679 203.27832 
L 377.274096 259.487084 
L 377.434808 186.625502 
L 377.452665 224.042654 
L 377.59552 178.209878 
L 377.952658 262.081068 
L 378.452651 215.480399 
L 379.149069 293.493053 
L 378.506221 180.687872 
L 379.452637 232.308738 
L 379.649062 176.159131 
L 380.184769 282.077958 
L 380.452623 221.877659 
L 380.791904 186.521155 
L 380.541907 255.150034 
L 381.452609 200.27028 
L 381.881174 246.162087 
L 381.934745 181.14006 
L 382.488308 232.433788 
L 383.149013 174.765202 
L 382.702591 240.020709 
L 383.524008 201.454148 
L 383.577579 260.393658 
L 384.059715 190.255946 
L 384.506137 248.533393 
L 385.00613 188.340037 
L 385.452553 250.39998 
L 385.506123 188.348371 
L 386.166828 262.472401 
L 385.898975 182.970334 
L 386.523966 242.788182 
L 386.55968 181.186273 
L 387.398954 273.00546 
L 387.523952 205.969875 
L 388.041802 189.497801 
L 388.11323 259.685922 
L 388.523938 196.713397 
L 388.934647 251.568542 
L 389.452497 179.447453 
L 389.523924 213.108889 
L 389.72035 185.567617 
L 390.47034 246.593683 
L 390.827477 260.166116 
L 390.666765 182.981416 
L 391.256043 204.578499 
L 391.809606 179.310264 
L 391.970319 257.755673 
L 392.202458 220.088247 
L 392.398884 260.759317 
L 392.488168 177.96468 
L 393.184587 228.153728 
L 394.041718 172.153454 
L 394.077432 254.653554 
L 394.184573 194.625119 
L 394.613139 262.017909 
L 394.309571 179.830718 
L 395.184559 222.43796 
L 396.059547 179.765037 
L 395.505983 274.124634 
L 396.148831 219.38456 
L 396.720252 252.297435 
L 397.059533 187.722369 
L 397.113104 214.071053 
L 398.023805 176.207317 
L 397.863093 267.192697 
L 398.095233 212.317663 
L 398.470228 250.509809 
L 398.130947 176.222629 
L 399.077362 231.403752 
L 399.613069 183.337772 
L 399.452357 257.151278 
L 400.095205 205.77239 
L 400.202346 249.491269 
L 400.309487 185.350465 
L 401.077334 221.458029 
L 401.755896 170.643151 
L 401.55947 255.79195 
L 402.07732 204.153437 
L 402.64874 258.644421 
L 402.809452 194.767622 
L 403.059449 230.667246 
L 403.452301 180.510201 
L 403.559442 287.446532 
L 404.059435 222.563409 
L 404.398716 187.073018 
L 404.898709 262.756693 
L 405.059421 206.051099 
L 405.862981 261.034873 
L 405.148705 179.172159 
L 406.023693 210.677161 
L 406.220119 189.265766 
L 406.112978 247.91027 
L 407.023679 205.68722 
L 407.702241 268.782216 
L 407.523672 185.982553 
L 408.059379 237.463731 
L 408.523658 183.311351 
L 409.005794 257.687551 
L 409.059365 192.328022 
L 409.916496 261.700529 
L 409.416503 180.637486 
L 410.077208 235.109796 
L 410.702199 177.773355 
L 410.416489 248.430992 
L 411.077194 194.707622 
L 411.452189 255.28116 
L 411.345047 182.642888 
L 412.095037 247.428502 
L 412.184321 185.533764 
L 413.005738 254.260027 
L 413.11288 186.329234 
L 413.970011 256.036696 
L 413.380733 174.125808 
L 414.130723 208.711816 
L 414.72 238.255254 
L 414.43429 177.275354 
L 414.72 238.255254 
" clip-path="url(#ped17fd2822)" style="fill: none; stroke: #1f77b4; stroke-opacity: 0.75; stroke-width: 1.5; stroke-linecap: square"/>
   </g>
   <g id="line2d_15">
    <path d="M 57.6 143.496108 
L 58.064279 91.315685 
L 58.028565 165.164186 
L 58.617843 121.453605 
L 58.778555 167.089716 
L 59.171407 91.934605 
L 59.617829 147.43267 
L 59.689256 81.505725 
L 60.421389 172.681994 
L 60.617815 144.567908 
L 61.04638 99.592292 
L 60.707099 156.934966 
L 61.599944 124.493973 
L 62.421361 161.671894 
L 62.349933 83.71014 
L 62.59993 141.47768 
L 62.635644 97.954196 
L 62.83207 159.715155 
L 63.63563 109.795318 
L 64.43919 159.327135 
L 64.296335 78.332562 
L 64.635616 129.820341 
L 64.778471 88.466214 
L 64.67133 161.571173 
L 65.617745 129.963659 
L 66.171309 168.311397 
L 66.207022 101.124984 
L 66.56416 139.41033 
L 67.028439 93.804636 
L 67.492719 153.056734 
L 67.564146 128.505243 
L 68.064139 168.029969 
L 68.046282 99.815249 
L 68.474848 150.261376 
L 69.028411 82.912445 
L 68.903413 166.885726 
L 69.474834 106.114535 
L 69.814115 170.237775 
L 70.153396 102.391715 
L 70.456963 145.843995 
L 70.492677 101.019748 
L 70.99267 157.259381 
L 71.456949 102.557747 
L 72.546219 165.418515 
L 71.956942 98.515914 
L 72.59979 146.032905 
L 73.439064 94.487765 
L 72.8855 170.610662 
L 73.599776 118.310898 
L 73.760488 161.793968 
L 74.171197 94.648233 
L 74.617619 143.447463 
L 75.010471 87.75508 
L 75.153326 156.878661 
L 75.617605 132.478982 
L 75.742603 159.94117 
L 76.010457 82.567511 
L 76.617591 150.48656 
L 77.546149 75.701149 
L 77.278296 163.882994 
L 77.617577 111.896888 
L 78.081856 164.302429 
L 77.83186 87.103125 
L 78.617563 137.456134 
L 79.188983 101.311637 
L 79.242554 158.859009 
L 79.635406 109.539151 
L 79.849688 169.495273 
L 80.010401 89.903526 
L 80.635392 152.537673 
L 81.224669 84.399144 
L 80.831818 160.845105 
L 81.635378 134.984185 
L 82.438938 101.95713 
L 82.36751 163.871902 
L 82.617507 147.993364 
L 83.599636 86.111532 
L 83.331783 163.02124 
L 83.617493 136.336085 
L 84.510338 154.820215 
L 83.671064 96.314589 
L 84.599622 143.853994 
L 84.992474 65.658584 
L 84.831762 158.323996 
L 85.599608 132.388246 
L 86.331741 168.955589 
L 86.456739 89.093844 
L 86.581737 131.991221 
L 86.778163 91.535561 
L 87.31387 162.33422 
L 87.563866 135.062309 
L 87.83172 161.397374 
L 88.242428 93.475679 
L 88.545995 123.653018 
L 88.974561 167.887096 
L 89.224557 92.78918 
L 89.456697 127.886319 
L 89.831692 97.659975 
L 89.617409 162.906592 
L 90.438826 138.327278 
L 90.742393 162.049893 
L 90.510254 105.657008 
L 91.099531 131.987636 
L 91.724522 97.502084 
L 91.938805 171.567846 
L 92.08166 130.520398 
L 92.295943 160.848848 
L 92.456655 87.638481 
L 93.045932 137.361226 
L 93.313786 85.51894 
L 93.528068 166.841538 
L 94.045918 131.268583 
L 95.010191 154.038525 
L 94.95662 83.311091 
L 95.028047 116.634683 
L 95.47447 157.668938 
L 95.456613 88.387942 
L 96.04589 131.249661 
L 96.224459 159.948609 
L 96.438742 96.561526 
L 96.938735 134.959582 
L 96.956592 84.565149 
L 97.099447 158.310714 
L 97.938721 102.239248 
L 98.170861 170.757402 
L 97.992292 83.222108 
L 98.938707 142.915514 
L 99.920836 97.996052 
L 99.367272 172.87833 
L 99.938693 116.582827 
L 100.581541 163.381343 
L 100.813681 99.240943 
L 100.974393 131.089396 
L 101.242246 159.179446 
L 101.081534 105.980783 
L 101.349387 135.208389 
L 101.402958 89.08258 
L 102.027949 166.41193 
L 102.349373 133.179272 
L 103.063649 165.705134 
L 102.581513 93.080633 
L 103.349359 146.533729 
L 103.545785 92.558537 
L 103.813639 170.115203 
L 104.367202 105.614926 
L 104.510058 161.724502 
L 105.027907 81.40461 
L 105.367188 139.007314 
L 106.224319 94.700731 
L 106.010037 159.911189 
L 106.367174 125.584855 
L 107.135021 164.059805 
L 107.31359 77.100881 
L 107.349303 112.946136 
L 107.402874 159.156234 
L 108.295719 83.852963 
L 108.884996 168.854127 
L 108.474288 80.355763 
L 109.313562 146.854422 
L 110.295691 78.960274 
L 110.259977 157.896075 
L 110.313548 134.274457 
L 110.724256 96.103889 
L 110.742113 164.54929 
L 111.295677 129.340467 
L 111.599244 176.548028 
L 111.992096 85.381394 
L 112.277806 141.834147 
L 112.956368 79.609635 
L 112.36709 175.647506 
L 113.277792 134.95241 
L 113.777785 158.503736 
L 113.384933 95.265833 
L 114.277778 155.86531 
L 115.259907 99.907609 
L 114.474204 162.940872 
L 115.295621 114.472389 
L 115.938469 166.367788 
L 115.617045 103.205345 
L 116.295607 130.782504 
L 116.492033 100.684203 
L 116.777743 167.939646 
L 117.188451 123.402612 
L 117.545589 167.761897 
L 117.670588 97.017636 
L 118.188437 145.931683 
L 119.027711 82.716303 
L 119.063425 169.37811 
L 119.188423 114.661619 
L 119.20628 164.480926 
L 119.241994 69.748419 
L 120.188409 127.517196 
L 120.99197 105.683837 
L 120.349121 168.752977 
L 121.027683 140.460288 
L 121.081254 170.51112 
L 121.56339 80.099294 
L 121.974099 143.261964 
L 122.670518 79.137001 
L 122.616947 158.661155 
L 122.991942 94.514132 
L 123.509791 165.342493 
L 123.331223 84.675276 
L 124.009784 163.1994 
L 125.134769 100.987901 
L 124.116926 170.779449 
L 125.170483 131.370077 
L 125.670476 161.905452 
L 125.813331 99.226686 
L 126.116898 125.351188 
L 126.188325 60.079663 
L 127.027599 160.616815 
L 127.099027 156.421552 
L 127.938301 92.763457 
L 127.152598 172.776063 
L 128.11687 118.214956 
L 128.241868 166.338284 
L 128.759718 97.351694 
L 129.134713 156.095402 
L 129.456137 88.123887 
L 129.688276 162.692083 
L 130.134699 110.741326 
L 130.438266 164.303 
L 131.027543 106.1299 
L 131.134685 123.263736 
L 131.206112 158.937566 
L 131.920388 75.015951 
L 132.098957 134.368511 
L 132.384667 77.156833 
L 133.027515 158.348054 
L 133.098943 124.381615 
L 133.366796 171.403182 
L 133.331083 102.928958 
L 134.081072 131.35238 
L 134.134643 100.858862 
L 134.295355 170.258813 
L 135.063201 134.692541 
L 135.081058 134.881887 
L 135.509623 167.11286 
L 135.402482 102.805768 
L 136.063187 147.331866 
L 136.616751 107.115462 
L 136.259613 166.591175 
L 137.08103 117.081099 
L 137.098887 158.90891 
L 137.384597 93.738134 
L 138.081016 155.082551 
L 138.295299 102.627375 
L 138.438154 173.719619 
L 139.116716 109.779731 
L 140.080988 165.937479 
L 139.938133 100.462256 
L 140.116702 110.414021 
L 140.902405 167.537807 
L 140.348841 95.509606 
L 141.116688 145.480026 
L 141.634538 93.367911 
L 141.79525 173.659779 
L 142.116674 134.565142 
L 142.295243 157.697582 
L 142.420241 81.733487 
L 142.866663 117.184473 
L 143.080946 97.41959 
L 143.509511 157.265746 
L 143.848792 130.142319 
L 144.063075 156.792572 
L 144.330929 100.287635 
L 144.72378 129.343732 
L 145.277344 93.290941 
L 144.777351 169.913302 
L 145.705909 133.357907 
L 145.884478 168.872569 
L 146.509469 106.658427 
L 146.634468 170.094234 
L 146.884464 93.751948 
L 147.527312 166.497969 
L 147.563026 75.006437 
L 148.527298 136.850413 
L 149.241574 163.078516 
L 149.295145 95.622346 
L 149.491571 133.483775 
L 150.152276 89.891443 
L 149.598712 161.387005 
L 150.491557 127.264505 
L 150.741553 165.5682 
L 151.170119 105.395705 
L 151.491543 130.931065 
L 152.116534 98.455782 
L 151.884394 165.53715 
L 152.491529 115.56941 
L 153.152234 167.56506 
L 152.920094 94.13739 
L 153.509371 156.288988 
L 153.812939 89.201061 
L 154.080792 159.146146 
L 154.527214 119.413398 
L 154.545071 160.488101 
L 155.47363 77.439497 
L 155.509343 156.860761 
L 155.99148 80.830353 
L 156.080764 166.309125 
L 156.509329 134.469276 
L 156.634328 80.750125 
L 157.045036 170.477476 
L 157.491459 134.914326 
L 157.741455 164.460753 
L 157.848596 105.239989 
L 158.420017 132.142925 
L 158.902153 94.002505 
L 159.348575 162.396951 
L 159.420003 131.969875 
L 159.562858 171.329831 
L 160.205706 87.564557 
L 160.402132 127.836744 
L 160.723556 162.586275 
L 160.687842 110.365158 
L 161.294977 139.727507 
L 161.56283 88.761111 
L 161.759256 156.900477 
L 162.294963 134.322153 
L 163.009238 92.448776 
L 162.919954 160.454693 
L 163.277092 119.640178 
L 164.080652 169.007042 
L 164.116366 93.028259 
L 164.259221 142.035734 
L 164.919926 100.599136 
L 164.669929 165.876959 
L 165.259207 139.48625 
L 165.919912 96.610347 
L 166.080624 169.130219 
L 166.241336 161.083265 
L 166.56276 98.837862 
L 166.634188 170.620195 
L 167.259179 130.449188 
L 167.866313 167.933421 
L 167.741315 91.554412 
L 168.259165 140.640314 
L 168.848442 86.152063 
L 168.955584 157.858197 
L 169.259151 113.330196 
L 170.116282 159.808525 
L 170.026997 81.885093 
L 170.276994 135.319418 
L 170.312708 157.602879 
L 170.776987 74.36764 
L 171.187695 145.335676 
L 171.491263 84.217921 
L 171.401978 168.916448 
L 172.187681 143.911618 
L 172.901957 89.26708 
L 172.294823 153.40101 
L 173.205524 118.632909 
L 173.491235 159.956021 
L 173.776945 86.477369 
L 174.20551 119.351794 
L 174.544791 87.675883 
L 174.241224 164.336849 
L 175.098355 147.420782 
L 175.348351 160.073166 
L 175.223353 95.668445 
L 176.080484 148.413661 
L 176.937615 96.261765 
L 176.901901 156.45001 
L 177.08047 136.756012 
L 177.616177 158.188248 
L 177.562606 75.168774 
L 178.044742 132.887998 
L 178.63402 98.176208 
L 178.294739 151.450546 
L 179.026871 104.278081 
L 179.937573 158.964957 
L 179.884002 82.486208 
L 180.009 132.399907 
L 180.812561 86.256709 
L 180.366138 163.695976 
L 181.008986 126.86144 
L 181.991116 159.837791 
L 181.758976 101.663148 
L 182.008972 139.922071 
L 182.241112 87.592904 
L 182.794676 152.851156 
L 182.973245 131.975655 
L 183.68752 164.974742 
L 183.187527 86.80627 
L 183.937517 147.12047 
L 184.401796 156.643129 
L 184.95536 98.926378 
L 185.901775 173.360307 
L 185.741063 94.136937 
L 185.973203 149.051107 
L 186.937475 92.000958 
L 186.455339 166.032783 
L 186.973189 148.866706 
L 187.544609 84.818108 
L 187.866033 159.710817 
L 187.973175 113.85527 
L 188.598166 160.093361 
L 188.794592 102.456195 
L 188.973161 150.50116 
L 189.758864 92.56636 
L 189.098159 153.360016 
L 189.973147 124.358953 
L 190.276714 161.9805 
L 190.580281 107.50451 
L 190.973133 126.943573 
L 191.026703 108.757605 
L 191.04456 165.511814 
L 191.705265 130.699063 
L 192.562396 156.17624 
L 191.758836 97.521013 
L 192.687394 137.046028 
L 192.848106 74.472878 
L 193.365956 158.397581 
L 193.669523 112.089625 
L 194.473084 159.956439 
L 194.633796 84.111228 
L 194.669509 137.774746 
L 195.098075 98.60635 
L 195.044504 166.379577 
L 195.651639 141.914232 
L 196.348057 161.392387 
L 196.27663 98.875523 
L 196.56234 125.679666 
L 196.705195 164.496851 
L 197.580183 84.220326 
L 198.223031 165.864265 
L 198.580169 113.072976 
L 199.330159 162.460487 
L 199.080162 80.121986 
L 199.580155 118.209221 
L 199.651583 94.314562 
L 199.919436 169.18897 
L 200.508713 133.100777 
L 201.097991 161.9606 
L 201.294417 96.600307 
L 201.508699 133.429387 
L 202.31226 96.636138 
L 202.026549 168.668572 
L 202.508685 128.198816 
L 202.794396 91.391354 
L 202.669397 161.862581 
L 203.133677 121.603177 
L 203.883666 158.764252 
L 203.722954 90.036884 
L 204.115806 136.562278 
L 205.080078 67.602392 
L 204.740797 169.772329 
L 205.097935 119.492832 
L 205.865781 158.279478 
L 205.740783 83.555674 
L 206.097921 143.469962 
L 206.79434 159.686553 
L 207.097907 87.020769 
L 207.508615 153.572845 
L 207.205048 86.724397 
L 208.097893 115.845266 
L 208.651457 81.469973 
L 208.990738 165.322856 
L 209.080022 116.476662 
L 209.544301 164.910396 
L 209.740727 95.437321 
L 210.080008 129.912035 
L 210.865711 79.332631 
L 210.651429 170.283985 
L 211.026423 142.272591 
L 211.419275 161.736281 
L 211.740699 84.064838 
L 212.008552 139.676475 
L 212.097837 92.65675 
L 212.651401 159.752695 
L 213.008538 135.653526 
L 213.329962 163.877743 
L 213.526388 84.022393 
L 214.008524 151.955128 
L 214.419233 99.716953 
L 214.347805 168.050037 
L 215.044224 111.463492 
L 215.079938 154.568123 
L 215.52636 85.729156 
L 216.062067 132.596132 
L 216.079924 132.581442 
L 216.347777 157.286253 
L 216.526346 91.897565 
L 216.919198 121.554515 
L 217.329906 81.550964 
L 217.097767 169.127951 
L 217.901327 124.913417 
L 218.63346 159.33713 
L 218.68703 88.950453 
L 218.901313 141.286092 
L 219.312022 62.245682 
L 219.883442 158.368673 
L 219.901299 120.267263 
L 220.383435 165.148358 
L 220.579861 78.107146 
L 220.919142 131.919214 
L 221.311994 81.362152 
L 221.32985 162.618705 
L 221.901271 138.956256 
L 222.294123 101.29952 
L 222.758402 158.995886 
L 222.776259 146.94822 
L 223.365536 162.354936 
L 223.544105 93.931612 
L 223.704817 143.504403 
L 223.722674 93.765131 
L 224.097669 168.377599 
L 224.704803 131.591774 
L 225.169082 155.915176 
L 225.490507 89.322347 
L 225.633362 150.917936 
L 226.133355 63.791783 
L 226.544063 161.830368 
L 226.633348 126.901192 
L 227.008342 164.54801 
L 226.704775 105.593033 
L 227.633334 147.42696 
L 227.740475 79.00533 
L 228.026185 159.726882 
L 228.63332 142.142713 
L 229.026171 93.429485 
L 229.401166 165.188918 
L 229.651163 119.435234 
L 229.95473 172.322268 
L 230.204726 83.833594 
L 230.686862 148.43589 
L 231.579707 73.792608 
L 231.240426 159.30847 
L 231.668991 116.156678 
L 232.204698 168.136572 
L 232.026129 78.21094 
L 232.668977 134.337438 
L 233.472538 101.791085 
L 232.901117 167.780217 
L 233.668963 133.607348 
L 234.651093 80.383538 
L 234.079672 160.01121 
L 234.668949 124.104787 
L 235.543937 168.694441 
L 234.918946 91.861706 
L 235.668935 146.068188 
L 235.776077 95.052292 
L 236.311784 158.610266 
L 236.668921 122.57667 
L 237.222485 162.018768 
L 237.133201 84.28288 
L 237.668907 124.350232 
L 237.686764 62.316824 
L 238.204614 166.854087 
L 238.651037 128.496067 
L 239.329598 161.974274 
L 238.793892 90.275967 
L 239.597452 158.069247 
L 240.561724 90.043863 
L 240.258157 159.602453 
L 240.597438 126.870234 
L 241.115288 86.059282 
L 240.793864 161.404434 
L 241.615281 112.665926 
L 241.900991 160.865572 
L 241.84742 96.198296 
L 242.615267 148.372841 
L 242.811693 93.399521 
L 243.079546 159.267801 
L 243.63311 122.890552 
L 244.418813 160.182814 
L 243.811679 91.295399 
L 244.561668 134.913071 
L 244.883092 89.656863 
L 245.543797 163.296083 
L 245.561654 94.559147 
L 246.133075 163.076367 
L 246.56164 130.103412 
L 247.025919 98.767557 
L 246.972349 167.264082 
L 247.454485 107.856721 
L 248.097333 164.749663 
L 248.222331 83.236519 
L 248.454471 133.379958 
L 249.15089 93.912202 
L 248.68661 159.840163 
L 249.418743 144.436282 
L 249.990164 161.255762 
L 249.793738 97.757896 
L 250.400872 136.354613 
L 250.543727 162.372154 
L 250.883008 94.351648 
L 251.186575 142.97118 
L 251.32943 98.157751 
L 252.097277 154.436702 
L 252.186561 142.064853 
L 252.240132 74.182673 
L 252.400844 155.174895 
L 253.204404 118.489271 
L 253.882966 163.508533 
L 254.168676 81.737283 
L 254.20439 119.830573 
L 254.686526 77.453284 
L 254.329388 165.571041 
L 255.150806 126.573531 
L 255.650799 167.102245 
L 255.275804 97.627727 
L 256.132935 117.397494 
L 256.740069 156.714434 
L 256.436502 86.980503 
L 257.150778 132.477492 
L 257.847196 95.284679 
L 258.097193 167.25437 
L 258.150764 108.103313 
L 258.668613 162.41723 
L 258.275762 97.232552 
L 259.15075 123.233688 
L 259.865025 97.742979 
L 259.95431 170.820429 
L 260.115022 145.504596 
L 260.311448 161.832971 
L 261.04358 97.204705 
L 261.097151 143.258966 
L 261.704285 90.721243 
L 261.686428 170.842173 
L 262.07928 134.26686 
L 262.186421 163.268301 
L 262.114994 107.985001 
L 263.079266 144.991644 
L 263.989967 98.496518 
L 263.239978 159.304485 
L 264.079252 108.322264 
L 264.632816 163.120487 
L 264.168536 95.585765 
L 265.097095 131.372285 
L 265.597088 96.297269 
L 265.650659 170.968129 
L 266.079224 131.507312 
L 266.686358 158.564465 
L 266.364934 92.144441 
L 267.025639 121.768091 
L 267.07921 84.956305 
L 267.132781 166.320177 
L 267.918484 104.349948 
L 268.525618 161.727665 
L 268.793472 94.023236 
L 268.91847 138.344598 
L 269.650603 165.932669 
L 269.293465 94.381315 
L 269.757744 141.228284 
L 269.811315 86.189912 
L 270.489876 166.736096 
L 270.75773 132.068667 
L 270.900585 166.260514 
L 271.347007 94.227004 
L 271.757716 137.938256 
L 272.650561 94.295747 
L 272.632704 162.31285 
L 272.757702 134.672977 
L 273.68626 78.738014 
L 273.275552 165.789209 
L 273.757688 128.527586 
L 274.239824 159.450182 
L 274.15054 96.758483 
L 274.739817 108.01353 
L 275.632662 96.087663 
L 275.75766 174.254508 
L 275.900515 62.039638 
L 276.757646 124.039128 
L 276.775503 124.260975 
L 277.614777 159.458289 
L 277.721918 73.560189 
L 277.757632 125.792848 
L 277.900487 80.808733 
L 278.650477 157.089858 
L 278.68619 112.984411 
L 278.704047 155.127034 
L 279.346895 93.882134 
L 279.686176 128.093498 
L 279.882602 164.854765 
L 279.775461 94.989966 
L 280.686162 154.000307 
L 280.918302 87.229104 
L 280.75759 158.881308 
L 281.686148 131.471047 
L 282.293283 166.420093 
L 282.186141 85.943328 
L 282.703991 161.5946 
L 283.453981 100.922603 
L 283.150414 168.20189 
L 283.703977 131.427426 
L 284.1504 178.755475 
L 284.025401 99.124028 
L 284.703963 145.70519 
L 284.793248 93.313441 
L 285.47181 162.840708 
L 285.703949 106.61238 
L 286.453939 165.541474 
L 285.739663 74.486278 
L 286.703935 148.832314 
L 287.168214 89.32985 
L 287.239642 170.981889 
L 287.703921 124.16187 
L 288.382483 160.065856 
L 288.453911 106.241226 
L 288.668193 136.10344 
L 289.596752 84.840516 
L 288.757478 158.61785 
L 289.650323 137.588336 
L 289.703893 160.247611 
L 289.989603 76.969395 
L 290.596738 121.194886 
L 291.168158 77.04966 
L 291.400298 163.977883 
L 291.525296 121.491491 
L 292.382427 99.130538 
L 292.525282 167.831 
L 292.793136 84.419375 
L 293.543125 121.224653 
L 294.043118 172.786917 
L 294.007404 87.229786 
L 294.560968 145.130625 
L 295.418099 96.849338 
L 295.47167 180.426176 
L 295.543097 125.101002 
L 296.114518 173.785454 
L 296.007376 86.392689 
L 296.525226 116.98513 
L 296.775223 78.849474 
L 297.346643 162.936902 
L 297.489498 137.36971 
L 298.025205 79.139044 
L 297.632354 169.070563 
L 298.489484 127.973984 
L 299.168046 159.169146 
L 298.775195 83.615718 
L 299.48947 143.936685 
L 300.025177 53.568 
L 299.935893 168.041609 
L 300.489456 107.522252 
L 301.364444 167.867212 
L 301.418015 95.637222 
L 301.489442 128.594859 
L 302.382287 97.095657 
L 302.400144 159.559681 
L 302.471572 119.321756 
L 302.614427 165.63325 
L 303.060849 105.134444 
L 303.435844 134.831395 
L 303.453701 94.131275 
L 304.382259 161.437209 
L 304.43583 107.895392 
L 304.846538 164.024029 
L 304.95368 88.853218 
L 305.47153 132.449283 
L 305.989379 90.938323 
L 306.364374 164.614988 
L 306.435802 130.242518 
L 306.685798 161.066055 
L 306.917938 89.966441 
L 307.417931 120.05917 
L 307.542929 90.938868 
L 308.078636 161.414445 
L 308.364346 125.505182 
L 308.6322 171.204625 
L 308.91791 98.014946 
L 309.328618 137.074216 
L 309.346475 82.539028 
L 309.917896 184.719692 
L 310.328604 132.349959 
L 310.75717 90.083672 
L 311.132165 170.994435 
L 311.32859 110.563995 
L 311.917868 99.766506 
L 312.31072 165.353998 
L 312.935711 75.94654 
L 313.310706 137.047658 
L 313.453561 91.255215 
L 314.149979 168.562489 
L 314.310692 103.471376 
L 314.43569 166.191789 
L 314.685686 102.907952 
L 315.328534 156.484396 
L 316.310664 101.883629 
L 316.346377 128.946117 
L 316.364234 158.748277 
L 316.542803 101.5434 
L 317.31065 142.081405 
L 317.578503 169.107139 
L 318.310636 73.610338 
L 318.507061 175.788597 
L 319.310622 155.675977 
L 319.48919 88.536582 
L 320.328464 102.950939 
L 320.47132 84.294093 
L 321.382021 167.376427 
L 322.203438 82.291502 
L 321.56059 168.165885 
L 322.382007 115.441929 
L 322.667717 167.487838 
L 323.078426 88.865924 
L 323.417707 156.857219 
L 323.435564 157.099788 
L 324.221267 90.702028 
L 324.43555 141.17648 
L 324.846258 151.245851 
L 325.167682 97.562226 
L 325.381965 129.488116 
L 325.810531 94.103896 
L 325.649818 157.329042 
L 325.989099 144.411752 
L 326.739089 164.002052 
L 326.685518 81.419719 
L 326.917658 116.205092 
L 326.935515 82.916184 
L 327.756932 170.871452 
L 327.88193 118.092487 
L 327.971215 169.997587 
L 328.328352 79.55465 
L 328.881916 133.036709 
L 329.292625 104.052905 
L 329.20334 159.881045 
L 329.792618 110.904526 
L 330.506893 168.96436 
L 330.364038 91.737839 
L 330.792604 143.478297 
L 331.739019 88.732396 
L 331.596164 156.955179 
L 331.774733 137.173087 
L 331.828303 165.658799 
L 331.810447 91.508908 
L 332.739005 121.194333 
L 333.39971 78.030729 
L 333.506851 163.202072 
L 333.721134 129.016491 
L 334.310412 174.442456 
L 334.649692 103.0902 
L 334.72112 137.18111 
L 334.828261 154.554856 
L 335.185399 104.445076 
L 335.667535 141.551167 
L 335.917532 97.733613 
L 336.363954 159.764991 
L 336.649664 123.497539 
L 337.042516 159.578086 
L 337.131801 96.698641 
L 337.64965 151.128226 
L 338.560352 159.726729 
L 338.649636 99.279137 
L 339.221057 166.893189 
L 339.685336 163.499619 
L 340.363898 54.467625 
L 340.060331 165.678554 
L 340.685322 135.471157 
L 340.881748 173.691423 
L 340.988889 93.306494 
L 341.667451 139.292399 
L 341.828163 165.115223 
L 342.667437 92.775513 
L 343.488854 154.27043 
L 343.649566 90.098047 
L 343.68528 146.770648 
L 344.685266 96.827519 
L 344.381699 165.814306 
L 344.703123 103.557635 
L 345.506683 165.80315 
L 345.256687 82.860426 
L 345.703109 127.654498 
L 345.917392 87.382719 
L 346.149531 172.060883 
L 346.381671 125.718396 
L 346.399528 167.961536 
L 347.292373 75.507208 
L 347.381657 159.001395 
L 347.399514 165.950939 
L 348.006648 83.803247 
L 348.256645 122.002869 
L 348.988777 71.394856 
L 348.613783 162.810259 
L 349.238774 143.22219 
L 349.667339 161.740109 
L 349.292345 98.311857 
L 350.167332 149.681336 
L 351.060177 59.286258 
L 351.024463 162.830981 
L 351.167318 131.957546 
L 351.738739 86.800718 
L 351.56017 163.595174 
L 352.131591 127.761733 
L 353.042292 161.506422 
L 352.631584 93.821494 
L 353.095863 104.153706 
L 353.68514 65.578689 
L 353.542285 160.117462 
L 353.988707 136.692265 
L 354.024421 160.613245 
L 354.363702 76.439761 
L 354.881552 147.102944 
L 355.417259 78.538421 
L 354.988693 161.771276 
L 355.881538 124.071828 
L 356.452959 169.371081 
L 356.27439 91.661461 
L 356.827953 145.006963 
L 357.435088 88.76718 
L 357.167234 167.156118 
L 357.827939 134.598819 
L 358.024365 86.12111 
L 358.68507 165.748932 
L 358.881496 105.303071 
L 359.274348 166.618746 
L 359.631486 99.165672 
L 359.881482 144.95032 
L 360.327904 168.986525 
L 360.881468 89.813812 
L 360.970753 160.818661 
L 361.470746 81.419576 
L 361.881454 159.272922 
L 362.738585 99.528132 
L 362.149307 161.443422 
L 362.88144 147.465641 
L 362.899297 158.631969 
L 363.238578 84.402569 
L 363.827855 130.939356 
L 363.845712 105.258572 
L 364.738557 161.485822 
L 364.827841 129.402444 
L 365.095695 100.101661 
L 365.059981 163.973883 
L 365.827827 121.801276 
L 366.27425 162.220402 
L 366.434962 92.29731 
L 366.827813 128.061537 
L 367.059953 85.36718 
L 366.934955 159.646217 
L 367.792086 144.054865 
L 367.809942 144.089224 
L 368.202794 159.14744 
L 368.470648 95.178842 
L 368.667073 130.48871 
L 369.506347 74.119528 
L 369.292065 160.851151 
L 369.667059 122.388702 
L 369.917056 169.742632 
L 369.792058 81.872539 
L 370.667045 143.265357 
L 371.309893 91.491391 
L 371.131325 160.816328 
L 371.649174 124.451616 
L 372.452735 172.51674 
L 371.863457 85.767219 
L 372.64916 149.996302 
L 372.774159 169.988365 
L 372.702731 113.645245 
L 372.845586 132.309213 
L 372.970585 92.090487 
L 373.131297 167.3669 
L 373.827715 133.045898 
L 373.899143 155.827584 
L 373.970571 92.143315 
L 374.809844 135.937978 
L 375.399122 89.393988 
L 375.75626 158.930164 
L 375.791974 123.715674 
L 376.149111 174.721407 
L 376.666961 87.13627 
L 376.79196 125.568487 
L 377.095527 98.730954 
L 377.506235 158.322813 
L 377.631234 135.320657 
L 377.64909 165.467417 
L 377.970515 107.590981 
L 378.595506 125.932774 
L 378.613363 95.087585 
L 378.970501 166.442467 
L 379.595492 112.022729 
L 380.309767 163.581641 
L 379.649062 82.522306 
L 380.595478 152.646407 
L 381.399038 97.678008 
L 381.309753 171.242262 
L 381.613321 111.76829 
L 381.881174 158.384917 
L 382.309739 78.550583 
L 382.613307 120.07701 
L 382.791876 158.527827 
L 382.702591 91.25479 
L 383.613293 138.364791 
L 383.934717 82.669407 
L 383.881146 158.008741 
L 384.595422 126.011265 
L 384.631136 162.239169 
L 384.881132 86.254635 
L 385.595408 126.581249 
L 386.595394 157.455297 
L 386.184685 89.642998 
L 386.613251 143.30082 
L 386.881104 167.96276 
L 386.684678 94.941847 
L 387.559666 149.167031 
L 388.202514 83.091974 
L 387.845376 165.318592 
L 388.559652 148.12275 
L 388.934647 82.257318 
L 388.970361 166.036911 
L 389.559638 127.83067 
L 389.845348 171.178007 
L 389.72035 95.160255 
L 390.559624 151.118544 
L 391.059617 100.765193 
L 391.184615 162.016158 
L 391.55961 135.243721 
L 392.36317 164.011728 
L 391.84532 83.671743 
L 392.541739 130.323641 
L 392.577453 96.862695 
L 393.16673 170.900528 
L 393.523868 130.736282 
L 393.577439 142.049495 
L 393.559582 118.21949 
L 393.613153 122.109752 
L 394.345285 101.026602 
L 394.452427 158.513242 
L 394.541711 131.42753 
L 395.130989 166.319673 
L 395.327414 107.664337 
L 395.505983 140.838848 
L 395.738123 81.705901 
L 396.345257 161.14848 
L 396.488112 140.887358 
L 396.55954 158.105888 
L 396.809536 102.813332 
L 397.416671 126.607518 
L 398.095233 92.64393 
L 397.988091 168.785095 
L 398.3988 121.967006 
L 398.720224 157.538436 
L 398.880936 78.494138 
L 399.398786 133.225207 
L 399.559498 99.409919 
L 399.755924 168.437387 
L 400.380915 100.780684 
L 400.4702 169.741775 
L 401.363044 81.161072 
L 401.380901 101.248103 
L 402.059463 157.299225 
L 402.184461 76.259262 
L 402.380887 127.480134 
L 402.577313 73.483248 
L 402.738025 159.612004 
L 403.380873 114.100468 
L 403.470158 162.36053 
L 404.166576 98.901292 
L 404.398716 136.091699 
L 404.630856 177.98345 
L 404.916566 95.930087 
L 405.273704 130.253012 
L 405.291561 96.084955 
L 405.773697 163.079703 
L 406.27369 130.136156 
L 406.487972 93.323174 
L 406.398688 173.273301 
L 407.237962 99.707273 
L 407.666527 160.478405 
L 408.237948 136.856082 
L 409.130793 76.066089 
L 408.559372 157.137095 
L 409.220077 105.185337 
L 409.612929 157.444593 
L 409.380789 99.124135 
L 410.23792 149.821763 
L 410.505773 161.034262 
L 411.237906 87.955232 
L 411.702185 169.991145 
L 412.237892 136.768328 
L 412.523602 72.980604 
L 412.773599 159.674615 
L 413.255735 102.556738 
L 413.6843 159.50723 
L 413.648586 70.664294 
L 414.255721 133.206338 
L 414.291435 93.912159 
L 414.505717 157.328909 
L 414.72 147.417984 
" clip-path="url(#ped17fd2822)" style="fill: none; stroke: #1f77b4; stroke-opacity: 0.75; stroke-width: 1.5; stroke-linecap: square"/>
   </g>
   <g id="patch_3">
    <path d="M 57.6 307.584 
L 57.6 41.472 
" style="fill: none; stroke: #000000; stroke-width: 0.8; stroke-linejoin: miter; stroke-linecap: square"/>
   </g>
   <g id="patch_4">
    <path d="M 414.72 307.584 
L 414.72 41.472 
" style="fill: none; stroke: #000000; stroke-width: 0.8; stroke-linejoin: miter; stroke-linecap: square"/>
   </g>
   <g id="patch_5">
    <path d="M 57.6 307.584 
L 414.72 307.584 
" style="fill: none; stroke: #000000; stroke-width: 0.8; stroke-linejoin: miter; stroke-linecap: square"/>
   </g>
   <g id="patch_6">
    <path d="M 57.6 41.472 
L 414.72 41.472 
" style="fill: none; stroke: #000000; stroke-width: 0.8; stroke-linejoin: miter; stroke-linecap: square"/>
   </g>
  </g>
 </g>
 <defs>
  <clipPath id="ped17fd2822">
   <rect x="57.6" y="41.472" width="357.12" height="266.112"/>
  </clipPath>
 </defs>
</svg>
