<svg xmlns="http://www.w3.org/2000/svg" xmlns:xlink="http://www.w3.org/1999/xlink" contentStyleType="text/css" data-diagram-type="SEQUENCE" height="271px" preserveAspectRatio="none" style="width:1095px;height:271px;background:#FFFFFF;" version="1.1" viewBox="0 0 1095 271" width="1095px" zoomAndPan="magnify"><title>After Fix: Aligned Multi-line Text</title><defs/><g><text fill="#000000" font-family="sans-serif" font-size="14" font-weight="bold" lengthAdjust="spacing" textLength="258.2686" x="417.7803" y="27.9951">After Fix: Aligned Multi-line Text</text><g><title>UserInput</title><rect fill="transparent" height="162.2656" width="8" x="42.0806" y="73.5938"/><line style="stroke:#181818;stroke-width:0.5;stroke-dasharray:5.0,5.0;" x1="46" x2="46" y1="73.5938" y2="235.8594"/></g><g><title>Text Object (text.py)</title><rect fill="transparent" height="162.2656" width="8" x="173.0903" y="73.5938"/><line style="stroke:#181818;stroke-width:0.5;stroke-dasharray:5.0,5.0;" x1="176.1611" x2="176.1611" y1="73.5938" y2="235.8594"/></g><g><title>Check for MathText</title><rect fill="transparent" height="162.2656" width="8" x="338.6079" y="73.5938"/><line style="stroke:#181818;stroke-width:0.5;stroke-dasharray:5.0,5.0;" x1="342.0195" x2="342.0195" y1="73.5938" y2="235.8594"/></g><g><title>exist_math?</title><rect fill="transparent" height="162.2656" width="8" x="473.4868" y="73.5938"/><line style="stroke:#181818;stroke-width:0.5;stroke-dasharray:5.0,5.0;" x1="477.1963" x2="477.1963" y1="73.5938" y2="235.8594"/></g><g><title>draw_mathtext()</title><rect fill="transparent" height="162.2656" width="8" x="598.3032" y="73.5938"/><line style="stroke:#181818;stroke-width:0.5;stroke-dasharray:5.0,5.0;" x1="601.7773" x2="601.7773" y1="73.5938" y2="235.8594"/></g><g><title>draw_text()</title><rect fill="transparent" height="162.2656" width="8" x="721.0654" y="73.5938"/><line style="stroke:#181818;stroke-width:0.5;stroke-dasharray:5.0,5.0;" x1="724.8291" x2="724.8291" y1="73.5938" y2="235.8594"/></g><g><title>Backend Renderer (Agg)</title><rect fill="transparent" height="162.2656" width="8" x="871.4893" y="73.5938"/><line style="stroke:#181818;stroke-width:0.5;stroke-dasharray:5.0,5.0;" x1="875.3018" x2="875.3018" y1="73.5938" y2="235.8594"/></g><g><title>Output Figure</title><rect fill="transparent" height="162.2656" width="8" x="1030.2529" y="73.5938"/><line style="stroke:#181818;stroke-width:0.5;stroke-dasharray:5.0,5.0;" x1="1033.6768" x2="1033.6768" y1="73.5938" y2="235.8594"/></g><rect fill="#E2E2F0" height="30.2969" rx="2.5" ry="2.5" style="stroke:#181818;stroke-width:0.5;" width="82.1611" x="5" y="42.2969"/><text fill="#000000" font-family="sans-serif" font-size="14" lengthAdjust="spacing" textLength="68.1611" x="12" y="62.292">UserInput</text><rect fill="#E2E2F0" height="30.2969" rx="2.5" ry="2.5" style="stroke:#181818;stroke-width:0.5;" width="82.1611" x="5" y="234.8594"/><text fill="#000000" font-family="sans-serif" font-size="14" lengthAdjust="spacing" textLength="68.1611" x="12" y="254.8545">UserInput</text><rect fill="#E2E2F0" height="30.2969" rx="2.5" ry="2.5" style="stroke:#181818;stroke-width:0.5;" width="159.8584" x="97.1611" y="42.2969"/><text fill="#000000" font-family="sans-serif" font-size="14" lengthAdjust="spacing" textLength="145.8584" x="104.1611" y="62.292">Text Object (text.py)</text><rect fill="#E2E2F0" height="30.2969" rx="2.5" ry="2.5" style="stroke:#181818;stroke-width:0.5;" width="159.8584" x="97.1611" y="234.8594"/><text fill="#000000" font-family="sans-serif" font-size="14" lengthAdjust="spacing" textLength="145.8584" x="104.1611" y="254.8545">Text Object (text.py)</text><rect fill="#E2E2F0" height="30.2969" rx="2.5" ry="2.5" style="stroke:#181818;stroke-width:0.5;" width="151.1768" x="267.0195" y="42.2969"/><text fill="#000000" font-family="sans-serif" font-size="14" lengthAdjust="spacing" textLength="137.1768" x="274.0195" y="62.292">Check for MathText</text><rect fill="#E2E2F0" height="30.2969" rx="2.5" ry="2.5" style="stroke:#181818;stroke-width:0.5;" width="151.1768" x="267.0195" y="234.8594"/><text fill="#000000" font-family="sans-serif" font-size="14" lengthAdjust="spacing" textLength="137.1768" x="274.0195" y="254.8545">Check for MathText</text><rect fill="#E2E2F0" height="30.2969" rx="2.5" ry="2.5" style="stroke:#181818;stroke-width:0.5;" width="98.5811" x="428.1963" y="42.2969"/><text fill="#000000" font-family="sans-serif" font-size="14" lengthAdjust="spacing" textLength="84.5811" x="435.1963" y="62.292">exist_math?</text><rect fill="#E2E2F0" height="30.2969" rx="2.5" ry="2.5" style="stroke:#181818;stroke-width:0.5;" width="98.5811" x="428.1963" y="234.8594"/><text fill="#000000" font-family="sans-serif" font-size="14" lengthAdjust="spacing" textLength="84.5811" x="435.1963" y="254.8545">exist_math?</text><rect fill="#E2E2F0" height="30.2969" rx="2.5" ry="2.5" style="stroke:#181818;stroke-width:0.5;" width="131.0518" x="536.7773" y="42.2969"/><text fill="#000000" font-family="sans-serif" font-size="14" lengthAdjust="spacing" textLength="117.0518" x="543.7773" y="62.292">draw_mathtext()</text><rect fill="#E2E2F0" height="30.2969" rx="2.5" ry="2.5" style="stroke:#181818;stroke-width:0.5;" width="131.0518" x="536.7773" y="234.8594"/><text fill="#000000" font-family="sans-serif" font-size="14" lengthAdjust="spacing" textLength="117.0518" x="543.7773" y="254.8545">draw_mathtext()</text><rect fill="#E2E2F0" height="30.2969" rx="2.5" ry="2.5" style="stroke:#181818;stroke-width:0.5;" width="94.4727" x="677.8291" y="42.2969"/><text fill="#000000" font-family="sans-serif" font-size="14" lengthAdjust="spacing" textLength="80.4727" x="684.8291" y="62.292">draw_text()</text><rect fill="#E2E2F0" height="30.2969" rx="2.5" ry="2.5" style="stroke:#181818;stroke-width:0.5;" width="94.4727" x="677.8291" y="234.8594"/><text fill="#000000" font-family="sans-serif" font-size="14" lengthAdjust="spacing" textLength="80.4727" x="684.8291" y="254.8545">draw_text()</text><rect fill="#E2E2F0" height="30.2969" rx="2.5" ry="2.5" style="stroke:#181818;stroke-width:0.5;" width="186.375" x="782.3018" y="42.2969"/><text fill="#000000" font-family="sans-serif" font-size="14" lengthAdjust="spacing" textLength="172.375" x="789.3018" y="62.292">Backend Renderer (Agg)</text><rect fill="#E2E2F0" height="30.2969" rx="2.5" ry="2.5" style="stroke:#181818;stroke-width:0.5;" width="186.375" x="782.3018" y="234.8594"/><text fill="#000000" font-family="sans-serif" font-size="14" lengthAdjust="spacing" textLength="172.375" x="789.3018" y="254.8545">Backend Renderer (Agg)</text><rect fill="#E2E2F0" height="30.2969" rx="2.5" ry="2.5" style="stroke:#181818;stroke-width:0.5;" width="111.1523" x="978.6768" y="42.2969"/><text fill="#000000" font-family="sans-serif" font-size="14" lengthAdjust="spacing" textLength="97.1523" x="985.6768" y="62.292">Output Figure</text><rect fill="#E2E2F0" height="30.2969" rx="2.5" ry="2.5" style="stroke:#181818;stroke-width:0.5;" width="111.1523" x="978.6768" y="234.8594"/><text fill="#000000" font-family="sans-serif" font-size="14" lengthAdjust="spacing" textLength="97.1523" x="985.6768" y="254.8545">Output Figure</text><polygon fill="#181818" points="165.0903,85.5938,175.0903,89.5938,165.0903,93.5938,169.0903,89.5938" style="stroke:#181818;stroke-width:1;"/><line style="stroke:#181818;stroke-width:1;stroke-dasharray:2.0,2.0;" x1="46.0806" x2="171.0903" y1="89.5938" y2="89.5938"/><polygon fill="#181818" points="330.6079,99.5938,340.6079,103.5938,330.6079,107.5938,334.6079,103.5938" style="stroke:#181818;stroke-width:1;"/><line style="stroke:#181818;stroke-width:1;stroke-dasharray:2.0,2.0;" x1="177.0903" x2="336.6079" y1="103.5938" y2="103.5938"/><polygon fill="#181818" points="465.4868,113.5938,475.4868,117.5938,465.4868,121.5938,469.4868,117.5938" style="stroke:#181818;stroke-width:1;"/><line style="stroke:#181818;stroke-width:1;stroke-dasharray:2.0,2.0;" x1="342.6079" x2="471.4868" y1="117.5938" y2="117.5938"/><polygon fill="#181818" points="590.3032,142.7266,600.3032,146.7266,590.3032,150.7266,594.3032,146.7266" style="stroke:#181818;stroke-width:1;"/><line style="stroke:#181818;stroke-width:1;stroke-dasharray:2.0,2.0;" x1="477.4868" x2="596.3032" y1="146.7266" y2="146.7266"/><text fill="#000000" font-family="sans-serif" font-size="13" lengthAdjust="spacing" textLength="22.7119" x="484.4868" y="141.6606">Yes</text><polygon fill="#181818" points="713.0654,171.8594,723.0654,175.8594,713.0654,179.8594,717.0654,175.8594" style="stroke:#181818;stroke-width:1;"/><line style="stroke:#181818;stroke-width:1;stroke-dasharray:2.0,2.0;" x1="477.4868" x2="719.0654" y1="175.8594" y2="175.8594"/><text fill="#000000" font-family="sans-serif" font-size="13" lengthAdjust="spacing" textLength="17.6782" x="484.4868" y="170.7935">No</text><polygon fill="#181818" points="863.4893,185.8594,873.4893,189.8594,863.4893,193.8594,867.4893,189.8594" style="stroke:#181818;stroke-width:1;"/><line style="stroke:#181818;stroke-width:1;stroke-dasharray:2.0,2.0;" x1="602.3032" x2="869.4893" y1="189.8594" y2="189.8594"/><polygon fill="#181818" points="863.4893,199.8594,873.4893,203.8594,863.4893,207.8594,867.4893,203.8594" style="stroke:#181818;stroke-width:1;"/><line style="stroke:#181818;stroke-width:1;stroke-dasharray:2.0,2.0;" x1="725.0654" x2="869.4893" y1="203.8594" y2="203.8594"/><polygon fill="#181818" points="1022.2529,213.8594,1032.2529,217.8594,1022.2529,221.8594,1026.2529,217.8594" style="stroke:#181818;stroke-width:1;"/><line style="stroke:#181818;stroke-width:1;stroke-dasharray:2.0,2.0;" x1="875.4893" x2="1028.2529" y1="217.8594" y2="217.8594"/><!--SRC=[VP2n3e8m48RtFiM52GTy00ODcf0u88dHmSaW7BLI2odNY6zlImT359Scz_Nxxt97WYH2KXDgICKGGo85LrX1PYI9I0g5SCI163lrg7UgCmHHj8B0GSYlTom9GhB5idij0ZR3VMPxmxA1kjMG5NHpfWtyWDx6GVHqULYu3XYRb5weTF4SWHiJsY4ndB6VDJ_MlhNzljAZkIdA1bK51_kWjaS94yxTNfCMVrKsz-DZkI5tn5Hmep5u0m00]--></g></svg>