<svg xmlns="http://www.w3.org/2000/svg" xmlns:xlink="http://www.w3.org/1999/xlink" contentStyleType="text/css" data-diagram-type="SEQUENCE" height="271px" preserveAspectRatio="none" style="width:1195px;height:271px;background:#FFFFFF;" version="1.1" viewBox="0 0 1195 271" width="1195px" zoomAndPan="magnify"><title>Before Fix: Misaligned Multi-line Text</title><defs/><g><text fill="#000000" font-family="sans-serif" font-size="14" font-weight="bold" lengthAdjust="spacing" textLength="296.2012" x="448.5071" y="27.9951">Before Fix: Misaligned Multi-line Text</text><g><title>UserInput</title><rect fill="transparent" height="162.2656" width="8" x="42.0806" y="73.5938"/><line style="stroke:#181818;stroke-width:0.5;stroke-dasharray:5.0,5.0;" x1="46" x2="46" y1="73.5938" y2="235.8594"/></g><g><title>Text Object (text.py)</title><rect fill="transparent" height="162.2656" width="8" x="173.0903" y="73.5938"/><line style="stroke:#181818;stroke-width:0.5;stroke-dasharray:5.0,5.0;" x1="176.1611" x2="176.1611" y1="73.5938" y2="235.8594"/></g><g><title>First Line: MathText</title><rect fill="transparent" height="162.2656" width="8" x="340.9409" y="73.5938"/><line style="stroke:#181818;stroke-width:0.5;stroke-dasharray:5.0,5.0;" x1="344.3237" x2="344.3237" y1="73.5938" y2="235.8594"/></g><g><title>Second Line: Normal Text</title><rect fill="transparent" height="162.2656" width="8" x="524.8608" y="73.5938"/><line style="stroke:#181818;stroke-width:0.5;stroke-dasharray:5.0,5.0;" x1="528.5581" x2="528.5581" y1="73.5938" y2="235.8594"/></g><g><title>draw_mathtext()</title><rect fill="transparent" height="162.2656" width="8" x="697.6895" y="73.5938"/><line style="stroke:#181818;stroke-width:0.5;stroke-dasharray:5.0,5.0;" x1="701.1636" x2="701.1636" y1="73.5938" y2="235.8594"/></g><g><title>draw_text()</title><rect fill="transparent" height="162.2656" width="8" x="820.4517" y="73.5938"/><line style="stroke:#181818;stroke-width:0.5;stroke-dasharray:5.0,5.0;" x1="824.2153" x2="824.2153" y1="73.5938" y2="235.8594"/></g><g><title>Backend Renderer (Agg)</title><rect fill="transparent" height="162.2656" width="8" x="970.8755" y="73.5938"/><line style="stroke:#181818;stroke-width:0.5;stroke-dasharray:5.0,5.0;" x1="974.688" x2="974.688" y1="73.5938" y2="235.8594"/></g><g><title>Output Figure</title><rect fill="transparent" height="162.2656" width="8" x="1129.6392" y="73.5938"/><line style="stroke:#181818;stroke-width:0.5;stroke-dasharray:5.0,5.0;" x1="1133.063" x2="1133.063" y1="73.5938" y2="235.8594"/></g><rect fill="#E2E2F0" height="30.2969" rx="2.5" ry="2.5" style="stroke:#181818;stroke-width:0.5;" width="82.1611" x="5" y="42.2969"/><text fill="#000000" font-family="sans-serif" font-size="14" lengthAdjust="spacing" textLength="68.1611" x="12" y="62.292">UserInput</text><rect fill="#E2E2F0" height="30.2969" rx="2.5" ry="2.5" style="stroke:#181818;stroke-width:0.5;" width="82.1611" x="5" y="234.8594"/><text fill="#000000" font-family="sans-serif" font-size="14" lengthAdjust="spacing" textLength="68.1611" x="12" y="254.8545">UserInput</text><rect fill="#E2E2F0" height="30.2969" rx="2.5" ry="2.5" style="stroke:#181818;stroke-width:0.5;" width="159.8584" x="97.1611" y="42.2969"/><text fill="#000000" font-family="sans-serif" font-size="14" lengthAdjust="spacing" textLength="145.8584" x="104.1611" y="62.292">Text Object (text.py)</text><rect fill="#E2E2F0" height="30.2969" rx="2.5" ry="2.5" style="stroke:#181818;stroke-width:0.5;" width="159.8584" x="97.1611" y="234.8594"/><text fill="#000000" font-family="sans-serif" font-size="14" lengthAdjust="spacing" textLength="145.8584" x="104.1611" y="254.8545">Text Object (text.py)</text><rect fill="#E2E2F0" height="30.2969" rx="2.5" ry="2.5" style="stroke:#181818;stroke-width:0.5;" width="153.2344" x="268.3237" y="42.2969"/><text fill="#000000" font-family="sans-serif" font-size="14" lengthAdjust="spacing" textLength="139.2344" x="275.3237" y="62.292">First Line: MathText</text><rect fill="#E2E2F0" height="30.2969" rx="2.5" ry="2.5" style="stroke:#181818;stroke-width:0.5;" width="153.2344" x="268.3237" y="234.8594"/><text fill="#000000" font-family="sans-serif" font-size="14" lengthAdjust="spacing" textLength="139.2344" x="275.3237" y="254.8545">First Line: MathText</text><rect fill="#E2E2F0" height="30.2969" rx="2.5" ry="2.5" style="stroke:#181818;stroke-width:0.5;" width="194.6055" x="431.5581" y="42.2969"/><text fill="#000000" font-family="sans-serif" font-size="14" lengthAdjust="spacing" textLength="180.6055" x="438.5581" y="62.292">Second Line: Normal Text</text><rect fill="#E2E2F0" height="30.2969" rx="2.5" ry="2.5" style="stroke:#181818;stroke-width:0.5;" width="194.6055" x="431.5581" y="234.8594"/><text fill="#000000" font-family="sans-serif" font-size="14" lengthAdjust="spacing" textLength="180.6055" x="438.5581" y="254.8545">Second Line: Normal Text</text><rect fill="#E2E2F0" height="30.2969" rx="2.5" ry="2.5" style="stroke:#181818;stroke-width:0.5;" width="131.0518" x="636.1636" y="42.2969"/><text fill="#000000" font-family="sans-serif" font-size="14" lengthAdjust="spacing" textLength="117.0518" x="643.1636" y="62.292">draw_mathtext()</text><rect fill="#E2E2F0" height="30.2969" rx="2.5" ry="2.5" style="stroke:#181818;stroke-width:0.5;" width="131.0518" x="636.1636" y="234.8594"/><text fill="#000000" font-family="sans-serif" font-size="14" lengthAdjust="spacing" textLength="117.0518" x="643.1636" y="254.8545">draw_mathtext()</text><rect fill="#E2E2F0" height="30.2969" rx="2.5" ry="2.5" style="stroke:#181818;stroke-width:0.5;" width="94.4727" x="777.2153" y="42.2969"/><text fill="#000000" font-family="sans-serif" font-size="14" lengthAdjust="spacing" textLength="80.4727" x="784.2153" y="62.292">draw_text()</text><rect fill="#E2E2F0" height="30.2969" rx="2.5" ry="2.5" style="stroke:#181818;stroke-width:0.5;" width="94.4727" x="777.2153" y="234.8594"/><text fill="#000000" font-family="sans-serif" font-size="14" lengthAdjust="spacing" textLength="80.4727" x="784.2153" y="254.8545">draw_text()</text><rect fill="#E2E2F0" height="30.2969" rx="2.5" ry="2.5" style="stroke:#181818;stroke-width:0.5;" width="186.375" x="881.688" y="42.2969"/><text fill="#000000" font-family="sans-serif" font-size="14" lengthAdjust="spacing" textLength="172.375" x="888.688" y="62.292">Backend Renderer (Agg)</text><rect fill="#E2E2F0" height="30.2969" rx="2.5" ry="2.5" style="stroke:#181818;stroke-width:0.5;" width="186.375" x="881.688" y="234.8594"/><text fill="#000000" font-family="sans-serif" font-size="14" lengthAdjust="spacing" textLength="172.375" x="888.688" y="254.8545">Backend Renderer (Agg)</text><rect fill="#E2E2F0" height="30.2969" rx="2.5" ry="2.5" style="stroke:#181818;stroke-width:0.5;" width="111.1523" x="1078.063" y="42.2969"/><text fill="#000000" font-family="sans-serif" font-size="14" lengthAdjust="spacing" textLength="97.1523" x="1085.063" y="62.292">Output Figure</text><rect fill="#E2E2F0" height="30.2969" rx="2.5" ry="2.5" style="stroke:#181818;stroke-width:0.5;" width="111.1523" x="1078.063" y="234.8594"/><text fill="#000000" font-family="sans-serif" font-size="14" lengthAdjust="spacing" textLength="97.1523" x="1085.063" y="254.8545">Output Figure</text><polygon fill="#181818" points="165.0903,85.5938,175.0903,89.5938,165.0903,93.5938,169.0903,89.5938" style="stroke:#181818;stroke-width:1;"/><line style="stroke:#181818;stroke-width:1;stroke-dasharray:2.0,2.0;" x1="46.0806" x2="171.0903" y1="89.5938" y2="89.5938"/><polygon fill="#181818" points="332.9409,114.7266,342.9409,118.7266,332.9409,122.7266,336.9409,118.7266" style="stroke:#181818;stroke-width:1;"/><line style="stroke:#181818;stroke-width:1;stroke-dasharray:2.0,2.0;" x1="177.0903" x2="338.9409" y1="118.7266" y2="118.7266"/><text fill="#000000" font-family="sans-serif" font-size="13" lengthAdjust="spacing" textLength="143.8506" x="184.0903" y="113.6606">Detected as MathText</text><polygon fill="#181818" points="516.8608,143.8594,526.8608,147.8594,516.8608,151.8594,520.8608,147.8594" style="stroke:#181818;stroke-width:1;"/><line style="stroke:#181818;stroke-width:1;stroke-dasharray:2.0,2.0;" x1="177.0903" x2="522.8608" y1="147.8594" y2="147.8594"/><text fill="#000000" font-family="sans-serif" font-size="13" lengthAdjust="spacing" textLength="162.7285" x="184.0903" y="142.7935">Detected as Normal Text</text><polygon fill="#181818" points="689.6895,157.8594,699.6895,161.8594,689.6895,165.8594,693.6895,161.8594" style="stroke:#181818;stroke-width:1;"/><line style="stroke:#181818;stroke-width:1;stroke-dasharray:2.0,2.0;" x1="344.9409" x2="695.6895" y1="161.8594" y2="161.8594"/><polygon fill="#181818" points="812.4517,171.8594,822.4517,175.8594,812.4517,179.8594,816.4517,175.8594" style="stroke:#181818;stroke-width:1;"/><line style="stroke:#181818;stroke-width:1;stroke-dasharray:2.0,2.0;" x1="528.8608" x2="818.4517" y1="175.8594" y2="175.8594"/><polygon fill="#181818" points="962.8755,185.8594,972.8755,189.8594,962.8755,193.8594,966.8755,189.8594" style="stroke:#181818;stroke-width:1;"/><line style="stroke:#181818;stroke-width:1;stroke-dasharray:2.0,2.0;" x1="701.6895" x2="968.8755" y1="189.8594" y2="189.8594"/><polygon fill="#181818" points="962.8755,199.8594,972.8755,203.8594,962.8755,207.8594,966.8755,203.8594" style="stroke:#181818;stroke-width:1;"/><line style="stroke:#181818;stroke-width:1;stroke-dasharray:2.0,2.0;" x1="824.4517" x2="968.8755" y1="203.8594" y2="203.8594"/><polygon fill="#181818" points="1121.6392,213.8594,1131.6392,217.8594,1121.6392,221.8594,1125.6392,217.8594" style="stroke:#181818;stroke-width:1;"/><line style="stroke:#181818;stroke-width:1;stroke-dasharray:2.0,2.0;" x1="974.8755" x2="1127.6392" y1="217.8594" y2="217.8594"/><!--SRC=[VP7B2i8m44Nt-OgXgxge7z25O962O2tuM4jinnfD7oHJh7zlOdqKDDqCp9rxpoM414c424-rGeX55q8YD9UYg327f9Ka0YagX1rsnDXUerfMJKiG13Fmh0ZfyO8PWKzccJRtYSSSUf-9XT84AyCqLPpErkj120iaOpUbN7_qST8MixhANwXrhKekuHzjS6BCqVy4vehV3gNHR95l7-Ak-0RUPlQJxqqHpwve81ipKA42VruK5ZvCZrkPwzB7qfRibyIYQ1Lw3m00]--></g></svg>