<svg xmlns="http://www.w3.org/2000/svg" xmlns:xlink="http://www.w3.org/1999/xlink" contentStyleType="text/css" data-diagram-type="CLASS" height="110px" preserveAspectRatio="none" style="width:786px;height:110px;background:#FFFFFF;" version="1.1" viewBox="0 0 786 110" width="786px" zoomAndPan="magnify"><defs/><g><!--class Text--><g id="elem_Text"><rect codeLine="3" fill="#F1F1F1" height="96.8906" id="Text" rx="2.5" ry="2.5" style="stroke:#181818;stroke-width:0.5;" width="142.2246" x="7" y="7"/><ellipse cx="58.3926" cy="23" fill="#ADD1B2" rx="11" ry="11" style="stroke:#181818;stroke-width:1;"/><path d="M61.3613,28.6406 Q60.7832,28.9375 60.1426,29.0781 Q59.502,29.2344 58.7988,29.2344 Q56.2988,29.2344 54.9707,27.5938 Q53.6582,25.9375 53.6582,22.8125 Q53.6582,19.6875 54.9707,18.0313 Q56.2988,16.375 58.7988,16.375 Q59.502,16.375 60.1426,16.5313 Q60.7988,16.6875 61.3613,16.9844 L61.3613,19.7031 Q60.7363,19.125 60.1426,18.8594 Q59.5488,18.5781 58.9238,18.5781 Q57.5801,18.5781 56.8926,19.6563 Q56.2051,20.7188 56.2051,22.8125 Q56.2051,24.9063 56.8926,25.9844 Q57.5801,27.0469 58.9238,27.0469 Q59.5488,27.0469 60.1426,26.7813 Q60.7363,26.5 61.3613,25.9219 L61.3613,28.6406 Z " fill="#000000"/><text fill="#000000" font-family="sans-serif" font-size="14" lengthAdjust="spacing" textLength="30.9395" x="78.8926" y="27.8467">Text</text><line style="stroke:#181818;stroke-width:0.5;" x1="8" x2="148.2246" y1="39" y2="39"/><rect fill="transparent" height="6" style="stroke:#C82930;stroke-width:1;" width="6" x="15" y="49.6484"/><text fill="#000000" font-family="sans-serif" font-size="14" lengthAdjust="spacing" textLength="116.2246" x="27" y="55.9951">exist_math: bool</text><line style="stroke:#181818;stroke-width:0.5;" x1="8" x2="148.2246" y1="63.2969" y2="63.2969"/><ellipse cx="18" cy="76.9453" fill="#84BE84" rx="3" ry="3" style="stroke:#038048;stroke-width:1;"/><text fill="#000000" font-family="sans-serif" font-size="14" lengthAdjust="spacing" textLength="45.5957" x="27" y="80.292">draw()</text><ellipse cx="18" cy="93.2422" fill="#84BE84" rx="3" ry="3" style="stroke:#038048;stroke-width:1;"/><text fill="#000000" font-family="sans-serif" font-size="14" lengthAdjust="spacing" textLength="91.5947" x="27" y="96.5889">_get_layout()</text></g><!--class RendererAgg--><g id="elem_RendererAgg"><rect codeLine="9" fill="#F1F1F1" height="64.2969" id="RendererAgg" rx="2.5" ry="2.5" style="stroke:#181818;stroke-width:0.5;" width="143.0518" x="352" y="23.5"/><ellipse cx="375.488" cy="39.5" fill="#ADD1B2" rx="11" ry="11" style="stroke:#181818;stroke-width:1;"/><path d="M378.4568,45.1406 Q377.8787,45.4375 377.238,45.5781 Q376.5974,45.7344 375.8943,45.7344 Q373.3943,45.7344 372.0662,44.0938 Q370.7537,42.4375 370.7537,39.3125 Q370.7537,36.1875 372.0662,34.5313 Q373.3943,32.875 375.8943,32.875 Q376.5974,32.875 377.238,33.0313 Q377.8943,33.1875 378.4568,33.4844 L378.4568,36.2031 Q377.8318,35.625 377.238,35.3594 Q376.6443,35.0781 376.0193,35.0781 Q374.6755,35.0781 373.988,36.1563 Q373.3005,37.2188 373.3005,39.3125 Q373.3005,41.4063 373.988,42.4844 Q374.6755,43.5469 376.0193,43.5469 Q376.6443,43.5469 377.238,43.2813 Q377.8318,43 378.4568,42.4219 L378.4568,45.1406 Z " fill="#000000"/><text fill="#000000" font-family="sans-serif" font-size="14" lengthAdjust="spacing" textLength="92.1895" x="391.3743" y="44.3467">RendererAgg</text><line style="stroke:#181818;stroke-width:0.5;" x1="353" x2="494.0518" y1="55.5" y2="55.5"/><line style="stroke:#181818;stroke-width:0.5;" x1="353" x2="494.0518" y1="63.5" y2="63.5"/><ellipse cx="363" cy="77.1484" fill="#84BE84" rx="3" ry="3" style="stroke:#038048;stroke-width:1;"/><text fill="#000000" font-family="sans-serif" font-size="14" lengthAdjust="spacing" textLength="117.0518" x="372" y="80.4951">draw_mathtext()</text></g><!--class MathTextParser--><g id="elem_MathTextParser"><rect codeLine="13" fill="#F1F1F1" height="64.2969" id="MathTextParser" rx="2.5" ry="2.5" style="stroke:#181818;stroke-width:0.5;" width="142.4004" x="637" y="23.5"/><ellipse cx="652" cy="39.5" fill="#ADD1B2" rx="11" ry="11" style="stroke:#181818;stroke-width:1;"/><path d="M654.9688,45.1406 Q654.3906,45.4375 653.75,45.5781 Q653.1094,45.7344 652.4063,45.7344 Q649.9063,45.7344 648.5781,44.0938 Q647.2656,42.4375 647.2656,39.3125 Q647.2656,36.1875 648.5781,34.5313 Q649.9063,32.875 652.4063,32.875 Q653.1094,32.875 653.75,33.0313 Q654.4063,33.1875 654.9688,33.4844 L654.9688,36.2031 Q654.3438,35.625 653.75,35.3594 Q653.1563,35.0781 652.5313,35.0781 Q651.1875,35.0781 650.5,36.1563 Q649.8125,37.2188 649.8125,39.3125 Q649.8125,41.4063 650.5,42.4844 Q651.1875,43.5469 652.5313,43.5469 Q653.1563,43.5469 653.75,43.2813 Q654.3438,43 654.9688,42.4219 L654.9688,45.1406 Z " fill="#000000"/><text fill="#000000" font-family="sans-serif" font-size="14" lengthAdjust="spacing" textLength="110.4004" x="666" y="44.3467">MathTextParser</text><line style="stroke:#181818;stroke-width:0.5;" x1="638" x2="778.4004" y1="55.5" y2="55.5"/><line style="stroke:#181818;stroke-width:0.5;" x1="638" x2="778.4004" y1="63.5" y2="63.5"/><ellipse cx="648" cy="77.1484" fill="#84BE84" rx="3" ry="3" style="stroke:#038048;stroke-width:1;"/><text fill="#000000" font-family="sans-serif" font-size="14" lengthAdjust="spacing" textLength="50.0527" x="657" y="80.4951">parse()</text></g><!--link Text to RendererAgg--><g id="link_Text_RendererAgg"><path codeLine="17" d="M149.34,55.5 C208.52,55.5 286.72,55.5 345.96,55.5 " fill="transparent" id="Text-to-RendererAgg" style="stroke:#181818;stroke-width:1;"/><polygon fill="#181818" points="351.96,55.5,342.96,51.5,346.96,55.5,342.96,59.5,351.96,55.5" style="stroke:#181818;stroke-width:1;"/><text fill="#000000" font-family="sans-serif" font-size="13" lengthAdjust="spacing" textLength="141.9336" x="180" y="51.5669">calls draw_mathtext()</text></g><!--link RendererAgg to MathTextParser--><g id="link_RendererAgg_MathTextParser"><path codeLine="18" d="M495.06,55.5 C538.37,55.5 587.62,55.5 630.85,55.5 " fill="transparent" id="RendererAgg-to-MathTextParser" style="stroke:#181818;stroke-width:1;"/><polygon fill="#181818" points="636.85,55.5,627.85,51.5,631.85,55.5,627.85,59.5,636.85,55.5" style="stroke:#181818;stroke-width:1;"/><text fill="#000000" font-family="sans-serif" font-size="13" lengthAdjust="spacing" textLength="80.3931" x="526" y="51.5669">uses parse()</text></g><!--SRC=[POx12i8m38RlUueS5UaBz23u08A8zrBRs1NgAac64_7TxJe7Ks_9p_T_ISABW6IW65e17mcTnDmrZKkM6Kuu23mR00KuH1PpjT9gEEUSIhW1J_Q-MjVH11IJx2FtKfBNR3XYvv6GTY5KqTIf7Ydo9RelsNZmO8cHFlHjN2QgFgFKzikfmTcK-C-wPCREZrn3pyYp_Gq0]--></g></svg>