<svg xmlns="http://www.w3.org/2000/svg" viewBox="0 0 320 224">
  <rect width="320" height="224" fill="white"/>
  <!-- Axes box -->
  <rect x="40" y="20" width="260" height="184" fill="#f8f8f8" stroke="#cccccc" stroke-width="1"/>
  <!-- Contour lines (ellipses representing a 2D Gaussian) -->
  <ellipse cx="170" cy="112" rx="120" ry="84" fill="none" stroke="#2166ac" stroke-width="1.5" opacity="0.5"/>
  <ellipse cx="170" cy="112" rx="90" ry="62" fill="none" stroke="#4393c3" stroke-width="1.5" opacity="0.6"/>
  <ellipse cx="170" cy="112" rx="62" ry="42" fill="none" stroke="#92c5de" stroke-width="1.5" opacity="0.7"/>
  <ellipse cx="170" cy="112" rx="36" ry="24" fill="none" stroke="#d6604d" stroke-width="1.5" opacity="0.8"/>
  <ellipse cx="170" cy="112" rx="14" ry="9" fill="none" stroke="#b2182b" stroke-width="1.5" opacity="0.9"/>
  <!-- Contour labels -->
  <rect x="148" y="151" width="26" height="14" rx="2" fill="white"/>
  <text x="161" y="162" font-family="sans-serif" font-size="10" text-anchor="middle" fill="#2166ac">-1.0</text>
  <rect x="124" y="135" width="26" height="14" rx="2" fill="white"/>
  <text x="137" y="146" font-family="sans-serif" font-size="10" text-anchor="middle" fill="#4393c3">-0.5</text>
  <rect x="200" y="107" width="22" height="14" rx="2" fill="white"/>
  <text x="211" y="118" font-family="sans-serif" font-size="10" text-anchor="middle" fill="#d6604d">0.5</text>
  <!-- Mouse cursor -->
  <polygon points="210,78 210,100 216,95 220,104 223,103 219,94 226,94" fill="#333333"/>
</svg>
