<?xml version="1.0" encoding="utf-8" standalone="no"?>
<!DOCTYPE svg PUBLIC "-//W3C//DTD SVG 1.1//EN"
  "http://www.w3.org/Graphics/SVG/1.1/DTD/svg11.dtd">
<svg xmlns:xlink="http://www.w3.org/1999/xlink" width="79.2pt" height="79.2pt" viewBox="0 0 79.2 79.2" xmlns="http://www.w3.org/2000/svg" version="1.1">
 <rect width="90" height="90" fill="rgb(33,37,41)" />
 <metadata>
  <rdf:RDF xmlns:dc="http://purl.org/dc/elements/1.1/" xmlns:cc="http://creativecommons.org/ns#" xmlns:rdf="http://www.w3.org/1999/02/22-rdf-syntax-ns#">
   <cc:Work>
    <dc:type rdf:resource="http://purl.org/dc/dcmitype/StillImage"/>
    <dc:date>2025-08-27T10:57:41.226901</dc:date>
    <dc:format>image/svg+xml</dc:format>
    <dc:creator>
     <cc:Agent>
      <dc:title>Matplotlib v3.10.3, https://matplotlib.org/</dc:title>
     </cc:Agent>
    </dc:creator>
   </cc:Work>
  </rdf:RDF>
 </metadata>
 <defs>
  <style type="text/css">*{stroke-linejoin: round; stroke-linecap: butt}</style>
 </defs>
 <g id="figure_1">
  <g id="patch_1">
   <path d="M 0 79.2 
L 79.2 79.2 
L 79.2 0 
L 0 0 
L 0 79.2 
z
" style="fill: none; opacity: 0"/>
  </g>
  <g id="axes_1">
   <g id="patch_2">
    <path d="M 76.824 39.6 
C 76.824 34.711789 75.861129 29.87111 73.990492 25.354992 
C 72.119854 20.838874 69.37783 16.735144 65.921343 13.278657 
C 62.464856 9.82217 58.361126 7.080146 53.845008 5.209508 
C 49.32889 3.338871 44.488211 2.376 39.6 2.376 
C 34.711789 2.376 29.87111 3.338871 25.354992 5.209508 
C 20.838874 7.080146 16.735144 9.82217 13.278657 13.278657 
C 9.82217 16.735144 7.080146 20.838874 5.209508 25.354992 
C 3.338871 29.87111 2.376 34.711789 2.376 39.6 
C 2.376 44.488211 3.338871 49.32889 5.209508 53.845008 
C 7.080146 58.361126 9.82217 62.464856 13.278657 65.921343 
C 16.735144 69.37783 20.838874 72.119854 25.354992 73.990492 
C 29.87111 75.861129 34.711789 76.824 39.6 76.824 
C 44.488211 76.824 49.32889 75.861129 53.845008 73.990492 
C 58.361126 72.119854 62.464856 69.37783 65.921343 65.921343 
C 69.37783 62.464856 72.119854 58.361126 73.990492 53.845008 
C 75.861129 49.32889 76.824 44.488211 76.824 39.6 
M 39.6 39.6 
C 39.6 39.6 39.6 39.6 39.6 39.6 
C 39.6 39.6 39.6 39.6 39.6 39.6 
C 39.6 39.6 39.6 39.6 39.6 39.6 
C 39.6 39.6 39.6 39.6 39.6 39.6 
C 39.6 39.6 39.6 39.6 39.6 39.6 
C 39.6 39.6 39.6 39.6 39.6 39.6 
C 39.6 39.6 39.6 39.6 39.6 39.6 
C 39.6 39.6 39.6 39.6 39.6 39.6 
C 39.6 39.6 39.6 39.6 39.6 39.6 
C 39.6 39.6 39.6 39.6 39.6 39.6 
C 39.6 39.6 39.6 39.6 39.6 39.6 
C 39.6 39.6 39.6 39.6 39.6 39.6 
C 39.6 39.6 39.6 39.6 39.6 39.6 
C 39.6 39.6 39.6 39.6 39.6 39.6 
C 39.6 39.6 39.6 39.6 39.6 39.6 
C 39.6 39.6 39.6 39.6 39.6 39.6 
z
" style="fill: #ffffff"/>
   </g>
   <g id="patch_3">
    <path d="M 39.6 39.6 
C 39.6 39.6 39.6 39.6 39.6 39.6 
C 39.6 39.6 39.6 39.6 39.6 39.6 
C 39.6 39.6 39.6 39.6 39.6 39.6 
C 39.6 39.6 39.6 39.6 39.6 39.6 
C 39.6 39.6 39.6 39.6 39.6 39.6 
C 39.6 39.6 39.6 39.6 39.6 39.6 
C 39.6 39.6 39.6 39.6 39.6 39.6 
C 39.6 39.6 39.6 39.6 39.6 39.6 
C 39.6 39.6 39.6 39.6 39.6 39.6 
C 39.6 39.6 39.6 39.6 39.6 39.6 
C 39.6 39.6 39.6 39.6 39.6 39.6 
C 39.6 39.6 39.6 39.6 39.6 39.6 
C 39.6 39.6 39.6 39.6 39.6 39.6 
C 39.6 39.6 39.6 39.6 39.6 39.6 
C 39.6 39.6 39.6 39.6 39.6 39.6 
C 39.6 39.6 39.6 39.6 39.6 39.6 
L 79.22288 39.6 
C 79.22288 44.803229 78.197957 49.955863 76.206768 54.76302 
C 74.215578 59.570176 71.296846 63.938369 67.617607 67.617607 
C 63.938369 71.296846 59.570176 74.215578 54.76302 76.206768 
C 49.955863 78.197957 44.803229 79.22288 39.6 79.22288 
C 34.396771 79.22288 29.244137 78.197957 24.43698 76.206768 
C 19.629824 74.215578 15.261631 71.296846 11.582393 67.617607 
C 7.903154 63.938369 4.984422 59.570176 2.993232 54.76302 
C 1.002043 49.955863 -0.02288 44.803229 -0.02288 39.6 
C -0.02288 34.396771 1.002043 29.244137 2.993232 24.43698 
C 4.984422 19.629824 7.903154 15.261631 11.582393 11.582393 
C 15.261631 7.903154 19.629824 4.984422 24.43698 2.993232 
C 29.244137 1.002043 34.396771 -0.02288 39.6 -0.02288 
C 44.803229 -0.02288 49.955863 1.002043 54.76302 2.993232 
C 59.570176 4.984422 63.938369 7.903154 67.617607 11.582393 
C 71.296846 15.261631 74.215578 19.629824 76.206768 24.43698 
C 78.197957 29.244137 79.22288 34.396771 79.22288 39.6 
z
" style="fill: #ffffff"/>
   </g>
   <g id="matplotlib.axis_1">
    <g id="xtick_1">
     <g id="line2d_1">
      <path d="M 39.6 39.6 
L 76.824 39.6 
" clip-path="url(#p05340690af)" style="fill: none; stroke: #e6e6e6; stroke-width: 0.5; stroke-linecap: square"/>
     </g>
    </g>
    <g id="xtick_2">
     <g id="line2d_2">
      <path d="M 39.6 39.6 
L 65.921343 13.278657 
" clip-path="url(#p05340690af)" style="fill: none; stroke: #e6e6e6; stroke-width: 0.5; stroke-linecap: square"/>
     </g>
    </g>
    <g id="xtick_3">
     <g id="line2d_3">
      <path d="M 39.6 39.6 
L 39.6 2.376 
" clip-path="url(#p05340690af)" style="fill: none; stroke: #e6e6e6; stroke-width: 0.5; stroke-linecap: square"/>
     </g>
    </g>
    <g id="xtick_4">
     <g id="line2d_4">
      <path d="M 39.6 39.6 
L 13.278657 13.278657 
" clip-path="url(#p05340690af)" style="fill: none; stroke: #e6e6e6; stroke-width: 0.5; stroke-linecap: square"/>
     </g>
    </g>
    <g id="xtick_5">
     <g id="line2d_5">
      <path d="M 39.6 39.6 
L 2.376 39.6 
" clip-path="url(#p05340690af)" style="fill: none; stroke: #e6e6e6; stroke-width: 0.5; stroke-linecap: square"/>
     </g>
    </g>
    <g id="xtick_6">
     <g id="line2d_6">
      <path d="M 39.6 39.6 
L 13.278657 65.921343 
" clip-path="url(#p05340690af)" style="fill: none; stroke: #e6e6e6; stroke-width: 0.5; stroke-linecap: square"/>
     </g>
    </g>
    <g id="xtick_7">
     <g id="line2d_7">
      <path d="M 39.6 39.6 
L 39.6 76.824 
" clip-path="url(#p05340690af)" style="fill: none; stroke: #e6e6e6; stroke-width: 0.5; stroke-linecap: square"/>
     </g>
    </g>
    <g id="xtick_8">
     <g id="line2d_8">
      <path d="M 39.6 39.6 
L 65.921343 65.921343 
" clip-path="url(#p05340690af)" style="fill: none; stroke: #e6e6e6; stroke-width: 0.5; stroke-linecap: square"/>
     </g>
    </g>
   </g>
   <g id="matplotlib.axis_2">
    <g id="ytick_1">
     <g id="line2d_9">
      <path d="M 43.736 39.6 
C 43.736 39.056865 43.629014 38.519012 43.421166 38.017221 
C 43.213317 37.51543 42.908648 37.05946 42.524594 36.675406 
C 42.14054 36.291352 41.68457 35.986683 41.182779 35.778834 
C 40.680988 35.570986 40.143135 35.464 39.6 35.464 
C 39.056865 35.464 38.519012 35.570986 38.017221 35.778834 
C 37.51543 35.986683 37.05946 36.291352 36.675406 36.675406 
C 36.291352 37.05946 35.986683 37.51543 35.778834 38.017221 
C 35.570986 38.519012 35.464 39.056865 35.464 39.6 
C 35.464 40.143135 35.570986 40.680988 35.778834 41.182779 
C 35.986683 41.68457 36.291352 42.14054 36.675406 42.524594 
C 37.05946 42.908648 37.51543 43.213317 38.017221 43.421166 
C 38.519012 43.629014 39.056865 43.736 39.6 43.736 
C 40.143135 43.736 40.680988 43.629014 41.182779 43.421166 
C 41.68457 43.213317 42.14054 42.908648 42.524594 42.524594 
C 42.908648 42.14054 43.213317 41.68457 43.421166 41.182779 
C 43.629014 40.680988 43.736 40.143135 43.736 39.6 
" clip-path="url(#p05340690af)" style="fill: none; stroke: #e6e6e6; stroke-width: 0.5; stroke-linecap: square"/>
     </g>
    </g>
    <g id="ytick_2">
     <g id="line2d_10">
      <path d="M 52.008 39.6 
C 52.008 37.970596 51.687043 36.357037 51.063497 34.851664 
C 50.439951 33.346291 49.525943 31.978381 48.373781 30.826219 
C 47.221619 29.674057 45.853709 28.760049 44.348336 28.136503 
C 42.842963 27.512957 41.229404 27.192 39.6 27.192 
C 37.970596 27.192 36.357037 27.512957 34.851664 28.136503 
C 33.346291 28.760049 31.978381 29.674057 30.826219 30.826219 
C 29.674057 31.978381 28.760049 33.346291 28.136503 34.851664 
C 27.512957 36.357037 27.192 37.970596 27.192 39.6 
C 27.192 41.229404 27.512957 42.842963 28.136503 44.348336 
C 28.760049 45.853709 29.674057 47.221619 30.826219 48.373781 
C 31.978381 49.525943 33.346291 50.439951 34.851664 51.063497 
C 36.357037 51.687043 37.970596 52.008 39.6 52.008 
C 41.229404 52.008 42.842963 51.687043 44.348336 51.063497 
C 45.853709 50.439951 47.221619 49.525943 48.373781 48.373781 
C 49.525943 47.221619 50.439951 45.853709 51.063497 44.348336 
C 51.687043 42.842963 52.008 41.229404 52.008 39.6 
" clip-path="url(#p05340690af)" style="fill: none; stroke: #e6e6e6; stroke-width: 0.5; stroke-linecap: square"/>
     </g>
    </g>
    <g id="ytick_3">
     <g id="line2d_11">
      <path d="M 60.28 39.6 
C 60.28 36.884327 59.745072 34.195061 58.705829 31.686107 
C 57.666586 29.177152 56.143239 26.897302 54.222968 24.977032 
C 52.302698 23.056761 50.022848 21.533414 47.513893 20.494171 
C 45.004939 19.454928 42.315673 18.92 39.6 18.92 
C 36.884327 18.92 34.195061 19.454928 31.686107 20.494171 
C 29.177152 21.533414 26.897302 23.056761 24.977032 24.977032 
C 23.056761 26.897302 21.533414 29.177152 20.494171 31.686107 
C 19.454928 34.195061 18.92 36.884327 18.92 39.6 
C 18.92 42.315673 19.454928 45.004939 20.494171 47.513893 
C 21.533414 50.022848 23.056761 52.302698 24.977032 54.222968 
C 26.897302 56.143239 29.177152 57.666586 31.686107 58.705829 
C 34.195061 59.745072 36.884327 60.28 39.6 60.28 
C 42.315673 60.28 45.004939 59.745072 47.513893 58.705829 
C 50.022848 57.666586 52.302698 56.143239 54.222968 54.222968 
C 56.143239 52.302698 57.666586 50.022848 58.705829 47.513893 
C 59.745072 45.004939 60.28 42.315673 60.28 39.6 
" clip-path="url(#p05340690af)" style="fill: none; stroke: #e6e6e6; stroke-width: 0.5; stroke-linecap: square"/>
     </g>
    </g>
    <g id="ytick_4">
     <g id="line2d_12">
      <path d="M 68.552 39.6 
C 68.552 35.798058 67.8031 32.033085 66.34816 28.520549 
C 64.89322 25.008013 62.760534 21.816223 60.072156 19.127844 
C 57.383777 16.439466 54.191987 14.30678 50.679451 12.85184 
C 47.166915 11.3969 43.401942 10.648 39.6 10.648 
C 35.798058 10.648 32.033085 11.3969 28.520549 12.85184 
C 25.008013 14.30678 21.816223 16.439466 19.127844 19.127844 
C 16.439466 21.816223 14.30678 25.008013 12.85184 28.520549 
C 11.3969 32.033085 10.648 35.798058 10.648 39.6 
C 10.648 43.401942 11.3969 47.166915 12.85184 50.679451 
C 14.30678 54.191987 16.439466 57.383777 19.127844 60.072156 
C 21.816223 62.760534 25.008013 64.89322 28.520549 66.34816 
C 32.033085 67.8031 35.798058 68.552 39.6 68.552 
C 43.401942 68.552 47.166915 67.8031 50.679451 66.34816 
C 54.191987 64.89322 57.383777 62.760534 60.072156 60.072156 
C 62.760534 57.383777 64.89322 54.191987 66.34816 50.679451 
C 67.8031 47.166915 68.552 43.401942 68.552 39.6 
" clip-path="url(#p05340690af)" style="fill: none; stroke: #e6e6e6; stroke-width: 0.5; stroke-linecap: square"/>
     </g>
    </g>
   </g>
   <g id="patch_4">
    <path d="M 39.6 39.6 
C 39.6 39.6 39.6 39.6 39.6 39.6 
C 39.6 39.6 39.6 39.6 39.6 39.6 
L 47.46714 37.043811 
C 47.60105 37.455946 47.702368 37.877966 47.770158 38.305974 
C 47.837948 38.733982 47.872 39.166657 47.872 39.6 
z
" clip-path="url(#p05340690af)" style="fill: #004cff; fill-opacity: 0.6; stroke: #4c4c4c; stroke-width: 0.7; stroke-linejoin: miter"/>
   </g>
   <g id="patch_5">
    <path d="M 39.6 39.6 
C 39.6 39.6 39.6 39.6 39.6 39.6 
C 39.6 39.6 39.6 39.6 39.6 39.6 
L 48.319718 16.366395 
C 49.536851 16.823193 50.71621 17.374928 51.8469 18.016504 
C 52.97759 18.65808 54.056118 19.387514 55.072523 20.19807 
z
" clip-path="url(#p05340690af)" style="fill: #ceff29; fill-opacity: 0.6; stroke: #4c4c4c; stroke-width: 0.7; stroke-linejoin: miter"/>
   </g>
   <g id="patch_6">
    <path d="M 39.6 39.6 
C 39.6 39.6 39.6 39.6 39.6 39.6 
C 39.6 39.6 39.6 39.6 39.6 39.6 
L 18.394708 14.200171 
C 20.39191 12.532787 22.578821 11.106769 24.910084 9.951693 
C 27.241346 8.796617 29.700731 7.920524 32.237227 7.341585 
z
" clip-path="url(#p05340690af)" style="fill: #ff6800; fill-opacity: 0.6; stroke: #4c4c4c; stroke-width: 0.7; stroke-linejoin: miter"/>
   </g>
   <g id="patch_7">
    <path d="M 39.6 39.6 
C 39.6 39.6 39.6 39.6 39.6 39.6 
C 39.6 39.6 39.6 39.6 39.6 39.6 
L 11.113271 44.769579 
C 10.570803 41.780335 10.502213 38.72425 10.910022 35.713678 
C 11.317832 32.703107 12.196982 29.775402 13.515149 27.038198 
z
" clip-path="url(#p05340690af)" style="fill: #ffc400; fill-opacity: 0.6; stroke: #4c4c4c; stroke-width: 0.7; stroke-linejoin: miter"/>
   </g>
   <g id="patch_8">
    <path d="M 39.6 39.6 
C 39.6 39.6 39.6 39.6 39.6 39.6 
C 39.6 39.6 39.6 39.6 39.6 39.6 
L 26.000798 49.021551 
C 25.75411 48.665479 25.521503 48.299856 25.303513 47.925527 
C 25.085523 47.551198 24.882319 47.168451 24.694371 46.778173 
z
" clip-path="url(#p05340690af)" style="fill: #29ffce; fill-opacity: 0.6; stroke: #4c4c4c; stroke-width: 0.7; stroke-linejoin: miter"/>
   </g>
   <g id="patch_9">
    <path d="M 39.6 39.6 
C 39.6 39.6 39.6 39.6 39.6 39.6 
C 39.6 39.6 39.6 39.6 39.6 39.6 
L 43.064029 59.987813 
C 41.728579 60.214715 40.37406 60.309856 39.020003 60.271865 
C 37.665947 60.233874 36.318894 60.062934 34.998267 59.761509 
z
" clip-path="url(#p05340690af)" style="fill: #7dff7a; fill-opacity: 0.6; stroke: #4c4c4c; stroke-width: 0.7; stroke-linejoin: miter"/>
   </g>
   <g id="patch_10">
    <path d="M 39.6 39.6 
C 39.6 39.6 39.6 39.6 39.6 39.6 
C 39.6 39.6 39.6 39.6 39.6 39.6 
L 65.699075 59.938486 
C 64.900154 60.96369 64.041519 61.940931 63.127636 62.865126 
C 62.213752 63.789321 61.246207 64.658867 60.230031 65.46924 
z
" clip-path="url(#p05340690af)" style="fill: #ff6800; fill-opacity: 0.6; stroke: #4c4c4c; stroke-width: 0.7; stroke-linejoin: miter"/>
   </g>
   <g id="patch_11">
    <path d="M 76.824 39.6 
C 76.824 34.711789 75.861129 29.87111 73.990492 25.354992 
C 72.119854 20.838874 69.37783 16.735144 65.921343 13.278657 
C 62.464856 9.82217 58.361126 7.080146 53.845008 5.209508 
C 49.32889 3.338871 44.488211 2.376 39.6 2.376 
C 34.711789 2.376 29.87111 3.338871 25.354992 5.209508 
C 20.838874 7.080146 16.735144 9.82217 13.278657 13.278657 
C 9.82217 16.735144 7.080146 20.838874 5.209508 25.354992 
C 3.338871 29.87111 2.376 34.711789 2.376 39.6 
C 2.376 44.488211 3.338871 49.32889 5.209508 53.845008 
C 7.080146 58.361126 9.82217 62.464856 13.278657 65.921343 
C 16.735144 69.37783 20.838874 72.119854 25.354992 73.990492 
C 29.87111 75.861129 34.711789 76.824 39.6 76.824 
C 44.488211 76.824 49.32889 75.861129 53.845008 73.990492 
C 58.361126 72.119854 62.464856 69.37783 65.921343 65.921343 
C 69.37783 62.464856 72.119854 58.361126 73.990492 53.845008 
C 75.861129 49.32889 76.824 44.488211 76.824 39.6 
" style="fill: none; stroke: #11557c; stroke-linejoin: miter; stroke-linecap: square"/>
   </g>
  </g>
 </g>
 <defs>
  <clipPath id="p05340690af">
   <path d="M 76.824 39.6 
C 76.824 34.711789 75.861129 29.87111 73.990492 25.354992 
C 72.119854 20.838874 69.37783 16.735144 65.921343 13.278657 
C 62.464856 9.82217 58.361126 7.080146 53.845008 5.209508 
C 49.32889 3.338871 44.488211 2.376 39.6 2.376 
C 34.711789 2.376 29.87111 3.338871 25.354992 5.209508 
C 20.838874 7.080146 16.735144 9.82217 13.278657 13.278657 
C 9.82217 16.735144 7.080146 20.838874 5.209508 25.354992 
C 3.338871 29.87111 2.376 34.711789 2.376 39.6 
C 2.376 44.488211 3.338871 49.32889 5.209508 53.845008 
C 7.080146 58.361126 9.82217 62.464856 13.278657 65.921343 
C 16.735144 69.37783 20.838874 72.119854 25.354992 73.990492 
C 29.87111 75.861129 34.711789 76.824 39.6 76.824 
C 44.488211 76.824 49.32889 75.861129 53.845008 73.990492 
C 58.361126 72.119854 62.464856 69.37783 65.921343 65.921343 
C 69.37783 62.464856 72.119854 58.361126 73.990492 53.845008 
C 75.861129 49.32889 76.824 44.488211 76.824 39.6 
M 39.6 39.6 
C 39.6 39.6 39.6 39.6 39.6 39.6 
C 39.6 39.6 39.6 39.6 39.6 39.6 
C 39.6 39.6 39.6 39.6 39.6 39.6 
C 39.6 39.6 39.6 39.6 39.6 39.6 
C 39.6 39.6 39.6 39.6 39.6 39.6 
C 39.6 39.6 39.6 39.6 39.6 39.6 
C 39.6 39.6 39.6 39.6 39.6 39.6 
C 39.6 39.6 39.6 39.6 39.6 39.6 
C 39.6 39.6 39.6 39.6 39.6 39.6 
C 39.6 39.6 39.6 39.6 39.6 39.6 
C 39.6 39.6 39.6 39.6 39.6 39.6 
C 39.6 39.6 39.6 39.6 39.6 39.6 
C 39.6 39.6 39.6 39.6 39.6 39.6 
C 39.6 39.6 39.6 39.6 39.6 39.6 
C 39.6 39.6 39.6 39.6 39.6 39.6 
C 39.6 39.6 39.6 39.6 39.6 39.6 
z
"/>
  </clipPath>
 </defs>
</svg>
