<svg xmlns="http://www.w3.org/2000/svg" height="345.60001" viewBox="0 0 259.2 259.2" width="345.60001" stroke-linecap="butt" stroke-linejoin="round"><style><![CDATA[.B{clip-path:url(#A)}.C{fill-opacity:.6}.D{stroke-linecap:square}]]></style><g fill="#fff"><path d="M251.424 129.6a121.8268 121.8268 0 0 0-9.2733-46.62003c-6.1221-14.78002-15.09598-28.2104-26.40812-39.52255S191.00005 23.1714 176.22003 17.0493a121.8268 121.8268 0 0 0-93.24005 0c-14.78002 6.1221-28.2104 15.09598-39.52255 26.40812S23.1714 68.19995 17.0493 82.97997a121.8268 121.8268 0 0 0 0 93.24005c6.1221 14.78002 15.09598 28.2104 26.40812 39.52255s24.74253 20.28604 39.52255 26.40812a121.8268 121.8268 0 0 0 93.24005 0c14.78002-6.1221 28.2104-15.09598 39.52255-26.40812s20.28604-24.74253 26.40812-39.52255A121.8268 121.8268 0 0 0 251.424 129.6m0 0z"/><path d="M129.6 129.6h129.67488l-.25588 8.14235-.76664 8.11022-1.27437 8.04608-1.77708 7.95018-2.27276 7.8229-2.7595 7.66477-3.23532 7.47637-3.69837 7.25847-4.14684 7.01192-4.57894 6.7377-4.99297 6.437-5.3873 6.11068-5.76036 5.76036-6.11068 5.3873-6.437 4.99297-6.7377 4.57894-7.01192 4.14684-7.25847 3.69837-7.47637 3.23532-7.66477 2.7595-7.8229 2.27276-7.95018 1.77708-8.04608 1.27437-8.11022.76664-8.14235.25588-8.14235-.25588-8.11022-.76664-8.04608-1.27437-7.95018-1.77708-7.8229-2.27276-7.66476-2.7595-7.47637-3.23532-7.25847-3.69837-7.01192-4.14684-6.7377-4.57894-6.437-4.99297-6.1107-5.3873-5.76035-5.76036-5.3873-6.11068-4.99297-6.437-4.57894-6.7377-4.14684-7.01192-3.69838-7.25847-3.2353-7.47637-2.7595-7.66477-2.27277-7.8229-1.77708-7.95018-1.27437-8.04608L.18 137.74235-.07488 129.6.18 121.45765l.76664-8.11022 1.27437-8.04608L3.999 97.35117l2.27277-7.8229 2.7595-7.66476 3.23532-7.47637 3.69838-7.25847 4.14684-7.01192 4.57894-6.7377 4.99297-6.437 5.3873-6.1107 5.76035-5.76035 6.1107-5.3873 6.437-4.99297 6.7377-4.57894 7.01192-4.14684 7.25847-3.69838 7.47637-3.2353 7.66476-2.7595 7.8229-2.27277 7.95018-1.77708 8.04608-1.27437L121.45765.18 129.6-.07488 137.74235.18l8.11022.76664 8.04608 1.27437 7.95018 1.77708 7.8229 2.27277 7.66477 2.7595 7.47637 3.23532 7.25847 3.69838 7.01192 4.14684 6.7377 4.57894 6.437 4.99297 6.11068 5.3873 5.76036 5.76035 5.3873 6.1107 4.99297 6.437 4.57894 6.7377 4.14684 7.01192 3.69837 7.25847 3.23532 7.47637 2.7595 7.66476 2.27276 7.8229 1.77708 7.95018 1.27437 8.04608.76664 8.11022.25588 8.14235H130.89675z"/></g><g fill="none" stroke="#e6e6e6" class="D"><path d="M129.6 129.6h121.824m-121.824 0l86.14258-86.14258M129.6 129.6V7.776m0 121.824L43.45742 43.45742M129.6 129.6H7.776" class="B"/><path d="M129.6 129.6l-86.14258 86.14258M129.6 129.6v121.824m0-121.824l86.14258 86.14258" class="B"/><path d="M143.136 129.6l-.13173-1.88385-.39263-1.84718-.6459-1.77456-.88657-1.6674-1.1-1.5278-1.31183-1.35843-1.48812-1.16264-1.63544-.94422-1.75094-.70743-1.83235-.45686-1.878-.1974-1.8873.0659-1.85976.32792-1.79602.58356-1.69733.82784-1.5656 1.056-1.4034 1.26362-1.21387 1.44664-1.00073 1.6015-.768 1.72518-.52053 1.8153-.26282 1.87007v1.88845l.26282 1.87007.52053 1.8153.768 1.72518 1.00073 1.6015 1.21387 1.44663 1.4034 1.26362 1.5656 1.056 1.69733.82784 1.79602.58356 1.85976.32792 1.8873.0659 1.878-.1974 1.83235-.45686 1.75094-.70743 1.63544-.94422 1.48812-1.16264 1.31183-1.35844 1.1-1.5278.88657-1.6674.6459-1.77456.39263-1.84718.13173-1.88385" class="B"/><path d="M170.208 129.6l-.09892-2.83267-.29628-2.81887-.4922-2.79134-.6857-2.7502-.87588-2.69567-1.06178-2.628-1.24252-2.54754-1.4172-2.45466-1.58497-2.34982-1.74503-2.23354-1.89658-2.10637-2.0389-1.96894-2.17127-1.82192-2.29308-1.66602-2.4037-1.502-2.50262-1.33067-2.58935-1.15285-2.66346-.96942-2.7246-.78127-2.77246-.5893-2.8068-.39447-2.8275-.19772h-2.8344l-2.8275.19772-2.8068.39447-2.77246.5893-2.7246.78127-2.66346.96942-2.58935 1.15285-2.50262 1.33067-2.4037 1.502-2.29308 1.66602-2.17128 1.82192-2.0389 1.96894-1.89658 2.10637-1.74503 2.23354-1.58497 2.34982-1.4172 2.45466-1.24252 2.54754-1.06178 2.628-.87588 2.69567-.6857 2.7502-.4922 2.79134-.29627 2.81887L88.992 129.6l.09892 2.83267.29627 2.81887.4922 2.79134.6857 2.7502.87588 2.69567 1.06178 2.628 1.24252 2.54754 1.4172 2.45466 1.58498 2.34982 1.74503 2.23353 1.89658 2.10637 2.0389 1.96894 2.17128 1.82192 2.29308 1.66602 2.4037 1.502 2.50262 1.33067 2.58935 1.15285 2.66346.96942 2.7246.78127 2.77246.5893 2.8068.39447 2.8275.19772h2.8344l2.8275-.19772 2.8068-.39447 2.77246-.5893 2.7246-.78127 2.66346-.96942 2.58935-1.15285 2.50262-1.33067 2.4037-1.502 2.29308-1.66602 2.17127-1.82192 2.0389-1.96894 1.89658-2.10637 1.74503-2.23353 1.58497-2.34982 1.4172-2.45466 1.24252-2.54754 1.06178-2.628.87588-2.69567.6857-2.7502.4922-2.79134.29628-2.81887.09892-2.83267" class="B"/><path d="M197.28 129.6l-.16486-4.72112-.4938-4.69812-.8203-4.65223-1.14284-4.58367-1.4598-4.4928-1.76964-4.38-2.07086-4.246-2.362-4.091-2.64162-3.91637-2.90838-3.72256-3.16097-3.5106-3.39816-3.28156-3.6188-3.03653-3.8218-2.7767L163.44 70.9874l-4.17104-2.21778-4.31558-1.92142-4.439-1.6157-4.54-1.3021-4.62077-.98217-4.67802-.65745-4.7125-.32953h-4.724l-4.7125.32953-4.67802.65745-4.62077.98217-4.54 1.3021-4.439 1.6157-4.3156 1.92142L95.76 70.9874l-4.00618 2.50334-3.8218 2.7767-3.6188 3.03653-3.39816 3.28156-3.16097 3.5106-2.90838 3.72256-2.64163 3.91637-2.362 4.091-2.07086 4.246-1.76964 4.38-1.4598 4.4928-1.14284 4.58367-.8203 4.65223-.4938 4.69812L61.92 129.6l.16486 4.72112.4938 4.69812.8203 4.65223 1.14284 4.58367 1.4598 4.4928 1.76964 4.38 2.07086 4.246 2.362 4.091 2.64163 3.91637 2.90838 3.72256 3.16097 3.5106 3.39816 3.28156 3.6188 3.03653 3.8218 2.7767L95.76 188.2126l4.17104 2.21778 4.3156 1.92142 4.439 1.6157 4.54 1.3021 4.62077.98217 4.67802.65745 4.7125.32953h4.724l4.7125-.32953 4.67802-.65745 4.62077-.98217 4.54-1.3021 4.439-1.6157 4.31558-1.92142 4.17104-2.21778 4.00618-2.50334 3.8218-2.7767 3.6188-3.03653 3.39816-3.28156 3.16097-3.5106 2.90838-3.72256 2.64162-3.91637 2.362-4.091 2.07086-4.246 1.76964-4.38 1.4598-4.4928 1.14284-4.58367.8203-4.65223.4938-4.69812L197.28 129.6" class="B"/><path d="M224.352 129.6l-.05772-3.3068-.1731-3.30277-.28825-3.29472-.40306-3.28265-.51738-3.26658-.63106-3.24654-.74398-3.22253-.856-3.1946-.96696-3.1628-1.07675-3.1271-1.18523-3.08763-1.29227-3.0444-1.39773-2.99743-1.50148-2.94683-1.6034-2.89263-1.7034-2.8349-1.8013-2.77374-1.897-2.70918-1.99038-2.64133-2.08135-2.57026-2.16978-2.49605-2.25557-2.4188-2.33862-2.3386-2.4188-2.25557-2.49605-2.16978-2.57026-2.08135-2.64133-1.99038-2.70918-1.897-2.77374-1.80128-2.8349-1.7034-2.89263-1.6034-2.94683-1.50148-2.99743-1.39773-3.0444-1.29227-3.08763-1.18523-3.12712-1.07675-3.1628-.96696-3.1946-.856-3.22253-.74398-3.24654-.63106-3.26658-.51738-3.28265-.40306-3.29472-.28825-3.30277-.1731L129.6 34.848l-3.3068.05772-3.30277.1731-3.29472.28825-3.28265.40306-3.26658.51738-3.24654.63106-3.22253.74398-3.1946.856-3.1628.96696-3.1271 1.07675-3.08763 1.18523-3.0444 1.29227-2.99743 1.39773-2.94683 1.50148-2.89263 1.6034-2.8349 1.7034-2.77374 1.8013-2.70918 1.897-2.64133 1.99038-2.57026 2.08135-2.49605 2.16978-2.4188 2.25557-2.3386 2.3386-2.25557 2.4188-2.16978 2.49605-2.08135 2.57026-1.99038 2.64133-1.897 2.70918-1.80128 2.77374-1.7034 2.8349-1.6034 2.89263-1.50148 2.94683-1.39773 2.99743-1.29227 3.0444-1.18523 3.08763-1.07675 3.1271-.96696 3.1628-.856 3.1946-.74398 3.22253-.63106 3.24654-.51738 3.26658-.40306 3.28265-.28825 3.29472-.1731 3.30277L34.848 129.6l.05772 3.3068.1731 3.30277.28825 3.29472.40306 3.28265.51738 3.26658.63106 3.24654.74398 3.22253.856 3.1946.96696 3.1628 1.07675 3.12712 1.18523 3.08763 1.29227 3.0444 1.39773 2.99743 1.50148 2.94683 1.6034 2.89263 1.7034 2.8349 1.8013 2.77374 1.897 2.70918 1.99038 2.64133 2.08135 2.57026 2.16978 2.49605 2.25557 2.4188 2.3386 2.33862 2.4188 2.25557 2.49605 2.16978 2.57026 2.08135 2.64133 1.99038 2.70918 1.897 2.77374 1.8013 2.8349 1.7034 2.89263 1.6034 2.94683 1.50148 2.99743 1.39773 3.0444 1.29227 3.08763 1.18523 3.1271 1.07675 3.1628.96696 3.1946.856 3.22253.74398 3.24654.63106 3.26658.51738 3.28265.40306 3.29472.28825 3.30277.1731 3.3068.05772 3.3068-.05772 3.30277-.1731 3.29472-.28825 3.28265-.40306 3.26658-.51738 3.24654-.63106 3.22253-.74398 3.1946-.856 3.1628-.96696 3.12712-1.07675 3.08763-1.18523 3.0444-1.29227 2.99743-1.39773 2.94683-1.50148 2.89263-1.6034 2.8349-1.7034 2.77374-1.8013 2.70918-1.897 2.64133-1.99038 2.57026-2.08135 2.49605-2.16978 2.4188-2.25557 2.33862-2.33862 2.25557-2.4188 2.16978-2.49605 2.08135-2.57026 1.99038-2.64133 1.897-2.70918 1.8013-2.77374 1.7034-2.8349 1.6034-2.89263 1.50148-2.94683 1.39773-2.99743 1.29227-3.0444 1.18523-3.08763 1.07675-3.12712.96696-3.1628.856-3.1946.74398-3.22253.63106-3.24654.51738-3.26658.40306-3.28265.28825-3.29472.1731-3.30277.05772-3.3068" class="B"/></g><g stroke-linejoin="miter"><g stroke="#4c4c4c" stroke-width="1.5" class="C"><path d="M129.6 129.6l25.747-8.3657.02615.08093.026.081.02564.0811.0254.08117.02513.08125.02488.08133.02462.0814.02437.08148.0241.08156.02386.08163.0236.0817.02334.08178.0231.08186.02283.08193.02257.082.0223.08207.02205.08214.0218.0822.02154.08228.02128.08234.02102.0824.02076.08248.0205.08254.02024.0826.01998.08267.01972.08273.01946.0828.0192.08285.01894.0829.01868.08297.01842.08303.01816.0831.018.08314.01764.0832.01738.08325.01712.0833.01685.08336.0166.08342.01633.08347.01607.08352.0158.08357.01554.08362.01528.08366.01502.0837.01475.08376.0145.0838.01423.08385.01396.0839.0137.08394.01344.08398.01317.08402.0129.08406.01264.084.01238.08414.0121.08418.01185.08422.0116.08426.01132.0843.01106.08433.0108.08436.01053.0844.01026.08443.01.08446.00973.0845.00947.08452.0092.08455.00893.08458.00867.0846.0084.08463.00814.08466.00787.08468.0076.0847.00734.08473.00707.08475.0068.08478.00654.0848.00627.08482.006.08484.00574.08486.00547.08487.0052.0849.00494.0849.00467.08492.0044.08494.00414.08495.00387.08496.0036.08497.00334.08498.00307.085.0028.085.00254.085.00227.08502.002.08503.00174.08503.00147.08504.0012.08504.00093.08504.00067.08505.0004.08505.00013.08505h-26.80128z" fill="#004cff" class="B"/><path d="M129.6 129.6l28.53726-76.03725.23874.09003.23845.09078.23817.09153.23788.09227.2376.09302.2373.09377.237.0945.2367.09525.2364.096.236.09674.2358.09748.23548.09822.23517.09896.23486.0997.23455.10044.23423.10117.2339.1019.2336.10264.23327.10338.23294.1041.2326.10484.23228.10557.23195.1063.23162.10703.23128.10776.23094.10848.2306.1092.23025.10993.2299.11065.22956.11137.2292.112.22885.1128.2285.11353.22814.11425.22778.11497.22742.11568.22705.1164.22668.1171.22632.11782.22594.11853.22557.11924.2252.11995.22482.12065.22444.12136.22405.12206.22367.12277.22328.12347.2229.12417.2225.12487.2221.12557.2217.12627.22132.12696.22092.12766.2205.12835.2201.12904.2197.12973.2193.13042.21888.1311.21847.1318.21806.13248.21764.13317.21722.13385.2168.13453.21637.1352.21595.1359.21552.13657.2151.13725.21466.13792.21422.1386.2138.13927.21335.13994.2129.1406.21247.14128.21202.14194.21157.1426.21112.14327.21067.14393.21022.1446.20976.14525.2093.1459.20885.14657.2084.14723.20792.14788.20746.14853.207.14918.20652.14983.20605.15048.20557.15113.205.15177.20462.15242.20414.15306.20366.1537.20317.15434.2027.15498.2022.1556.2017.15625.20122.15688.20073.1575.20023.15814.19973.15877-50.13098 62.86225z" fill="#ceff29" class="B"/><path d="M129.6 129.6L60.20086 46.4733l.3925-.3261.39403-.32426.39555-.3224L61.78 45.18l.39857-.31866.40007-.31677.40156-.3149.40304-.313.4045-.3111.40597-.30918.40742-.30726.40886-.30534.4103-.3034.41172-.30147.41314-.29953.41455-.29758.41595-.29562.41733-.29366.4187-.2917.42008-.2897.42144-.28773.4228-.28574.42414-.28374.42547-.28174.4268-.27973.428-.27772.4294-.2757.4307-.27367.432-.27164.43326-.2696.43453-.26756.43578-.2655.43703-.26345.43827-.2614.4395-.25932.4407-.25724.44192-.25516.44312-.25308.4443-.251.44548-.2489.44665-.2468.4478-.24468.44896-.24257.4501-.24045.45122-.23833.45234-.2362.45345-.23406.45455-.23192.45563-.22978.4567-.22763.45778-.22548.45884-.2233.45988-.22115.46092-.21898.46195-.2168.46296-.21463.46397-.21244.46497-.21026.46595-.20806.46693-.20586.4679-.20366.46885-.20145.4698-.19924.47072-.19702.47165-.1948.47256-.19258.47346-.19035.47435-.18812.47524-.18588.4761-.18364.47697-.1814.47782-.17914.47866-.1769.47948-.17463.4803-.17237.4811-.1701.482-.16784.4827-.16556.48346-.1633.48423-.161.48498-.15872.48572-.15644.48646-.15415.48718-.15185.4879-.14955.4886-.14725.48928-.14495.48995-.14264.49062-.14033.49127-.13802.49192-.1357.49255-.13338.49318-.13106.4938-.12874.4944-.1264.49498-.12407.49556-.12174.49613-.1194.49668-.11707.49723-.11472 23.85538 104.51726z" fill="#ff6800" class="B"/><path d="M129.6 129.6l-93.2293 16.91862-.10446-.5861-.10078-.58675-.0971-.58737-.0934-.58797-.0897-.58855-.086-.589-.0823-.58963-.0786-.59013-.07488-.59062-.07117-.59107-.06745-.5915-.06374-.59192-.06002-.5923-.0563-.59268-.05257-.59302-.04884-.59334-.0451-.59363-.04138-.594-.03765-.59415-.0339-.59438-.03018-.59458-.02644-.59475-.0227-.5949-.01897-.59504-.01523-.59515-.0115-.59523-.00775-.5953-.004-.59533-.00027-.59534.00347-.59533.0072-.5953.01095-.59524.0147-.59516.01843-.59506.02217-.59493.0259-.59478.02965-.5946.03338-.5944.03712-.5942.04085-.59394.04458-.59367.0483-.59338.05203-.59306.05576-.59273.05948-.59236.0632-.59198.06692-.59157.07064-.59114.07435-.59068.07806-.5902.08177-.5897.08547-.58918.08917-.58863.09287-.58806.09656-.58746.10025-.58684.10394-.5862.10762-.58554.1113-.58485.11497-.58414.11863-.5834.1223-.58265.12596-.58187.1296-.58106.13326-.58024.137-.5794.14054-.57852.14417-.57762.1478-.5767.15142-.57577.15503-.5748.15864-.57382.16224-.5728.16584-.57178.16943-.57072.173-.56965.1766-.56855.18015-.56743.18372-.5663.18727-.56512.19082-.56393.19436-.56273.1979-.5615.2014-.56024.20493-.55896.20844-.55766.21194-.55634.21543-.555.2189-.55363.2224-.55225.22585-.55084.2293-.5494.23276-.54796.2362-.5465.23962-.545.24304-.54348.24645-.54194.24985-.54038.25324-.5388.25662-.5372 84.51492 40.70024z" fill="#ffc400" class="B"/><path d="M129.6 129.6l-44.50648 30.83417-.04838-.06995-.04827-.07002-.04816-.07-.04805-.07018-.04794-.07025-.04783-.07033-.04772-.0704-.0476-.07048-.0475-.07055-.0474-.07063-.04727-.0707-.04716-.07077-.04705-.07085-.04694-.07092-.04683-.07-.04672-.07107-.0466-.07114-.0465-.0712-.04638-.0713-.04627-.07136-.04616-.07143-.04605-.0715-.04593-.07158-.04582-.07165-.0457-.07172-.0456-.0718-.04548-.07187-.04537-.07194-.04526-.072-.04514-.07208-.04503-.07215-.04492-.07222-.0448-.0723-.0447-.07236-.04458-.07243-.04446-.0725-.04435-.07257-.04423-.07264-.04412-.0727-.044-.07278-.0439-.07285-.04378-.07292-.04366-.073-.04355-.07305-.04343-.07312-.04332-.0732-.0432-.07326-.0431-.07333-.04297-.0734-.04286-.07346-.04274-.07353-.04263-.0736-.0425-.07366-.0424-.07373-.04228-.0738-.04216-.07386-.04205-.07393-.04193-.074-.0418-.07406-.0417-.07413-.04158-.0742-.04147-.07426-.04135-.07432-.04123-.0744-.04112-.07445-.04-.07452-.04088-.07458-.04076-.07464-.04065-.0747-.04053-.07477-.0404-.07484-.0403-.075-.04018-.07496-.04006-.07502-.03994-.0751-.03982-.07515-.0397-.0752-.0396-.07527-.03947-.07534-.03935-.0754-.03923-.07546-.0391-.07552-.039-.07558-.03888-.07564-.03876-.0757-.03864-.07577-.03852-.07583-.0384-.0759-.03828-.07595-.03816-.076-.03804-.07607-.03792-.07613-.0378-.0762-.03768-.07625-.03756-.0763-.03744-.07636-.03732-.07642-.0372-.07648-.03708-.07654-.03696-.0766 48.29424-23.25728z" fill="#29ffce" class="B"/><path d="M129.6 129.6l11.33682 66.72375-.2621.044-.26228.04297-.26245.04194-.2626.0409-.26277.03988-.26292.03885-.26308.03782-.26322.0368-.26336.03575-.2635.03472-.26364.03368-.26377.03265-.2639.0316-.26402.03057-.26413.02953-.26425.0285-.26436.02746-.26446.02642-.26456.02538-.26466.02434-.26475.0233-.26484.02226-.26493.02122-.265.02018-.2651.01914-.26516.018-.26523.01706-.2653.01602-.26536.01498-.2654.01393-.26547.0129-.2655.01185-.26556.0108-.2656.00976-.26564.00872-.26567.00768-.2657.00663-.26572.0056-.26574.00455-.26576.0035-.26577.00246-.26577.00142-.26578.00037-.26578-.00067-.26577-.0017-.26576-.00276-.26575-.0038-.26573-.00484-.2657-.0059-.2657-.00693-.26566-.00798-.26563-.00902-.2656-.01006-.26555-.011-.2655-.01215-.26545-.0132-.2654-.01423-.26534-.01527-.26528-.01632-.2652-.01736-.26514-.0184-.26507-.01944-.265-.02048-.2649-.02152-.26482-.02256-.26473-.0236-.26463-.02464-.26453-.02568-.26443-.02672-.26432-.02776-.2642-.0288-.264-.02983-.26398-.03087-.26386-.032-.26373-.03294-.2636-.03398-.26346-.035-.26332-.03605-.26318-.03708-.26303-.0381-.26288-.03914-.26272-.04018-.26257-.0412-.2624-.04224-.26223-.04327-.26206-.0443-.26188-.04533-.2617-.04636-.26152-.04738-.26133-.0484-.26114-.04944-.26095-.05046-.26074-.0515-.26054-.0525-.26033-.05353-.26012-.05455-.26-.05557-.25968-.0566-.25946-.0576-.25923-.05863 14.90962-65.3233z" fill="#7dff7a" class="B"/><path d="M129.6 129.6l85.41516 66.56232-.15707.20107-.15754.2007-.15802.20033-.1585.19995-.15896.19958-.15943.1992-.16.19883-.16037.19845-.16083.19807-.1613.1977-.16176.1973-.16223.19693-.1627.19655-.16315.19617-.16362.19578-.16408.1954-.16454.195-.165.19462-.16546.19423-.1659.19384-.16637.19345-.16682.19306-.16728.19266-.16773.19227-.16818.19187-.16863.19147-.1691.19108-.16954.19068-.16998.19028-.17043.18988-.17088.18947-.17132.18907-.17177.18867-.1722.18826-.17266.18785-.173.18745-.17354.18704-.17398.18663-.17442.18622-.17486.1858-.1753.1854-.17573.18498-.17617.18457-.1766.18415-.17704.18374-.17747.18332-.178.183-.17833.18248-.17876.18206-.1792.18164-.17962.18122-.18004.1808-.18047.18037-.1809.17994-.18132.1795-.18174.1791-.18216.17866-.18258.17823-.183.1778-.18342.17736-.18383.17693-.18425.1765-.18467.17606-.18508.17563-.1855.1752-.1859.17476-.18632.17432-.18673.17388-.18714.17344-.18755.173-.18795.17255-.18836.1721-.18876.17166-.18917.17122-.18957.17077-.18997.17032-.19037.16988-.19077.16943-.19117.16898-.19157.16853-.19197.16808-.19236.16762-.19275.16717-.19315.16672-.19354.16626-.19393.1658-.19432.16534-.1947.1649-.195.16443-.1955.16397-.19587.1635-.19626.16304-.19664.16258-.19702.16212-.1974.16165-.19778.1612-.19816.16072-.19854.16025-.19892.1598-.1993.15932-66.8413-83.81634z" fill="#ff6800" class="B"/></g><path d="M251.424 129.6a121.8268 121.8268 0 0 0-9.2733-46.62003c-6.1221-14.78002-15.09598-28.2104-26.40812-39.52255S191.00005 23.1714 176.22003 17.0493a121.8268 121.8268 0 0 0-93.24005 0c-14.78002 6.1221-28.2104 15.09598-39.52255 26.40812S23.1714 68.19995 17.0493 82.97997a121.8268 121.8268 0 0 0 0 93.24005c6.1221 14.78002 15.09598 28.2104 26.40812 39.52255s24.74253 20.28604 39.52255 26.40812a121.8268 121.8268 0 0 0 93.24005 0c14.78002-6.1221 28.2104-15.09598 39.52255-26.40812s20.28604-24.74253 26.40812-39.52255A121.8268 121.8268 0 0 0 251.424 129.6" fill="none" stroke="#11557c" stroke-width="3" class="D"/></g><defs><clipPath id="A"><path d="M251.424 129.6a121.8268 121.8268 0 0 0-9.2733-46.62003c-6.1221-14.78002-15.09598-28.2104-26.40812-39.52255S191.00005 23.1714 176.22003 17.0493a121.8268 121.8268 0 0 0-93.24005 0c-14.78002 6.1221-28.2104 15.09598-39.52255 26.40812S23.1714 68.19995 17.0493 82.97997a121.8268 121.8268 0 0 0 0 93.24005c6.1221 14.78002 15.09598 28.2104 26.40812 39.52255s24.74253 20.28604 39.52255 26.40812a121.8268 121.8268 0 0 0 93.24005 0c14.78002-6.1221 28.2104-15.09598 39.52255-26.40812s20.28604-24.74253 26.40812-39.52255A121.8268 121.8268 0 0 0 251.424 129.6m0 0z"/></clipPath></defs></svg>