/* XPM */
static char *axes_editor[] = {
/* columns rows colors chars-per-pixel */
"24 24 9 1 ",
"  c black",
". c #7B4D43",
"X c #BE5516",
"o c #9E5632",
"O c #AD5421",
"+ c #AF5829",
"@ c #B95B24",
"# c #0043A5",
"$ c None",
/* pixels */
"$$$$$$ $$$$$$$$$$$$$$$$$",
"$$$$$$ $$$$$$$$$$$$$$$$$",
"$$$$$$ $$$$$$$$$$$$$$$$$",
"$$$$$$ $$$$$$$$$$$$$$$$$",
"$$$$$$ $$$$$$$$$$$$$$$$$",
"$$$$$$ $$$$$.$$$$$$$$$$$",
"$$$$$$ $$$$$$$$$$$O$$$$$",
"$$$$$$ $$$$$$$$$$$$$$$$$",
"$$$$$$ $$$$$$$$$$$$$$$$$",
"$$$$$$ $$$$$$$$$$$$$$$$$",
"$$$$$$ $$$$$$$$#$$$o$$$$",
"$$$$$$ $$$$+$$$$$$$$$$$$",
"$$$$$$ $$$$$$$$$$$$$$$$$",
"$$$$$$ $$$$$$$$@$$$$X$$$",
"$$$$$$ $$$$$$$$$$$$$$$$$",
"$$$$$$ $$$$$$$$$$$$$$$$$",
"$$$$$$ $$$$$$$$$$$$$$$$$",
"$$$$$$ $$$$$ $$ $$ $$ $$",
"                        ",
"$$$$$$ $$$$$$$$$$$$$$$$$",
"$$$$$$ $$$$$$$$$$$$$$$$$",
"$$$$$$ $$$$$$$$$$$$$$$$$",
"$$$$$$ $$$$$$$$$$$$$$$$$",
"$$$$$$ $$$$$$$$$$$$$$$$$"
};
