/* XPM */
static char *back[] = {
/* columns rows colors chars-per-pixel */
"24 24 130 2",
"   c #17697A",
".  c #1B6B7A",
"X  c #216D7D",
"o  c #066F8C",
"O  c #0C6E85",
"+  c #0F6F89",
"@  c #04708F",
"#  c #0B728F",
"$  c #067291",
"%  c #097593",
"&  c #0B7995",
"*  c #0E7D99",
"=  c #14748A",
"-  c #1D7280",
";  c #147C92",
":  c #127E9B",
">  c #1A7F94",
",  c #237483",
"<  c #217C8B",
"1  c #2A7584",
"2  c #2A7A8B",
"3  c #297A92",
"4  c #347886",
"5  c #3D7E8D",
"6  c #12829D",
"7  c #1F8395",
"8  c #1B8498",
"9  c #1586A0",
"0  c #1688A1",
"q  c #1A8CA4",
"w  c #1E92A9",
"e  c #248595",
"r  c #25859B",
"t  c #258A9B",
"y  c #2A879B",
"u  c #2D8C9E",
"i  c #308095",
"p  c #3B8293",
"a  c #398499",
"s  c #3E8A9D",
"d  c #298DA1",
"f  c #2195AB",
"g  c #2398AE",
"h  c #299AAC",
"j  c #259BB0",
"k  c #289EB2",
"l  c #3086A1",
"z  c #308FA0",
"x  c #3192A2",
"c  c #3799A9",
"v  c #2AA1B5",
"b  c #2DA5B8",
"n  c #37A0AF",
"m  c #32ABBD",
"M  c #38A0B0",
"N  c #36B0C1",
"B  c #3AB6C6",
"V  c #3CB8C7",
"C  c #3DBAC8",
"Z  c #41808F",
"A  c #408797",
"S  c #45899D",
"D  c #518A9A",
"F  c #4B8CA0",
"G  c #4697AB",
"H  c #4A92A4",
"J  c #5C91A0",
"K  c #539AB1",
"L  c #589DB4",
"P  c #50A9B6",
"I  c #54B1BC",
"U  c #659DAF",
"Y  c #64A9B7",
"T  c #66ADBA",
"R  c #6BA2B6",
"E  c #6CB0BD",
"W  c #7FA8B7",
"Q  c #74B2BF",
"!  c #41BECC",
"~  c #5EBEC6",
"^  c #68B7C2",
"/  c #73ACC4",
"(  c #7BAFC5",
")  c #43C1CE",
"_  c #47C6D2",
"`  c #4ACAD5",
"'  c #5EC2C9",
"]  c #52D4DD",
"[  c #57DBE3",
"{  c #6ACFD3",
"}  c #61E7EC",
"|  c #63EAEF",
" . c #6BF5F7",
".. c #80A7B2",
"X. c #8FB1BC",
"o. c #8DB5C9",
"O. c #86B6D0",
"+. c #88BAD2",
"@. c #92B9CE",
"#. c #9BBCCD",
"$. c #91BDD6",
"%. c #9CBDD2",
"&. c #8AC1CA",
"*. c #94C4CD",
"=. c #93C7D0",
"-. c #A9D3DC",
";. c #B8CBD7",
":. c #ADD9E1",
">. c #B6CDE0",
",. c #B7D0E4",
"<. c #BDD3E9",
"1. c #BADDE4",
"2. c #BDE0E7",
"3. c #BEE2E8",
"4. c #C3D3DF",
"5. c #D3DBDD",
"6. c #C2D6EA",
"7. c #C6D8EA",
"8. c #CAD9E9",
"9. c #D7DFE7",
"0. c #D3DDE8",
"q. c #C0E4EA",
"w. c #C3E9EE",
"e. c #C2EDF0",
"r. c #C8EEF2",
"t. c #C6F2F4",
"y. c #CAF1F4",
"u. c #DCE1E7",
"i. c #D9E0E8",
"p. c #E5E5E6",
/* pixels */
"p.p.p.p.p.p.p.p.p.p.p.p.p.p.p.p.p.p.p.p.p.p.p.p.",
"p.p.p.p.p.p.p.p.i.8.6.<.,.7.8.i.p.p.p.p.p.p.p.p.",
"p.p.p.p.p.p.u.,.R a 1 , X 2 H +.<.9.p.p.p.p.p.p.",
"p.p.p.p.p.8.U X e h v v v f 8 X 2 $.8.p.p.p.p.p.",
"p.p.p.p.6.p y b b m b b v g g w 8 . L 7.p.p.p.p.",
"p.p.p.8.s e b V ! ) C N v v k w w 0 . K 8.p.p.p.",
"p.p.u.( < b C ` ] ] ] I E v v w w q 6 . +.9.p.p.",
"p.p.6., h m ) ] } | ' 3.3.n v g w w 0 ; , 6.p.p.",
"p.u./ - v N _ [  .{ t.y.w.n v f g q 0 6 . / u.p.",
"p.0.x t v m ) ] ' 3.y.t.w.n v g w q 9 6 = a 0.p.",
"p.6.< g v b V I 3.t.t.r.q.&.&.&.*.q 6 6 * - 8.p.",
"p.6.X g v v P 3.t.t.r.3.2.2.2.2.1.Q 9 * &   6.p.",
"p.<.- f g v =.3.q.q.2.2.2.2.2.2.2.Q 6 6 *   6.p.",
"p.6., w f g c :.3.3.2.2.2.2.2.2.1./ 6 & % . 6.p.",
"p.8.1 q w f g x -.3.2.2.2.E T T Y 6 : % % 1 0.p.",
"p.9.F > q w f f x -.2.2.2.d q 6 6 * * % O F 9.p.",
"p.p.@.- q q q q w u -.1.1.d 9 6 6 * & $ . %.p.p.",
"p.p.0.4 6 9 0 0 0 0 y -.,.r 6 * & % $ O p 0.p.p.",
"p.p.p.#.2 9 9 9 9 9 9 r G 6 * * % $ @ X >.p.p.p.",
"p.p.p.p.J 3 & * * * * * * & % $ $ @ . o.p.p.p.p.",
"p.p.p.p.p.D S : % & & % % $ $ @ O 1 %.p.p.p.p.p.",
"p.p.p.p.p.p...4 S a % $ $ # 3 4 D 4.p.p.p.p.p.p.",
"p.p.p.p.p.p.p.5.o.J 5 5 5 D ..;.p.p.p.p.p.p.p.p.",
"p.p.p.p.p.p.p.p.p.p.p.p.p.p.p.p.p.p.p.p.p.p.p.p."
};
