<?xml version="1.0" encoding="UTF-8"?>
<svg width="48px" height="48px" viewBox="0 0 48 48" version="1.1" xmlns="http://www.w3.org/2000/svg" xmlns:xlink="http://www.w3.org/1999/xlink">
<g style="fill:black">
<path d="M15 39v-9h18v9zm21 0v-9.8q-.2-2-2.2-2.2H14.2C13 27 12 28 12 29.2V39H9V9h3v9.8c0 1.2 1 2.2 2.2 2.2h13.5q2.1-.2 2.3-2.2V9c.5 0 1.4.4 1.7.7l6.6 6.6c.3.3.7 1.3.7 1.7v21zm-9-21.7q-.1.6-.7.7h-4.6a1 1 0 0 1-.7-.7V9.8q0-.7.7-.8h4.6q.6.1.7.8zm15 .7a6 6 0 0 0-1.6-3.8l-6.6-6.6A6 6 0 0 0 30 6H8.3Q6.2 6.2 6 8.3v31.4q.2 2.1 2.3 2.3h31.4q2.1-.2 2.3-2.3z"/>
</g>
</svg>
