/* XPM */
static char *filesave[] = {
/* columns rows colors chars-per-pixel */
"24 24 184 2",
"   c #1D2A42",
".  c #1D2A43",
"X  c #2E3C53",
"o  c #2F3E54",
"O  c #303F55",
"+  c #164866",
"@  c #1E4763",
"#  c #1E516E",
"$  c #145374",
"%  c #155374",
"&  c #185575",
"*  c #195776",
"=  c #1B5777",
"-  c #1C5979",
";  c #1D5A79",
":  c #1C5C7A",
">  c #214F6B",
",  c #27526D",
"<  c #28516B",
"1  c #2A536E",
"2  c #265974",
"3  c #215D7C",
"4  c #235F7D",
"5  c #2D5D76",
"6  c #2E5D77",
"7  c #315C77",
"8  c #26617E",
"9  c #28617E",
"0  c #2F6078",
"q  c #306079",
"w  c #32617A",
"e  c #415A6E",
"r  c #415E73",
"t  c #425E73",
"y  c #425F74",
"u  c #435F74",
"i  c #455D72",
"p  c #595E64",
"a  c #436075",
"s  c #446075",
"d  c #44647B",
"f  c #45677C",
"g  c #496176",
"h  c #4A6074",
"j  c #4E6477",
"k  c #4E6679",
"l  c #536375",
"z  c #566678",
"x  c #61625B",
"c  c #786E59",
"v  c #7A7975",
"b  c #286280",
"n  c #286380",
"m  c #286482",
"M  c #2A6583",
"N  c #2C6683",
"B  c #2B6986",
"V  c #2B6A87",
"C  c #2C6A87",
"Z  c #2E6985",
"A  c #2A6C89",
"S  c #306A86",
"D  c #306B86",
"F  c #326F89",
"G  c #356E8A",
"H  c #366F8B",
"J  c #37708B",
"K  c #39738D",
"L  c #3B728D",
"P  c #3B738D",
"I  c #3C748E",
"U  c #3D758F",
"Y  c #3A7590",
"T  c #3A7691",
"R  c #3D7791",
"E  c #3E7590",
"W  c #406981",
"Q  c #41738C",
"!  c #42758C",
"~  c #43758D",
"^  c #42758E",
"/  c #4D7289",
"(  c #407791",
")  c #417892",
"_  c #427992",
"`  c #437A93",
"'  c #417C94",
"]  c #447A94",
"[  c #487E96",
"{  c #497F97",
"}  c #4A7F97",
"|  c #557587",
" . c #50768B",
".. c #557789",
"X. c #57768A",
"o. c #57768B",
"O. c #5E778A",
"+. c #5A7A8D",
"@. c #5D7C8F",
"#. c #488098",
"$. c #4B8098",
"%. c #4C8199",
"&. c #4D8299",
"*. c #4C829A",
"=. c #4D849B",
"-. c #50849B",
";. c #53869D",
":. c #55889E",
">. c #578AA0",
",. c #5B8CA1",
"<. c #608092",
"1. c #628395",
"2. c #608495",
"3. c #658597",
"4. c #678C9C",
"5. c #68899B",
"6. c #6C8C9E",
"7. c #6C8D9E",
"8. c #798C96",
"9. c #7F929C",
"0. c #648FA3",
"q. c #6090A4",
"w. c #6796A9",
"e. c #6E99AB",
"r. c #708FA0",
"t. c #7792A1",
"y. c #779AA9",
"u. c #74A0B2",
"i. c #77A0B1",
"p. c #77A2B4",
"a. c #79A2B3",
"s. c #7AA2B2",
"d. c #A1793F",
"f. c #A17A3F",
"g. c #A37B3F",
"h. c #A37B40",
"j. c #A47C40",
"k. c #A47D41",
"l. c #A47E43",
"z. c #A57E43",
"x. c #A38872",
"c. c #A68B74",
"v. c #A88E77",
"b. c #AB9079",
"n. c #AE937A",
"m. c #B0947D",
"M. c #B3977D",
"N. c #80939D",
"B. c #8497A1",
"V. c #8699A3",
"C. c #879AA4",
"Z. c #8B9EA7",
"A. c #8B9EA8",
"S. c #8DA0AA",
"D. c #8FA3AD",
"F. c #8FA2AF",
"G. c #92A3AF",
"H. c #93A3AF",
"J. c #93A6AF",
"K. c #94A6B0",
"L. c #94A7B0",
"P. c #95AAB3",
"I. c #9BAEB8",
"U. c #9DAFB8",
"Y. c #B59980",
"T. c #B79A82",
"R. c #A2B4BD",
"E. c #A2B5BF",
"W. c #A4B6BF",
"Q. c #A9BAC3",
"!. c #ADC2CB",
"~. c #AFC0C8",
"^. c #B5C6CD",
"/. c #BBCAD1",
"(. c #BDCDD5",
"). c #C1D0D7",
"_. c #C1D1D7",
"`. c #C0D1D8",
"'. c #C3D2D9",
"]. c #C4D5DC",
"[. c #C5D5DC",
"{. c #D9DEE0",
"}. c #DCDFE1",
"|. c #E6E6E6",
/* pixels */
"|.|.|.|.|.|.|.|.|.|.|.|.|.|.|.|.|.|.|.|.|.|.|.|.",
"|.|.|.|.|.|.|.|.|.|.|.|.|.|.|.|.|.|.|.|.|.|.|.|.",
"|.|.|.|.|.|.|.|.|.|.|.|.|.|.|.|.|.|.|.|.|.|.|.|.",
"|.|.|.|.|.|.|.|.|.|.|.|.|.|.|.|.|.|.|.|.|.|.|.|.",
"|.|.|.|.|.|.|.|.|.|.|.|.|.|.|.|.|.|.|.|.|.|.|.|.",
"|.!.Y A c z.l.l.h.z.h.g.h.f.x V 0.|.|.|.|.|.|.|.",
"|.i./ t.v T.T.M.n.n.b.v.c.x.p F.2 |.|.|.|.|.|.|.",
"|.s.W  .i.].(.y.r.7.5.3.1.4.^ 7 2 |.|.|.|.|.|.|.",
"|.s.[ &.p.].`.7.<.@.+.o.| 1.^ $ V |.|.|.|.|.|.|.",
"|.s.&.-.p.`.(.o.q q 0 6 6 | ^ $ V |.|.|.|.|.|.|.",
"|.s.&.:.s.`./.^.^.Q.R.I.P.D.^ % V |.|.|.|.|.|.|.",
"|.s.$.-.$.=.$.$.R R K F B m : % V |.|.|.|.|.|.|.",
"|.s.` } &.&.$.[ _ U J Z 9 : * % V |.|.|.|.|.|.|.",
"|.s.R _ _ ` _ ( U J D m 8 - % % V |.|.|.|.|.|.|.",
"|.s.G H U U O.g i z g i e @ % % V |.|.|.|.|.|.|.",
"|.s.N Z Z Z G.o   Q.U.J.Z.> % % V |.|.|.|.|.|.|.",
"|.s.4 8 b 9 K.o . I.K.A.B.< % % C |.|.|.|.|.|.|.",
"|.w.* - - # Q.X . K.S.C.N.< % % V |.|.|.|.|.|.|.",
"|.{.Y % % + R.l l A.C.B.8.< % = ,.|.|.|.|.|.|.|.",
"|.|.{.>.,.d y y y y y y y f q.e.}.|.|.|.|.|.|.|.",
"|.|.|.|.|.|.|.|.|.|.|.|.|.|.|.|.|.|.|.|.|.|.|.|.",
"|.|.|.|.|.|.|.|.|.|.|.|.|.|.|.|.|.|.|.|.|.|.|.|.",
"|.|.|.|.|.|.|.|.|.|.|.|.|.|.|.|.|.|.|.|.|.|.|.|.",
"|.|.|.|.|.|.|.|.|.|.|.|.|.|.|.|.|.|.|.|.|.|.|.|."
};
