/* XPM */
static char *filesave1a[] = {
/* width height ncolors chars_per_pixel */
"24 24 301 2",
/* colors */
"   c #7CA3B5",
" . c #374F64",
" X c #7898A7",
" o c #2D4C64",
" O c #B3815D",
" + c #845646",
" @ c #5C7F92",
" # c #28465F",
" $ c #27465E",
" % c #79A3B5",
" & c #03496C",
" * c #899CA7",
" = c #02476B",
" - c #01476A",
" ; c #044063",
" : c #7B95A3",
" > c #81949F",
" , c #B6C9D3",
" < c #085374",
" 1 c #AF7F5C",
" 2 c #7893A0",
" 3 c #B4C7D1",
" 4 c #7E929C",
" 5 c #064F72",
" 6 c #A16E41",
" 7 c #A06C40",
" 8 c #044D70",
" 9 c #9F6C3F",
" 0 c #B0C3CD",
" q c #195E7E",
" w c #AFC3CC",
" e c #175C7C",
" r c #6B8C9D",
" t c #546376",
" y c #96AEBA",
" u c #ACBFC9",
" i c #155A7A",
" p c #135878",
" a c #A9BDC6",
" s c #0B597A",
" d c #A9BBC6",
" f c #205271",
" g c #125677",
" h c #034265",
" j c #0A5779",
" k c #095778",
" l c #4E5D70",
" z c #A6B9C3",
" x c #304B63",
" c c #7396A8",
" v c #8FA6B3",
" b c #4B5B6D",
" n c #A4B7C1",
" m c #0B5070",
" M c #A0B3BD",
" N c #0B5B7D",
" B c #374E63",
" V c #364C62",
" C c #7E96A2",
" Z c #B4825D",
" A c #7795A5",
" S c #2D4B63",
" D c #92A5AF",
" F c #2B4961",
" G c #29475F",
" H c #8EA1AB",
" J c #27455D",
" K c #86A0AD",
" L c #9BAFBB",
" P c #8A9DA7",
" I c #98ADB8",
" U c #014669",
" Y c #8699A3",
" T c #004468",
" R c #8497A1",
" E c #82959F",
" W c #B1805D",
" Q c #B0805C",
" ! c #90A5B0",
" ~ c #A47143",
" ^ c #7E919B",
" / c #A16D40",
" ( c #044C6F",
" ) c #7A8D97",
" _ c #195D7D",
" ` c #ADC0C9",
" ' c #768993",
" ] c #94ABB7",
" [ c #0B5879",
" { c #92A9B5",
" } c #095677",
" | c #085476",
".  c #075275",
".. c #AD7E5C",
".X c #AC7C5B",
".o c #6F91A3",
".O c #1F415B",
".+ c #0C5C7D",
".@ c #0B5C7C",
".# c #5F7486",
".$ c #738593",
".% c #708190",
".& c #A4B8C3",
".* c #7492A1",
".= c #566A7D",
".- c #7BA3B5",
".; c #687988",
".: c #526679",
".> c #285874",
"., c #3A677F",
".< c #BCCFD7",
".1 c #6C8699",
".2 c #B9CBD4",
".3 c #0A5374",
".4 c #A57243",
".5 c #3C748E",
".6 c #A37041",
".7 c #27465F",
".8 c #305975",
".9 c #77A3B4",
".0 c #9BB0BD",
".q c #044B6E",
".w c #705047",
".e c #03496D",
".r c #819DAA",
".t c #01476B",
".y c #43778E",
".u c #658295",
".i c #085375",
".p c #AE7F5C",
".a c #075174",
".s c #065173",
".d c #8DA4AF",
".f c #7A8C99",
".g c #768895",
".h c #1F405A",
".j c #0C5B7C",
".k c #0B597B",
".l c #0A597A",
".z c #A7BBC5",
".x c #105676",
".c c #095779",
".v c #374C61",
".b c #4A596D",
".n c #73919F",
".m c #718F9D",
".M c #536579",
".N c #7A99A9",
".B c #95A9B3",
".V c #A4B9C5",
".C c #2E4D65",
".Z c #A67343",
".A c #B2805C",
".S c #4A7187",
".D c #335C77",
".F c #9FB5C0",
".G c #224863",
".H c #28475F",
".J c #8EA1AC",
".K c #27455E",
".L c #26455D",
".P c #587C8E",
".I c #839EAB",
".U c #02486B",
".Y c #293E56",
".T c #01466A",
".R c #8699A4",
".E c #7F9AA7",
".W c #729CAE",
".Q c #8DAAB8",
".! c #044163",
".~ c #7D98A5",
".^ c #8397A1",
"./ c #93A7B4",
".( c #AE7E5B",
".) c #A26F42",
"._ c #065072",
".` c #B3C6D0",
".' c #054E71",
".] c #B1C4CE",
".[ c #044C70",
".{ c #9F6B3F",
".} c #798D97",
".| c #AEC2CB",
"X  c #6C8D9E",
"X. c #ACC0C9",
"XX c #ABBEC8",
"Xo c #145979",
"XO c #516073",
"X+ c #125777",
"X@ c #505E72",
"X# c #0A5879",
"X$ c #728590",
"X% c #095678",
"X& c #40768D",
"X* c #304A63",
"X= c #7295A7",
"X- c #889FAC",
"X; c #9DB0BA",
"X: c #0B5C7D",
"X> c #99ACB6",
"X, c #034568",
"X< c #7A4C38",
"X1 c #024367",
"X2 c #4F768B",
"X3 c #374D63",
"X4 c #304E66",
"X5 c #364D62",
"X6 c #8DA7B4",
"X7 c #2C4A62",
"X8 c #7594A3",
"X9 c #8BA5B2",
"X0 c #91A4AE",
"Xq c #576C7F",
"Xw c #2A4860",
"Xe c #89A3B0",
"Xr c #28465E",
"Xt c #9DB2BD",
"Xy c #8DA0AA",
"Xu c #8B9EA8",
"Xi c #899CA6",
"Xp c #879AA4",
"Xa c #014569",
"Xs c #213E57",
"Xd c #004568",
"Xf c #96AAB6",
"Xg c #8598A2",
"Xh c #45778E",
"Xj c #8396A0",
"Xk c #684A3D",
"Xl c #B1815D",
"Xz c #81949E",
"Xx c #7F929C",
"Xc c #A26E41",
"Xv c #7192A2",
"Xb c #7D909A",
"Xn c #7B8E98",
"Xm c #B0C3CC",
"XM c #034B6E",
"XN c #175C7B",
"XB c #778A94",
"XV c #155A79",
"XC c #536174",
"XZ c #FFFFFF",
"XA c #41758D",
"XS c #085376",
"XD c #075375",
"XF c #7194A5",
"XG c #065174",
"XH c #AD7D5C",
"XJ c #9BB4C1",
"XK c #8AA2AD",
"XL c #7CA2B3",
"XP c #6D8EA1",
"XI c #97B0BD",
"XU c #768896",
"XY c #DDE0E4",
"XT c #1D2A42",
"XR c #0B5B7C",
"XE c #7C9BA9",
"XW c #91AAB7",
"XQ c #3E758D",
"X! c #8DA6B3",
"X~ c #D5D8DC",
"X^ c #6D7E8D",
"X/ c #55697C",
"X( c #7AA2B4",
"X) c #28435D",
"X_ c #53677A",
"X` c #708D9D",
"X' c #516578",
"X] c #839CA9",
"X[ c #4F6376",
"X{ c #4D6174",
"X} c #004467",
"X| c #BACCD5",
"o  c #B1805C",
"o. c #B6C8D1",
"oX c #034A6D",
"oo c #02486C",
"oO c #01466B",
"o+ c #1F516E",
"o@ c #095476",
"o# c #075274",
"o$ c #AE7E5C",
"o% c #B2C6D0",
"o& c #6E8FA1",
"o* c #5F7B8F",
"o= c #899FAB",
"o- c #20415B",
"o; c #95ADBA",
"o: c #1F415A",
"o> c #135979",
"o, c #0B5A7B",
"o< c #125778",
"o1 c #185674",
"o2 c #0A587A",
"o3 c #41768F",
"o4 c #2F4A63",
"o5 c #A1B4BF",
"o6 c None",
/* pixels */
"XZXZXZXZXZXZXZXZXZXZXZXZXZXZXZXZXZXZXZXZXZXZXZXZ",
"XZ.+.+.@.+X:X: NXRXRXRXRXRXRXRXRXRXRXR.jo,o,.+XZ",
".+XRo2 [X<.Z.4 ~ ~ ~.6.)Xc 6 6 / 7 9.{XkXM.q k.+",
".+.,o*.3 + Z O.AXlo  W Q 1.po$.(XH...X.wo+.1 f s",
".j.uX~ m.9.<.2 3 0 u d.&o5Xt L IXf./ !.5.8XY.D.l",
"XRo1.> < %X|o..].Q cX=XFXv.oo&XPX  rX]XQX1.!X,.l",
"XR |XDo@X( ,o%.|X2 G.H #.7 $.K.K.L.L @X&Xa T -.l",
"o,. .aXS.-.` w u.V.F.0 y ] { v.dXKX-o=o3 U T -.l",
"o,.s._o#XLXmX. a.So-o-o-.O.Oo:.h.h.h.P.y.T T -.l",
".k 5.'o#   ` a zX6XE.N X AX8.*.n.mX` CXhoO T -.l",
".l.' 8XG.WXJXIo;XWX!X9Xe K.I.r.E.~ : 2XA.T T -.l",
".l (.q.[ q _ eXN iXVXoXoXoo> p po<X+ g.xXa T -.l",
"o2XMoX &.U.t U T T T T T T T T T T T T T T T -.l",
"X# &oo.U -Xa T T T T T T T T T T T T T T T T -o2",
" j.U.t.TXa T T T T T T T T T T T T T T T T T -o2",
".c.TXaXd T T h ; ; ; ; ; ; ; ; ; ;.! T T T T.to2",
"X% T T T T TX).#Xq.M.:.=X/X_X'X[X{.Y T T T T.to2",
"X% T T T T To4XX tXTXT.f.BX0XyXi R . T T T T =o2",
"X% T T T T To4.zXCXTXTXU D H *XgXz B T T T T =o2",
"X% T T T T To4 nXOXTXT.$.J P Y >XbX3 T T T T =o2",
"X% T T T T T x MX@XTXT.%Xu.R E ^.}X5 T T T T =o2",
"X# T T T T T xX; lXTXTX^XpXj 4 ) ' V T T T T.e.l",
"o,.i T T T TX*X>.;.b b.g.^XxXnXBX$.vX} T T.e.l.+",
"XZ.k jX%X%X%.GX4.C o SX7 FXw GXr JXs } k k.l.+XZ"
};
