/* XPM */
static char *forward[] = {
/* columns rows colors chars-per-pixel */
"24 24 124 2",
"   c #17697A",
".  c #1B6B7A",
"X  c #216D7D",
"o  c #066F8C",
"O  c #0C6E85",
"+  c #0F6F89",
"@  c #04708F",
"#  c #0B728F",
"$  c #067291",
"%  c #097593",
"&  c #0B7995",
"*  c #0E7D99",
"=  c #14748A",
"-  c #1D7280",
";  c #147C92",
":  c #127E9B",
">  c #1A7F94",
",  c #237483",
"<  c #217C8B",
"1  c #2A7584",
"2  c #2A7A8B",
"3  c #297A92",
"4  c #347886",
"5  c #3D7E8D",
"6  c #12829D",
"7  c #1F8395",
"8  c #1A8499",
"9  c #1586A0",
"0  c #1788A2",
"q  c #1A8CA4",
"w  c #1E91A9",
"e  c #248595",
"r  c #258A9B",
"t  c #308095",
"y  c #3B8293",
"u  c #398499",
"i  c #3E8A9D",
"p  c #268FA3",
"a  c #2195AB",
"s  c #2398AE",
"d  c #299AAC",
"f  c #259BB0",
"g  c #289EB2",
"h  c #3086A1",
"j  c #2AA1B5",
"k  c #2EA5B9",
"l  c #32ABBD",
"z  c #36B0C1",
"x  c #3AB6C6",
"c  c #3CB8C7",
"v  c #3DBAC8",
"b  c #41808F",
"n  c #408797",
"m  c #45899D",
"M  c #518A9A",
"N  c #4B8CA0",
"B  c #4497AA",
"V  c #4A92A4",
"C  c #5C91A0",
"Z  c #539AB1",
"A  c #589DB4",
"S  c #5FB0BD",
"D  c #659DAF",
"F  c #6BA2B6",
"G  c #7FA8B7",
"H  c #41BDCB",
"J  c #4DBBC5",
"K  c #53BFC9",
"L  c #58BCC7",
"P  c #64B6C2",
"I  c #73ACC4",
"U  c #7BAFC5",
"Y  c #7BBBC6",
"T  c #7DBDC8",
"R  c #43C1CE",
"E  c #47C6D2",
"W  c #4ACAD5",
"Q  c #52D4DD",
"!  c #56DAE2",
"~  c #58DCE4",
"^  c #5DE3E9",
"/  c #6AC7D0",
"(  c #61E7EC",
")  c #63EAEF",
"_  c #6BF5F7",
"`  c #71FCFD",
"'  c #80A7B2",
"]  c #8FB1BC",
"[  c #86BEC8",
"{  c #8DB5C9",
"}  c #8DBEC7",
"|  c #86B6D0",
" . c #88BAD2",
".. c #92B9CE",
"X. c #9BBCCD",
"o. c #91BDD6",
"O. c #9CBDD2",
"+. c #83C5CE",
"@. c #88C0CA",
"#. c #89CED5",
"$. c #8CD1D7",
"%. c #8ED3D8",
"&. c #AED5DD",
"*. c #B8CBD7",
"=. c #B3D7DF",
"-. c #B6CDE0",
";. c #B7D0E4",
":. c #B4DAE2",
">. c #BDD3E9",
",. c #BADDE4",
"<. c #BDE0E7",
"1. c #BEE2E8",
"2. c #C3D3DF",
"3. c #D3DBDD",
"4. c #C2D6EA",
"5. c #C6D8EA",
"6. c #CAD9E9",
"7. c #D7DFE7",
"8. c #D3DDE8",
"9. c #C0E4EA",
"0. c #C4E9EE",
"q. c #DCE1E7",
"w. c #D9E0E8",
"e. c #E5E5E6",
/* pixels */
"e.e.e.e.e.e.e.e.e.e.e.e.e.e.e.e.e.e.e.e.e.e.e.e.",
"e.e.e.e.e.e.e.e.w.6.4.>.>.4.6.w.e.e.e.e.e.e.e.e.",
"e.e.e.e.e.e.w.;.F y 1 , , 2 V  .>.8.e.e.e.e.e.e.",
"e.e.e.e.e.6.D 1 e d j f d a 8 . 2 o.6.e.e.e.e.e.",
"e.e.e.e.4.y e k k l k k j f s w 8 X A 5.e.e.e.e.",
"e.e.e.6.i e k c R R v l j j s s q 0 . Z 6.e.e.e.",
"e.e.q.U < k v W Q Q Q J S j j w w q 6 . | q.e.e.",
"e.e.4., d l R Q ( ( Q E 1.<.j s a q 0 ; , 4.e.e.",
"e.7.I > k z E ! _ ` ^ E 0.9.=.d w q 0 6 - I q.e.",
"e.8.i r j l v Q ^ ( ~ J 0.9.9.=.w q 0 6 = u 8.e.",
"e.4.1 s j k x / %.%.#.+.9.9.9.<.:.q 9 6 * - 5.e.",
"e.>.- s g j l +.0.0.0.1.9.<.<.<.,.:.9 6 &   4.e.",
"e.>.X w s g j T 9.9.9.9.<.<.<.,.,.,.} * &   4.e.",
"e.4., w a s f T 9.<.<.1.<.<.<.,.,.&.6 & % . 4.e.",
"e.6.2 q w a s S @.@.@.@.<.,.,.=.&.6 * & % 1 8.e.",
"e.w.m 7 q w w a a a a r ,.,.9.=.6 * * % O M 7.e.",
"e.e...- 0 q q w w w q 8 ,.,.:.6 * * % %   O.e.e.",
"e.e.8.4 6 9 9 9 0 q 0 6 :.:.6 * * & % O 5 8.e.e.",
"e.e.e.X.2 6 6 6 6 6 6 6 B * * & % $ o X -.e.e.e.",
"e.e.e.e.C t * 6 * 6 * * & & & % $ o . { e.e.e.e.",
"e.e.e.e.e.M m : & & & & % % @ o + 1 O.e.e.e.e.e.",
"e.e.e.e.e.e.G 4 m u & $ @ # 3 1 M >.e.e.e.e.e.e.",
"e.e.e.e.e.e.e.3.] C b 5 5 M G *.e.e.e.e.e.e.e.e.",
"e.e.e.e.e.e.e.e.e.e.e.e.e.e.e.e.e.e.e.e.e.e.e.e."
};
