<?xml version="1.0" encoding="UTF-8"?>
<svg width="48px" height="48px" viewBox="0 0 48 48" version="1.1" xmlns="http://www.w3.org/2000/svg" xmlns:xlink="http://www.w3.org/1999/xlink">
<g style="fill:black" fill-rule="evenodd">
<path d="m24 13 14 11.5V41q0 1-1 1h-9a1 1 0 0 1-1-1v-9q0-1-1-1h-4a1 1 0 0 0-1 .9V41q0 1-1 1h-9a1 1 0 0 1-1-1V24.5z"/>
<path d="m25.3 6.4 7.7 6.3V9q0-1 1-1h3q1 0 1 1v7q0 .3-.2.6l1.2 1 6 5q.7.6.2 1.4l-1.3 1.5a1 1 0 0 1-1.3.3v-.1L24 10.6l-18.5 15a1 1 0 0 1-1.3 0H4L2.8 24a1 1 0 0 1 .2-1.4L22.7 6.4a2 2 0 0 1 2.6 0"/>
</g>
</svg>
