/* XPM */
static char *line_editor[] = {
/* columns rows colors chars-per-pixel */
"24 24 157 2 ",
"   c #615C48",
".  c #686665",
"X  c #6E6C6A",
"o  c #6E6C6B",
"O  c #787573",
"+  c #787877",
"@  c #860000",
"#  c #8C0000",
"$  c #920000",
"%  c #B90000",
"&  c #BD0E0E",
"*  c #A11919",
"=  c #922222",
"-  c #952828",
";  c #C01B1B",
":  c #C11D1D",
">  c red",
",  c #C32424",
"<  c #C32626",
"1  c #AE4141",
"2  c #A64848",
"3  c #B75959",
"4  c #B65A5A",
"5  c #B75F5F",
"6  c #85787D",
"7  c #B76464",
"8  c #C06060",
"9  c #C86767",
"0  c #C96767",
"q  c #D16E6E",
"w  c #D26E6E",
"e  c #C27777",
"r  c #C77E7E",
"t  c #C87D7D",
"y  c #DA7575",
"u  c #DB7575",
"i  c #E37C7C",
"p  c #00CC00",
"a  c #00CD00",
"s  c #02CC02",
"d  c #0BCB0B",
"f  c #0CCB0C",
"g  c #FF8B00",
"h  c DarkOrange",
"j  c #FF8D00",
"k  c #FF9905",
"l  c #FF9906",
"z  c #FF9B07",
"x  c #FF9C07",
"c  c #FF9C08",
"v  c #FF9C0A",
"b  c #FF9D0C",
"n  c #FFA700",
"m  c #FFA60C",
"M  c #FFA60D",
"N  c #FFA60E",
"B  c #FFA80F",
"V  c #FFA810",
"C  c #FFA811",
"Z  c #FFA812",
"A  c #FFAC1D",
"S  c #F9B43C",
"D  c #98FF00",
"F  c #99FF00",
"G  c #9AFF00",
"H  c #FFDA26",
"J  c #FFDA28",
"K  c #FFDA2A",
"L  c #FFDB2B",
"P  c #FFDB2D",
"I  c #FCD92E",
"U  c #FFDB2F",
"Y  c #F9C146",
"T  c #FFCB40",
"R  c #FFCB41",
"E  c #FFCB42",
"W  c #FFCC42",
"Q  c #FFCC43",
"!  c #FFCC44",
"~  c #FFCD44",
"^  c #FFCD45",
"/  c #FFCF4F",
"(  c #FFDD40",
")  c #FFE54E",
"_  c #FFE75A",
"`  c #FFE85E",
"'  c #FFE860",
"]  c #FFE863",
"[  c #FFE967",
"{  c #FFE969",
"}  c #FFEA6D",
"|  c #FFE071",
" . c #FFE072",
".. c #FFE073",
"X. c #FFE074",
"o. c #FFE175",
"O. c #FFE179",
"+. c #330098",
"@. c #340099",
"#. c #360499",
"$. c #3D0E9A",
"%. c #0033CC",
"&. c #1341C9",
"*. c #1341CA",
"=. c #1541CA",
"-. c #1B47C8",
";. c #D1138E",
":. c #CD0A97",
">. c #CC0098",
",. c #CD0099",
"<. c #009898",
"1. c #009999",
"2. c #0B9A9A",
"3. c #0A9B9B",
"4. c #0F9C9C",
"5. c #119D9D",
"6. c #878483",
"7. c #918180",
"8. c #939090",
"9. c #979694",
"0. c #A38A89",
"q. c #B7A980",
"w. c #AAA9A8",
"e. c #ADABAA",
"r. c #CF8A8A",
"t. c #CC908F",
"y. c #D19191",
"u. c #D59797",
"i. c #D79B9A",
"p. c #EC8383",
"a. c #F58A8A",
"s. c #F58B8B",
"d. c #FD9191",
"f. c #C7BDA6",
"g. c #EBAFAD",
"h. c #E6B0B0",
"j. c #FFE391",
"k. c #FCEA91",
"l. c #FFE69F",
"z. c #FFE7A2",
"x. c #FFEEA1",
"c. c #FFEFA2",
"v. c #FFEFA3",
"b. c #FFEFA4",
"n. c #FFEFA5",
"m. c #F9E9B0",
"M. c #FFEBB1",
"N. c #FFEBB2",
"B. c #C9C9C8",
"V. c #CBC9C9",
"C. c #FFEFC1",
"Z. c #FFEFC2",
"A. c #FFF3D1",
"S. c #FFF7E1",
"D. c #FFF7E2",
"F. c #FFFBF1",
"G. c None",
/* pixels */
"G.G.G.G.G.G.G.G.G.G.G.G.G.G.G.G.G.G.G.d.a.G.G.G.",
"G.G.G.G.G.G.G.G.%.%.G.G.G.@.+.G.G.G.d.a.p.i G.G.",
"G.G.G.G.G.G.G.G.%.%.=.G.G.$.#.+.G.0.g.p.i u w G.",
"G.G.G.G.G.G.G.G.*.-.*.G.G.+.+.G.6.e.V.h.u w 9 5 ",
"G.G.G.G.1.<.G.G.G.G.G.G.G.G.G.I k.B.w.9.i.0 8 4 ",
"G.G.G.1.<.2.5.G.G.G.G.G.G.G.H } c.m.8.X O t.4 G.",
"G.G.G.G.2.4.G.G.G.G.G.G.G.J { c. .T Y X . 7.G.G.",
"G.G.G.G.G.G.G.G.G.G.G.G.J [ c. .T M n S 6 G.G.G.",
"G.p p f G.G.G.G.G.G.G.P ] n. .W M n g v :.,.G.G.",
"G.p p f G.G.G.G.G.G.P ` v. .W M n g v ;.>.,.G.G.",
"G.p p p G.G.G.G.G.I ` n.o.W M n g v G.G.>.,.G.G.",
"G.G.G.G.G.G.G.G.U _ n.o.! V n j c G.G.G.G.G.G.G.",
"G.G.G.G.G.G.G.( ) n.o.^ V n j l G.G.G.G.G.G.G.G.",
"G.G D G G.G.G.F.S.O.^ V n j l G.G.G.G.G.> > G.G.",
"G.D D D G.G.G.S.A./ V n j l G.G.G.G.G.> > > G.G.",
"G.G D G G.G.S.A.C.M.l.v l G.G.G.G.G.G.> > > G.G.",
"G.G.G.G.G.G.f.C.M.z.j.A G.G.G.G.G.G.G.G.G.G.G.G.",
"G.G.G.G.G.G.+ q.z.j.G.G.G.G.G.G.G.G.G.G.G.G.G.G.",
"G.G.G.G.G.G.  G.G.G.G.G.G.G.G.G.G.G.G.G.G.G.G.G.",
"G.G.G.G.G.G.G.G.G.G.G.G.G.G.G.G.G.G.G.G.G.G.G.G.",
"G.G.G.G.G.G.G.G.G.G.G.G.G.G.G.G.G.G.G.G.G.G.G.G.",
"G.G.e r r.u.y.r = G.G.G.G.G.G.G.G.G.G.G.G.G.G.G.",
"# % & : < , ; & % @ G.G.G.G.G.G.G.G.G.G.G.G.G.G.",
"G.$ * 1 5 7 2 - G.G.G.G.G.G.G.G.G.G.G.G.G.G.G.G."
};
