<?xml version="1.0" encoding="UTF-8"?>
<svg xmlns="http://www.w3.org/2000/svg" width="256" height="256">
<g fill="none">
<circle cx="128" cy="128" r="112" fill="#fff"/>
<g stroke="#e6e6e6" stroke-linecap="square" stroke-width="2">
<path d="M128 128h105M128 128l74.2-74.2M128 128V23M128 128 53.8 53.8M128 128H23M128 128l-74.2 74.2M128 128v105M128 128l74.2 74.2M139.7 128a11.7 11.7 0 1 0-23.4 0 11.7 11.7 0 0 0 23.4 0"/>
<path d="M164 128a36 36 0 1 0-72 0 36 36 0 0 0 72 0"/>
<path d="M187 128a59 59 0 1 0-118 0 59 59 0 0 0 118 0"/>
<path d="M210 128a82 82 0 1 0-164 0 82 82 0 0 0 164 0"/>
</g>
<g opacity=".6">
<path fill="#ff6800" d="m107.8 36 .1.7 20.8 91.1-1.3.7-59.9-71.8-.5-.6.6-.5A94 94 0 0 1 107 36.1z"/>
<path fill="#ffc400" d="m54 91.5.6.3 73.7 35.5-.2 1.4-80.5 14.6-.7.2-.1-.8a83 83 0 0 1 6.8-50.5z"/>
<path fill="#29ffce" d="m127.7 127.3.7 1.3L90 155.2l-.6.5-.4-.6a48 48 0 0 1-3.8-6.5l-.3-.7.7-.3z"/>
<path fill="#7dff7a" d="m128.7 127.9 9.8 57.6.2.7-.8.2a59 59 0 0 1-23-.7l-.8-.2.2-.7 13-57z"/>
<path fill="#ff6800" d="m128.5 127.4 73.7 57.5.6.4-.5.6a94 94 0 0 1-15.5 15.8l-.6.5-.5-.6-58.3-73.1z"/>
<path fill="#004cff" d="m150.7 119.8.2.7a24 24 0 0 1 1.2 7.5v.8h-23.6l.1-1.8 21.4-7z"/>
<path fill="#ceff29" d="m152.2 61.4.7.2a71 71 0 0 1 19.3 11l.6.5-.5.5-43.7 54.9-1.3-.8 24.6-65.6z"/>
</g>
<g fill="#000" opacity=".7">
<path d="m107.8 36 .1.7 20.8 91.1-1.3.7-59.9-71.8-.5-.6.6-.5A94 94 0 0 1 107 36.1zm-1.2 1.7-.3.1a93 93 0 0 0-37.7 19l.5-.5 57.5 68.8z"/>
<path d="m54 91.5.6.3 73.7 35.5-.2 1.4-80.5 14.6-.7.2-.1-.8a83 83 0 0 1 6.8-50.5zm.6 2v.2a81 81 0 0 0-6.4 48.8v-.8l77.4-14z"/>
<path d="m127.7 127.3.7 1.3L90 155.2l-.6.5-.4-.6a48 48 0 0 1-3.8-6.5l-.3-.7.7-.3zm-8 5.5L87 148.6v.2l.9 1.6.4.7 2 3.1-.4-.6z"/>
<path d="m128.7 128.9 9.8 57.6.2.7-.8.2a59 59 0 0 1-23-.7l-.8-.2.2-.7 13-57zm-.8 4-12 52.5h.2q4.6 1 9.3 1.2h1q5.7.3 11.3-.7h-.8z"/>
<path d="m128.5 127.4 73.7 57.5.6.4-.5.6a94 94 0 0 1-15.5 15.8l-.6.5-.5-.6-58.3-73.1zm4 5 54 67.6.3-.2q3.3-2.7 6.3-5.7l.9-.9q3.8-3.9 7.2-8.2l-.5.6z"/>
<path d="m150.7 119.8.2.7a24 24 0 0 1 1.2 7.5v.8H128l-.2-1.5L150 120zm-1 2-17 5.4h18l-.1-.4q0-.9-.2-1.8v-.5l-.5-2.4z"/>
<path d="m152.2 61.4.7.2a71 71 0 0 1 19.3 11l.6.5-.5.5-43.7 54.9-1.3-.8 24.6-65.6zm.9 2-22.7 60.4 40.3-50.5-.2-.2a69 69 0 0 0-7.4-5l-.9-.4a69 69 0 0 0-9.8-4.7z"/>
</g>
<circle cx="128" cy="128" r="3" fill="#4c4c4c"/>
<path stroke="#11557c" stroke-width="4" d="M233 128a105 105 0 1 0-210 0 105 105 0 0 0 210 0"/>
</g>
</svg>
