/* XPM */
static char *move[] = {
/* columns rows colors chars-per-pixel */
"24 24 26 1",
"  c black",
". c #0B5D7D",
"X c #0B5D7E",
"o c #0B5E7D",
"O c #0D5979",
"+ c #0D5B7D",
"@ c #0C5C7C",
"# c #0C5C7D",
"$ c #0C5D7D",
"% c #0D5C7D",
"& c #0D5D7D",
"* c #0C5C7E",
"= c #0C5D7E",
"- c #0D5C7E",
"; c #0D5D7E",
": c #0C5E7D",
"> c #0C5E7E",
", c #0D5E7E",
"< c #0E5C7E",
"1 c #0E5C7F",
"2 c #004080",
"3 c #095B80",
"4 c #0D5D80",
"5 c #0E5C80",
"6 c #006080",
"7 c None",
/* pixels */
"777777777777777777777777",
"77777777772o677777777777",
"7777777777<<o77777777777",
"777777777<oo<<7777777777",
"77777777X<o<o<1777777777",
"77777777X@oo<oo277777777",
"7777777777oo<77777777777",
"7777777777<o<77777777777",
"7777777777@o<77777777777",
"777o<77777<o@77777,<7777",
"77<@o<<<<o<o<<<o,@@,6777",
"2oo<ooo<o<o<ooo<@:<@<<o7",
"<<oo<ooo<oo@ooo<<<<,o<*7",
"7oo<o,<,<<o<<<@o6*,<<<77",
"777o<77777oo<77777**7777",
"7777777777oo<77777777777",
"7777777777o@<77777777777",
"7777777777oo<77777777777",
"77777777ooo<ooo277777777",
"77777777X<oo<oO777777777",
"777777777<<o<<7777777777",
"7777777777o<o77777777777",
"77777777772<677777777777",
"777777777777777777777777"
};
