<?xml version="1.0" encoding="UTF-8"?>
<svg width="48px" height="48px" viewBox="0 0 48 48" version="1.1" xmlns="http://www.w3.org/2000/svg" xmlns:xlink="http://www.w3.org/1999/xlink">
<g style="fill:black" fill-rule="evenodd">
<path d="m40 10 4 4-17.3 17.3a1 1 0 0 1-1.4 0l-4.6-4.6a1 1 0 0 0-1.4 0l-9.1 9.1a1 1 0 0 1-1.4 0l-2.6-2.6a1 1 0 0 1 0-1.4l13.1-13.1a1 1 0 0 1 1.4 0l4.6 4.6a1 1 0 0 0 1.4 0z"/>
<path d="M4 6v32h44v4H0V6zm30.41 2H45a1 1 0 0 1 1 1v10.59a1 1 0 0 1-1.7.7L33.7 9.71A1 1 0 0 1 34.42 8"/>
</g>
</svg>
