/* XPM */
static char *saveall[] = {
/* columns rows colors chars-per-pixel */
"24 24 138 2 ",
"   c #1D2A43",
".  c #3B495E",
"X  c #004468",
"o  c #0C4768",
"O  c #034B6E",
"+  c #194C6B",
"@  c #075375",
"#  c #085476",
"$  c #0A5678",
"%  c #0B5A7B",
"&  c #165777",
"*  c #185676",
"=  c #1E5876",
"-  c #155778",
";  c #155878",
":  c #1C5B7A",
">  c #294962",
",  c #3E4D62",
"<  c #34526A",
"1  c #39556B",
"2  c #3D596E",
"3  c #2F5670",
"4  c #265A77",
"5  c #295874",
"6  c #205D7C",
"7  c #2C5D78",
"8  c #315A75",
"9  c #3E5B71",
"0  c #325F7A",
"q  c #25607F",
"w  c #3F647A",
"e  c #495457",
"r  c #515454",
"t  c #65564C",
"y  c #675A4C",
"u  c #695B4D",
"i  c #746452",
"p  c #786551",
"a  c #414F64",
"s  c #425E74",
"d  c #4E656E",
"f  c #42667B",
"g  c #526273",
"h  c #6E6663",
"j  c #84654F",
"k  c #906D53",
"l  c #A66F49",
"z  c #D7A463",
"x  c #D9A663",
"c  c #DDAA65",
"v  c #E0AE65",
"b  c #266280",
"n  c #2A6583",
"m  c #2D6986",
"M  c #2B6C89",
"N  c #336E8A",
"B  c #33718C",
"V  c #3A748D",
"C  c #357591",
"Z  c #3D7691",
"A  c #3C7B95",
"S  c #446C84",
"D  c #4D7086",
"F  c #487389",
"G  c #52748A",
"H  c #5A7A8E",
"J  c #427A94",
"K  c #487F99",
"L  c #537F95",
"P  c #627284",
"I  c #6C7D8C",
"U  c #44809A",
"Y  c #4B839C",
"T  c #588097",
"R  c #5C849A",
"E  c #56899E",
"W  c #75828E",
"Q  c #668799",
"!  c #6C8C9D",
"~  c #748592",
"^  c #768892",
"/  c #7A8D97",
"(  c #7B8C9A",
")  c #7F919B",
"_  c #5B8DA2",
"`  c #6F90A0",
"'  c #7493A3",
"]  c #7A96A5",
"[  c #7998A7",
"{  c #7C9BAB",
"}  c #6E9EB1",
"|  c #8A888F",
" . c #8D8D93",
".. c #908F96",
"X. c #82959F",
"o. c #8D929A",
"O. c #93939B",
"+. c #99979D",
"@. c #8397A1",
"#. c #8699A3",
"$. c #899CA6",
"%. c #809AA8",
"&. c #8B9EA9",
"*. c #9397A0",
"=. c #9699A1",
"-. c #9B9CA2",
";. c #A09DA2",
":. c #83A0AF",
">. c #8EA2AC",
",. c #91A3AD",
"<. c #9DA0A8",
"1. c #83A2B0",
"2. c #8FAAB8",
"3. c #92A6B2",
"4. c #95A9B3",
"5. c #98ACB6",
"6. c #9CAEB9",
"7. c #9EB1BD",
"8. c #A3A0A5",
"9. c #A3A4AA",
"0. c #A6A8AF",
"q. c #ACA8AC",
"w. c #AAACB3",
"e. c #AEB0B6",
"r. c #A0B3BD",
"t. c #B2B4BA",
"y. c #A3B7C1",
"u. c #AABAC4",
"i. c #ACBFC8",
"p. c #AFC2CC",
"a. c #B2C5CE",
"s. c #B6C7D1",
"d. c #B7C9D2",
"f. c #BACCD5",
"g. c #C0D1D9",
"h. c #D6DADF",
"j. c #E9EBED",
"k. c None",
/* pixels */
"k.k.k.k.% % % r u u u u u u u u u y y y e # # k.",
"k.k.k.k.% 7 ; k v v v v v c c c c c c c j + 8 $ ",
"k.k.k.k.+ h.F H q.0.;.;.-.+.+.O... . .| f G u.# ",
"k.k.k.k.$ N : _ f.d.a.1.{ { [ ] ] ' ' %.Z o + # ",
"} A A d i i p p i i i i i i i i t M B Y F X X # ",
"U R R h c c c c c x z x x x z z l = S q E X X @ ",
"A 6.3.T t.e.w.0.9.<.-.=.*.*.o.o.W 4 j.0 _ X X @ ",
"A R L Y g.f.d.2.{ { [ ' ` ` ! ` ] : 5 * _ X X @ ",
"J Y Y Y f.d.s.D < < < < < < < w [ : * - Y X X @ ",
"A U J Y d.s.p.%.' ` ! ! ! Q Q ! ] : * ; J X X # ",
"C J Z Y s.p.i.D 1 < < < < < < w ] : * - J X X # ",
"C Z V U p.p.u.y.7.7.6.4.3.3.&.&.] : * - J O X # ",
"C V N N J J Z V V V V V V N N N N : * - J X X @ ",
"B M m n b 6 : * * * * * * * * = * * * - J X X # ",
"B m n q : : * * * * * * * * * * * * - - J X X # ",
"M q : : * * * * * * * * * * * * * * * - J X X @ ",
"M : : * * + + + + + + + + + + + * * * - J X X # ",
"M : * * * < &.I P I / / ^ I I > * * * - J X X # ",
"M * * * * 3 i.<   a 5.3.,.$.@.> * * * ; J X O % ",
"M * * * * < u.,   a 4.,.&.$.X.> * * * ; K # % k.",
"M * * * * < y.,   , ,.&.#.X.X.> * * * - } k.k.k.",
"M * * * * < 7.,   , >.$.@.) / > * * - - } k.k.k.",
"Y ; * * * < 6.g . g $.#.) / ^ > * * - C k.k.k.k.",
"k.K M M M 8 s 9 9 9 2 2 1 1 < 3 B B A k.k.k.k.k."
};
