/* XPM */
static char *document_save_all[] = {
/* columns rows colors chars-per-pixel */
"24 24 77 1 ",
"  c #1C1A1B",
". c #262525",
"X c #2D2A2B",
"o c #322E2F",
"O c #322F30",
"+ c #353233",
"@ c #393536",
"# c #3B3738",
"$ c #3D3A3B",
"% c #413E3F",
"& c #423F40",
"* c #454243",
"= c #484546",
"- c #494748",
"; c #4D4B4B",
": c #504D4E",
"> c #545253",
", c #585657",
"< c #595758",
"1 c #5C5B5C",
"2 c #605E5F",
"3 c #5E5E60",
"4 c #646364",
"5 c #686667",
"6 c #696768",
"7 c #6B6A6B",
"8 c #706E6F",
"9 c #6D6F73",
"0 c #6F7074",
"q c #747374",
"w c #7C7B7B",
"e c #817F80",
"r c #838283",
"t c #8D8D8D",
"y c #8C9196",
"u c #929292",
"i c #999999",
"p c #9B9FA5",
"a c #9EA2A6",
"s c #9EA4AB",
"d c #A3A3A3",
"f c #A2A6AB",
"g c #A7A8AB",
"h c #ABACAD",
"j c #A4ACB3",
"k c #B5B5B5",
"l c #B8B7B7",
"z c #B0B6BD",
"x c #B3B9BE",
"c c #B9B8B8",
"v c #B5BCC2",
"b c #BABFC4",
"n c #BFC2C5",
"m c #BEC3C8",
"M c #BEC9D3",
"N c #C2C4C7",
"B c #C2C5C9",
"V c #C6C9CD",
"C c #C1CBD4",
"Z c #CFD5DB",
"A c #D1D6DB",
"S c #D5D8DF",
"D c #DCE0E7",
"F c #D6E1EB",
"G c #DCE4EC",
"H c #DFE8F0",
"J c #E2E5EC",
"K c #E4E9EF",
"L c #E8EAEF",
"P c #E4EBF2",
"I c #EAEEF5",
"U c #EDF1F6",
"Y c #ECF1F8",
"T c #F0F4F7",
"R c #F2F5F9",
"E c #F6F9FB",
"W c None",
/* pixels */
"WWWW75eCDDDDGJJJJKLLJg8q",
"WWWW>;wZYYYYIYIYTTTRUh57",
"WWWW44rZYITIYYTTRTLUUh45",
"74qxZASDGJJKLLLILNerAh24",
"1;6mIYYYIYYYYYTRYB77Vh14",
"2,7NYRRYRRRRREEEEB76mg14",
"445BRERERREEEEEERN64mf13",
"124NREEEEEEEEERRUm53ma<1",
"114nUURYRRRTTYYIIn33va><",
"113nIIIIPIPPPPPPHv33jy><",
"<<3xHHPHKHHHHHGGGx3<73>,",
"><3xGGGGGGGFFFFFFz1<>;;>",
">>1sCCCCCCCCCMMMMs<,;-::",
">:>509990090099905>>*$;;",
":::;:;;;;;;;;;;::::>-%=-",
";::;,5777666764-==;:=%*%",
"-;--qhrwwkklcch=%$-;*==%",
"===*wh*#@gkkllh;*%=-%*&%",
"&*&%8d*#+dhhhhd;*%**@@$@",
"%$%$7i%@oiddddi-%*-&OXOO",
"##@@4t@X.tiiiiu%#%*%.   ",
"@+@+1t=#%ttuttt#O+%#WWWW",
"WXOo<tyuytttttr+XX+OWWWW",
"WW  ;qqwweweww8X    WWWW"
};
