/* XPM */
static char * stock_right_xpm[] = {
"16 16 25 1",
" 	c None",
".	c #000000",
"+	c #5B88B2",
"@	c #9EB8D1",
"#	c #5080AD",
"$	c #B5C9DC",
"%	c #AFC5DA",
"&	c #B2C7DB",
"*	c #B6CADD",
"=	c #A4BDD5",
"-	c #9CB7D1",
";	c #080D11",
">	c #9BB6D0",
",	c #A0BAD3",
"'	c #9AB5CF",
")	c #97B3CE",
"!	c #5F8BB4",
"~	c #91B0CC",
"{	c #95B2CE",
"]	c #4C79A3",
"^	c #49749C",
"/	c #3F6588",
"(	c #2A435B",
"_	c #456F96",
":	c #375978",
"                ",
"        .       ",
"        ..      ",
"        .+.     ",
"  .......@#.    ",
"  .$%&***=-#;   ",
"  .>,-->',-)!.  ",
"  .~@''>---,{]. ",
"  .^////////(.  ",
"  ._::::://(.   ",
"  ......./(.    ",
"        .(.     ",
"        ..      ",
"        .       ",
"                ",
"                "};
