/* XPM */
static char * stock_refresh_xpm[] = {
"16 16 16 1",
" 	c None",
".	c #000000",
"+	c #8FA8BE",
"@	c #D5DEE6",
"#	c #BBCBD8",
"$	c #A6BACB",
"%	c #A2B7C9",
"&	c #83A0B8",
"*	c #7393AE",
"=	c #4F6F8A",
"-	c #48667F",
";	c #92ABC0",
">	c #33485A",
",	c #22303B",
"'	c #7897B1",
")	c #4B6A84",
"                ",
"     .          ",
"   ..+.         ",
"  .@#$%.        ",
" .&*==-.        ",
" .;>.,.         ",
" .'. .     .    ",
" .).       ..   ",
"  ..       .@.  ",
"   .     . .=.  ",
"        .@.>=.  ",
"       .@===>.  ",
"       .'=>>.   ",
"        .'..    ",
"         .      ",
"                "};
