/* XPM */
static char * stock_up_xpm[] = {
"16 16 26 1",
" 	c None",
".	c #1C2D3D",
"+	c #000000",
"@	c #C5D5E4",
"#	c #C4D4E3",
"$	c #9FB9D2",
"%	c #2A435B",
"&	c #9CB7D1",
"*	c #A0BAD3",
"=	c #3F6588",
"-	c #A6BED5",
";	c #A4BDD5",
">	c #9EB8D1",
",	c #A3BCD4",
"'	c #AAC1D7",
")	c #ABC2D8",
"!	c #29425A",
"~	c #AFC5DA",
"{	c #9BB6D0",
"]	c #AEC4D9",
"^	c #9AB5CF",
"/	c #6892B9",
"(	c #49759E",
"_	c #4B78A2",
":	c #34536F",
"<	c #2D4760",
"                ",
"       .        ",
"      +@+       ",
"     +#$%+      ",
"    +#&*=%+     ",
"   +#-;>==%+    ",
"  +#,',>===%+   ",
" ++++)$&=!++++  ",
"    +~{$=!+     ",
"    +){$=!+     ",
"    +]$$=!+     ",
"    +,^$=!+     ",
"    +/(_:<+     ",
"    +++++++     ",
"                ",
"                "};
