/* XPM */
static char * stock_save_as_xpm[] = {
"16 16 111 2",
"  	c None",
". 	c #000000",
"+ 	c #F7F8FA",
"@ 	c #CBDDEB",
"# 	c #C88A80",
"$ 	c #D18F84",
"% 	c #CF8D82",
"& 	c #A49626",
"* 	c #634A1E",
"= 	c #A8BBCC",
"- 	c #BFD5E8",
"; 	c #DBE7F1",
"> 	c #8DA9BE",
", 	c #B7877E",
"' 	c #C77568",
") 	c #C77467",
"! 	c #C57366",
"~ 	c #FCEB3D",
"{ 	c #F7B544",
"] 	c #61522E",
"^ 	c #72899A",
"/ 	c #54697C",
"( 	c #CFE0ED",
"_ 	c #D7D7D7",
": 	c #FEFEFE",
"< 	c #FCFCFC",
"[ 	c #F9DF39",
"} 	c #F7B545",
"| 	c #6C5F34",
"1 	c #B4B4B4",
"2 	c #84A0B5",
"3 	c #4F6475",
"4 	c #D6D6D6",
"5 	c #F8D837",
"6 	c #EFB44D",
"7 	c #584D2B",
"8 	c #8F8F8F",
"9 	c #F1F1F1",
"0 	c #819AAE",
"a 	c #496072",
"b 	c #FDFDFD",
"c 	c #F6D236",
"d 	c #EDA43E",
"e 	c #584E2B",
"f 	c #AAAAAA",
"g 	c #D3D3D3",
"h 	c #485F71",
"i 	c #D5D5D5",
"j 	c #D7AE74",
"k 	c #61562F",
"l 	c #737373",
"m 	c #C5C5C5",
"n 	c #B0B0B0",
"o 	c #7F98AC",
"p 	c #EDEDED",
"q 	c #4F4115",
"r 	c #8D8D8D",
"s 	c #EBEBEB",
"t 	c #ECECEC",
"u 	c #ACBDCB",
"v 	c #6F767D",
"w 	c #9AA3AC",
"x 	c #BFCBD6",
"y 	c #BDC9D4",
"z 	c #A1B6C4",
"A 	c #8BA7BC",
"B 	c #809CB0",
"C 	c #6C8394",
"D 	c #7D97AB",
"E 	c #7D97AC",
"F 	c #A4ACB8",
"G 	c #B9B9B9",
"H 	c #C7C7C7",
"I 	c #E1E1E1",
"J 	c #D4D4D4",
"K 	c #9C9D9D",
"L 	c #2F4656",
"M 	c #80868C",
"N 	c #183042",
"O 	c #33495A",
"P 	c #132D3C",
"Q 	c #586D80",
"R 	c #97A5B0",
"S 	c #86A4B9",
"T 	c #CDCDCD",
"U 	c #2E4353",
"V 	c #5A7082",
"W 	c #BFBFBF",
"X 	c #112835",
"Y 	c #9DA9B0",
"Z 	c #6B7882",
"` 	c #829DB1",
" .	c #CBCBCB",
"..	c #E5E5E5",
"+.	c #213648",
"@.	c #5F7989",
"#.	c #C2C2C2",
"$.	c #B2B2B2",
"%.	c #112C3A",
"&.	c #9FA9B0",
"*.	c #59636D",
"=.	c #A1A1A1",
"-.	c #C0C0C0",
";.	c #909090",
">.	c #868686",
",.	c #6E6E6E",
"'.	c #7A7A7A",
").	c #2D3949",
"!.	c #3E4F5C",
"~.	c #80878F",
"{.	c #1A3140",
"  . . . . . . . . . . . . . .   ",
". + @ # $ $ $ $ % . & * . = - . ",
". ; > , ' ) ) ! . ~ { ] . ^ / . ",
". ( > _ : : < . [ } | . 1 2 3 . ",
". ( > _ _ 4 . 5 6 7 . 8 9 0 a . ",
". ( > _ b . c d e . f g 9 0 h . ",
". ( > _ i . j k . l m n 9 o a . ",
". ( > p . q . . r g s s t 0 a . ",
". ( > u . . v w x x x y z 0 a . ",
". ( > A B C 0 0 0 0 D E 0 0 a . ",
". ( > A F G G H I J K L M 0 a . ",
". ( > 2 m m N O i m G P Q R a . ",
". ( S 0 m T U V m m W X V Y a . ",
". Z ` o  ...+.@.m #.$.%.V &.a . ",
". . *.3 =.-.;.;.>.,.'.).!.~.{.. ",
"  . . . . . . . . . . . . . .   "};
