/* XPM */
static char * stock_close_xpm[] = {
"16 16 2 1",
" 	g None",
".	g #000000",
"                ",
"                ",
"   .      .     ",
"    .    ...    ",
"    ..  ....    ",
"     .. ...     ",
"     .....      ",
"      ...       ",
"     .....      ",
"    .......     ",
"   ...  ....    ",
"  ...    ....   ",
" ...      ..    ",
"                ",
"                ",
"                "};
