/* XPM */
static char * stock_zoom_out_xpm[] = {
"16 16 40 1",
" 	c None",
".	c #000000",
"+	c #262626",
"@	c #C5C5C5",
"#	c #EEEEEE",
"$	c #EDEDED",
"%	c #ABABAB",
"&	c #464646",
"*	c #878787",
"=	c #F1F1F1",
"-	c #FEFEFE",
";	c #FDFDFD",
">	c #FCFCFC",
",	c #EAEAEA",
"'	c #707070",
")	c #FBFBFB",
"!	c #E8E8E8",
"~	c #B0B0B0",
"{	c #FFFFFF",
"]	c #FAFAFA",
"^	c #A4A4A4",
"/	c #050505",
"(	c #090909",
"_	c #040404",
":	c #242424",
"<	c #E5E5E5",
"[	c #E4E4E4",
"}	c #F9F9F9",
"|	c #BABABA",
"1	c #E7E7E7",
"2	c #858585",
"3	c #E3E3E3",
"4	c #6D6D6D",
"5	c #A1A1A1",
"6	c #202020",
"7	c #686868",
"8	c #343434",
"9	c #797979",
"0	c #3A3A3A",
"a	c #1F1F1F",
"    ....        ",
"  .+@#$%&.      ",
" .*=--;>,'.     ",
" &=----;)!&     ",
".~--{--;>]^.    ",
".#-//(__:]<.    ",
".$;:_../:][.    ",
".%>;;;>)]}|.    ",
" &,)>))]}1&     ",
" .2!]]]}34.     ",
"  .&^<[5&....   ",
"    ....  66..  ",
"          .78.. ",
"           .90..",
"            .7a.",
"             .. "};
