/* XPM */
static char * stock_down_xpm[] = {
"16 16 25 1",
" 	c None",
".	c #000000",
"+	c #B5C9DC",
"@	c #9BB6D0",
"#	c #91B0CC",
"$	c #49749C",
"%	c #456F96",
"&	c #AFC5DA",
"*	c #A0BAD3",
"=	c #9EB8D1",
"-	c #3F6588",
";	c #375978",
">	c #B2C7DB",
",	c #9CB7D1",
"'	c #9AB5CF",
")	c #B6CADD",
"!	c #5B88B2",
"~	c #A4BDD5",
"{	c #2A435B",
"]	c #5080AD",
"^	c #97B3CE",
"/	c #080D11",
"(	c #5F8BB4",
"_	c #95B2CE",
":	c #4C79A3",
"                ",
"                ",
"    .......     ",
"    .+@#$%.     ",
"    .&*=-;.     ",
"    .>,'-;.     ",
"    .),'-;.     ",
"    .)@@-;.     ",
" ....)',-;....  ",
"  .!=~*,---{.   ",
"   .],,,--{.    ",
"    .]^*-{.     ",
"     /(_{.      ",
"      .:.       ",
"       .        ",
"                "};
