<?xml version="1.0" encoding="UTF-8" standalone="no"?>
<!-- Created with Inkscape (http://www.inkscape.org/) -->

<svg
   xmlns:dc="http://purl.org/dc/elements/1.1/"
   xmlns:cc="http://creativecommons.org/ns#"
   xmlns:rdf="http://www.w3.org/1999/02/22-rdf-syntax-ns#"
   xmlns:svg="http://www.w3.org/2000/svg"
   xmlns="http://www.w3.org/2000/svg"
   version="1.1"
   width="332.5"
   height="305"
   id="svg2"
   xml:space="preserve"><metadata
     id="metadata8"><rdf:RDF><cc:Work
         rdf:about=""><dc:format>image/svg+xml</dc:format><dc:type
           rdf:resource="http://purl.org/dc/dcmitype/StillImage" /><dc:title></dc:title></cc:Work></rdf:RDF></metadata><defs
     id="defs6" /><g
     transform="matrix(1.25,0,0,-1.25,0,305)"
     id="g10"><g
       id="g12" /><g
       id="g14"><path
         d="m 30.5,227.6914 205.8164,0 0,-210.64843 -205.8164,0 0,210.64843 z"
         id="path16"
         style="fill:#f4f4f4;fill-opacity:1;fill-rule:nonzero;stroke:none" /><g
         transform="matrix(1,0,0,-1,-90.5,298.5)"
         id="g18"><path
           d="m 121,70.80859 205.8164,0 0,210.64841 -205.8164,0 0,-210.64841 z"
           id="path20"
           style="fill:none;stroke:#000000;stroke-width:5;stroke-linecap:butt;stroke-linejoin:round;stroke-miterlimit:10;stroke-opacity:1;stroke-dasharray:none" /></g><path
         d="m 54.23381,203.4004 158.34879,0 0,-162.06642 -158.34879,0 0,162.06642 z"
         id="path22"
         style="fill:#678ec9;fill-opacity:1;fill-rule:nonzero;stroke:none" /><g
         transform="matrix(1,0,0,-1,-90.5,298.5)"
         id="g24"><path
           d="m 144.7338,95.09961 158.3488,0 0,162.06639 -158.3488,0 0,-162.06639 z"
           id="path26"
           style="fill:none;stroke:#000000;stroke-width:2;stroke-linecap:butt;stroke-linejoin:round;stroke-miterlimit:10;stroke-opacity:1;stroke-dasharray:none" /></g><path
         d="m 96.32422,58.88368 37.08398,-56.692915 37.084,56.692915 -74.16798,0 z"
         id="path28"
         style="fill:#78eb76;fill-opacity:1;fill-rule:nonzero;stroke:none" /><g
         transform="matrix(1,0,0,-1,-90.5,298.5)"
         id="g30"><path
           d="m 186.8242,239.6163 37.084,56.6929 37.084,-56.6929 -74.168,0 z"
           id="path32"
           style="fill:none;stroke:#000000;stroke-width:3;stroke-linecap:round;stroke-linejoin:round;stroke-miterlimit:10;stroke-opacity:1;stroke-dasharray:none" /></g><path
         d="m 96.32423,183.9514 37.08397,56.6929 37.084,-56.6929 -74.16797,0 z"
         id="path34"
         style="fill:#78eb76;fill-opacity:1;fill-rule:nonzero;stroke:none" /><g
         transform="matrix(1,0,0,-1,-90.5,298.5)"
         id="g36"><path
           d="m 186.8242,114.5486 37.084,-56.69292 37.084,56.69292 -74.168,0 z"
           id="path38"
           style="fill:none;stroke:#000000;stroke-width:3;stroke-linecap:round;stroke-linejoin:round;stroke-miterlimit:10;stroke-opacity:1;stroke-dasharray:none" /></g><path
         d="M 60.24493,158.5015 3.552025,121.4175 60.24493,84.33356 l 0,74.16794 z"
         id="path40"
         style="fill:#78eb76;fill-opacity:1;fill-rule:nonzero;stroke:none" /><g
         transform="matrix(1,0,0,-1,-90.5,298.5)"
         id="g42"><path
           d="m 150.7449,139.9985 -56.69288,37.084 56.69288,37.0839 0,-74.1679 z"
           id="path44"
           style="fill:none;stroke:#000000;stroke-width:3;stroke-linecap:round;stroke-linejoin:round;stroke-miterlimit:10;stroke-opacity:1;stroke-dasharray:none" /></g><path
         d="m 206.5714,158.5015 56.693,-37.084 -56.693,-37.08394 0,74.16794 z"
         id="path46"
         style="fill:#78eb76;fill-opacity:1;fill-rule:nonzero;stroke:none" /><g
         transform="matrix(1,0,0,-1,-90.5,298.5)"
         id="g48"><path
           d="m 297.0714,139.9985 56.693,37.084 -56.693,37.0839 0,-74.1679 z"
           id="path50"
           style="fill:none;stroke:#000000;stroke-width:3;stroke-linecap:round;stroke-linejoin:round;stroke-miterlimit:10;stroke-opacity:1;stroke-dasharray:none" /></g><path
         d="m 74.02991,169.737 118.75659,0 0,-94.73961 -118.75659,0 0,94.73961 z"
         id="path52"
         style="fill:#ffffff;fill-opacity:1;fill-rule:nonzero;stroke:none" /><g
         transform="matrix(1,0,0,-1,-90.5,298.5)"
         id="g54"><path
           d="m 164.5299,128.763 118.7566,0 0,94.7396 -118.7566,0 0,-94.7396 z"
           id="path56"
           style="fill:none;stroke:#000000;stroke-width:2;stroke-linecap:butt;stroke-linejoin:round;stroke-miterlimit:10;stroke-opacity:1;stroke-dasharray:none" /></g><g
         transform="matrix(1,0,0,-1,-90.5,298.5)"
         id="g58"><path
           d="m 168.832,197.589 42.9209,-41.5599 34.8466,42.1068 32.3849,-41.3442"
           id="path60"
           style="fill:none;stroke:#000000;stroke-width:5;stroke-linecap:round;stroke-linejoin:round;stroke-miterlimit:10;stroke-opacity:1;stroke-dasharray:none" /></g></g></g></svg>