/* XPM */
static char *subplots[] = {
/* columns rows colors chars-per-pixel */
"24 24 120 2 ",
"   c gray13",
".  c gray16",
"X  c #2A2A2A",
"o  c #2C2C2C",
"O  c #343434",
"+  c gray21",
"@  c #373737",
"#  c #234A22",
"$  c #285326",
"%  c #2B5E29",
"&  c #31682E",
"*  c #336C31",
"=  c #377634",
"-  c #387835",
";  c #37793C",
":  c #366C47",
">  c #356749",
",  c #35694E",
"<  c #367441",
"1  c #397B44",
"2  c #346451",
"3  c #355C66",
"4  c #365A6D",
"5  c #385D6D",
"6  c #375774",
"7  c #3A5E74",
"8  c #395A79",
"9  c #3B6F61",
"0  c #3A6B65",
"q  c gray33",
"w  c #565656",
"e  c #585858",
"r  c gray36",
"t  c gray38",
"y  c gray39",
"u  c #676767",
"i  c gray44",
"p  c gray47",
"a  c #3A8535",
"s  c #3C8439",
"d  c #3B833F",
"f  c #3D8F3A",
"g  c #418B4C",
"h  c #459F42",
"j  c #469D48",
"k  c #49A744",
"l  c #4FA14B",
"z  c #55A650",
"x  c #54AF50",
"c  c #55AE51",
"v  c #58B252",
"b  c #56B951",
"n  c #58BB53",
"m  c #6E916C",
"M  c #6F916E",
"N  c #70837B",
"B  c #739272",
"V  c #769475",
"C  c #769476",
"Z  c #7D957C",
"A  c #5AC654",
"S  c #5ED457",
"D  c #60DC5B",
"F  c #64E45D",
"G  c #66E75F",
"H  c #67E960",
"J  c #68EB61",
"K  c #68ED61",
"L  c #80997F",
"P  c #3B5C80",
"I  c #3D5F85",
"U  c #49669B",
"Y  c #5A729F",
"T  c #5F759C",
"R  c #5E769F",
"E  c #486AA7",
"W  c #4C6EAE",
"Q  c #5A72A0",
"!  c #5075B7",
"~  c #5075B9",
"^  c #5278BD",
"/  c #657AA0",
"(  c #667BA1",
")  c #7E8B83",
"_  c #7B8888",
"`  c #6C809F",
"'  c #7285A6",
"]  c #838383",
"[  c #859A85",
"{  c #8B9191",
"}  c #909090",
"|  c #8F9CB1",
" . c #9FA6AF",
".. c #9EA6B0",
"X. c #98A3B4",
"o. c #A5A5A5",
"O. c #A0A8B3",
"+. c #AEB0B6",
"@. c #AFB3B8",
"#. c gray69",
"$. c #B0B6B0",
"%. c #B1B9B0",
"&. c #B9B9B9",
"*. c #BABDBA",
"=. c #BEC3BC",
"-. c gray78",
";. c gray84",
":. c #E1E1E1",
">. c #E2E2E2",
",. c #E7E7E7",
"<. c gray91",
"1. c #ECECEC",
"2. c gray93",
"3. c #EFEFEF",
"4. c #F1F1F1",
"5. c gray95",
"6. c #F8F8F8",
"7. c gray98",
"8. c white",
"9. c None",
/* pixels */
"9.9.9.9.9.9.9.9.9.9.9.9.9.9.9.9.9.9.9.9.9.9.9.9.",
"9.9.9.@ @ @ @ @ @ @ @ * = @ @ @ @ @ @ @ @ 9.9.9.",
"9.9.  5.5.5.5.5.5.5.L F F C 5.5.5.5.5.5.5.o 9.9.",
"9.9.  5.3.;.;.;.;.*.z K K c $.;.;.;.;.2.5.X 9.9.",
"9.9.  5.+.E E E E 2 K K K K , E E E E ..5.o 9.9.",
"9.9.  5.+.^ ^ ^ I ; j j j j d 8 ^ ^ ^ ..5.X 9.9.",
"9.9.  5.+.^ ^ ^ ~ W W W W W E ^ ^ ^ ^ O.5.o 9.9.",
"9.9.  5.+.^ Y X.X.X.X.X.X.X.X.X.X./ ^ O.5.o 9.9.",
"9.9.  3.{ 4 / 8.8.8.8.8.8.8.8.8.8.' 6 _ 5.X 9.9.",
"9.9.  [ j 9 / 8.8.8.3.6.8.8.8.8.8.' 9 v Z X 9.9.",
"9.9.# D K 9 / 8.8.3.w u 8.8.8.8.i ` 0 J D $ 9.9.",
"9.a K K K 9 / 8.5.w 3.$.} 8.8.o.+.' 0 J K K f 9.",
"9.h K K K 9 / 8.r :.8.8.] -.:.p 8.' 9 J K K k 9.",
"9.9.% F K 9 / r :.8.8.8.8.t t 8.8.' 9 J G & 9.9.",
"9.9.  C b 9 / 3.8.8.8.8.8.3.:.8.8.' 9 A M X 9.9.",
"9.9.  5.) 3 / 8.8.8.8.8.8.8.8.8.8.' 6 N 5.X 9.9.",
"9.9.  5.$.^ Q | | | | | | | | | | / ^ O.5.o 9.9.",
"9.9.  5.+.^ ^ ^ ^ ^ ^ ^ ^ ^ ^ ^ ^ ~ ^ O.5.X 9.9.",
"9.9.  5.+.^ ^ ^ 8 < g g g g 1 6 ^ ^ ^ O.5.o 9.9.",
"9.9.  5.@.U U U U , K K K K : U U U U X.5.o 9.9.",
"9.9.  5.3.1.1.,.3.=.v K K b $.3.3.:.3.5.5.o 9.9.",
"9.9.  5.5.5.3.3.5.5.C F K m 5.5.5.5.5.5.5.o 9.9.",
"9.9.9.o o o o o X X X - s . o o X X o o o 9.9.9.",
"9.9.9.9.9.9.9.9.9.9.9.9.9.9.9.9.9.9.9.9.9.9.9.9."
};
