/* XPM */
static char *hand[] = {
/* columns rows colors chars-per-pixel */
"24 24 118 2",
"   c #459BB5",
".  c #4C9EB2",
"X  c #509AB2",
"o  c #509BB3",
"O  c #529DB4",
"+  c #529EB5",
"@  c #539FB6",
"#  c #549EB5",
"$  c #589CB4",
"%  c #4FA0B6",
"&  c #49A0B9",
"*  c #49A1B9",
"=  c #4AA2BA",
"-  c #4DA6BD",
";  c #4EA7BE",
":  c #50A3B7",
">  c #55A0B7",
",  c #51A5B8",
"<  c #53A7BA",
"1  c #55A2B8",
"2  c #56A3B9",
"3  c #57A3B9",
"4  c #57A4BA",
"5  c #54A8BB",
"6  c #55A8BB",
"7  c #58A5BB",
"8  c #58A7BB",
"9  c #5AA8BD",
"0  c #5BA9BD",
"q  c #5CAABF",
"w  c #64A5BD",
"e  c #63A8BE",
"r  c #69A7BE",
"t  c #50AAC0",
"y  c #51ABC1",
"u  c #53ADC3",
"i  c #54AEC4",
"p  c #55B0C5",
"a  c #56B1C6",
"s  c #57B2C7",
"d  c #57B3C7",
"f  c #5BB0C1",
"g  c #5BB1C2",
"h  c #5AB6CA",
"j  c #5BB7CB",
"k  c #5CB9CC",
"l  c #5CB9CD",
"z  c #5EBCCE",
"x  c #68ABC2",
"c  c #6DABC3",
"v  c #60B7C7",
"b  c #67B0C3",
"n  c #6BB4C8",
"m  c #60BFD1",
"M  c #70ADC4",
"N  c #75ACC6",
"B  c #70B1C9",
"V  c #63C1D3",
"C  c #67C7D7",
"Z  c #67C8D8",
"A  c #69CADA",
"S  c #6BCCDB",
"D  c #6ED0DE",
"F  c #6FD2DF",
"G  c #70D3E1",
"H  c #71D3E1",
"J  c #74D8E5",
"K  c #75D9E5",
"L  c #7CE3ED",
"P  c #7FE6EF",
"I  c #90BAD0",
"U  c #91BAD0",
"Y  c #93BBD1",
"T  c #92BAD2",
"R  c #93BBD2",
"E  c #93BCD3",
"W  c #94BDD4",
"Q  c #96BFD5",
"!  c #91C2D6",
"~  c #82EAF3",
"^  c #ACCBE5",
"/  c #AFCCE5",
"(  c #BAD2EB",
")  c #B8D2EC",
"_  c #BDD3EA",
"`  c #BCD4EB",
"'  c #BED4EA",
"]  c #BFD5EB",
"[  c #BDD5EC",
"{  c #C0D5EB",
"}  c #C2D6EA",
"|  c #C2D6EB",
" . c #C3D7EA",
".. c #C5D7E9",
"X. c #C4D7EA",
"o. c #C6D8EA",
"O. c #C6D8EB",
"+. c #C7D9EA",
"@. c #C9D9EA",
"#. c #CBDAE9",
"$. c #CDDBE9",
"%. c #CCDBEA",
"&. c #CEDBE9",
"*. c #D7DFE7",
"=. c #D0DCE9",
"-. c #D2DDE8",
";. c #D4DEE8",
":. c #D5DFE9",
">. c #D7DFE8",
",. c #DAE0E7",
"<. c #DBE1E7",
"1. c #DFE3E7",
"2. c #D8E0E8",
"3. c #DAE1E8",
"4. c #E2E4E6",
"5. c #E3E5E6",
"6. c #E5E5E6",
"7. c #E6E6E6",
/* pixels */
"7.7.7.7.7.7.7.7.7.7.7.7.7.7.7.7.7.7.7.7.7.7.7.7.",
"7.7.7.7.7.7.7.4.>.$.| _ _ | @.*.7.7.7.7.7.7.7.7.",
"7.7.7.7.7.7.3.] ) ) ) ) ) ) ( ( ] *.7.7.7.7.7.7.",
"7.7.7.7.7.@.) ) ) ) ) ) ) ) ) ) ) ) @.7.7.7.7.7.",
"7.7.7.7...) ) ) ) ) ) ) ) ) ) ) ) ) ) ..7.7.7.7.",
"7.7.7.@.) ) ) ) ) ) / N 1 n ) ) ) ) ) ) @.7.7.7.",
"7.7.3.) ) ) ) ) ) ) R u u 7 ) ) ) ) ) ) ) 3.7.7.",
"7.7.| ) ) ) ) ) ) ) W s i 0 ) ) ) ) ) ) ) | 7.7.",
"7.<.) ) ) ) ) ) ) ) W V l q ) ) ) ) ) ) ) ) 1.7.",
"7.$.) ) ) ) ) ) ) ) W F C b ) ) ) ) ) ) ) ) -.7.",
"7. .) ) ) / E E E Q ! P D n ) ) ) ) ) ) ) ) @.7.",
"7.] ) ) ) e y i z D P ~ H f < : 1 @ X w ) ) ..7.",
"7.( ) ) ) . ; i j S K K S k i y - =   $ ) ) ..7.",
"7.| ) ) ) b % , 5 q j Z V 5 0 4 1 @ X N ) )  .7.",
"7.#.) ) ) ) ) ) ( ( W j i q ) ) ) ) ) ) ) ) $.7.",
"7.2.) ) ) ) ) ) ) ) Q i i 6 ) ) ) ) ) ) ) ) <.7.",
"7.7.( ) ) ) ) ) ) ) E ; ; 5 ) ) ) ) ) ) ) ] 7.7.",
"7.7.2.) ) ) ) ) ) ) E - ; 1 ) ) ) ) ) ) ) -.7.7.",
"7.7.7.| ) ) ) ) ) ) I = = O ( ) ) ) ) ( ..7.7.7.",
"7.7.7.4.] ) ) ) ) ) ^ r # c ) ) ) ) ) ] 4.7.7.7.",
"7.7.7.7.4. .) ) ) ) ) ) ) ) ) ) ) ) ] 4.7.7.7.7.",
"7.7.7.7.7.7.-.( ) ) ) ) ) ) ) ( ( -.7.7.7.7.7.7.",
"7.7.7.7.7.7.7.4.-.+.] ) ) (  .-.4.7.7.7.7.7.7.7.",
"7.7.7.7.7.7.7.7.7.7.7.7.7.7.7.7.7.7.7.7.7.7.7.7."
};
