/* XPM */
static char *home[] = {
/* columns rows colors chars-per-pixel */
"24 24 237 2",
"   c #6D0E13",
".  c #681D1F",
"X  c #6C1E1D",
"o  c #73181A",
"O  c #73191C",
"+  c #771A1B",
"@  c #751B1E",
"#  c #781E1D",
"$  c #771D21",
"%  c #771E21",
"&  c #781F23",
"*  c #791F27",
"=  c #642021",
"-  c #662123",
";  c #652929",
":  c #67292B",
">  c #662B2A",
",  c #6E2422",
"<  c #682D2F",
"1  c #692F2F",
"2  c #6E3131",
"3  c #702422",
"4  c #772E2D",
"5  c #772F2E",
"6  c #7B2D2D",
"7  c #7F2C32",
"8  c #733131",
"9  c #763431",
"0  c #793030",
"q  c #793433",
"w  c #4E7379",
"e  c #6D7171",
"r  c #707C7E",
"t  c #727D7F",
"y  c #6E7E81",
"u  c #628287",
"i  c #658489",
"p  c #6C8A8F",
"a  c #758081",
"s  c #7A8485",
"d  c #7F989C",
"f  c #981D32",
"g  c #9B1E36",
"h  c #882D35",
"j  c #833F3F",
"k  c #8D363E",
"l  c #992139",
"z  c #9B2138",
"x  c #992639",
"c  c #A2213A",
"v  c #A3203B",
"b  c #A2233B",
"n  c #A0273F",
"m  c #AB223F",
"M  c #A12941",
"N  c #A22B41",
"B  c #AB2642",
"V  c #A13244",
"C  c #AD354C",
"Z  c #AE3A4F",
"A  c #AF3D52",
"S  c #B32F4B",
"D  c #B4304C",
"F  c #B03C4F",
"G  c #B13D4F",
"H  c #B33451",
"J  c #B63652",
"K  c #B13C51",
"L  c #B03E52",
"P  c #B23C52",
"I  c #B83D55",
"U  c #B93E58",
"Y  c #BC3D58",
"T  c #BD3E59",
"R  c #854434",
"E  c #83403F",
"W  c #81443D",
"Q  c #8F4F35",
"!  c #8F4F36",
"~  c #905038",
"^  c #9D613F",
"/  c #9D4750",
"(  c #92584A",
")  c #986356",
"_  c #976866",
"`  c #9C6768",
"'  c #9C6B65",
"]  c #9A6B68",
"[  c #9F7573",
"{  c #B14155",
"}  c #B34156",
"|  c #B64459",
" . c #BC405B",
".. c #BE405B",
"X. c #BD455E",
"o. c #BD4961",
"O. c #BF4A62",
"+. c #A0604D",
"@. c #A16A4F",
"#. c #A46F5E",
"$. c #A57260",
"%. c #A57261",
"&. c #A47363",
"*. c #A57363",
"=. c #A57365",
"-. c #A57367",
";. c #A57463",
":. c #A47464",
">. c #A47466",
",. c #A7776E",
"<. c #A7796E",
"1. c #A7796F",
"2. c #AC7F76",
"3. c #C24B64",
"4. c #B6846A",
"5. c #DA8C2D",
"6. c #EFAB24",
"7. c #EFAC28",
"8. c #F0AF2E",
"9. c #F1B136",
"0. c #F1B137",
"q. c #F1B33C",
"w. c #D2994F",
"e. c #E8B255",
"r. c #F1B540",
"t. c #F2B542",
"y. c #F2B645",
"u. c #F2B746",
"i. c #F1B849",
"p. c #F1B94A",
"a. c #F1B94C",
"s. c #F2BA4D",
"d. c #F2BA4E",
"f. c #F2BA50",
"g. c #F2BD56",
"h. c #F3BD58",
"j. c #F3BE59",
"k. c #F3BF5D",
"l. c #F3C061",
"z. c #F4C263",
"x. c #F4C265",
"c. c #F4C368",
"v. c #F4C46A",
"b. c #F4C56F",
"n. c #F5C670",
"m. c #F5C671",
"M. c #F5C774",
"N. c #F5C878",
"B. c #F5C97A",
"V. c #F5C97B",
"C. c #F6C97C",
"Z. c #F6CA7D",
"A. c #F6CA7E",
"S. c #8D8382",
"D. c #918483",
"F. c #988B8A",
"G. c #9D8F8E",
"H. c #949293",
"J. c #93A0A2",
"K. c #99A3A4",
"L. c #A59897",
"P. c #B99488",
"I. c #B49C9B",
"U. c gray63",
"Y. c #A2A2A2",
"T. c gray68",
"R. c #BCA2A2",
"E. c #BFACAB",
"W. c #B1B1B1",
"Q. c gray70",
"!. c #B5B0B0",
"~. c gray71",
"^. c #BAB5B5",
"/. c gray74",
"(. c gray",
"). c #C9A5AA",
"_. c #C1BCBC",
"`. c #CCB2B4",
"'. c #C9BBBA",
"]. c #D4B9BD",
"[. c #E4B086",
"{. c #D6BEC1",
"}. c #D8BFC3",
"|. c #F7CC81",
" X c #F7CD84",
".X c #F7CE86",
"XX c #F8D08D",
"oX c #F8D18E",
"OX c #F8D18F",
"+X c #F6D199",
"@X c #F8D290",
"#X c #F9D395",
"$X c #F9D496",
"%X c #F9D497",
"&X c #F9D498",
"*X c #F9D599",
"=X c #FAD8A5",
"-X c #FAD9A8",
";X c #FBDDB3",
":X c #C6C1C1",
">X c gray77",
",X c #C5C5C5",
"<X c #C9C1C1",
"1X c #CACACA",
"2X c #CDCDCD",
"3X c #CECECE",
"4X c gray81",
"5X c #D2C7C6",
"6X c #D6C2C5",
"7X c #D4CAC9",
"8X c #D7CDCD",
"9X c #D9C2C6",
"0X c #D8C7C9",
"qX c #D0D0D0",
"wX c #D2D2D2",
"eX c LightGray",
"rX c gray83",
"tX c gray84",
"yX c #D7D7D7",
"uX c #D8D8D8",
"iX c gainsboro",
"pX c #DDDDDD",
"aX c #DFDFDF",
"sX c #E3E0E0",
"dX c gray89",
"fX c #E6E6E6",
"gX c #ECECEC",
"hX c gray93",
"jX c #EEEEEE",
"kX c gray94",
"lX c #F1F1F1",
"zX c #F3F3F3",
"xX c #F4F4F4",
"cX c #F6F6F6",
"vX c #F9F9F9",
"bX c #FEFEFE",
"nX c gray100",
/* pixels */
"fXfXfXfXfXfXfXfXfXfXfXfXfXfXfXfXfXfXfXfXfXfXfXfX",
"fXfXfXfXfXfXfXfXfXfXfX0X3 5XfXfXfXfXfXfXfXfXfXfX",
"fXfXfXfXfX_ =.=.) fX6X% V 0 7XfXfXfXfXfXfXfXfXfX",
"fXfXfXfXfX[ ;XOX@.{.% P T C 5 7XfXfXfXfXfXfXfXfX",
"fXfXfXfXfX[ ;X6.( % A Y H S b 5 7XfXfXfXfXfXfXfX",
"fXfXfXfXfX[ ;X5.+ A T H D B B c 5 5XfXfXfXfXfXfX",
"fXfXfXfXfX[ [.+ P T * h k 5 g B v 5 5XfXfXfXfXfX",
"fXfXfXfXfX` # G I . L.iXdX{.8 g m v 5 7XfXfXfXfX",
"fXfXfXfX6XO P T - G.>XzXgXpX>X2 z m c 5 7XfXfXfX",
"fXfXfX].@ A X.= F.(.tXbXxXfXtX(.1 n m c 5 7XfXfX",
"fXfX].@ } O.< S.~.2XbXbXcXjXaX4X~.> M B c 5 5XfX",
"fX9X% | 3.: S.T.,X).4.' ( P.sXuX1X!.; N B f X fX",
"fX6 { o.j e W.(.I.4.-X$XZ.w.R '.eXwXH.q x   `.fX",
"fXR./ j 5Xt U.jX,.+X;X&XZ.x.e.] kX4XK.8X, ).fXfX",
"fXfX9 5XfXt U.nX&.$X=X#XZ.z.a.1.xX4XK.fXfXfXfXfX",
"fXfXfXfXfXs U.nX*.@X&XOXN.l.p.1.xX4XK.fXfXfXfXfX",
"fXfXfXfXfXs U.nX*..XOX|.M.j.u.2.lX3XK.fXfXfXfXfX",
"fXfXfXfXfXs U.nX$.C.A.C.v.g.t.<.zX3XK.fXfXfXfXfX",
"fXfXfXfXfXs U.nX&.m.M.b.z.d.q.<.zX3XK.fXfXfXfXfX",
"fXfXfXfXfXa U.nX:.x.c.z.g.p.0.<.zX3XK.fXfXfXfXfX",
"fXfXfXfXfXt U.nX:.j.k.j.a.r.7.1.xX8XK.fXfXfXfXfX",
"fXfXfXfXfXt U.nX&.a.f.d.u.q.7.1.xX3XK.fXfXfXfXfX",
"fXfXfXfXfXy Q.vXW ~ ~ ~ ! ! ^ ' kXeXJ.fXfXfXfXfX",
"fXfXfXfXfXu d d d p i i i i i i i i w fXfXfXfXfX"
};
