<?xml version="1.0" standalone="no"?>
<!DOCTYPE svg PUBLIC "-//W3C//DTD SVG 1.0//EN"
"http://www.w3.org/TR/2001/REC-SVG-20010904/DTD/svg10.dtd">
<!-- Created with matplotlib (http://matplotlib.sourceforge.net/) -->
<svg
   xmlns="http://www.w3.org/2000/svg"
   xmlns:xlink="http://www.w3.org/1999/xlink"
   version="1.0"
   x="0.0000000"
   y="0.0000000"
   width="500.0pt"
   height="500.0pt"   
   id="svg1">
<g id= "figure0">
<polygon style="stroke:#ffffff;stroke-width:1.0pt;stroke-linejoin:miter;stroke-linecap:square;opacity:1.0;fill:#bfbfbf; "
   points = "0.000000,500.000000 0.000000,140.000000 360.000000,140.000000 360.000000,500.000000 " />
<g id= "axes0">
<polygon style="stroke:#000000;stroke-width:1.0pt;stroke-linejoin:miter;stroke-linecap:square;opacity:1.0;fill:#ffffff; "
   points = "45.000000,460.400000 45.000000,176.000000 324.000000,176.000000 324.000000,460.400000 " />
<g id= "matplotlib.axis0">
<g id= "xtick0">
</g>
<g id= "xtick1">
<path style="stroke:#000000;stroke-width:0.5pt;stroke-linejoin:miter;stroke-linecap:square;opacity:1.0;fill:none; "
 d="M 114.750000,460.400000 L 114.750000,460.400000 "  />
<path style="stroke:#000000;stroke-width:0.5pt;stroke-linejoin:miter;stroke-linecap:butt;opacity:1.0;fill:none; "
 d="M 114.750000,460.400000 L 114.750000,456.400000"  />
<path style="stroke:#000000;stroke-width:0.5pt;stroke-linejoin:miter;stroke-linecap:butt;opacity:1.0;fill:none; "
 d="M 114.750000,460.400000 L 114.750000,456.400000"  />
<path style="stroke:#000000;stroke-width:0.5pt;stroke-linejoin:miter;stroke-linecap:square;opacity:1.0;fill:none; "
 d="M 114.750000,176.000000 L 114.750000,176.000000 "  />
<path style="stroke:#000000;stroke-width:0.5pt;stroke-linejoin:miter;stroke-linecap:butt;opacity:1.0;fill:none; "
 d="M 114.750000,180.000000 L 114.750000,176.000000"  />
<path style="stroke:#000000;stroke-width:0.5pt;stroke-linejoin:miter;stroke-linecap:butt;opacity:1.0;fill:none; "
 d="M 114.750000,180.000000 L 114.750000,176.000000"  />
</g>
<g id= "xtick2">
<path style="stroke:#000000;stroke-width:0.5pt;stroke-linejoin:miter;stroke-linecap:square;opacity:1.0;fill:none; "
 d="M 184.500000,460.400000 L 184.500000,460.400000 "  />
<path style="stroke:#000000;stroke-width:0.5pt;stroke-linejoin:miter;stroke-linecap:butt;opacity:1.0;fill:none; "
 d="M 184.500000,460.400000 L 184.500000,456.400000"  />
<path style="stroke:#000000;stroke-width:0.5pt;stroke-linejoin:miter;stroke-linecap:butt;opacity:1.0;fill:none; "
 d="M 184.500000,460.400000 L 184.500000,456.400000"  />
<path style="stroke:#000000;stroke-width:0.5pt;stroke-linejoin:miter;stroke-linecap:square;opacity:1.0;fill:none; "
 d="M 184.500000,176.000000 L 184.500000,176.000000 "  />
<path style="stroke:#000000;stroke-width:0.5pt;stroke-linejoin:miter;stroke-linecap:butt;opacity:1.0;fill:none; "
 d="M 184.500000,180.000000 L 184.500000,176.000000"  />
<path style="stroke:#000000;stroke-width:0.5pt;stroke-linejoin:miter;stroke-linecap:butt;opacity:1.0;fill:none; "
 d="M 184.500000,180.000000 L 184.500000,176.000000"  />
</g>
<g id= "xtick3">
<path style="stroke:#000000;stroke-width:0.5pt;stroke-linejoin:miter;stroke-linecap:square;opacity:1.0;fill:none; "
 d="M 254.250000,460.400000 L 254.250000,460.400000 "  />
<path style="stroke:#000000;stroke-width:0.5pt;stroke-linejoin:miter;stroke-linecap:butt;opacity:1.0;fill:none; "
 d="M 254.250000,460.400000 L 254.250000,456.400000"  />
<path style="stroke:#000000;stroke-width:0.5pt;stroke-linejoin:miter;stroke-linecap:butt;opacity:1.0;fill:none; "
 d="M 254.250000,460.400000 L 254.250000,456.400000"  />
<path style="stroke:#000000;stroke-width:0.5pt;stroke-linejoin:miter;stroke-linecap:square;opacity:1.0;fill:none; "
 d="M 254.250000,176.000000 L 254.250000,176.000000 "  />
<path style="stroke:#000000;stroke-width:0.5pt;stroke-linejoin:miter;stroke-linecap:butt;opacity:1.0;fill:none; "
 d="M 254.250000,180.000000 L 254.250000,176.000000"  />
<path style="stroke:#000000;stroke-width:0.5pt;stroke-linejoin:miter;stroke-linecap:butt;opacity:1.0;fill:none; "
 d="M 254.250000,180.000000 L 254.250000,176.000000"  />
</g>
<g id= "xtick4">
</g>
</g>
<g id= "matplotlib.axis1">
<g id= "ytick0">
</g>
<g id= "ytick1">
<path style="stroke:#000000;stroke-width:0.5pt;stroke-linejoin:miter;stroke-linecap:square;opacity:1.0;fill:none; "
 d="M 45.000000,389.300000 L 45.000000,389.300000 "  />
<path style="stroke:#000000;stroke-width:0.5pt;stroke-linejoin:miter;stroke-linecap:butt;opacity:1.0;fill:none; "
 d="M 45.000000,389.300000 L 49.000000,389.300000"  />
<path style="stroke:#000000;stroke-width:0.5pt;stroke-linejoin:miter;stroke-linecap:butt;opacity:1.0;fill:none; "
 d="M 45.000000,389.300000 L 49.000000,389.300000"  />
<path style="stroke:#000000;stroke-width:0.5pt;stroke-linejoin:miter;stroke-linecap:square;opacity:1.0;fill:none; "
 d="M 324.000000,389.300000 L 324.000000,389.300000 "  />
<path style="stroke:#000000;stroke-width:0.5pt;stroke-linejoin:miter;stroke-linecap:butt;opacity:1.0;fill:none; "
 d="M 320.000000,389.300000 L 324.000000,389.300000"  />
<path style="stroke:#000000;stroke-width:0.5pt;stroke-linejoin:miter;stroke-linecap:butt;opacity:1.0;fill:none; "
 d="M 320.000000,389.300000 L 324.000000,389.300000"  />
</g>
<g id= "ytick2">
<path style="stroke:#000000;stroke-width:0.5pt;stroke-linejoin:miter;stroke-linecap:square;opacity:1.0;fill:none; "
 d="M 45.000000,318.200000 L 45.000000,318.200000 "  />
<path style="stroke:#000000;stroke-width:0.5pt;stroke-linejoin:miter;stroke-linecap:butt;opacity:1.0;fill:none; "
 d="M 45.000000,318.200000 L 49.000000,318.200000"  />
<path style="stroke:#000000;stroke-width:0.5pt;stroke-linejoin:miter;stroke-linecap:butt;opacity:1.0;fill:none; "
 d="M 45.000000,318.200000 L 49.000000,318.200000"  />
<path style="stroke:#000000;stroke-width:0.5pt;stroke-linejoin:miter;stroke-linecap:square;opacity:1.0;fill:none; "
 d="M 324.000000,318.200000 L 324.000000,318.200000 "  />
<path style="stroke:#000000;stroke-width:0.5pt;stroke-linejoin:miter;stroke-linecap:butt;opacity:1.0;fill:none; "
 d="M 320.000000,318.200000 L 324.000000,318.200000"  />
<path style="stroke:#000000;stroke-width:0.5pt;stroke-linejoin:miter;stroke-linecap:butt;opacity:1.0;fill:none; "
 d="M 320.000000,318.200000 L 324.000000,318.200000"  />
</g>
<g id= "ytick3">
<path style="stroke:#000000;stroke-width:0.5pt;stroke-linejoin:miter;stroke-linecap:square;opacity:1.0;fill:none; "
 d="M 45.000000,247.100000 L 45.000000,247.100000 "  />
<path style="stroke:#000000;stroke-width:0.5pt;stroke-linejoin:miter;stroke-linecap:butt;opacity:1.0;fill:none; "
 d="M 45.000000,247.100000 L 49.000000,247.100000"  />
<path style="stroke:#000000;stroke-width:0.5pt;stroke-linejoin:miter;stroke-linecap:butt;opacity:1.0;fill:none; "
 d="M 45.000000,247.100000 L 49.000000,247.100000"  />
<path style="stroke:#000000;stroke-width:0.5pt;stroke-linejoin:miter;stroke-linecap:square;opacity:1.0;fill:none; "
 d="M 324.000000,247.100000 L 324.000000,247.100000 "  />
<path style="stroke:#000000;stroke-width:0.5pt;stroke-linejoin:miter;stroke-linecap:butt;opacity:1.0;fill:none; "
 d="M 320.000000,247.100000 L 324.000000,247.100000"  />
<path style="stroke:#000000;stroke-width:0.5pt;stroke-linejoin:miter;stroke-linecap:butt;opacity:1.0;fill:none; "
 d="M 320.000000,247.100000 L 324.000000,247.100000"  />
</g>
<g id= "ytick4">
</g>
</g>
<clipPath id="-1348762828"><path d="M 45.000000,460.400000 L 324.000000,460.400000 L 324.000000,176.000000 L 45.000000,176.000000 L 45.000000,460.400000" /> </clipPath><path style="stroke:#0000ff;stroke-width:0.5pt;stroke-linejoin:miter;stroke-linecap:square;opacity:1.0;fill:none; "
 d="M 45.000000,318.200000 L 51.975000,274.257783 L 58.950000,234.616937 L 65.925000,203.157783 L 72.900000,182.959763 L 79.875000,176.000000 L 86.850000,182.959763 L 93.825000,203.157783 L 100.800000,234.616937 L 107.775000,274.257783 L 114.750000,318.200000 L 121.725000,362.142217 L 128.700000,401.783063 L 135.675000,433.242217 L 142.650000,453.440237 L 149.625000,460.400000 L 156.600000,453.440237 L 163.575000,433.242217 L 170.550000,401.783063 L 177.525000,362.142217 L 184.500000,318.200000 L 191.475000,274.257783 L 198.450000,234.616937 L 205.425000,203.157783 L 212.400000,182.959763 L 219.375000,176.000000 L 226.350000,182.959763 L 233.325000,203.157783 L 240.300000,234.616937 L 247.275000,274.257783 L 254.250000,318.200000 L 261.225000,362.142217 L 268.200000,401.783063 L 275.175000,433.242217 L 282.150000,453.440237 L 289.125000,460.400000 L 296.100000,453.440237 L 303.075000,433.242217 L 310.050000,401.783063 L 317.025000,362.142217 "  clip-path="url(#-1348762828)" />
</g>
</g>
</svg>
