<?xml version="1.0" standalone="no"?>
<!DOCTYPE svg PUBLIC "-//W3C//DTD SVG 1.0//EN"
"http://www.w3.org/TR/2001/REC-SVG-20010904/DTD/svg10.dtd">
<!-- Created with matplotlib (http://matplotlib.sourceforge.net/) -->
<svg
   xmlns="http://www.w3.org/2000/svg"
   xmlns:xlink="http://www.w3.org/1999/xlink"
   version="1.0"
   x="0.0000000"
   y="0.0000000"
   width="50.0pt"
   height="50.0pt"   
   id="svg1">
<g id= "figure0">
<polygon style="stroke:#ffffff;stroke-width:1.0pt;stroke-linejoin:miter;stroke-linecap:square;opacity:1.0;fill:#bfbfbf; "
   points = "0.000000,50.000000 0.000000,14.000000 36.000000,14.000000 36.000000,50.000000 " />
<g id= "axes0">
<polygon style="stroke:#000000;stroke-width:1.0pt;stroke-linejoin:miter;stroke-linecap:square;opacity:1.0;fill:#ffffff; "
   points = "4.500000,46.040000 4.500000,17.600000 32.400000,17.600000 32.400000,46.040000 " />
<g id= "matplotlib.axis0">
<g id= "xtick0">
</g>
<g id= "xtick1">
<path style="stroke:#000000;stroke-width:0.5pt;stroke-linejoin:miter;stroke-linecap:square;opacity:1.0;fill:none; "
 d="M 11.475000,46.040000 L 11.475000,46.040000 "  />
<path style="stroke:#000000;stroke-width:0.5pt;stroke-linejoin:miter;stroke-linecap:butt;opacity:1.0;fill:none; "
 d="M 11.475000,46.040000 L 11.475000,42.040000"  />
<path style="stroke:#000000;stroke-width:0.5pt;stroke-linejoin:miter;stroke-linecap:butt;opacity:1.0;fill:none; "
 d="M 11.475000,46.040000 L 11.475000,42.040000"  />
<path style="stroke:#000000;stroke-width:0.5pt;stroke-linejoin:miter;stroke-linecap:square;opacity:1.0;fill:none; "
 d="M 11.475000,17.600000 L 11.475000,17.600000 "  />
<path style="stroke:#000000;stroke-width:0.5pt;stroke-linejoin:miter;stroke-linecap:butt;opacity:1.0;fill:none; "
 d="M 11.475000,21.600000 L 11.475000,17.600000"  />
<path style="stroke:#000000;stroke-width:0.5pt;stroke-linejoin:miter;stroke-linecap:butt;opacity:1.0;fill:none; "
 d="M 11.475000,21.600000 L 11.475000,17.600000"  />
</g>
<g id= "xtick2">
<path style="stroke:#000000;stroke-width:0.5pt;stroke-linejoin:miter;stroke-linecap:square;opacity:1.0;fill:none; "
 d="M 18.450000,46.040000 L 18.450000,46.040000 "  />
<path style="stroke:#000000;stroke-width:0.5pt;stroke-linejoin:miter;stroke-linecap:butt;opacity:1.0;fill:none; "
 d="M 18.450000,46.040000 L 18.450000,42.040000"  />
<path style="stroke:#000000;stroke-width:0.5pt;stroke-linejoin:miter;stroke-linecap:butt;opacity:1.0;fill:none; "
 d="M 18.450000,46.040000 L 18.450000,42.040000"  />
<path style="stroke:#000000;stroke-width:0.5pt;stroke-linejoin:miter;stroke-linecap:square;opacity:1.0;fill:none; "
 d="M 18.450000,17.600000 L 18.450000,17.600000 "  />
<path style="stroke:#000000;stroke-width:0.5pt;stroke-linejoin:miter;stroke-linecap:butt;opacity:1.0;fill:none; "
 d="M 18.450000,21.600000 L 18.450000,17.600000"  />
<path style="stroke:#000000;stroke-width:0.5pt;stroke-linejoin:miter;stroke-linecap:butt;opacity:1.0;fill:none; "
 d="M 18.450000,21.600000 L 18.450000,17.600000"  />
</g>
<g id= "xtick3">
<path style="stroke:#000000;stroke-width:0.5pt;stroke-linejoin:miter;stroke-linecap:square;opacity:1.0;fill:none; "
 d="M 25.425000,46.040000 L 25.425000,46.040000 "  />
<path style="stroke:#000000;stroke-width:0.5pt;stroke-linejoin:miter;stroke-linecap:butt;opacity:1.0;fill:none; "
 d="M 25.425000,46.040000 L 25.425000,42.040000"  />
<path style="stroke:#000000;stroke-width:0.5pt;stroke-linejoin:miter;stroke-linecap:butt;opacity:1.0;fill:none; "
 d="M 25.425000,46.040000 L 25.425000,42.040000"  />
<path style="stroke:#000000;stroke-width:0.5pt;stroke-linejoin:miter;stroke-linecap:square;opacity:1.0;fill:none; "
 d="M 25.425000,17.600000 L 25.425000,17.600000 "  />
<path style="stroke:#000000;stroke-width:0.5pt;stroke-linejoin:miter;stroke-linecap:butt;opacity:1.0;fill:none; "
 d="M 25.425000,21.600000 L 25.425000,17.600000"  />
<path style="stroke:#000000;stroke-width:0.5pt;stroke-linejoin:miter;stroke-linecap:butt;opacity:1.0;fill:none; "
 d="M 25.425000,21.600000 L 25.425000,17.600000"  />
</g>
<g id= "xtick4">
</g>
</g>
<g id= "matplotlib.axis1">
<g id= "ytick0">
</g>
<g id= "ytick1">
<path style="stroke:#000000;stroke-width:0.5pt;stroke-linejoin:miter;stroke-linecap:square;opacity:1.0;fill:none; "
 d="M 4.500000,38.930000 L 4.500000,38.930000 "  />
<path style="stroke:#000000;stroke-width:0.5pt;stroke-linejoin:miter;stroke-linecap:butt;opacity:1.0;fill:none; "
 d="M 4.500000,38.930000 L 8.500000,38.930000"  />
<path style="stroke:#000000;stroke-width:0.5pt;stroke-linejoin:miter;stroke-linecap:butt;opacity:1.0;fill:none; "
 d="M 4.500000,38.930000 L 8.500000,38.930000"  />
<path style="stroke:#000000;stroke-width:0.5pt;stroke-linejoin:miter;stroke-linecap:square;opacity:1.0;fill:none; "
 d="M 32.400000,38.930000 L 32.400000,38.930000 "  />
<path style="stroke:#000000;stroke-width:0.5pt;stroke-linejoin:miter;stroke-linecap:butt;opacity:1.0;fill:none; "
 d="M 28.400000,38.930000 L 32.400000,38.930000"  />
<path style="stroke:#000000;stroke-width:0.5pt;stroke-linejoin:miter;stroke-linecap:butt;opacity:1.0;fill:none; "
 d="M 28.400000,38.930000 L 32.400000,38.930000"  />
</g>
<g id= "ytick2">
<path style="stroke:#000000;stroke-width:0.5pt;stroke-linejoin:miter;stroke-linecap:square;opacity:1.0;fill:none; "
 d="M 4.500000,31.820000 L 4.500000,31.820000 "  />
<path style="stroke:#000000;stroke-width:0.5pt;stroke-linejoin:miter;stroke-linecap:butt;opacity:1.0;fill:none; "
 d="M 4.500000,31.820000 L 8.500000,31.820000"  />
<path style="stroke:#000000;stroke-width:0.5pt;stroke-linejoin:miter;stroke-linecap:butt;opacity:1.0;fill:none; "
 d="M 4.500000,31.820000 L 8.500000,31.820000"  />
<path style="stroke:#000000;stroke-width:0.5pt;stroke-linejoin:miter;stroke-linecap:square;opacity:1.0;fill:none; "
 d="M 32.400000,31.820000 L 32.400000,31.820000 "  />
<path style="stroke:#000000;stroke-width:0.5pt;stroke-linejoin:miter;stroke-linecap:butt;opacity:1.0;fill:none; "
 d="M 28.400000,31.820000 L 32.400000,31.820000"  />
<path style="stroke:#000000;stroke-width:0.5pt;stroke-linejoin:miter;stroke-linecap:butt;opacity:1.0;fill:none; "
 d="M 28.400000,31.820000 L 32.400000,31.820000"  />
</g>
<g id= "ytick3">
<path style="stroke:#000000;stroke-width:0.5pt;stroke-linejoin:miter;stroke-linecap:square;opacity:1.0;fill:none; "
 d="M 4.500000,24.710000 L 4.500000,24.710000 "  />
<path style="stroke:#000000;stroke-width:0.5pt;stroke-linejoin:miter;stroke-linecap:butt;opacity:1.0;fill:none; "
 d="M 4.500000,24.710000 L 8.500000,24.710000"  />
<path style="stroke:#000000;stroke-width:0.5pt;stroke-linejoin:miter;stroke-linecap:butt;opacity:1.0;fill:none; "
 d="M 4.500000,24.710000 L 8.500000,24.710000"  />
<path style="stroke:#000000;stroke-width:0.5pt;stroke-linejoin:miter;stroke-linecap:square;opacity:1.0;fill:none; "
 d="M 32.400000,24.710000 L 32.400000,24.710000 "  />
<path style="stroke:#000000;stroke-width:0.5pt;stroke-linejoin:miter;stroke-linecap:butt;opacity:1.0;fill:none; "
 d="M 28.400000,24.710000 L 32.400000,24.710000"  />
<path style="stroke:#000000;stroke-width:0.5pt;stroke-linejoin:miter;stroke-linecap:butt;opacity:1.0;fill:none; "
 d="M 28.400000,24.710000 L 32.400000,24.710000"  />
</g>
<g id= "ytick4">
</g>
</g>
<clipPath id="1122589624"><path d="M 4.500000,46.040000 L 32.400000,46.040000 L 32.400000,17.600000 L 4.500000,17.600000 L 4.500000,46.040000" /> </clipPath><path style="stroke:#0000ff;stroke-width:0.5pt;stroke-linejoin:miter;stroke-linecap:square;opacity:1.0;fill:none; "
 d="M 4.500000,31.820000 L 5.197500,27.425778 L 5.895000,23.461694 L 6.592500,20.315778 L 7.290000,18.295976 L 7.987500,17.600000 L 8.685000,18.295976 L 9.382500,20.315778 L 10.080000,23.461694 L 10.777500,27.425778 L 11.475000,31.820000 L 12.172500,36.214222 L 12.870000,40.178306 L 13.567500,43.324222 L 14.265000,45.344024 L 14.962500,46.040000 L 15.660000,45.344024 L 16.357500,43.324222 L 17.055000,40.178306 L 17.752500,36.214222 L 18.450000,31.820000 L 19.147500,27.425778 L 19.845000,23.461694 L 20.542500,20.315778 L 21.240000,18.295976 L 21.937500,17.600000 L 22.635000,18.295976 L 23.332500,20.315778 L 24.030000,23.461694 L 24.727500,27.425778 L 25.425000,31.820000 L 26.122500,36.214222 L 26.820000,40.178306 L 27.517500,43.324222 L 28.215000,45.344024 L 28.912500,46.040000 L 29.610000,45.344024 L 30.307500,43.324222 L 31.005000,40.178306 L 31.702500,36.214222 "  clip-path="url(#1122589624)" />
</g>
</g>
</svg>