/* XPM */
static char * subplots_xpm[] = {
"24 24 218 2",
"  	c None",
". 	c #000000",
"+ 	c #2C2C2C",
"@ 	c #3B3B3B",
"# 	c #004300",
"$ 	c #007300",
"% 	c #F2F2F2",
"& 	c #F4F4F4",
"* 	c #F3F3F3",
"= 	c #F1F1F1",
"- 	c #A9A9A9",
"; 	c #3C583C",
"> 	c #48D848",
", 	c #58DC58",
"' 	c #479447",
") 	c #6F6F6F",
"! 	c #ECECEC",
"~ 	c #D8D8D8",
"{ 	c #858585",
"] 	c #3A3A3A",
"^ 	c #CFCFCF",
"/ 	c #B7B7B7",
"( 	c #B9B9B9",
"_ 	c #374037",
": 	c #3AC13A",
"< 	c #62D562",
"[ 	c #79DA79",
"} 	c #5FD45F",
"| 	c #2F5E2F",
"1 	c #BBBBBB",
"2 	c #C2C2C2",
"3 	c #C5C5C5",
"4 	c #161616",
"5 	c #393939",
"6 	c #CDCDCD",
"7 	c #A5A5A5",
"8 	c #808080",
"9 	c #383838",
"0 	c #202020",
"a 	c #686868",
"b 	c #D9D9D9",
"c 	c #CACACA",
"d 	c #A0A0A0",
"e 	c #6686A5",
"f 	c #518FCC",
"g 	c #5694CF",
"h 	c #5B98D1",
"i 	c #609DD4",
"j 	c #65A1D6",
"k 	c #6AA6D9",
"l 	c #6FAADB",
"m 	c #75AFDE",
"n 	c #7AB3E1",
"o 	c #7FB8E3",
"p 	c #91C3E8",
"q 	c #A3CEED",
"r 	c #CFE6F6",
"s 	c #373737",
"t 	c #C8C8C8",
"u 	c #6888A6",
"v 	c #5693CE",
"w 	c #47759E",
"x 	c #32506B",
"y 	c #34526C",
"z 	c #37546D",
"A 	c #39576E",
"B 	c #3C5970",
"C 	c #3E5B71",
"D 	c #7CA2BE",
"E 	c #ADD4EF",
"F 	c #A9D3EF",
"G 	c #D2E8F7",
"H 	c #353535",
"I 	c #9A9A9A",
"J 	c #303030",
"K 	c #39526A",
"L 	c #5A98D1",
"M 	c #29435C",
"N 	c #1F1F1F",
"O 	c #2E2E2E",
"P 	c #191919",
"Q 	c #2A2D48",
"R 	c #141414",
"S 	c #242424",
"T 	c #586B78",
"U 	c #AED7F1",
"V 	c #4D5860",
"W 	c #5A5A5A",
"X 	c #171717",
"Y 	c #314E31",
"Z 	c #32BA32",
"` 	c #2C3F51",
" .	c #5F9CD3",
"..	c #848484",
"+.	c #ACACAC",
"@.	c #656565",
"#.	c #6F7DA9",
"$.	c #565656",
"%.	c #AAAAAA",
"&.	c #999999",
"*.	c #0B0D0F",
"=.	c #B2DAF3",
"-.	c #3A6242",
";.	c #44B144",
">.	c #000900",
",.	c #0C460C",
"'.	c #3ECD3E",
").	c #5BCE5B",
"!.	c #2E4152",
"~.	c #64A0D6",
"{.	c #8D8D8D",
"].	c #6A6A6A",
"^.	c #95AFCD",
"/.	c #5F5F5F",
"(.	c #A2A2A2",
"_.	c #B6DDF5",
":.	c #47664F",
"<.	c #6EE16E",
"[.	c #0D930D",
"}.	c #002600",
"|.	c #001900",
"1.	c #0D9D0D",
"2.	c #52D252",
"3.	c #76D576",
"4.	c #2F4253",
"5.	c #69A4D8",
"6.	c #7F7F7F",
"7.	c #BAE1F7",
"8.	c #4B6753",
"9.	c #8FEA8F",
"0.	c #21A121",
"a.	c #00A600",
"b.	c #0C160C",
"c.	c #63D063",
"d.	c #314353",
"e.	c #6EA8DA",
"f.	c #FFFFFF",
"g.	c #BDE4F9",
"h.	c #37633F",
"i.	c #8BE98B",
"j.	c #0E5A0E",
"k.	c #4C4C4C",
"l.	c #308130",
"m.	c #324554",
"n.	c #89BAE2",
"o.	c #C0E6FA",
"p.	c #38593F",
"q.	c #457745",
"r.	c #333333",
"s.	c #B6B6B6",
"t.	c #6D6D6D",
"u.	c #5C768C",
"v.	c #8BBCE4",
"w.	c #191C1E",
"x.	c #181D1F",
"y.	c #C2E9FC",
"z.	c #95A4AB",
"A.	c #BFBFBF",
"B.	c #7C99B0",
"C.	c #8DBFE5",
"D.	c #92A6B5",
"E.	c #181C1E",
"F.	c #A0BECD",
"G.	c #C4ECFE",
"H.	c #E1F5FF",
"I.	c #EFEFEF",
"J.	c #7E9BB1",
"K.	c #8FC1E7",
"L.	c #C0DDF2",
"M.	c #C3E0F4",
"N.	c #C6E2F5",
"O.	c #C8E4F6",
"P.	c #C8E5F7",
"Q.	c #C8E6F8",
"R.	c #C8E8F9",
"S.	c #C7E9FB",
"T.	c #C7EBFC",
"U.	c #C6ECFE",
"V.	c #C4EDFF",
"W.	c #E0F5FF",
"X.	c #819DB2",
"Y.	c #92C4E9",
"Z.	c #BBDBF2",
"`.	c #4B575F",
" +	c #30383D",
".+	c #31393E",
"++	c #323A3E",
"@+	c #3B454A",
"#+	c #A2BFCD",
"$+	c #C8EDFE",
"%+	c #C6EDFF",
"&+	c #C2ECFF",
"*+	c #DFF5FF",
"=+	c #F0F0F0",
"-+	c #B8B8B8",
";+	c #E7E7E7",
">+	c #4B554B",
",+	c #4FD34F",
"'+	c #7BE87B",
")+	c #9BF09B",
"!+	c #78E778",
"~+	c #407040",
"{+	c #8C8C8C",
"]+	c #DADADA",
"^+	c #DBDBDB",
"/+	c #A8A8A8",
"(+	c #385438",
"_+	c #4DD64D",
":+	c #60DB60",
"<+	c #459145",
"[+	c #767676",
"}+	c #DFDFDF",
"|+	c #E0E0E0",
"1+	c #E1E1E1",
"2+	c #E2E2E2",
"3+	c #0B0B0B",
"4+	c #003900",
"5+	c #017301",
"                                                ",
"                                                ",
"                      . .                       ",
"      . + @ . . . . . # $ . . . . . . . .       ",
"      + % & & * = - ; > , ' ) ! ! ! ~ ~ { .     ",
"      ] ^ / ( ( ( _ : < [ } | { 1 1 2 3 3 4     ",
"      5 6 7 8 8 8 9 0 0 0 0 + a 8 8 8 8 b .     ",
"      9 c d e f g h i j k l m n o p q r ! .     ",
"      s t d u v h w x y z A B C D E F G ! .     ",
"      H I J K L M N O P Q Q R + S T U V W .     ",
"      X Y Z `  .. ..+.@.#.#.$.%.&.*.=.-.;.>.    ",
"    . ,.'.).!.~.. {.%.].^.^./.+.(.. _.:.<.[.}.  ",
"    |.1.2.3.4.5.. 6.6.6.6.6.6.6.6.. 7.8.9.0.a.. ",
"      b.;.c.d.e.. f.f.f.f.f.f.f.f.. g.h.i.j..   ",
"      N k.l.m.n.. f.f.f.f.f.f.f.f.. o.p.q..     ",
"      r.s.t.u.v.w.^ f.f.f.f.f.f.^ x.y.z.%..     ",
"      r.A.(.B.C.D.E.. . . . . . x.F.G.H.I..     ",
"      r.A.(.J.K.L.M.N.O.P.Q.R.S.T.U.V.W.I..     ",
"      r.A.(.X.Y.Z.`. +.+.+++@+#+$+%+&+*+=+.     ",
"      P A.-+;+f.f.>+,+'+)+!+~+/ f.f.f.f.=+.     ",
"      . {+^ ]+]+^+/+(+_+:+<+[+}+|+|+1+1+2+.     ",
"        3+. . . . . . 4+5+. . . . . . . 9 .     ",
"                      . .                       ",
"                                                "};
