/* XPM */
static char *zoom_to_rect[] = {
/* columns rows colors chars-per-pixel */
"24 24 241 2",
"   c #3A889D",
".  c #428DA1",
"X  c #448DA3",
"o  c #468EA5",
"O  c #4790A3",
"+  c #4E94A7",
"@  c #4C91A8",
"#  c #5397AA",
"$  c #589AAD",
"%  c #589CAC",
"&  c #5D9FAF",
"*  c #5C9CB0",
"=  c #5E9DB1",
"-  c #62A2B1",
";  c #64A5B3",
":  c #66A4B4",
">  c #67A5B7",
",  c #68A7B5",
"<  c #69A6B6",
"1  c #6CA9B7",
"2  c #6EABB9",
"3  c #6FABB9",
"4  c #74AFBC",
"5  c #78B1BE",
"6  c #78B2BC",
"7  c #7AB3BF",
"8  c #79BEC8",
"9  c #7EC1CA",
"0  c #D77F32",
"q  c #B78F5F",
"w  c #C39754",
"e  c #D6894C",
"r  c #D98B4F",
"t  c #D99154",
"y  c #DE9152",
"u  c #DC9154",
"i  c #D9925B",
"p  c #DC965E",
"a  c #DD9856",
"s  c #C89C7C",
"d  c #D19A70",
"f  c #DAA36C",
"g  c #DDA070",
"h  c #DBA67E",
"j  c #E0985A",
"k  c #E8A949",
"l  c #ECB556",
"z  c #EFBB5A",
"x  c #F3BD55",
"c  c #F4BC54",
"v  c #E5A165",
"b  c #E4AD69",
"n  c #EBAF6B",
"m  c #E8B365",
"M  c #EBB079",
"N  c #F4C05E",
"B  c #F4C061",
"V  c #F5C160",
"C  c #F6C56D",
"Z  c #F6C66F",
"A  c #F7C979",
"S  c #F7CA7C",
"D  c #F7CB7E",
"F  c #BCA88D",
"G  c #AFB9B8",
"H  c #83B9C3",
"J  c #85BCC4",
"K  c #88BCC7",
"L  c #8ABDC7",
"P  c #8DBFCA",
"I  c #91BFC9",
"U  c #80C3CC",
"Y  c #83C3CD",
"T  c #82C4CF",
"R  c #84C5CF",
"E  c #8AC7D1",
"W  c #88C9D5",
"Q  c #8ACBD7",
"!  c #8DC8D1",
"~  c #8CCAD4",
"^  c #8DCBD5",
"/  c #8FCAD4",
"(  c #92C1CC",
")  c #91C5CF",
"_  c #96C4CE",
"`  c #99C4C5",
"'  c #97C5D0",
"]  c #93C8D2",
"[  c #94CDD7",
"{  c #93CED8",
"}  c #97C9DE",
"|  c #94CED8",
" . c #97CFD8",
".. c #9DCAD1",
"X. c #9ECAD2",
"o. c #9FCBD3",
"O. c #96D0DA",
"+. c #97D1DB",
"@. c #99D1DB",
"#. c #98D2DC",
"$. c #9DD4DE",
"%. c #9ED4DE",
"&. c #9FD5E0",
"*. c #A1C8D1",
"=. c #A0CAD3",
"-. c #A3CAD2",
";. c #A1CBD4",
":. c #A1CCD5",
">. c #A2CCD4",
",. c #A2CDD5",
"<. c #A4CAD2",
"1. c #A4CBD2",
"2. c #A4CBD3",
"3. c #A7CBD3",
"4. c #A5CBD4",
"5. c #A5CCD2",
"6. c #A4CCD4",
"7. c #A4CCD5",
"8. c #A8C9D0",
"9. c #A9CAD0",
"0. c #AACAD0",
"q. c #A9CBD5",
"w. c #A8CDD4",
"e. c #A4D1D7",
"r. c #A7D0D9",
"t. c #ADD0D4",
"y. c #AAD1D9",
"u. c #AAD1DA",
"i. c #ABD2DB",
"p. c #ACD3D8",
"a. c #ADD5D9",
"s. c #ACD4DB",
"d. c #AED5DB",
"f. c #ADD4DD",
"g. c #B4CCD6",
"h. c #B5CFD6",
"j. c #B2D3D7",
"k. c #B2D4D7",
"l. c #B4D4D7",
"z. c #B0D6DB",
"x. c #B1D7DB",
"c. c #B1D7DC",
"v. c #B7D1DB",
"b. c #B7D6D9",
"n. c #B7D6DA",
"m. c #B5D6DD",
"M. c #B1D8DB",
"N. c #B6D8DF",
"B. c #B7DADF",
"V. c #B9D0D8",
"C. c #B9D1D9",
"Z. c #B8D6DA",
"A. c #BAD7DB",
"S. c #BAD7DC",
"D. c #BAD9DE",
"F. c #BDD9DD",
"G. c #BEDADE",
"H. c #BFD7E0",
"J. c #B8DBE0",
"K. c #BBDCE1",
"L. c #BFDCE0",
"P. c #BEDEE3",
"I. c #BEDFE3",
"U. c #BFDFE4",
"Y. c #DEAE87",
"T. c #DEB597",
"R. c #DFB797",
"E. c #EFBA83",
"W. c #F8CE88",
"Q. c #F8CF8A",
"!. c #F4C897",
"~. c #F9D397",
"^. c #F9D499",
"/. c #E2C0A5",
"(. c #E2CEBE",
"). c #F6D1A1",
"_. c #F8D3A0",
"`. c #F9D7A2",
"'. c #FAD8A3",
"]. c #C0DBDF",
"[. c #C1DBDF",
"{. c #C1D8E1",
"}. c #C2DCE1",
"|. c #C6DEE2",
" X c #C6DEE3",
".X c #C9D8E3",
"XX c #C9D9E5",
"oX c #C9D9E6",
"OX c #C8DFE3",
"+X c #CAD9E9",
"@X c #CDDBE9",
"#X c #CEDBE9",
"$X c #CFDCE9",
"%X c #D4DEE7",
"&X c #D0DCE9",
"*X c #D0DDE9",
"=X c #D1DDE9",
"-X c #D2DDE8",
";X c #D5DFE9",
":X c #C1E0E5",
">X c #C4E2E7",
",X c #C5E3E7",
"<X c #C7E3E8",
"1X c #C9E5EA",
"2X c #CBE6EB",
"3X c #CCE7EB",
"4X c #CEE7EC",
"5X c #CEE0F0",
"6X c #D0E9EE",
"7X c #D1E9EE",
"8X c #D3EAEF",
"9X c #DBE1E7",
"0X c #D4EBF0",
"qX c #D5EBF0",
"wX c #DBE8F7",
"eX c #D8EDF2",
"rX c #D9EEF3",
"tX c #DBEFF5",
"yX c #DCE9F7",
"uX c #DAE8F8",
"iX c #DDE9F8",
"pX c #DEEAF8",
"aX c #DEF0F6",
"sX c #DFF1F6",
"dX c #E2D0C3",
"fX c #E3D9D1",
"gX c #E5DFDB",
"hX c #F2D5C1",
"jX c #E5E2DF",
"kX c #E2E4E7",
"lX c #E5E3E2",
"zX c #E5E5E6",
"xX c #E4E6E7",
"cX c #E6E6E6",
"vX c #E2F4F9",
"bX c #E3F4F9",
"nX c #EDF3FB",
"mX c #F0F4FB",
"MX c #F2F5FB",
"NX c #F9F9FD",
"BX c #FEFCFE",
/* pixels */
"cXcXcXcXcXcXcXcXcXcXcXcXcXcXcXcXcXcXcXcXcXcXcXcX",
"cXcXcXcXcXcXcXcXcXcXcXcXcXcXcXcXcXcXcXcXcXcXcXcX",
"cXcXcXcXcXcXcXcXcXcXcXcXcXcXcXcXcXcXcXcX(.j r jX",
"cXcXcXcXcXcXcXcXcXcXcXcXcXcXcXcXcXcXlXd v ^.n R.",
"cXcXcXcXcXcXcXcXcXcXcXcXcXcXcXcXcX/.y !.~.W.z 0 ",
"cXcXcXcXcXkX&X$X$X$X&XcXcXcXcXfXp M `.W.Z x m e ",
"cXcXcXcX@X.X9.<.<.4.9.oX;XcXY.j _.~.S N z a h gX",
"cXcXkX+Xq.f.L.].F.A.S.i.V.s E.'.W.Z x b i dXcXcX",
"cXcX$X*.B.>XOX>X}.F.B.k.i.G f A N l t R.lXcXcXcX",
"cX&X4.m.~ &.e.%.#.{ Q R 9 ] F k w q ` { { ~ cXcX",
"kX.Xf.}.{ aXbXaXrX7X1X}.L.e.l.d hXBXBXBXBX#.cXcX",
"&X9.A.}. .aXbXsXrX7X1X}.J.x.4.yXBXBXBXBXBX#.cXcX",
"$X4.A.[.[ rXaX= @ o X .   7 o.iXBXBXBXBXBX#.cXcX",
"$X*.b.F.^ 7X8X8X7X2X>XI.J.x.X.iXBXBXBXBXBX#.cXcX",
"&X<.l.Z.E 4X4X> * $ + + O 6 ;.iXBXBXBXBXBX#.cXcX",
"&X9.b.k.U <X<X' _ ( ( L H J 4.iXBXBXBXBXBX#.cXcX",
"cXoXi.w.9 I.I.3 > : - & % L {.mXBXBXBXBXBX#.cXcX",
"cX%XV.i.8 D.D.4 2 1 , ; 6 ( wXBXBXBXBXBXBX#.cXcX",
"cXcX&Xg.] ;.z.M.x.a.p.4.3.5XNXBXBXBXBXBXBX#.cXcX",
"cXcXcX9X} S.;.;.X.*.<.F.uXNXBXBXBXBXBXBXBX#.cXcX",
"cXcXcXcXE nXiXiXyXiXiXmXBXBXBXBXBXBXBXBXBX#.cXcX",
"cXcXcXcXU +.+.+.+.+.+.+.{ +.+.+.+.+.+.+.+.Q cXcX",
"cXcXcXcXcXcXcXcXcXcXcXcXcXcXcXcXcXcXcXcXcXcXcXcX",
"cXcXcXcXcXcXcXcXcXcXcXcXcXcXcXcXcXcXcXcXcXcXcXcX"
};
