<?xml version="1.0" encoding="utf-8" standalone="no"?>
<!DOCTYPE svg PUBLIC "-//W3C//DTD SVG 1.1//EN"
  "http://www.w3.org/Graphics/SVG/1.1/DTD/svg11.dtd">
<svg xmlns:xlink="http://www.w3.org/1999/xlink" width="460.8pt" height="345.6pt" viewBox="0 0 460.8 345.6" xmlns="http://www.w3.org/2000/svg" version="1.1">
 <metadata>
  <rdf:RDF xmlns:dc="http://purl.org/dc/elements/1.1/" xmlns:cc="http://creativecommons.org/ns#" xmlns:rdf="http://www.w3.org/1999/02/22-rdf-syntax-ns#">
   <cc:Work>
    <dc:type rdf:resource="http://purl.org/dc/dcmitype/StillImage"/>
    <dc:date>2026-03-20T11:11:58.706907</dc:date>
    <dc:format>image/svg+xml</dc:format>
    <dc:creator>
     <cc:Agent>
      <dc:title>Matplotlib v3.11.0.dev1488+g3a4b88e22.d20260320, https://matplotlib.org/</dc:title>
     </cc:Agent>
    </dc:creator>
   </cc:Work>
  </rdf:RDF>
 </metadata>
 <defs>
  <style type="text/css">*{stroke-linejoin: round; stroke-linecap: butt}</style>
 </defs>
 <g id="figure_1">
  <g id="patch_1">
   <path d="M 0 345.6 
L 460.8 345.6 
L 460.8 0 
L 0 0 
z
" style="fill: #ffffff"/>
  </g>
  <g id="axes_1">
   <g id="patch_2">
    <path d="M 57.6 307.584 
L 414.72 307.584 
L 414.72 41.472 
L 57.6 41.472 
z
" style="fill: #ffffff"/>
   </g>
   <g id="FillBetweenPolyCollection_1">
    <path d="M 57.6 119.874001 
L 58.107115 259.828748 
L 58.599946 224.117374 
L 59.142774 277.105365 
L 59.339192 184.541697 
L 59.589178 199.276605 
L 59.778454 271.907619 
L 60.328424 185.713272 
L 60.585553 207.786639 
L 61.474791 183.602936 
L 60.63555 272.494191 
L 61.585499 202.40202 
L 61.624783 261.127671 
L 61.621211 183.479143 
L 62.578303 229.652709 
L 62.814004 187.457492 
L 63.217554 269.063854 
L 63.574677 219.820157 
L 63.678243 262.3453 
L 64.242498 180.284503 
L 64.571052 213.484554 
L 65.463861 182.157933 
L 65.328154 256.181429 
L 65.570998 207.192293 
L 66.217392 265.465178 
L 65.842412 183.595509 
L 66.570944 210.550343 
L 66.792361 180.768033 
L 67.142342 272.787306 
L 67.553034 214.067638 
L 68.402988 255.202897 
L 68.103004 186.731858 
L 68.549409 208.700478 
L 69.227943 187.063448 
L 69.427933 270.672444 
L 69.5065 202.85101 
L 69.617208 259.7368 
L 70.263602 184.195045 
L 70.506446 214.466165 
L 70.813572 265.175575 
L 70.627868 180.520891 
L 71.492107 226.980217 
L 72.363488 183.625641 
L 72.206354 262.793946 
L 72.492053 213.614874 
L 73.124162 181.728418 
L 73.327722 259.609788 
L 73.474143 217.726103 
L 74.07411 262.983472 
L 74.238387 180.62659 
L 74.470518 230.738376 
L 74.638366 183.181341 
L 74.699077 259.343955 
L 75.470464 223.025461 
L 76.188282 267.37935 
L 75.888298 187.432315 
L 76.402556 228.581774 
L 77.116803 180.75851 
L 76.909671 262.626659 
L 77.402502 210.968925 
L 78.12032 185.842905 
L 77.466784 264.641185 
L 78.391734 197.365531 
L 78.398877 256.964945 
L 78.909563 187.271363 
L 79.388109 202.938774 
L 79.39168 181.341463 
L 80.313059 266.979853 
L 80.384484 214.048539 
L 80.602329 266.168344 
L 80.866601 187.522973 
L 81.38443 245.987998 
L 81.566563 184.003734 
L 82.130818 275.060175 
L 82.387947 216.91788 
L 82.409374 182.546123 
L 83.387893 259.679853 
L 83.977147 184.776304 
L 84.387839 195.59204 
L 85.319932 264.170726 
L 85.302075 183.368603 
L 85.387785 210.142602 
L 86.073462 181.864281 
L 85.898472 259.856541 
L 86.32702 219.751803 
L 86.552008 270.077637 
L 86.698429 180.171593 
L 87.319824 207.68214 
L 87.805512 179.776681 
L 88.084068 267.897178 
L 88.312627 204.489319 
L 88.737604 256.599388 
L 89.209007 188.928937 
L 89.316144 241.323785 
L 90.033963 182.401978 
L 89.816117 279.204719 
L 90.31609 217.598457 
L 90.891059 182.411006 
L 90.512508 258.527073 
L 91.312465 208.552813 
L 92.198132 260.658095 
L 92.133849 183.900995 
L 92.312411 223.955335 
L 92.669535 185.040505 
L 92.408834 269.754867 
L 93.315928 208.893847 
L 93.49449 254.437479 
L 93.483776 184.416653 
L 94.315874 214.014416 
L 94.690854 178.584165 
L 95.019408 267.252413 
L 95.312249 211.214555 
L 95.862219 268.875623 
L 96.194344 187.681633 
L 96.315766 228.798318 
L 97.105009 183.831896 
L 96.890735 265.992235 
L 97.30857 223.126361 
L 98.026388 255.694745 
L 97.472847 182.132771 
L 98.304945 216.158423 
L 98.633498 187.299372 
L 98.490649 261.892326 
L 99.301319 192.1698 
L 99.647729 268.580086 
L 100.254839 185.185139 
L 100.301265 215.857555 
L 100.361976 263.21353 
L 100.708386 186.148381 
L 101.301211 232.057467 
L 101.676191 186.26432 
L 101.940463 280.072301 
L 102.301157 216.716874 
L 103.140398 185.280748 
L 102.504718 271.557673 
L 103.276105 200.512136 
L 104.065348 259.476202 
L 104.115345 180.305796 
L 104.276051 214.10572 
L 105.033153 183.142921 
L 104.697457 265.075975 
L 105.272426 215.885796 
L 105.440274 260.64385 
L 106.140236 183.64672 
L 106.2688 217.448758 
L 106.308084 187.069067 
L 106.886624 252.707893 
L 107.229463 212.833928 
L 107.290174 280.456437 
L 107.747292 186.252285 
L 108.229409 228.053605 
L 108.747238 185.550437 
L 108.400828 257.067965 
L 109.232926 199.200265 
L 109.9686 276.774154 
L 110.154305 175.038515 
L 110.232872 213.948155 
L 110.893551 187.972455 
L 110.97926 261.455358 
L 111.179249 218.36236 
L 111.67208 270.674055 
L 111.836357 186.759662 
L 112.175624 207.808812 
L 112.407754 276.491705 
L 112.936297 188.233227 
L 113.182713 224.389345 
L 113.304135 188.479361 
L 113.418414 252.290426 
L 114.182659 211.902297 
L 114.939761 266.80612 
L 114.325508 178.566007 
L 115.186176 221.41662 
L 115.796857 178.830616 
L 115.782572 269.769257 
L 116.186122 198.611374 
L 116.536103 264.377311 
L 117.068217 185.561677 
L 117.186068 236.303411 
L 117.464624 186.840577 
L 117.721753 254.502288 
L 118.186014 204.890221 
L 118.475284 265.170419 
L 118.20387 183.217859 
L 119.193102 229.549508 
L 119.589509 185.575873 
L 119.385949 258.224904 
L 120.193048 211.09769 
L 121.014433 272.677224 
L 120.982291 179.922719 
L 121.185852 214.109848 
L 121.189423 184.161793 
L 121.907241 287.742527 
L 122.182227 226.176315 
L 122.260794 257.438512 
L 123.085749 189.97461 
L 123.178601 230.070071 
L 123.503584 186.138623 
L 123.83928 266.935934 
L 124.178547 230.29291 
L 124.721375 176.817913 
L 124.210689 260.362205 
L 125.174922 235.55251 
L 125.178493 270.522481 
L 125.817745 181.081541 
L 126.171297 212.048622 
L 126.285576 183.055727 
L 127.056963 260.415488 
L 127.1641 198.875838 
L 127.24981 258.884655 
L 127.224811 181.940152 
L 128.164046 205.870121 
L 128.581881 180.215851 
L 128.442603 261.428653 
L 129.15685 215.729516 
L 129.681822 267.658971 
L 129.321127 181.121656 
L 130.163938 235.770176 
L 131.010321 184.097394 
L 130.435352 259.652363 
L 131.163884 224.17633 
L 131.878132 270.55646 
L 131.974555 183.742941 
L 132.142403 223.766533 
L 132.195972 182.637366 
L 132.324536 257.60722 
L 133.142349 184.031052 
L 133.806599 263.797538 
L 133.167348 178.16614 
L 134.142295 223.5187 
L 134.910111 182.909526 
L 134.231576 263.356294 
L 135.135099 197.216452 
L 135.424369 264.0601 
L 135.356515 183.428443 
L 136.135045 241.200454 
L 136.263609 186.674866 
L 136.892147 262.263588 
L 137.134991 227.419033 
L 137.434974 183.345715 
L 137.599251 275.583403 
L 138.134937 208.988316 
L 138.820614 265.274798 
L 138.170649 185.749901 
L 139.131311 226.815112 
L 139.670568 181.372317 
L 139.142025 272.584548 
L 140.127686 207.890991 
L 141.038351 266.345814 
L 140.834791 181.029338 
L 141.131203 239.659689 
L 141.999014 185.067355 
L 141.288338 264.812547 
L 142.131149 236.822578 
L 142.602552 178.919471 
L 142.534699 255.843903 
L 143.134667 196.925248 
L 143.266802 276.009145 
L 143.402509 190.686643 
L 144.134613 229.441693 
L 144.577446 180.745822 
L 144.373885 264.814042 
L 145.134559 213.22754 
L 145.734526 179.318931 
L 145.955943 255.374514 
L 146.116648 228.580901 
L 146.998744 180.683774 
L 146.980887 262.992309 
L 147.095167 220.092444 
L 147.19159 268.487805 
L 147.138022 186.473966 
L 148.08797 221.739278 
L 148.348671 181.305724 
L 148.580801 261.971369 
L 149.087916 200.813243 
L 149.216481 270.064829 
L 149.823591 184.512165 
L 150.102147 223.746714 
L 150.134289 178.330689 
L 150.252139 276.233096 
L 151.102093 212.079292 
L 152.023472 187.677893 
L 151.587781 264.412492 
L 152.091326 233.551091 
L 152.841285 268.30101 
L 152.79843 181.794804 
L 153.0877 240.765509 
L 153.31626 185.519257 
L 153.209122 255.782137 
L 154.087646 237.966536 
L 154.216211 260.355781 
L 155.001883 187.078012 
L 155.076879 213.772512 
L 155.955403 175.200839 
L 155.419717 266.419914 
L 156.069682 210.680999 
L 156.248244 277.649472 
L 156.72679 187.622313 
L 157.069628 216.793769 
L 158.037433 184.301447 
L 157.723164 279.653938 
L 158.055289 204.979155 
L 158.63383 260.100019 
L 158.537406 186.734969 
L 159.058807 231.664165 
L 159.47307 183.693647 
L 159.598063 258.702472 
L 160.058753 220.028368 
L 160.994416 269.778946 
L 160.555154 183.092205 
L 161.0337 203.891067 
L 161.772946 184.202162 
L 161.862227 266.890308 
L 161.951508 215.019935 
L 161.955079 265.238632 
L 162.905027 188.79338 
L 162.951454 214.970111 
L 163.205011 184.324332 
L 163.165728 276.182539 
L 163.872832 220.745783 
L 164.669218 282.40195 
L 164.765641 186.477778 
L 164.872778 243.088119 
L 165.576312 178.906746 
L 165.244187 270.876012 
L 165.876296 188.884504 
L 166.772676 267.218824 
L 166.43698 185.599654 
L 166.879813 224.964847 
L 167.286934 179.875345 
L 167.458353 268.724608 
L 167.879759 217.645538 
L 168.60472 264.884444 
L 168.322592 183.762484 
L 168.868991 212.863985 
L 169.018983 178.076487 
L 168.886847 281.787794 
L 169.861795 201.56731 
L 170.80103 262.640511 
L 170.583184 181.348085 
L 170.861741 261.509605 
L 171.375999 187.522783 
L 171.32243 288.666772 
L 171.861687 239.665887 
L 172.665215 184.972504 
L 171.925969 261.800576 
L 172.843776 234.0589 
L 173.468743 265.729633 
L 173.508026 185.003917 
L 173.840151 227.604006 
L 174.232987 278.802758 
L 174.372265 185.10183 
L 174.815099 220.380655 
L 175.60077 185.567881 
L 174.943663 257.231778 
L 175.811473 220.046266 
L 175.900754 267.58182 
L 176.622144 186.65235 
L 176.800706 227.292531 
L 177.039978 187.577441 
L 177.093547 275.121741 
L 177.804223 188.984657 
L 178.347051 258.739218 
L 178.397048 185.021293 
L 178.80774 255.307424 
L 179.12558 181.113478 
L 179.314856 259.906635 
L 179.807686 219.474399 
L 180.464793 269.316804 
L 180.389797 186.52841 
L 180.804061 231.954137 
L 181.618303 184.79676 
L 181.700441 258.994649 
L 181.804007 199.937243 
L 182.764669 263.681113 
L 182.16113 184.563541 
L 182.803953 226.359664 
L 183.246786 181.829183 
L 183.578911 264.249903 
L 183.803899 214.782865 
L 184.35744 257.168442 
L 184.511004 186.694019 
L 184.782417 225.488003 
L 185.750222 174.102842 
L 184.978835 274.02668 
L 185.778792 201.894268 
L 186.560893 269.500541 
L 186.564464 182.483558 
L 186.778738 211.675856 
L 186.893018 257.638585 
L 187.571553 185.348351 
L 187.778684 220.68752 
L 188.250087 185.498034 
L 188.164378 271.193073 
L 188.771488 189.157809 
L 189.553588 261.490137 
L 189.603586 185.571739 
L 189.771434 206.660392 
L 189.832145 276.947008 
L 190.210696 186.054574 
L 190.77138 214.288507 
L 191.414202 258.868489 
L 191.474913 183.094394 
L 191.771326 216.69914 
L 192.407006 182.464249 
L 192.56414 266.266337 
L 192.7677 226.777488 
L 193.271245 257.219284 
L 193.353383 179.84362 
L 193.760504 223.95851 
L 193.978349 176.401512 
L 194.217622 258.314564 
L 194.76045 209.649016 
L 195.692543 265.388988 
L 195.199712 188.100209 
L 195.756825 225.830656 
L 196.563924 177.440922 
L 196.556782 252.122721 
L 196.756771 219.420047 
L 197.560299 275.332165 
L 197.446019 186.632163 
L 197.753146 213.720092 
L 198.117412 186.997072 
L 197.813857 282.680631 
L 198.753092 201.652578 
L 198.974508 266.818027 
L 199.081645 184.352599 
L 199.749466 222.60841 
L 200.295865 184.749813 
L 200.117304 259.561461 
L 200.749412 205.715502 
L 201.595795 277.446956 
L 201.374379 182.918593 
L 201.749358 209.599719 
L 202.485033 273.914268 
L 202.660023 183.153328 
L 202.745733 226.541153 
L 203.495693 186.741646 
L 203.274276 269.184095 
L 203.742108 223.053005 
L 204.670629 263.247854 
L 203.952811 183.612149 
L 204.738483 240.228657 
L 205.520583 185.215753 
L 205.567009 283.173582 
L 205.742 191.66359 
L 206.559813 269.760645 
L 206.141978 178.243116 
L 206.745517 215.243258 
L 206.84194 188.059965 
L 207.238348 261.024025 
L 207.745463 211.76359 
L 207.949023 259.180458 
L 208.1133 186.091874 
L 208.738267 202.800579 
L 209.03825 185.186052 
L 209.252525 262.484835 
L 209.73107 208.26065 
L 210.127477 267.456111 
L 210.102479 185.370279 
L 210.731016 238.453582 
L 211.680965 184.845879 
L 210.988145 265.631778 
L 211.730962 237.67778 
L 212.527348 182.99625 
L 212.605915 262.753642 
L 212.730908 223.561583 
L 212.830903 189.676913 
L 212.777334 259.54844 
L 213.723712 212.756391 
L 214.437959 270.849443 
L 214.305823 188.681838 
L 214.723658 269.079438 
L 215.030784 185.219331 
L 215.187918 275.10893 
L 215.723604 213.565418 
L 216.248575 261.499897 
L 216.159294 184.484823 
L 216.716407 192.204745 
L 217.327088 262.823517 
L 217.377086 184.558068 
L 217.734209 214.794484 
L 218.159186 177.123534 
L 218.052049 259.6611 
L 218.730584 195.224258 
L 219.709103 262.32986 
L 219.084136 187.612236 
L 219.734101 233.165761 
L 219.862666 174.80784 
L 220.044799 264.571505 
L 220.734047 205.671115 
L 221.644712 265.997686 
L 220.830471 178.068019 
L 221.733993 235.784281 
L 222.47681 183.383902 
L 222.558949 261.068453 
L 222.733939 204.047036 
L 223.491041 262.055741 
L 223.4589 180.346935 
L 223.733885 233.250213 
L 224.444561 179.684254 
L 224.330282 264.623065 
L 224.733831 202.290036 
L 225.648068 264.267986 
L 225.476648 184.524901 
L 225.737349 246.177291 
L 226.162326 176.316638 
L 226.230179 262.866434 
L 226.740866 179.389751 
L 227.208698 277.286015 
L 227.744383 237.482585 
L 228.583623 182.099636 
L 228.655048 264.06505 
L 228.744329 226.54177 
L 229.172877 184.574202 
L 229.430006 259.759968 
L 229.747846 215.705664 
L 230.151396 187.566242 
L 230.165681 260.24044 
L 230.74065 202.496391 
L 231.154913 267.563487 
L 231.57989 186.444773 
L 231.740596 209.810249 
L 232.044151 184.620711 
L 232.183429 263.837198 
L 232.736971 199.68515 
L 232.990528 260.782522 
L 233.172661 185.451856 
L 233.736917 211.283954 
L 234.572586 183.149621 
L 233.958333 265.876632 
L 234.722578 187.376506 
L 235.518963 274.368716 
L 235.722524 218.732357 
L 236.386773 263.2074 
L 235.861802 185.237691 
L 236.726041 234.162506 
L 236.86889 183.595121 
L 236.9546 258.423902 
L 237.725987 207.346265 
L 238.418807 260.884011 
L 238.243816 187.821302 
L 238.722362 218.344916 
L 239.540175 181.634304 
L 239.561602 258.318883 
L 239.718736 220.711345 
L 239.84373 257.929374 
L 240.065146 186.430045 
L 240.697255 212.99715 
L 241.025809 188.585417 
L 240.750824 267.438924 
L 241.69363 215.807357 
L 242.622151 263.155024 
L 242.450732 184.49848 
L 242.679291 206.943526 
L 243.54353 187.010588 
L 243.229261 254.619322 
L 243.661381 200.257207 
L 244.136355 261.495781 
L 244.125641 183.574226 
L 244.661327 203.263052 
L 245.272008 264.395712 
L 245.239867 185.402733 
L 245.661273 208.553008 
L 245.846977 174.711392 
L 246.571938 254.511871 
L 246.657647 224.263442 
L 246.814782 264.116372 
L 247.314755 181.75173 
L 247.639737 225.776895 
L 248.000432 177.063302 
L 247.875439 260.694975 
L 248.639683 218.451223 
L 249.446782 183.90245 
L 248.982522 265.837419 
L 249.639629 209.9961 
L 249.718196 257.731257 
L 249.953898 185.392443 
L 250.639575 221.383401 
L 250.671716 196.578777 
L 250.646718 239.667127 
L 250.678859 237.393124 
L 250.68243 187.748719 
L 250.857421 250.695052 
L 251.678805 231.131829 
L 251.796656 185.504644 
L 252.071641 269.42988 
L 252.682322 206.592741 
L 253.250149 184.68017 
L 252.814458 255.781109 
L 253.410854 219.896011 
L 253.725123 270.699047 
L 253.953682 187.08382 
L 254.403658 223.373192 
L 254.464369 180.507211 
L 254.632217 268.05691 
L 255.403604 212.48735 
L 256.157134 185.911113 
L 255.939289 260.99883 
L 256.396407 218.822953 
L 256.796386 272.31869 
L 256.653536 186.266488 
L 257.389211 230.365772 
L 258.242736 184.470385 
L 257.517775 270.829336 
L 258.389157 229.464041 
L 259.096261 185.456497 
L 258.696283 262.585815 
L 259.356962 201.419233 
L 259.360533 280.521259 
L 259.717656 173.617317 
L 260.356908 208.103498 
L 260.374764 256.212953 
L 260.428332 190.384586 
L 261.356854 214.413727 
L 262.117527 186.542026 
L 261.642552 262.972304 
L 262.306802 214.77413 
L 263.085332 257.939699 
L 262.853201 184.300321 
L 263.303177 244.208106 
L 264.081706 184.096516 
L 264.103134 270.986974 
L 264.303123 212.69814 
L 264.692388 267.034223 
L 264.445972 190.436739 
L 265.253072 205.152161 
L 265.745902 179.67249 
L 265.378065 269.32657 
L 266.228019 225.807169 
L 266.760133 261.930105 
L 266.478006 180.670921 
L 267.220823 192.573967 
L 267.224394 192.389123 
L 267.363672 260.791721 
L 267.388671 188.6827 
L 268.22434 235.280563 
L 269.052867 182.637286 
L 268.499325 264.359444 
L 269.224286 197.561663 
L 269.863537 258.507423 
L 269.492129 184.15831 
L 270.224232 204.783486 
L 271.038474 268.533274 
L 270.267087 193.51376 
L 271.227749 227.76539 
L 271.813432 185.515628 
L 271.299174 273.066434 
L 272.227695 220.854662 
L 272.484824 184.071292 
L 272.477682 276.45443 
L 273.216927 218.044512 
L 273.574051 282.613415 
L 273.895462 189.367164 
L 274.213302 226.583131 
L 274.46686 185.75307 
L 275.091826 270.21908 
L 275.213248 226.142916 
L 275.806073 268.782859 
L 275.634654 179.474939 
L 276.213194 231.422316 
L 276.527463 180.132372 
L 276.752451 258.037409 
L 277.21314 220.862942 
L 278.145233 259.432843 
L 277.234568 182.796154 
L 278.209515 223.183162 
L 278.652348 180.668446 
L 278.416647 269.382046 
L 279.213032 192.808328 
L 279.266601 268.009032 
L 279.67015 184.20151 
L 280.212978 216.724752 
L 281.073646 182.462757 
L 280.245119 265.737715 
L 281.205782 211.202085 
L 282.059307 258.30792 
L 282.00931 190.513181 
L 282.202156 213.613715 
L 282.420002 176.756928 
L 282.866406 272.65643 
L 283.187817 224.885339 
L 283.85921 271.503907 
L 283.809212 182.271854 
L 284.17705 204.590706 
L 285.084144 187.444815 
L 284.919867 272.106841 
L 285.173425 206.68582 
L 285.762678 267.843322 
L 285.426982 186.066086 
L 286.176942 234.6428 
L 287.034038 184.128686 
L 286.423357 250.524358 
L 287.180459 210.707226 
L 287.90542 275.782823 
L 287.344736 179.661084 
L 288.126836 228.995687 
L 288.844655 184.172053 
L 288.358967 266.59743 
L 289.126782 210.013752 
L 289.266061 269.272567 
L 289.14821 184.180896 
L 290.126728 220.07994 
L 290.590989 257.57598 
L 290.705269 182.456521 
L 291.126674 223.866735 
L 291.512368 185.461622 
L 291.383803 261.406099 
L 292.130192 208.892311 
L 292.651592 187.063798 
L 292.283755 256.769846 
L 293.083712 212.321478 
L 293.515831 265.266138 
L 293.283701 186.311173 
L 294.080086 210.616948 
L 294.719338 266.466914 
L 294.247934 184.668691 
L 294.940754 233.446065 
L 294.944325 183.705369 
L 295.68 280.225109 
L 295.937129 212.124645 
L 296.804939 261.911195 
L 296.769227 189.961075 
L 296.937075 233.892552 
L 297.433477 182.911556 
L 297.726318 263.213186 
L 297.940592 211.252453 
L 298.326286 266.369546 
L 298.640554 185.077078 
L 298.940538 246.37335 
L 299.772636 185.057344 
L 299.401228 264.154681 
L 299.944055 224.313945 
L 300.083334 263.502472 
L 300.59402 183.149716 
L 300.944001 231.640359 
L 301.311839 183.776682 
L 301.854667 254.144438 
L 301.95109 198.822185 
L 302.883182 278.676753 
L 302.668908 177.614304 
L 302.951036 246.591619 
L 303.083172 190.437147 
L 303.708138 263.863796 
L 303.950982 224.492036 
L 304.793794 180.685775 
L 304.229538 272.036889 
L 304.947357 234.675052 
L 305.036638 187.081297 
L 305.847308 264.143543 
L 305.954445 208.844939 
L 306.457989 270.464316 
L 306.122293 184.745364 
L 306.954391 241.096347 
L 307.579357 182.982957 
L 307.272231 260.772454 
L 307.957908 214.935354 
L 308.257892 260.482986 
L 308.39717 184.697762 
L 308.954283 203.783108 
L 309.211412 182.047728 
L 309.236411 274.346496 
L 309.936373 209.874425 
L 310.550626 267.8608 
L 310.614908 180.418084 
L 310.936319 215.259135 
L 311.882696 176.021461 
L 310.957746 265.540333 
L 311.925551 210.244588 
L 312.821931 267.184739 
L 312.50052 179.372497 
L 312.925497 220.8632 
L 312.936211 238.665786 
L 312.950496 203.049074 
L 312.957638 205.693474 
L 313.350474 263.155642 
L 313.289763 179.901826 
L 313.957584 235.388385 
L 314.614692 188.015643 
L 314.907533 273.719815 
L 314.953959 238.172685 
L 315.714632 289.516192 
L 315.489644 180.141816 
L 315.946763 223.599378 
L 315.99676 186.728826 
L 316.325314 256.261328 
L 316.943137 215.976363 
L 317.857374 261.170889 
L 317.157412 182.316827 
L 317.939512 233.416992 
L 318.118074 185.804045 
L 318.207355 271.215608 
L 318.943029 205.066837 
L 319.789412 267.082922 
L 319.007312 187.465841 
L 319.942975 215.293651 
L 320.057255 186.226469 
L 320.539372 277.840378 
L 320.925065 212.565334 
L 321.389326 295.488 
L 321.185765 186.014597 
L 321.92144 198.403968 
L 322.632116 267.318991 
L 322.907101 184.325584 
L 322.928528 220.226194 
L 323.457071 175.099667 
L 323.692773 254.900622 
L 323.921332 208.613582 
L 324.710575 267.389001 
L 324.314168 182.744201 
L 324.921278 215.344608 
L 325.567672 183.682054 
L 325.64981 265.680911 
L 325.899797 207.727753 
L 326.046217 253.314225 
L 326.617615 186.861617 
L 326.899743 207.696008 
L 326.928312 186.793649 
L 327.249724 258.179561 
L 327.888975 216.413011 
L 328.871065 262.050319 
L 328.063965 181.123131 
L 328.88535 234.381373 
L 328.963917 186.004543 
L 329.510316 260.496304 
L 329.885296 221.998607 
L 330.506691 268.118738 
L 330.081714 185.142765 
L 330.88167 200.570994 
L 331.681627 262.278861 
L 331.731625 184.778835 
L 331.888759 224.099093 
L 332.403017 173.231387 
L 332.474442 264.825689 
L 332.860135 249.07936 
L 332.863706 264.927317 
L 333.217259 180.490166 
L 333.852939 231.455341 
L 333.895793 182.468936 
L 334.395766 261.690322 
L 334.856456 203.864702 
L 335.413569 276.500148 
L 335.38857 178.229927 
L 335.856402 234.507632 
L 336.22781 186.023308 
L 335.906399 259.883651 
L 336.859919 197.435277 
L 337.474172 283.604867 
L 337.492028 179.390876 
L 337.859865 199.555071 
L 338.177705 258.43336 
L 338.352696 176.927195 
L 338.863382 229.682731 
L 338.870525 183.946003 
L 339.488348 256.129738 
L 339.863328 206.419995 
L 340.606145 272.356936 
L 340.748995 182.138755 
L 340.863274 219.183865 
L 340.934699 276.295012 
L 341.348962 185.944263 
L 341.595378 205.562669 
L 342.013212 184.658071 
L 341.888219 259.715478 
L 342.58461 226.299891 
L 342.616751 282.283413 
L 343.002444 183.048851 
L 343.573842 227.887698 
L 343.952393 183.232729 
L 343.966678 268.893992 
L 344.577359 205.144412 
L 344.845202 269.046802 
L 344.691639 182.816827 
L 345.580877 230.707488 
L 345.805864 186.172415 
L 346.387976 272.626809 
L 346.57368 220.987201 
L 347.305783 265.74092 
L 346.841523 182.873846 
L 347.573626 246.989752 
L 348.270017 189.851132 
L 347.841469 269.89218 
L 348.577143 198.751743 
L 348.591428 272.097249 
L 349.019977 184.796687 
L 349.577089 218.976217 
L 350.109203 189.186597 
L 349.612802 260.892534 
L 350.559179 221.391873 
L 350.784167 273.691097 
L 351.234143 180.991161 
L 351.551983 214.855185 
L 351.97696 167.95867 
L 352.105524 265.080189 
L 352.551929 206.888601 
L 353.376884 260.686168 
L 352.962621 188.189113 
L 353.562588 227.384999 
L 353.680439 176.197408 
L 354.37683 252.840483 
L 354.562534 222.270356 
L 354.75181 266.960404 
L 355.35892 184.771128 
L 355.558909 211.028079 
L 356.373151 181.058837 
L 355.698187 281.746025 
L 356.555284 209.784811 
L 356.858839 254.800736 
L 356.63028 189.278243 
L 357.55523 230.565106 
L 357.665938 264.38834 
L 357.705222 190.459566 
L 358.462324 203.466347 
L 359.412273 186.139458 
L 358.608744 264.815394 
L 359.419415 202.216136 
L 360.30151 259.310504 
L 359.458699 187.810125 
L 360.419361 214.001333 
L 361.233603 265.755312 
L 360.805054 182.005765 
L 361.415736 213.821682 
L 361.455019 183.398513 
L 361.583584 267.593259 
L 362.408539 223.096076 
L 362.604957 263.693481 
L 363.201354 175.32664 
L 363.3942 238.984891 
L 363.454911 178.007564 
L 364.262011 281.115454 
L 364.394146 216.375191 
L 364.561994 276.773256 
L 364.522711 179.735451 
L 365.394092 231.560093 
L 365.99406 181.176347 
L 365.694076 266.481108 
L 366.390467 221.460361 
L 366.733306 279.081595 
L 367.29399 177.660856 
L 367.390413 230.991 
L 368.001094 184.768698 
L 367.95824 273.851443 
L 368.39393 186.988436 
L 368.765339 261.223357 
L 368.6832 183.916647 
L 369.379591 215.746399 
L 369.383163 179.992673 
L 369.790284 253.142352 
L 370.375966 219.913679 
L 371.293774 274.827493 
L 371.22592 177.833768 
L 371.36877 230.412779 
L 371.518762 187.246451 
L 372.225866 276.494878 
L 372.368716 207.602057 
L 373.236526 268.28459 
L 372.568705 181.286652 
L 373.368662 213.688393 
L 373.454371 187.091448 
L 373.754355 256.907327 
L 374.350752 203.178912 
L 374.972147 283.802076 
L 374.782871 182.070351 
L 375.350698 211.917756 
L 376.22565 256.976997 
L 376.118513 179.685081 
L 376.350644 223.308568 
L 376.675626 182.10221 
L 377.093461 259.401722 
L 377.332733 205.508739 
L 377.543436 282.761219 
L 378.279111 185.46381 
L 378.332679 210.904114 
L 378.786226 185.654907 
L 378.686232 253.547654 
L 379.314769 221.049494 
L 379.675464 268.371326 
L 379.686178 173.891845 
L 380.314715 223.428886 
L 381.289662 183.923176 
L 380.639698 283.992883 
L 381.314661 196.472946 
L 381.57179 259.169389 
L 381.914629 192.953618 
L 382.314607 209.039414 
L 382.589592 269.513896 
L 382.718157 187.201645 
L 383.289554 214.936767 
L 383.743101 188.259058 
L 384.239503 272.728629 
L 384.285929 212.688076 
L 384.475205 264.941543 
L 384.468062 192.580405 
L 385.275162 212.349731 
L 385.303731 181.775753 
L 385.889414 270.433982 
L 386.275108 204.519924 
L 387.185773 258.131189 
L 386.771509 183.005393 
L 387.275054 232.261538 
L 387.903591 183.429506 
L 388.014299 271.687813 
L 388.282142 200.878703 
L 388.953534 264.504166 
L 389.010674 183.431331 
L 389.278517 219.698854 
L 389.682066 183.555591 
L 389.571358 265.606906 
L 390.278463 213.130747 
L 391.189128 256.849239 
L 390.860574 180.278774 
L 391.274838 223.976388 
L 391.949801 187.93956 
L 392.228357 273.85458 
L 392.278355 207.020376 
L 392.981888 176.90268 
L 392.567625 269.090225 
L 393.267587 207.638968 
L 393.39258 257.995041 
L 393.464005 188.693348 
L 394.263962 203.879174 
L 394.43181 253.867373 
L 395.138915 181.575086 
L 395.267479 251.900536 
L 395.874589 180.469273 
L 396.156717 263.152585 
L 396.267425 212.22969 
L 396.638834 175.689504 
L 396.942389 267.772916 
L 397.2638 182.955044 
L 397.995903 262.418324 
L 397.442362 180.061169 
L 398.263746 212.012575 
L 399.052989 256.972402 
L 398.885141 189.173806 
L 399.267263 235.328678 
L 399.335117 186.883656 
L 399.510107 277.635192 
L 400.27078 204.178053 
L 400.517196 185.285421 
L 401.274298 265.953997 
L 401.520713 186.269394 
L 402.274244 220.690492 
L 402.981348 183.925115 
L 402.674222 272.420209 
L 403.263476 222.07693 
L 403.474179 265.999615 
L 403.713452 184.658183 
L 404.256279 255.358098 
L 404.299134 179.248542 
L 405.09552 260.262032 
L 405.256225 192.725436 
L 406.099037 265.477675 
L 405.70263 178.620277 
L 406.259743 225.034706 
L 406.881138 186.934858 
L 406.270456 262.346991 
L 407.270402 205.787002 
L 407.381111 262.590408 
L 407.538245 187.609588 
L 408.270348 256.288498 
L 409.188156 181.937423 
L 409.256009 269.527447 
L 409.270294 206.859254 
L 410.238099 265.608044 
L 410.080965 190.527436 
L 410.27024 206.546734 
L 410.734501 266.888948 
L 410.659505 184.986026 
L 411.266615 203.088487 
L 411.97372 272.762628 
L 411.538029 189.749807 
L 412.248705 233.263755 
L 412.802246 179.198075 
L 412.487978 282.366695 
L 413.248651 215.469749 
L 414.08432 182.470735 
L 413.730768 260.001468 
L 414.245026 188.210302 
L 414.420016 250.898304 
L 414.348591 86.373179 
L 413.241508 128.331483 
L 412.548689 183.351851 
L 412.980808 85.419979 
L 412.220135 155.326931 
L 411.691592 98.85992 
L 412.03086 178.85731 
L 411.216618 118.814377 
L 410.334523 177.629821 
L 410.570224 77.520226 
L 410.216672 164.387073 
L 409.873833 97.306147 
L 409.863119 182.290409 
L 409.216726 163.332876 
L 408.581046 98.549617 
L 409.038164 172.836182 
L 408.213209 120.389333 
L 408.066788 174.335034 
L 408.116785 95.701784 
L 407.213263 160.613123 
L 406.991846 102.652285 
L 406.36688 180.890374 
L 406.213317 128.266239 
L 406.141892 178.702017 
L 405.677631 92.702225 
L 405.213371 143.803885 
L 404.399129 108.881492 
L 405.156231 182.907049 
L 404.216996 132.42341 
L 403.59203 173.213515 
L 403.470608 89.667698 
L 403.220621 136.880658 
L 402.513516 85.108748 
L 402.999204 177.268399 
L 402.224246 155.707044 
L 401.274298 174.588385 
L 402.109967 110.667281 
L 401.231443 150.776055 
L 400.552908 92.753815 
L 400.585049 174.251005 
L 400.235068 157.364637 
L 399.849374 75.23014 
L 399.931513 175.729067 
L 399.238693 147.54992 
L 398.670867 172.025061 
L 398.970851 105.243581 
L 398.242318 146.797349 
L 398.10304 98.08026 
L 397.599496 184.18664 
L 397.278085 157.212025 
L 396.460272 92.290383 
L 396.28171 177.664192 
L 396.024581 100.10349 
L 395.278193 115.695985 
L 395.135343 175.797483 
L 395.063919 96.640773 
L 394.274676 132.156439 
L 393.813986 88.611212 
L 393.746133 173.551008 
L 393.281872 145.555923 
L 393.067598 92.06033 
L 393.13188 171.997117 
L 392.410491 126.336799 
L 391.939087 182.304715 
L 391.492683 103.066889 
L 391.410545 133.552657 
L 390.553448 186.713391 
L 391.139131 101.625585 
L 390.410599 172.31775 
L 389.964194 87.328301 
L 389.871342 177.690124 
L 389.410653 127.519796 
L 388.517844 171.931704 
L 388.924964 93.028295 
L 388.410707 144.457146 
L 388.028584 180.943832 
L 387.778598 103.651018 
L 387.410761 150.367659 
L 386.717941 104.561887 
L 387.360763 181.51166 
L 386.410815 133.491254 
L 385.957268 89.34153 
L 386.303677 177.060512 
L 385.41444 134.175977 
L 384.507346 178.580591 
L 384.468062 94.654839 
L 384.414494 134.757741 
L 383.732388 176.727331 
L 384.060941 100.677859 
L 383.432404 133.579285 
L 382.81458 110.063113 
L 383.389549 176.192998 
L 382.4396 136.444496 
L 382.411031 174.190958 
L 382.243182 99.174082 
L 381.439654 148.148975 
L 381.436083 148.114628 
L 380.975394 106.061561 
L 380.989679 172.901506 
L 380.436137 143.536895 
L 379.446905 100.049077 
L 379.596897 185.918238 
L 379.443334 137.182421 
L 378.679089 175.101076 
L 378.764799 105.336358 
L 378.446959 170.390582 
L 377.547007 103.720819 
L 378.036267 173.397459 
L 377.447013 128.654907 
L 377.039892 178.415239 
L 376.732766 100.848669 
L 376.450638 124.894516 
L 375.986377 174.335467 
L 375.918524 101.829147 
L 375.511403 142.076207 
L 375.24356 99.309356 
L 375.432836 176.627719 
L 374.511457 130.30604 
L 374.300754 180.695333 
L 373.836494 95.289742 
L 373.515082 148.444981 
L 373.107961 96.643994 
L 372.982968 179.859781 
L 372.515136 120.176107 
L 371.943739 173.010981 
L 371.940167 88.042323 
L 371.511619 147.161863 
L 370.90808 96.020115 
L 370.600954 172.236209 
L 370.511673 146.911004 
L 370.393822 103.066724 
L 369.572438 188.71498 
L 369.511727 139.506245 
L 369.290311 180.622654 
L 369.133176 99.706674 
L 368.511781 174.556894 
L 368.079662 108.158026 
L 367.829675 177.907428 
L 367.511835 150.145043 
L 366.922581 101.49292 
L 367.279705 180.559807 
L 366.508318 124.283273 
L 366.479748 178.918517 
L 365.958348 97.295921 
L 365.511943 167.624112 
L 364.851265 98.212239 
L 364.95483 186.779665 
L 364.508426 114.164866 
L 363.56562 174.838303 
L 364.2013 108.811315 
L 363.50848 143.996177 
L 363.037077 96.852205 
L 363.172784 180.533101 
L 362.519248 160.640879 
L 362.426395 80.105882 
L 361.894281 177.838335 
L 361.519302 142.657009 
L 360.983616 177.068255 
L 361.005044 93.79384 
L 360.519356 151.110696 
L 359.705114 106.20709 
L 360.108663 186.448195 
L 359.51941 114.341277 
L 359.055149 172.686145 
L 359.215855 93.31793 
L 358.519464 122.235391 
L 358.137341 102.958389 
L 357.908782 181.044658 
L 357.537374 136.679362 
L 357.173108 174.507547 
L 356.965976 99.735074 
L 356.533857 159.885671 
L 356.098166 96.843583 
L 355.848179 173.99752 
L 355.533911 139.05333 
L 355.423202 179.228982 
L 354.991083 98.920669 
L 354.530393 158.169508 
L 354.133986 59.51696 
L 354.480396 182.430148 
L 353.530447 142.94306 
L 352.5555 179.33651 
L 352.784059 99.179236 
L 352.534073 134.069526 
L 351.680547 179.53303 
L 352.187663 101.939547 
L 351.534127 136.712775 
L 350.769882 100.874248 
L 350.662745 179.672217 
L 350.544894 147.715172 
L 350.194913 170.624088 
L 350.191342 108.046806 
L 349.602088 146.978553 
L 349.098544 108.486826 
L 349.134256 177.860014 
L 348.602142 142.464596 
L 348.19145 87.336467 
L 348.184307 175.039828 
L 347.61291 141.627292 
L 347.395064 181.477972 
L 347.287927 94.108411 
L 346.616535 154.645161 
L 346.605821 103.051699 
L 345.723726 176.924591 
L 345.616589 154.138615 
L 345.227324 177.460693 
L 345.609446 102.212927 
L 344.66664 124.410765 
L 344.43451 101.425569 
L 344.11667 179.017681 
L 343.670266 137.334687 
L 343.477419 172.257101 
L 343.284572 86.782898 
L 342.720317 129.139946 
L 341.798938 101.663338 
L 342.577467 178.593697 
L 341.723942 116.719017 
L 341.013266 178.335456 
L 340.952555 107.19745 
L 340.727567 144.833576 
L 340.016891 88.524114 
L 340.384729 181.209373 
L 339.731193 110.319838 
L 338.934807 185.544727 
L 339.249076 102.50892 
L 338.731247 139.49021 
L 338.045569 88.340884 
L 338.009857 175.50947 
L 337.734872 130.726411 
L 337.184901 173.952948 
L 336.813493 96.641782 
L 336.734926 162.430499 
L 336.524223 108.722552 
L 336.509938 174.316212 
L 335.73498 137.756888 
L 334.913596 177.695242 
L 334.967164 96.001366 
L 334.735034 143.71802 
L 333.938648 87.068542 
L 334.37791 174.996814 
L 333.735088 142.336943 
L 333.485101 175.956005 
L 333.677948 108.067886 
L 332.810138 164.721574 
L 332.770854 89.335888 
L 332.545866 178.815111 
L 331.810192 152.027652 
L 331.360216 172.59047 
L 331.424498 86.751222 
L 330.831673 140.219017 
L 329.863868 83.036644 
L 330.685252 176.968816 
L 329.83887 154.051911 
L 329.224617 176.779469 
L 329.8103 93.935982 
L 328.846066 147.246287 
L 328.624649 92.056223 
L 327.978256 179.089719 
L 327.842549 130.724963 
L 327.506853 177.842189 
L 327.264009 98.314959 
L 326.846174 149.488282 
L 326.6319 98.106406 
L 326.006934 173.507749 
L 325.849799 120.929189 
L 324.949848 179.683518 
L 325.017701 84.136224 
L 324.849853 147.642287 
L 323.921332 180.71655 
L 324.042754 101.561017 
L 323.85705 150.167895 
L 322.949956 66.402642 
L 323.582065 183.5232 
L 322.849961 122.371132 
L 322.746395 175.113818 
L 322.724968 95.567236 
L 321.850015 154.349953 
L 321.803589 101.327401 
L 321.275046 180.179759 
L 320.850069 152.433498 
L 320.114395 181.024363 
L 320.357239 74.430302 
L 319.867979 153.33895 
L 318.88589 97.528467 
L 319.221586 177.166326 
L 318.868033 136.04296 
L 318.064505 178.265677 
L 318.350204 95.235981 
L 317.868087 144.584878 
L 317.357401 104.574863 
L 317.510964 176.132948 
L 316.871713 148.570959 
L 316.261031 187.218775 
L 316.11104 99.887091 
L 315.875338 144.102467 
L 315.725346 91.785592 
L 315.853911 175.850933 
L 314.882534 144.86728 
L 314.7254 169.854479 
L 313.996868 87.88073 
L 313.879017 153.378814 
L 313.429041 53.568 
L 312.939782 178.580229 
L 312.879071 149.68593 
L 312.493378 99.735424 
L 312.475522 184.104691 
L 311.907695 125.952283 
L 311.825557 184.604922 
L 311.186305 100.239649 
L 310.904178 170.337832 
L 310.800612 92.758366 
L 310.036368 180.994828 
L 309.904232 158.543103 
L 309.114989 107.972925 
L 309.679244 177.828905 
L 308.907857 132.412398 
L 308.554305 176.160344 
L 308.515021 103.801202 
L 307.907911 161.998019 
L 306.997246 93.146818 
L 307.225805 175.837645 
L 306.907965 105.903499 
L 306.668692 180.263629 
L 306.779401 98.846844 
L 305.908019 157.217252 
L 305.900877 97.046088 
L 305.325908 180.617994 
L 304.908073 104.453703 
L 303.954553 172.147679 
L 304.100974 99.800804 
L 303.908127 133.019585 
L 303.158168 89.184452 
L 303.625999 171.577092 
L 302.96175 133.370962 
L 302.58677 179.742795 
L 302.822471 95.12796 
L 301.961804 149.324859 
L 301.754672 179.785638 
L 301.693961 100.078505 
L 301.036854 154.462141 
L 300.369032 92.634069 
L 300.133331 174.640345 
L 300.036908 135.035346 
L 299.797635 175.221455 
L 299.058389 94.817738 
L 299.040533 154.355957 
L 298.922682 93.016381 
L 298.301287 173.619178 
L 298.040587 147.227769 
L 297.969162 104.055077 
L 297.490617 183.769919 
L 297.054926 143.041735 
L 296.154974 186.167393 
L 296.429959 107.759289 
L 296.058551 135.552051 
L 295.719284 179.395613 
L 295.562149 91.328952 
L 295.112174 161.279734 
L 295.108602 82.64963 
L 294.172939 176.800876 
L 294.112228 144.078808 
L 293.637253 182.384132 
L 293.469405 93.413559 
L 293.115853 145.380816 
L 292.123049 88.385584 
L 292.723017 181.355367 
L 292.119478 123.427466 
L 291.123103 174.723846 
L 291.512368 94.265031 
L 291.119532 148.490874 
L 290.783836 111.489142 
L 290.280292 182.976662 
L 290.119586 144.619979 
L 289.258918 171.887342 
L 289.483906 100.130639 
L 289.223206 147.353544 
L 288.480389 100.745291 
L 289.151781 177.487692 
L 288.226831 139.704462 
L 287.930419 175.689661 
L 287.908991 86.620941 
L 287.230456 139.934131 
L 286.966185 91.969524 
L 287.198315 190.057684 
L 286.234082 143.566933 
L 286.20194 174.516823 
L 285.930527 99.772436 
L 285.226993 172.394068 
L 284.666309 98.018707 
L 285.080572 175.861806 
L 284.227047 154.40284 
L 283.723503 182.407566 
L 283.56994 104.013112 
L 283.234244 160.223802 
L 283.009256 97.965125 
L 282.898547 176.459804 
L 282.234298 142.156163 
L 281.820034 177.320906 
L 281.959312 90.575745 
L 281.234352 162.405081 
L 280.870086 104.052887 
L 281.080788 175.479318 
L 280.234406 160.117623 
L 279.920137 76.557236 
L 279.252316 180.756555 
L 279.238031 140.273165 
L 279.195176 172.25298 
L 279.009472 97.942365 
L 278.238085 141.916775 
L 277.452413 174.963542 
L 278.052381 93.686397 
L 277.370275 146.396927 
L 277.366703 94.287927 
L 277.32742 181.096804 
L 276.370329 132.566204 
L 275.62394 185.818509 
L 275.973921 92.631796 
L 275.370383 133.368007 
L 274.748987 86.482999 
L 274.84184 173.552302 
L 274.374008 127.669795 
L 274.163305 184.651872 
L 273.588336 95.76186 
L 273.366919 179.285893 
L 273.324064 87.857319 
L 272.366973 139.276324 
L 272.181269 172.487442 
L 271.784862 83.400664 
L 271.370599 156.15612 
L 271.042045 92.605941 
L 271.242034 174.220099 
L 270.370653 129.978858 
L 270.302799 176.30623 
L 269.488557 83.790778 
L 269.367135 151.392417 
L 268.577892 93.549176 
L 268.560036 181.108301 
L 268.370761 132.519895 
L 267.399384 188.136588 
L 268.152915 95.934168 
L 267.370815 144.21793 
L 267.335102 102.677707 
L 267.177968 191.336602 
L 266.37444 149.242423 
L 265.560198 181.315156 
L 266.210163 89.535294 
L 265.385207 145.917277 
L 264.963802 84.265273 
L 264.903091 182.265959 
L 264.385261 125.417912 
L 264.067421 177.346562 
L 263.528165 106.086068 
L 263.388887 142.830023 
L 262.453223 97.223509 
L 262.921055 187.678522 
L 262.392512 119.344108 
L 261.517559 179.789303 
L 261.560414 107.260305 
L 261.392566 149.709574 
L 261.160436 105.508935 
L 261.313999 179.941023 
L 260.399762 136.778267 
L 260.099779 182.327528 
L 260.114064 98.658706 
L 259.403388 149.496055 
L 258.964126 87.775711 
L 259.364104 176.030013 
L 258.407013 141.76172 
L 258.292733 176.091968 
L 258.1106 104.494245 
L 257.407067 144.747556 
L 257.228505 179.730142 
L 256.799957 94.882393 
L 256.407121 156.419937 
L 256.332125 181.874545 
L 256.360695 97.837276 
L 255.678589 132.550833 
L 255.607164 96.179591 
L 254.835777 176.310611 
L 254.682214 152.479104 
L 254.514366 107.407995 
L 254.614361 185.128235 
L 253.682268 149.932184 
L 253.232292 85.645667 
L 252.928737 183.844418 
L 252.700178 140.259181 
L 251.768086 179.860575 
L 252.582327 105.02263 
L 251.703803 149.785165 
L 251.364536 95.26037 
L 250.753855 172.97872 
L 250.711 127.468716 
L 249.796764 184.380426 
L 250.143173 89.661424 
L 249.711054 155.843111 
L 249.082516 92.928837 
L 249.546777 173.616477 
L 248.711108 145.323781 
L 248.153995 178.061408 
L 248.682538 83.838971 
L 247.711162 148.572174 
L 247.621881 175.27197 
L 247.268329 97.621117 
L 246.718358 149.612121 
L 246.139818 104.568858 
L 246.111248 179.962086 
L 245.721984 152.286342 
L 245.064876 177.919038 
L 245.521994 95.984246 
L 244.736323 142.607722 
L 244.536333 100.039509 
L 244.343487 173.610688 
L 243.736377 121.668787 
L 243.086412 175.218469 
L 243.025701 81.639618 
L 242.736431 159.468103 
L 242.343595 102.336972 
L 242.057896 176.801817 
L 241.736485 145.354415 
L 241.325792 175.310388 
L 241.504354 80.741005 
L 240.74011 135.716959 
L 240.322275 92.490679 
L 240.465125 173.492406 
L 239.750878 143.755575 
L 239.493749 176.047428 
L 239.0652 108.592394 
L 238.750932 163.970936 
L 238.08311 95.53944 
L 237.890264 179.775661 
L 237.743843 149.819048 
L 237.525998 110.014407 
L 237.293867 174.633772 
L 237.065308 139.762717 
L 236.176071 192.58192 
L 236.911745 103.085705 
L 236.068933 142.873514 
L 235.790377 104.733815 
L 235.286833 175.796556 
L 235.068987 127.7921 
L 234.329742 180.173256 
L 235.01899 105.455388 
L 234.069041 135.714598 
L 233.190518 99.141488 
L 233.315511 176.024251 
L 233.076238 128.417952 
L 232.183429 178.069621 
L 232.790539 82.145443 
L 232.076292 144.928474 
L 231.326332 97.337092 
L 231.194197 181.410777 
L 231.094202 126.1671 
L 230.519233 177.05383 
L 230.962066 99.200646 
L 230.094256 138.616629 
L 229.772845 175.768675 
L 229.812129 98.289175 
L 229.090739 145.645228 
L 228.722902 189.043394 
L 228.247927 90.929924 
L 228.130077 136.392228 
L 227.465827 96.147909 
L 227.212269 187.600905 
L 227.133702 158.102683 
L 227.072991 100.733406 
L 226.790863 173.281996 
L 226.130185 140.429324 
L 225.601642 173.662 
L 225.698065 97.14233 
L 225.140952 156.448374 
L 224.415991 98.514196 
L 224.569554 177.919525 
L 224.141006 137.873251 
L 223.901733 106.343402 
L 223.22677 189.445627 
L 223.148203 147.165398 
L 222.833934 176.313349 
L 222.933929 99.606423 
L 222.151828 139.006777 
L 221.951839 177.100286 
L 221.8697 94.499944 
L 221.201879 153.664839 
L 220.901895 73.590557 
L 220.784045 187.029138 
L 220.201933 144.923822 
L 219.901949 184.968586 
L 220.087654 96.423836 
L 219.216272 131.334841 
L 219.212701 105.212854 
L 218.512739 179.351583 
L 218.223469 159.750968 
L 217.605645 175.857227 
L 217.323517 102.224231 
L 217.24495 154.466581 
L 216.66641 94.66095 
L 216.555702 177.010298 
L 216.245004 124.146206 
L 216.012874 177.025701 
L 215.537899 84.779538 
L 215.241487 161.277356 
L 214.934361 98.061407 
L 214.952217 181.634691 
L 214.23797 131.372024 
L 213.970127 173.213222 
L 214.166545 80.219682 
L 213.234452 156.250268 
L 212.82376 106.432751 
L 212.788048 175.50877 
L 212.234506 149.904376 
L 211.495261 177.379051 
L 211.520259 97.583362 
L 211.238132 153.542527 
L 210.820297 82.839488 
L 210.606023 180.40698 
L 210.238186 140.710211 
L 209.438229 182.270156 
L 210.006055 83.049437 
L 209.245382 148.052242 
L 208.441854 92.695279 
L 209.206098 177.867955 
L 208.249007 152.485563 
L 207.731178 176.558904 
L 207.420481 104.721637 
L 207.256204 155.075762 
L 206.302684 98.255017 
L 206.874082 176.702743 
L 206.256258 131.817625 
L 205.484871 191.338056 
L 206.127693 93.338855 
L 205.263454 137.656668 
L 205.07775 98.32073 
L 204.574206 173.263857 
L 204.267079 145.268852 
L 203.795676 178.179241 
L 203.74925 88.874994 
L 203.270705 149.375189 
L 202.388609 83.98343 
L 202.410037 180.686576 
L 202.267187 131.455375 
L 201.977917 191.943952 
L 201.952919 84.07532 
L 201.26367 160.560826 
L 200.642275 96.719766 
L 200.474427 180.562975 
L 200.267295 125.006138 
L 200.128017 173.994421 
L 199.335203 100.339389 
L 199.267349 142.934102 
L 199.088788 89.048625 
L 198.928082 176.799158 
L 198.274546 140.721662 
L 198.106698 176.147199 
L 198.017417 92.136523 
L 197.281742 149.179937 
L 197.278171 96.591598 
L 197.131751 180.07894 
L 196.281796 147.474943 
L 195.417557 100.276498 
L 196.163946 185.746862 
L 195.285422 148.856782 
L 194.721166 92.201057 
L 195.096146 181.948009 
L 194.314046 147.836247 
L 193.724792 178.814664 
L 194.121199 102.528296 
L 193.317671 142.000546 
L 192.574854 108.573712 
L 192.64985 178.699274 
L 192.321296 159.583243 
L 191.974886 99.220313 
L 191.857035 175.00519 
L 191.32135 114.85621 
L 191.171358 181.495676 
L 191.167787 84.835357 
L 190.317833 163.604812 
L 189.517876 94.668017 
L 189.378598 180.418875 
L 189.317887 131.402768 
L 189.15361 177.939576 
L 189.107184 103.372575 
L 188.325083 149.385382 
L 187.421561 96.634421 
L 187.96796 174.010317 
L 187.328708 160.681237 
L 187.300139 90.279778 
L 186.475183 186.094663 
L 186.310906 130.47751 
L 185.643085 179.993992 
L 186.064491 105.973503 
L 185.31096 150.947966 
L 185.28239 91.554984 
L 185.1074 176.651298 
L 184.311014 144.327703 
L 183.746759 177.405915 
L 184.014602 105.741977 
L 183.311068 154.888276 
L 182.836094 100.344308 
L 182.425402 179.840914 
L 182.311122 139.8989 
L 182.064707 175.824587 
L 181.943285 99.967752 
L 181.32189 133.149187 
L 180.357656 93.309178 
L 180.51122 180.710001 
L 180.329086 98.94566 
L 179.596983 177.582041 
L 179.868397 91.003281 
L 179.32914 158.192062 
L 179.079154 100.22401 
L 178.336337 176.205658 
L 178.329194 152.431221 
L 178.014926 174.090169 
L 177.579235 99.935589 
L 177.343533 164.937008 
L 177.050692 87.859352 
L 176.536434 198.896089 
L 176.343587 146.370458 
L 175.672195 87.475269 
L 175.811473 171.490025 
L 175.347213 130.271317 
L 174.940092 180.724316 
L 174.622252 95.166482 
L 174.350838 131.77119 
L 173.833009 97.769014 
L 174.004428 181.26933 
L 173.361606 122.53729 
L 172.786637 179.399719 
L 173.047337 92.204929 
L 172.36166 128.549176 
L 171.590273 174.796736 
L 171.43671 82.916275 
L 171.361714 133.013575 
L 170.740319 94.432464 
L 170.543901 175.83764 
L 170.418907 147.207656 
L 169.590381 178.705544 
L 169.572525 92.822745 
L 169.418961 165.579967 
L 168.440443 95.666197 
L 168.608291 184.181297 
L 168.419015 157.932196 
L 168.408302 88.033883 
L 167.776193 179.656342 
L 167.415498 143.877574 
L 166.5834 177.970317 
L 167.365501 98.079585 
L 166.426266 136.015355 
L 166.001289 93.628798 
L 166.286988 178.506527 
L 165.437034 157.409059 
L 165.104909 176.727737 
L 164.544225 101.405917 
L 164.447801 145.366824 
L 163.819264 92.411568 
L 163.744268 175.885367 
L 163.447855 136.810441 
L 163.437142 164.651282 
L 163.401429 120.190553 
L 163.397858 158.087436 
L 163.08716 177.945234 
L 162.730037 83.520049 
L 162.405054 144.084735 
L 161.719377 95.192053 
L 161.797944 174.90323 
L 161.40868 158.041445 
L 160.765857 98.87027 
L 160.726574 179.520481 
L 160.405162 139.914285 
L 160.348023 179.957307 
L 159.980185 105.763418 
L 159.408788 149.785418 
L 158.965954 84.383908 
L 159.055235 182.178683 
L 158.408842 136.584604 
L 157.591029 176.64241 
L 158.14457 88.788545 
L 157.412467 149.018317 
L 156.498231 101.515711 
L 157.226763 184.233659 
L 156.412521 117.792653 
L 156.076825 182.813122 
L 156.291099 97.713483 
L 155.409004 141.960002 
L 155.066165 179.413931 
L 155.098306 93.707898 
L 154.412629 147.300452 
L 153.862659 101.108634 
L 153.773378 173.226 
L 153.416254 151.651334 
L 152.944851 183.416088 
L 153.391256 100.954771 
L 152.434164 119.63166 
L 151.659206 92.922816 
L 152.055613 178.008162 
L 151.441361 142.113094 
L 150.816395 177.188635 
L 150.752112 103.596986 
L 150.441415 147.939369 
L 149.527178 94.833569 
L 149.577176 177.68162 
L 149.437898 124.619693 
L 149.148627 175.474071 
L 148.816503 94.945516 
L 148.43438 165.26448 
L 147.85584 102.944983 
L 147.980833 176.756374 
L 147.430863 127.720051 
L 147.22016 181.513948 
L 147.013029 96.875298 
L 146.430917 142.176521 
L 145.45597 95.541656 
L 146.148789 173.352697 
L 145.430971 140.895634 
L 144.627443 184.90951 
L 144.548876 101.202095 
L 144.420311 159.557157 
L 143.888197 93.499216 
L 144.056045 175.800579 
L 143.416794 124.379281 
L 143.188235 182.411061 
L 143.120382 102.504995 
L 142.416848 145.487551 
L 141.7276 176.834576 
L 142.038297 97.163154 
L 141.427616 147.935882 
L 140.877646 82.546508 
L 140.863361 175.175474 
L 140.42767 139.01634 
L 140.349103 177.110719 
L 140.37053 88.329312 
L 139.431295 144.711467 
L 139.199165 98.246728 
L 138.927751 176.300388 
L 138.43492 121.083637 
L 138.256359 178.673737 
L 138.188505 89.483553 
L 137.434974 141.633788 
L 137.04571 176.721381 
L 136.974285 96.47238 
L 136.4386 155.240047 
L 136.102903 95.58051 
L 135.852917 180.177795 
L 135.438654 154.792898 
L 134.913682 178.128674 
L 134.50299 85.179782 
L 134.442279 143.839023 
L 134.038729 97.401111 
L 133.688748 180.389948 
L 133.449475 155.349873 
L 132.85665 175.297871 
L 133.010213 87.807516 
L 132.460243 132.078368 
L 131.64243 87.953466 
L 132.360248 184.733207 
L 131.467439 147.61378 
L 130.496063 176.904465 
L 130.778191 102.503926 
L 130.471065 170.786825 
L 130.331787 89.967919 
L 129.517545 179.356068 
L 129.471119 139.89229 
L 128.749729 181.682079 
L 128.760443 98.839173 
L 128.471173 151.951796 
L 127.881919 174.328151 
L 127.906917 95.031503 
L 127.474798 156.42389 
L 127.1641 98.154572 
L 127.196242 177.93314 
L 126.478423 158.27246 
L 125.910597 180.568136 
L 125.92131 97.259271 
L 125.539188 135.376919 
L 124.960648 105.381551 
L 125.103497 177.966208 
L 124.546385 146.682184 
L 123.632148 177.279328 
L 123.914276 98.415558 
L 123.55001 129.065979 
L 123.303595 180.445616 
L 123.507155 102.263688 
L 122.557206 135.895934 
L 122.203654 93.525559 
L 122.089374 184.55712 
L 121.560832 115.247532 
L 120.839442 174.122151 
L 121.06443 88.908947 
L 120.560886 168.006164 
L 120.035914 99.595261 
L 120.289472 184.41907 
L 119.557368 118.204599 
L 118.885976 174.909404 
L 119.432375 94.307434 
L 118.557422 143.627817 
L 117.85746 104.298909 
L 118.139588 177.33619 
L 117.557476 139.325068 
L 116.950366 94.765095 
L 116.90394 174.952515 
L 116.55753 135.877586 
L 115.779001 178.789095 
L 116.289688 79.514283 
L 115.557584 157.438046 
L 115.129036 100.473571 
L 114.714773 189.294519 
L 114.554067 120.197667 
L 113.92553 176.093296 
L 114.161231 107.804248 
L 113.55055 160.146791 
L 112.939869 96.8721 
L 113.46484 174.113823 
L 112.547033 133.258074 
L 111.650653 183.434963 
L 111.589941 87.527731 
L 111.539944 158.245587 
L 110.897122 95.981255 
L 110.750701 181.243391 
L 110.532856 130.774717 
L 109.936459 180.707183 
L 109.607906 86.476351 
L 109.529338 161.449708 
L 108.772237 104.876569 
L 109.222212 181.153166 
L 108.532964 148.61085 
L 108.23298 181.206078 
L 107.875856 89.134946 
L 107.536589 164.283079 
L 106.886624 108.711409 
L 106.568784 175.032993 
L 106.536643 128.611644 
L 105.543839 175.657509 
L 106.097381 86.938484 
L 105.533126 161.290661 
L 105.433131 96.907519 
L 105.247427 177.826007 
L 104.53318 149.123333 
L 104.311763 95.307343 
L 104.111774 178.997668 
L 103.533234 134.258262 
L 103.526091 180.664471 
L 103.322531 104.7019 
L 102.533288 151.2394 
L 101.801184 97.316357 
L 102.397581 183.07066 
L 101.536913 156.155577 
L 100.897662 177.316075 
L 101.258357 81.962255 
L 100.547681 165.465262 
L 100.42983 92.543549 
L 100.451257 180.64884 
L 99.547735 138.195706 
L 98.969194 176.418959 
L 98.940625 101.450925 
L 98.547789 148.970489 
L 98.122812 89.415714 
L 98.026388 174.414436 
L 97.551414 143.416481 
L 96.67289 172.055245 
L 96.908591 85.255389 
L 96.551468 162.885519 
L 95.580092 100.984904 
L 95.780081 185.415602 
L 95.547951 151.181652 
L 95.212255 179.045382 
L 95.408672 102.034978 
L 94.598002 161.282461 
L 93.615912 82.208694 
L 93.976607 182.035679 
L 93.598056 142.127994 
L 92.762387 182.07983 
L 92.633822 96.574629 
L 92.605252 137.092679 
L 92.48383 96.339813 
L 92.108851 184.356418 
L 91.608878 118.21186 
L 90.969626 183.093629 
L 90.994625 98.871396 
L 90.608932 129.846862 
L 90.366088 175.520518 
L 90.498223 68.742507 
L 89.626842 152.396542 
L 89.494706 101.022032 
L 89.366142 184.04144 
L 88.626896 137.433134 
L 88.576899 184.189131 
L 88.251916 97.337083 
L 87.630521 153.797348 
L 87.094836 86.90798 
L 87.130548 177.819951 
L 86.630575 150.666631 
L 85.644914 103.234394 
L 85.787763 175.148307 
L 85.6342 134.28168 
L 85.569918 184.181305 
L 84.666395 95.402653 
L 84.637826 163.317092 
L 83.823584 94.096882 
L 84.080713 175.337919 
L 83.63788 132.083422 
L 82.659361 178.304545 
L 83.423605 89.721272 
L 82.637934 157.159241 
L 82.537939 79.516827 
L 81.766552 178.300655 
L 81.641559 143.177346 
L 81.316576 180.307592 
L 81.070161 89.175726 
L 80.645184 134.353286 
L 80.598758 176.85089 
L 80.484478 92.32002 
L 79.641667 143.864645 
L 79.580956 176.308239 
L 79.177406 92.750858 
L 78.670291 138.56077 
L 77.94533 106.508254 
L 78.623865 179.645266 
L 77.681058 163.609125 
L 77.62749 174.346048 
L 77.173943 95.653938 
L 76.698969 145.409655 
L 75.977579 89.975946 
L 76.259707 178.168936 
L 75.702594 147.896746 
L 75.695451 144.717707 
L 75.591886 93.490757 
L 74.977633 174.689948 
L 74.699077 138.118771 
L 73.938403 173.319637 
L 74.199104 83.299363 
L 73.702702 146.09846 
L 73.295581 100.221493 
L 73.474143 177.071995 
L 72.702756 134.800936 
L 71.999222 174.406168 
L 71.770663 100.485496 
L 71.706381 161.19668 
L 71.64567 93.952202 
L 71.349257 177.705975 
L 70.706435 142.296468 
L 70.602869 181.140256 
L 69.756486 98.528303 
L 69.706489 148.753318 
L 68.852964 102.090654 
L 69.524356 183.468774 
L 68.710114 131.160818 
L 68.563694 177.613704 
L 68.128003 95.618134 
L 67.710168 165.877126 
L 67.692312 87.106966 
L 67.145913 183.79067 
L 66.710222 135.533645 
L 66.545945 173.183003 
L 65.931693 68.019489 
L 65.710276 153.490197 
L 65.210303 98.373909 
L 64.996029 177.11609 
L 64.71033 137.403359 
L 64.574623 174.330293 
L 64.135361 95.614343 
L 63.710384 155.220488 
L 62.717581 92.466326 
L 63.278265 175.717699 
L 62.706867 108.153307 
L 62.106899 180.384928 
L 62.324745 101.841612 
L 61.706921 145.677923 
L 61.381939 94.91305 
L 61.374796 175.266307 
L 60.706975 123.289115 
L 60.185575 174.519252 
L 60.514128 101.253855 
L 59.707029 157.882795 
L 59.671317 89.975292 
L 59.04635 178.405783 
L 58.707083 150.96991 
L 58.607088 82.771666 
L 58.407099 177.290595 
L 57.710708 144.084758 
L 57.692852 167.480885 
L 57.621427 100.198679 
L 57.6 119.874001 
" clip-path="url(#pc542df6d83)" style="fill: #1f77b4; fill-opacity: 0.5"/>
   </g>
   <g id="matplotlib.axis_1">
    <g id="xtick_1">
     <g id="line2d_1">
      <defs>
       <path id="m60824d37e7" d="M 0 0 
L 0 3.5 
" style="stroke: #000000; stroke-width: 0.8"/>
      </defs>
      <g>
       <use xlink:href="#m60824d37e7" x="129.021143" y="307.584" style="stroke: #000000; stroke-width: 0.8"/>
      </g>
     </g>
     <g id="text_1">
      <!-- 20000 -->
      <g transform="translate(113.114893 322.182437) scale(0.1 -0.1)">
       <defs>
        <path id="DejaVuSans-32" d="M 1228 531 
L 3431 531 
L 3431 0 
L 469 0 
L 469 531 
Q 828 903 1448 1529 
Q 2069 2156 2228 2338 
Q 2531 2678 2651 2914 
Q 2772 3150 2772 3378 
Q 2772 3750 2511 3984 
Q 2250 4219 1831 4219 
Q 1534 4219 1204 4116 
Q 875 4013 500 3803 
L 500 4441 
Q 881 4594 1212 4672 
Q 1544 4750 1819 4750 
Q 2544 4750 2975 4387 
Q 3406 4025 3406 3419 
Q 3406 3131 3298 2873 
Q 3191 2616 2906 2266 
Q 2828 2175 2409 1742 
Q 1991 1309 1228 531 
z
" transform="scale(0.015625)"/>
        <path id="DejaVuSans-30" d="M 2034 4250 
Q 1547 4250 1301 3770 
Q 1056 3291 1056 2328 
Q 1056 1369 1301 889 
Q 1547 409 2034 409 
Q 2525 409 2770 889 
Q 3016 1369 3016 2328 
Q 3016 3291 2770 3770 
Q 2525 4250 2034 4250 
z
M 2034 4750 
Q 2819 4750 3233 4129 
Q 3647 3509 3647 2328 
Q 3647 1150 3233 529 
Q 2819 -91 2034 -91 
Q 1250 -91 836 529 
Q 422 1150 422 2328 
Q 422 3509 836 4129 
Q 1250 4750 2034 4750 
z
" transform="scale(0.015625)"/>
       </defs>
       <use xlink:href="#DejaVuSans-32"/>
       <use xlink:href="#DejaVuSans-30" transform="translate(63.623047 0)"/>
       <use xlink:href="#DejaVuSans-30" transform="translate(127.246094 0)"/>
       <use xlink:href="#DejaVuSans-30" transform="translate(190.869141 0)"/>
       <use xlink:href="#DejaVuSans-30" transform="translate(254.492188 0)"/>
      </g>
     </g>
    </g>
    <g id="xtick_2">
     <g id="line2d_2">
      <g>
       <use xlink:href="#m60824d37e7" x="200.445857" y="307.584" style="stroke: #000000; stroke-width: 0.8"/>
      </g>
     </g>
     <g id="text_2">
      <!-- 40000 -->
      <g transform="translate(184.539607 322.182437) scale(0.1 -0.1)">
       <defs>
        <path id="DejaVuSans-34" d="M 2419 4116 
L 825 1625 
L 2419 1625 
L 2419 4116 
z
M 2253 4666 
L 3047 4666 
L 3047 1625 
L 3713 1625 
L 3713 1100 
L 3047 1100 
L 3047 0 
L 2419 0 
L 2419 1100 
L 313 1100 
L 313 1709 
L 2253 4666 
z
" transform="scale(0.015625)"/>
       </defs>
       <use xlink:href="#DejaVuSans-34"/>
       <use xlink:href="#DejaVuSans-30" transform="translate(63.623047 0)"/>
       <use xlink:href="#DejaVuSans-30" transform="translate(127.246094 0)"/>
       <use xlink:href="#DejaVuSans-30" transform="translate(190.869141 0)"/>
       <use xlink:href="#DejaVuSans-30" transform="translate(254.492188 0)"/>
      </g>
     </g>
    </g>
    <g id="xtick_3">
     <g id="line2d_3">
      <g>
       <use xlink:href="#m60824d37e7" x="271.870572" y="307.584" style="stroke: #000000; stroke-width: 0.8"/>
      </g>
     </g>
     <g id="text_3">
      <!-- 60000 -->
      <g transform="translate(255.964322 322.182437) scale(0.1 -0.1)">
       <defs>
        <path id="DejaVuSans-36" d="M 2113 2584 
Q 1688 2584 1439 2293 
Q 1191 2003 1191 1497 
Q 1191 994 1439 701 
Q 1688 409 2113 409 
Q 2538 409 2786 701 
Q 3034 994 3034 1497 
Q 3034 2003 2786 2293 
Q 2538 2584 2113 2584 
z
M 3366 4563 
L 3366 3988 
Q 3128 4100 2886 4159 
Q 2644 4219 2406 4219 
Q 1781 4219 1451 3797 
Q 1122 3375 1075 2522 
Q 1259 2794 1537 2939 
Q 1816 3084 2150 3084 
Q 2853 3084 3261 2657 
Q 3669 2231 3669 1497 
Q 3669 778 3244 343 
Q 2819 -91 2113 -91 
Q 1303 -91 875 529 
Q 447 1150 447 2328 
Q 447 3434 972 4092 
Q 1497 4750 2381 4750 
Q 2619 4750 2861 4703 
Q 3103 4656 3366 4563 
z
" transform="scale(0.015625)"/>
       </defs>
       <use xlink:href="#DejaVuSans-36"/>
       <use xlink:href="#DejaVuSans-30" transform="translate(63.623047 0)"/>
       <use xlink:href="#DejaVuSans-30" transform="translate(127.246094 0)"/>
       <use xlink:href="#DejaVuSans-30" transform="translate(190.869141 0)"/>
       <use xlink:href="#DejaVuSans-30" transform="translate(254.492188 0)"/>
      </g>
     </g>
    </g>
    <g id="xtick_4">
     <g id="line2d_4">
      <g>
       <use xlink:href="#m60824d37e7" x="343.295286" y="307.584" style="stroke: #000000; stroke-width: 0.8"/>
      </g>
     </g>
     <g id="text_4">
      <!-- 80000 -->
      <g transform="translate(327.389036 322.182437) scale(0.1 -0.1)">
       <defs>
        <path id="DejaVuSans-38" d="M 2034 2216 
Q 1584 2216 1326 1975 
Q 1069 1734 1069 1313 
Q 1069 891 1326 650 
Q 1584 409 2034 409 
Q 2484 409 2743 651 
Q 3003 894 3003 1313 
Q 3003 1734 2745 1975 
Q 2488 2216 2034 2216 
z
M 1403 2484 
Q 997 2584 770 2862 
Q 544 3141 544 3541 
Q 544 4100 942 4425 
Q 1341 4750 2034 4750 
Q 2731 4750 3128 4425 
Q 3525 4100 3525 3541 
Q 3525 3141 3298 2862 
Q 3072 2584 2669 2484 
Q 3125 2378 3379 2068 
Q 3634 1759 3634 1313 
Q 3634 634 3220 271 
Q 2806 -91 2034 -91 
Q 1263 -91 848 271 
Q 434 634 434 1313 
Q 434 1759 690 2068 
Q 947 2378 1403 2484 
z
M 1172 3481 
Q 1172 3119 1398 2916 
Q 1625 2713 2034 2713 
Q 2441 2713 2670 2916 
Q 2900 3119 2900 3481 
Q 2900 3844 2670 4047 
Q 2441 4250 2034 4250 
Q 1625 4250 1398 4047 
Q 1172 3844 1172 3481 
z
" transform="scale(0.015625)"/>
       </defs>
       <use xlink:href="#DejaVuSans-38"/>
       <use xlink:href="#DejaVuSans-30" transform="translate(63.623047 0)"/>
       <use xlink:href="#DejaVuSans-30" transform="translate(127.246094 0)"/>
       <use xlink:href="#DejaVuSans-30" transform="translate(190.869141 0)"/>
       <use xlink:href="#DejaVuSans-30" transform="translate(254.492188 0)"/>
      </g>
     </g>
    </g>
    <g id="xtick_5">
     <g id="line2d_5">
      <g>
       <use xlink:href="#m60824d37e7" x="414.72" y="307.584" style="stroke: #000000; stroke-width: 0.8"/>
      </g>
     </g>
     <g id="text_5">
      <!-- 100000 -->
      <g transform="translate(395.6325 322.182437) scale(0.1 -0.1)">
       <defs>
        <path id="DejaVuSans-31" d="M 794 531 
L 1825 531 
L 1825 4091 
L 703 3866 
L 703 4441 
L 1819 4666 
L 2450 4666 
L 2450 531 
L 3481 531 
L 3481 0 
L 794 0 
L 794 531 
z
" transform="scale(0.015625)"/>
       </defs>
       <use xlink:href="#DejaVuSans-31"/>
       <use xlink:href="#DejaVuSans-30" transform="translate(63.623047 0)"/>
       <use xlink:href="#DejaVuSans-30" transform="translate(127.246094 0)"/>
       <use xlink:href="#DejaVuSans-30" transform="translate(190.869141 0)"/>
       <use xlink:href="#DejaVuSans-30" transform="translate(254.492188 0)"/>
       <use xlink:href="#DejaVuSans-30" transform="translate(318.115234 0)"/>
      </g>
     </g>
    </g>
   </g>
   <g id="matplotlib.axis_2">
    <g id="ytick_1">
     <g id="line2d_6">
      <defs>
       <path id="mcb1d71d05c" d="M 0 0 
L -3.5 0 
" style="stroke: #000000; stroke-width: 0.8"/>
      </defs>
      <g>
       <use xlink:href="#mcb1d71d05c" x="57.6" y="277.700203" style="stroke: #000000; stroke-width: 0.8"/>
      </g>
     </g>
     <g id="text_6">
      <!-- −4 -->
      <g transform="translate(35.857813 281.499422) scale(0.1 -0.1)">
       <defs>
        <path id="DejaVuSans-2212" d="M 678 2272 
L 4684 2272 
L 4684 1741 
L 678 1741 
L 678 2272 
z
" transform="scale(0.015625)"/>
       </defs>
       <use xlink:href="#DejaVuSans-2212"/>
       <use xlink:href="#DejaVuSans-34" transform="translate(83.789062 0)"/>
      </g>
     </g>
    </g>
    <g id="ytick_2">
     <g id="line2d_7">
      <g>
       <use xlink:href="#mcb1d71d05c" x="57.6" y="229.280721" style="stroke: #000000; stroke-width: 0.8"/>
      </g>
     </g>
     <g id="text_7">
      <!-- −2 -->
      <g transform="translate(35.857813 233.07994) scale(0.1 -0.1)">
       <use xlink:href="#DejaVuSans-2212"/>
       <use xlink:href="#DejaVuSans-32" transform="translate(83.789062 0)"/>
      </g>
     </g>
    </g>
    <g id="ytick_3">
     <g id="line2d_8">
      <g>
       <use xlink:href="#mcb1d71d05c" x="57.6" y="180.86124" style="stroke: #000000; stroke-width: 0.8"/>
      </g>
     </g>
     <g id="text_8">
      <!-- 0 -->
      <g transform="translate(44.2375 184.660459) scale(0.1 -0.1)">
       <use xlink:href="#DejaVuSans-30"/>
      </g>
     </g>
    </g>
    <g id="ytick_4">
     <g id="line2d_9">
      <g>
       <use xlink:href="#mcb1d71d05c" x="57.6" y="132.441758" style="stroke: #000000; stroke-width: 0.8"/>
      </g>
     </g>
     <g id="text_9">
      <!-- 2 -->
      <g transform="translate(44.2375 136.240977) scale(0.1 -0.1)">
       <use xlink:href="#DejaVuSans-32"/>
      </g>
     </g>
    </g>
    <g id="ytick_5">
     <g id="line2d_10">
      <g>
       <use xlink:href="#mcb1d71d05c" x="57.6" y="84.022277" style="stroke: #000000; stroke-width: 0.8"/>
      </g>
     </g>
     <g id="text_10">
      <!-- 4 -->
      <g transform="translate(44.2375 87.821495) scale(0.1 -0.1)">
       <use xlink:href="#DejaVuSans-34"/>
      </g>
     </g>
    </g>
   </g>
   <g id="patch_3">
    <path d="M 57.6 307.584 
L 57.6 41.472 
" style="fill: none; stroke: #000000; stroke-width: 0.8; stroke-linejoin: miter; stroke-linecap: square"/>
   </g>
   <g id="patch_4">
    <path d="M 414.72 307.584 
L 414.72 41.472 
" style="fill: none; stroke: #000000; stroke-width: 0.8; stroke-linejoin: miter; stroke-linecap: square"/>
   </g>
   <g id="patch_5">
    <path d="M 57.6 307.584 
L 414.72 307.584 
" style="fill: none; stroke: #000000; stroke-width: 0.8; stroke-linejoin: miter; stroke-linecap: square"/>
   </g>
   <g id="patch_6">
    <path d="M 57.6 41.472 
L 414.72 41.472 
" style="fill: none; stroke: #000000; stroke-width: 0.8; stroke-linejoin: miter; stroke-linecap: square"/>
   </g>
  </g>
 </g>
 <defs>
  <clipPath id="pc542df6d83">
   <rect x="57.6" y="41.472" width="357.12" height="266.112"/>
  </clipPath>
 </defs>
</svg>
