<?xml version="1.0" encoding="utf-8" standalone="no"?>
<!DOCTYPE svg PUBLIC "-//W3C//DTD SVG 1.1//EN"
  "http://www.w3.org/Graphics/SVG/1.1/DTD/svg11.dtd">
<svg xmlns:xlink="http://www.w3.org/1999/xlink" width="576pt" height="432pt" viewBox="0 0 576 432" xmlns="http://www.w3.org/2000/svg" version="1.1">
 <metadata>
  <rdf:RDF xmlns:dc="http://purl.org/dc/elements/1.1/" xmlns:cc="http://creativecommons.org/ns#" xmlns:rdf="http://www.w3.org/1999/02/22-rdf-syntax-ns#">
   <cc:Work>
    <dc:type rdf:resource="http://purl.org/dc/dcmitype/StillImage"/>
    <dc:date>2026-01-28T03:32:00.995203</dc:date>
    <dc:format>image/svg+xml</dc:format>
    <dc:creator>
     <cc:Agent>
      <dc:title>Matplotlib v3.11.0.dev1773+g72dc8a699f, https://matplotlib.org/</dc:title>
     </cc:Agent>
    </dc:creator>
   </cc:Work>
  </rdf:RDF>
 </metadata>
 <defs>
  <style type="text/css">*{stroke-linejoin: round; stroke-linecap: butt}</style>
 </defs>
 <g id="figure_1">
  <g id="patch_1">
   <path d="M 0 432 
L 576 432 
L 576 0 
L 0 0 
z
" style="fill: #ffffff"/>
  </g>
  <g id="axes_1">
   <g id="patch_2">
    <path d="M 72 388.8 
L 518.4 388.8 
L 518.4 43.2 
L 72 43.2 
z
" style="fill: #ffffff"/>
   </g>
   <g id="line2d_1">
    <path d="M 74 390.8 
L 185.6 218 
L 297.2 45.2 
L 408.8 131.6 
L 520.4 218 
" clip-path="url(#pe2e2378c9e)" style="fill: none; opacity: 0.3; stroke: #000000; stroke-width: 4; stroke-linecap: square"/>
    <path d="M 72 388.8 
L 183.6 216 
L 295.2 43.2 
L 406.8 129.6 
L 518.4 216 
" clip-path="url(#pe2e2378c9e)" style="fill: none; stroke: #0000ff; stroke-width: 4; stroke-linecap: square"/>
    <path d="M 74 393.8 
C 74.795609 393.8 75.55874 393.483901 76.12132 392.92132 
C 76.683901 392.35874 77 391.595609 77 390.8 
C 77 390.004391 76.683901 389.24126 76.12132 388.67868 
C 75.55874 388.116099 74.795609 387.8 74 387.8 
C 73.204391 387.8 72.44126 388.116099 71.87868 388.67868 
C 71.316099 389.24126 71 390.004391 71 390.8 
C 71 391.595609 71.316099 392.35874 71.87868 392.92132 
C 72.44126 393.483901 73.204391 393.8 74 393.8 
L 74 393.8 
z
" clip-path="url(#pe2e2378c9e)" style="fill: none; opacity: 0.3; stroke: #000000; stroke-width: 0.5"/>
    <path d="M 185.6 221 
C 186.395609 221 187.15874 220.683901 187.72132 220.12132 
C 188.283901 219.55874 188.6 218.795609 188.6 218 
C 188.6 217.204391 188.283901 216.44126 187.72132 215.87868 
C 187.15874 215.316099 186.395609 215 185.6 215 
C 184.804391 215 184.04126 215.316099 183.47868 215.87868 
C 182.916099 216.44126 182.6 217.204391 182.6 218 
C 182.6 218.795609 182.916099 219.55874 183.47868 220.12132 
C 184.04126 220.683901 184.804391 221 185.6 221 
L 185.6 221 
z
" clip-path="url(#pe2e2378c9e)" style="fill: none; opacity: 0.3; stroke: #000000; stroke-width: 0.5"/>
    <path d="M 297.2 48.2 
C 297.995609 48.2 298.75874 47.883901 299.32132 47.32132 
C 299.883901 46.75874 300.2 45.995609 300.2 45.2 
C 300.2 44.404391 299.883901 43.64126 299.32132 43.07868 
C 298.75874 42.516099 297.995609 42.2 297.2 42.2 
C 296.404391 42.2 295.64126 42.516099 295.07868 43.07868 
C 294.516099 43.64126 294.2 44.404391 294.2 45.2 
C 294.2 45.995609 294.516099 46.75874 295.07868 47.32132 
C 295.64126 47.883901 296.404391 48.2 297.2 48.2 
L 297.2 48.2 
z
" clip-path="url(#pe2e2378c9e)" style="fill: none; opacity: 0.3; stroke: #000000; stroke-width: 0.5"/>
    <path d="M 408.8 134.6 
C 409.595609 134.6 410.35874 134.283901 410.92132 133.72132 
C 411.483901 133.15874 411.8 132.395609 411.8 131.6 
C 411.8 130.804391 411.483901 130.04126 410.92132 129.47868 
C 410.35874 128.916099 409.595609 128.6 408.8 128.6 
C 408.004391 128.6 407.24126 128.916099 406.67868 129.47868 
C 406.116099 130.04126 405.8 130.804391 405.8 131.6 
C 405.8 132.395609 406.116099 133.15874 406.67868 133.72132 
C 407.24126 134.283901 408.004391 134.6 408.8 134.6 
L 408.8 134.6 
z
" clip-path="url(#pe2e2378c9e)" style="fill: none; opacity: 0.3; stroke: #000000; stroke-width: 0.5"/>
    <path d="M 520.4 221 
C 521.195609 221 521.95874 220.683901 522.52132 220.12132 
C 523.083901 219.55874 523.4 218.795609 523.4 218 
C 523.4 217.204391 523.083901 216.44126 522.52132 215.87868 
C 521.95874 215.316099 521.195609 215 520.4 215 
C 519.604391 215 518.84126 215.316099 518.27868 215.87868 
C 517.716099 216.44126 517.4 217.204391 517.4 218 
C 517.4 218.795609 517.716099 219.55874 518.27868 220.12132 
C 518.84126 220.683901 519.604391 221 520.4 221 
L 520.4 221 
z
" clip-path="url(#pe2e2378c9e)" style="fill: none; opacity: 0.3; stroke: #000000; stroke-width: 0.5"/>
    <path d="M 72 391.8 
C 72.795609 391.8 73.55874 391.483901 74.12132 390.92132 
C 74.683901 390.35874 75 389.595609 75 388.8 
C 75 388.004391 74.683901 387.24126 74.12132 386.67868 
C 73.55874 386.116099 72.795609 385.8 72 385.8 
C 71.204391 385.8 70.44126 386.116099 69.87868 386.67868 
C 69.316099 387.24126 69 388.004391 69 388.8 
C 69 389.595609 69.316099 390.35874 69.87868 390.92132 
C 70.44126 391.483901 71.204391 391.8 72 391.8 
z
" clip-path="url(#pe2e2378c9e)" style="fill: #0000ff; stroke: #000000; stroke-width: 0.5"/>
    <path d="M 183.6 219 
C 184.395609 219 185.15874 218.683901 185.72132 218.12132 
C 186.283901 217.55874 186.6 216.795609 186.6 216 
C 186.6 215.204391 186.283901 214.44126 185.72132 213.87868 
C 185.15874 213.316099 184.395609 213 183.6 213 
C 182.804391 213 182.04126 213.316099 181.47868 213.87868 
C 180.916099 214.44126 180.6 215.204391 180.6 216 
C 180.6 216.795609 180.916099 217.55874 181.47868 218.12132 
C 182.04126 218.683901 182.804391 219 183.6 219 
z
" clip-path="url(#pe2e2378c9e)" style="fill: #0000ff; stroke: #000000; stroke-width: 0.5"/>
    <path d="M 295.2 46.2 
C 295.995609 46.2 296.75874 45.883901 297.32132 45.32132 
C 297.883901 44.75874 298.2 43.995609 298.2 43.2 
C 298.2 42.404391 297.883901 41.64126 297.32132 41.07868 
C 296.75874 40.516099 295.995609 40.2 295.2 40.2 
C 294.404391 40.2 293.64126 40.516099 293.07868 41.07868 
C 292.516099 41.64126 292.2 42.404391 292.2 43.2 
C 292.2 43.995609 292.516099 44.75874 293.07868 45.32132 
C 293.64126 45.883901 294.404391 46.2 295.2 46.2 
z
" clip-path="url(#pe2e2378c9e)" style="fill: #0000ff; stroke: #000000; stroke-width: 0.5"/>
    <path d="M 406.8 132.6 
C 407.595609 132.6 408.35874 132.283901 408.92132 131.72132 
C 409.483901 131.15874 409.8 130.395609 409.8 129.6 
C 409.8 128.804391 409.483901 128.04126 408.92132 127.47868 
C 408.35874 126.916099 407.595609 126.6 406.8 126.6 
C 406.004391 126.6 405.24126 126.916099 404.67868 127.47868 
C 404.116099 128.04126 403.8 128.804391 403.8 129.6 
C 403.8 130.395609 404.116099 131.15874 404.67868 131.72132 
C 405.24126 132.283901 406.004391 132.6 406.8 132.6 
z
" clip-path="url(#pe2e2378c9e)" style="fill: #0000ff; stroke: #000000; stroke-width: 0.5"/>
    <path d="M 518.4 219 
C 519.195609 219 519.95874 218.683901 520.52132 218.12132 
C 521.083901 217.55874 521.4 216.795609 521.4 216 
C 521.4 215.204391 521.083901 214.44126 520.52132 213.87868 
C 519.95874 213.316099 519.195609 213 518.4 213 
C 517.604391 213 516.84126 213.316099 516.27868 213.87868 
C 515.716099 214.44126 515.4 215.204391 515.4 216 
C 515.4 216.795609 515.716099 217.55874 516.27868 218.12132 
C 516.84126 218.683901 517.604391 219 518.4 219 
z
" clip-path="url(#pe2e2378c9e)" style="fill: #0000ff; stroke: #000000; stroke-width: 0.5"/>
   </g>
   <g id="patch_3">
    <path d="M 72 388.8 
L 72 43.2 
" style="fill: none; stroke: #000000; stroke-linejoin: miter; stroke-linecap: square"/>
   </g>
   <g id="patch_4">
    <path d="M 518.4 388.8 
L 518.4 43.2 
" style="fill: none; stroke: #000000; stroke-linejoin: miter; stroke-linecap: square"/>
   </g>
   <g id="patch_5">
    <path d="M 72 388.8 
L 518.4 388.8 
" style="fill: none; stroke: #000000; stroke-linejoin: miter; stroke-linecap: square"/>
   </g>
   <g id="patch_6">
    <path d="M 72 43.2 
L 518.4 43.2 
" style="fill: none; stroke: #000000; stroke-linejoin: miter; stroke-linecap: square"/>
   </g>
   <g id="matplotlib.axis_1">
    <g id="xtick_1">
     <g id="line2d_2">
      <defs>
       <path id="m441ccbbe42" d="M 0 0 
L 0 -4 
" style="stroke: #000000; stroke-width: 0.5"/>
      </defs>
      <g>
       <use xlink:href="#m441ccbbe42" x="72" y="388.8" style="stroke: #000000; stroke-width: 0.5"/>
      </g>
     </g>
     <g id="line2d_3">
      <defs>
       <path id="mad5646bafe" d="M 0 0 
L 0 4 
" style="stroke: #000000; stroke-width: 0.5"/>
      </defs>
      <g>
       <use xlink:href="#mad5646bafe" x="72" y="43.2" style="stroke: #000000; stroke-width: 0.5"/>
      </g>
     </g>
     <g id="text_1">
      <!-- 0.0 -->
      <g transform="translate(62.458125 401.918125) scale(0.12 -0.12)">
       <defs>
        <path id="DejaVuSans-13" d="M 2034 4250 
Q 1547 4250 1301 3770 
Q 1056 3291 1056 2328 
Q 1056 1369 1301 889 
Q 1547 409 2034 409 
Q 2525 409 2770 889 
Q 3016 1369 3016 2328 
Q 3016 3291 2770 3770 
Q 2525 4250 2034 4250 
z
M 2034 4750 
Q 2819 4750 3233 4129 
Q 3647 3509 3647 2328 
Q 3647 1150 3233 529 
Q 2819 -91 2034 -91 
Q 1250 -91 836 529 
Q 422 1150 422 2328 
Q 422 3509 836 4129 
Q 1250 4750 2034 4750 
z
" transform="scale(0.015625)"/>
        <path id="DejaVuSans-11" d="M 684 794 
L 1344 794 
L 1344 0 
L 684 0 
L 684 794 
z
" transform="scale(0.015625)"/>
       </defs>
       <use xlink:href="#DejaVuSans-13"/>
       <use xlink:href="#DejaVuSans-11" transform="translate(63.625 0)"/>
       <use xlink:href="#DejaVuSans-13" transform="translate(95.40625 0)"/>
      </g>
     </g>
    </g>
    <g id="xtick_2">
     <g id="line2d_4">
      <g>
       <use xlink:href="#m441ccbbe42" x="127.8" y="388.8" style="stroke: #000000; stroke-width: 0.5"/>
      </g>
     </g>
     <g id="line2d_5">
      <g>
       <use xlink:href="#mad5646bafe" x="127.8" y="43.2" style="stroke: #000000; stroke-width: 0.5"/>
      </g>
     </g>
     <g id="text_2">
      <!-- 0.5 -->
      <g transform="translate(118.258125 401.918125) scale(0.12 -0.12)">
       <defs>
        <path id="DejaVuSans-18" d="M 691 4666 
L 3169 4666 
L 3169 4134 
L 1269 4134 
L 1269 2991 
Q 1406 3038 1543 3061 
Q 1681 3084 1819 3084 
Q 2600 3084 3056 2656 
Q 3513 2228 3513 1497 
Q 3513 744 3044 326 
Q 2575 -91 1722 -91 
Q 1428 -91 1123 -41 
Q 819 9 494 109 
L 494 744 
Q 775 591 1075 516 
Q 1375 441 1709 441 
Q 2250 441 2565 725 
Q 2881 1009 2881 1497 
Q 2881 1984 2565 2268 
Q 2250 2553 1709 2553 
Q 1456 2553 1204 2497 
Q 953 2441 691 2322 
L 691 4666 
z
" transform="scale(0.015625)"/>
       </defs>
       <use xlink:href="#DejaVuSans-13"/>
       <use xlink:href="#DejaVuSans-11" transform="translate(63.625 0)"/>
       <use xlink:href="#DejaVuSans-18" transform="translate(95.40625 0)"/>
      </g>
     </g>
    </g>
    <g id="xtick_3">
     <g id="line2d_6">
      <g>
       <use xlink:href="#m441ccbbe42" x="183.6" y="388.8" style="stroke: #000000; stroke-width: 0.5"/>
      </g>
     </g>
     <g id="line2d_7">
      <g>
       <use xlink:href="#mad5646bafe" x="183.6" y="43.2" style="stroke: #000000; stroke-width: 0.5"/>
      </g>
     </g>
     <g id="text_3">
      <!-- 1.0 -->
      <g transform="translate(174.058125 401.918125) scale(0.12 -0.12)">
       <defs>
        <path id="DejaVuSans-14" d="M 794 531 
L 1825 531 
L 1825 4091 
L 703 3866 
L 703 4441 
L 1819 4666 
L 2450 4666 
L 2450 531 
L 3481 531 
L 3481 0 
L 794 0 
L 794 531 
z
" transform="scale(0.015625)"/>
       </defs>
       <use xlink:href="#DejaVuSans-14"/>
       <use xlink:href="#DejaVuSans-11" transform="translate(63.625 0)"/>
       <use xlink:href="#DejaVuSans-13" transform="translate(95.40625 0)"/>
      </g>
     </g>
    </g>
    <g id="xtick_4">
     <g id="line2d_8">
      <g>
       <use xlink:href="#m441ccbbe42" x="239.4" y="388.8" style="stroke: #000000; stroke-width: 0.5"/>
      </g>
     </g>
     <g id="line2d_9">
      <g>
       <use xlink:href="#mad5646bafe" x="239.4" y="43.2" style="stroke: #000000; stroke-width: 0.5"/>
      </g>
     </g>
     <g id="text_4">
      <!-- 1.5 -->
      <g transform="translate(229.858125 401.918125) scale(0.12 -0.12)">
       <use xlink:href="#DejaVuSans-14"/>
       <use xlink:href="#DejaVuSans-11" transform="translate(63.625 0)"/>
       <use xlink:href="#DejaVuSans-18" transform="translate(95.40625 0)"/>
      </g>
     </g>
    </g>
    <g id="xtick_5">
     <g id="line2d_10">
      <g>
       <use xlink:href="#m441ccbbe42" x="295.2" y="388.8" style="stroke: #000000; stroke-width: 0.5"/>
      </g>
     </g>
     <g id="line2d_11">
      <g>
       <use xlink:href="#mad5646bafe" x="295.2" y="43.2" style="stroke: #000000; stroke-width: 0.5"/>
      </g>
     </g>
     <g id="text_5">
      <!-- 2.0 -->
      <g transform="translate(285.658125 401.918125) scale(0.12 -0.12)">
       <defs>
        <path id="DejaVuSans-15" d="M 1228 531 
L 3431 531 
L 3431 0 
L 469 0 
L 469 531 
Q 828 903 1448 1529 
Q 2069 2156 2228 2338 
Q 2531 2678 2651 2914 
Q 2772 3150 2772 3378 
Q 2772 3750 2511 3984 
Q 2250 4219 1831 4219 
Q 1534 4219 1204 4116 
Q 875 4013 500 3803 
L 500 4441 
Q 881 4594 1212 4672 
Q 1544 4750 1819 4750 
Q 2544 4750 2975 4387 
Q 3406 4025 3406 3419 
Q 3406 3131 3298 2873 
Q 3191 2616 2906 2266 
Q 2828 2175 2409 1742 
Q 1991 1309 1228 531 
z
" transform="scale(0.015625)"/>
       </defs>
       <use xlink:href="#DejaVuSans-15"/>
       <use xlink:href="#DejaVuSans-11" transform="translate(63.625 0)"/>
       <use xlink:href="#DejaVuSans-13" transform="translate(95.40625 0)"/>
      </g>
     </g>
    </g>
    <g id="xtick_6">
     <g id="line2d_12">
      <g>
       <use xlink:href="#m441ccbbe42" x="351" y="388.8" style="stroke: #000000; stroke-width: 0.5"/>
      </g>
     </g>
     <g id="line2d_13">
      <g>
       <use xlink:href="#mad5646bafe" x="351" y="43.2" style="stroke: #000000; stroke-width: 0.5"/>
      </g>
     </g>
     <g id="text_6">
      <!-- 2.5 -->
      <g transform="translate(341.458125 401.918125) scale(0.12 -0.12)">
       <use xlink:href="#DejaVuSans-15"/>
       <use xlink:href="#DejaVuSans-11" transform="translate(63.625 0)"/>
       <use xlink:href="#DejaVuSans-18" transform="translate(95.40625 0)"/>
      </g>
     </g>
    </g>
    <g id="xtick_7">
     <g id="line2d_14">
      <g>
       <use xlink:href="#m441ccbbe42" x="406.8" y="388.8" style="stroke: #000000; stroke-width: 0.5"/>
      </g>
     </g>
     <g id="line2d_15">
      <g>
       <use xlink:href="#mad5646bafe" x="406.8" y="43.2" style="stroke: #000000; stroke-width: 0.5"/>
      </g>
     </g>
     <g id="text_7">
      <!-- 3.0 -->
      <g transform="translate(397.258125 401.918125) scale(0.12 -0.12)">
       <defs>
        <path id="DejaVuSans-16" d="M 2597 2516 
Q 3050 2419 3304 2112 
Q 3559 1806 3559 1356 
Q 3559 666 3084 287 
Q 2609 -91 1734 -91 
Q 1441 -91 1130 -33 
Q 819 25 488 141 
L 488 750 
Q 750 597 1062 519 
Q 1375 441 1716 441 
Q 2309 441 2620 675 
Q 2931 909 2931 1356 
Q 2931 1769 2642 2001 
Q 2353 2234 1838 2234 
L 1294 2234 
L 1294 2753 
L 1863 2753 
Q 2328 2753 2575 2939 
Q 2822 3125 2822 3475 
Q 2822 3834 2567 4026 
Q 2313 4219 1838 4219 
Q 1578 4219 1281 4162 
Q 984 4106 628 3988 
L 628 4550 
Q 988 4650 1302 4700 
Q 1616 4750 1894 4750 
Q 2613 4750 3031 4423 
Q 3450 4097 3450 3541 
Q 3450 3153 3228 2886 
Q 3006 2619 2597 2516 
z
" transform="scale(0.015625)"/>
       </defs>
       <use xlink:href="#DejaVuSans-16"/>
       <use xlink:href="#DejaVuSans-11" transform="translate(63.625 0)"/>
       <use xlink:href="#DejaVuSans-13" transform="translate(95.40625 0)"/>
      </g>
     </g>
    </g>
    <g id="xtick_8">
     <g id="line2d_16">
      <g>
       <use xlink:href="#m441ccbbe42" x="462.6" y="388.8" style="stroke: #000000; stroke-width: 0.5"/>
      </g>
     </g>
     <g id="line2d_17">
      <g>
       <use xlink:href="#mad5646bafe" x="462.6" y="43.2" style="stroke: #000000; stroke-width: 0.5"/>
      </g>
     </g>
     <g id="text_8">
      <!-- 3.5 -->
      <g transform="translate(453.058125 401.918125) scale(0.12 -0.12)">
       <use xlink:href="#DejaVuSans-16"/>
       <use xlink:href="#DejaVuSans-11" transform="translate(63.625 0)"/>
       <use xlink:href="#DejaVuSans-18" transform="translate(95.40625 0)"/>
      </g>
     </g>
    </g>
    <g id="xtick_9">
     <g id="line2d_18">
      <g>
       <use xlink:href="#m441ccbbe42" x="518.4" y="388.8" style="stroke: #000000; stroke-width: 0.5"/>
      </g>
     </g>
     <g id="line2d_19">
      <g>
       <use xlink:href="#mad5646bafe" x="518.4" y="43.2" style="stroke: #000000; stroke-width: 0.5"/>
      </g>
     </g>
     <g id="text_9">
      <!-- 4.0 -->
      <g transform="translate(508.858125 401.918125) scale(0.12 -0.12)">
       <defs>
        <path id="DejaVuSans-17" d="M 2419 4116 
L 825 1625 
L 2419 1625 
L 2419 4116 
z
M 2253 4666 
L 3047 4666 
L 3047 1625 
L 3713 1625 
L 3713 1100 
L 3047 1100 
L 3047 0 
L 2419 0 
L 2419 1100 
L 313 1100 
L 313 1709 
L 2253 4666 
z
" transform="scale(0.015625)"/>
       </defs>
       <use xlink:href="#DejaVuSans-17"/>
       <use xlink:href="#DejaVuSans-11" transform="translate(63.625 0)"/>
       <use xlink:href="#DejaVuSans-13" transform="translate(95.40625 0)"/>
      </g>
     </g>
    </g>
   </g>
   <g id="matplotlib.axis_2">
    <g id="ytick_1">
     <g id="line2d_20">
      <defs>
       <path id="mebf891ec74" d="M 0 0 
L 4 0 
" style="stroke: #000000; stroke-width: 0.5"/>
      </defs>
      <g>
       <use xlink:href="#mebf891ec74" x="72" y="388.8" style="stroke: #000000; stroke-width: 0.5"/>
      </g>
     </g>
     <g id="line2d_21">
      <defs>
       <path id="m0be78051dd" d="M 0 0 
L -4 0 
" style="stroke: #000000; stroke-width: 0.5"/>
      </defs>
      <g>
       <use xlink:href="#m0be78051dd" x="518.4" y="388.8" style="stroke: #000000; stroke-width: 0.5"/>
      </g>
     </g>
     <g id="text_10">
      <!-- 1.0 -->
      <g transform="translate(48.91625 393.359062) scale(0.12 -0.12)">
       <use xlink:href="#DejaVuSans-14"/>
       <use xlink:href="#DejaVuSans-11" transform="translate(63.625 0)"/>
       <use xlink:href="#DejaVuSans-13" transform="translate(95.40625 0)"/>
      </g>
     </g>
    </g>
    <g id="ytick_2">
     <g id="line2d_22">
      <g>
       <use xlink:href="#mebf891ec74" x="72" y="345.6" style="stroke: #000000; stroke-width: 0.5"/>
      </g>
     </g>
     <g id="line2d_23">
      <g>
       <use xlink:href="#m0be78051dd" x="518.4" y="345.6" style="stroke: #000000; stroke-width: 0.5"/>
      </g>
     </g>
     <g id="text_11">
      <!-- 1.5 -->
      <g transform="translate(48.91625 350.159063) scale(0.12 -0.12)">
       <use xlink:href="#DejaVuSans-14"/>
       <use xlink:href="#DejaVuSans-11" transform="translate(63.625 0)"/>
       <use xlink:href="#DejaVuSans-18" transform="translate(95.40625 0)"/>
      </g>
     </g>
    </g>
    <g id="ytick_3">
     <g id="line2d_24">
      <g>
       <use xlink:href="#mebf891ec74" x="72" y="302.4" style="stroke: #000000; stroke-width: 0.5"/>
      </g>
     </g>
     <g id="line2d_25">
      <g>
       <use xlink:href="#m0be78051dd" x="518.4" y="302.4" style="stroke: #000000; stroke-width: 0.5"/>
      </g>
     </g>
     <g id="text_12">
      <!-- 2.0 -->
      <g transform="translate(48.91625 306.959063) scale(0.12 -0.12)">
       <use xlink:href="#DejaVuSans-15"/>
       <use xlink:href="#DejaVuSans-11" transform="translate(63.625 0)"/>
       <use xlink:href="#DejaVuSans-13" transform="translate(95.40625 0)"/>
      </g>
     </g>
    </g>
    <g id="ytick_4">
     <g id="line2d_26">
      <g>
       <use xlink:href="#mebf891ec74" x="72" y="259.2" style="stroke: #000000; stroke-width: 0.5"/>
      </g>
     </g>
     <g id="line2d_27">
      <g>
       <use xlink:href="#m0be78051dd" x="518.4" y="259.2" style="stroke: #000000; stroke-width: 0.5"/>
      </g>
     </g>
     <g id="text_13">
      <!-- 2.5 -->
      <g transform="translate(48.91625 263.759063) scale(0.12 -0.12)">
       <use xlink:href="#DejaVuSans-15"/>
       <use xlink:href="#DejaVuSans-11" transform="translate(63.625 0)"/>
       <use xlink:href="#DejaVuSans-18" transform="translate(95.40625 0)"/>
      </g>
     </g>
    </g>
    <g id="ytick_5">
     <g id="line2d_28">
      <g>
       <use xlink:href="#mebf891ec74" x="72" y="216" style="stroke: #000000; stroke-width: 0.5"/>
      </g>
     </g>
     <g id="line2d_29">
      <g>
       <use xlink:href="#m0be78051dd" x="518.4" y="216" style="stroke: #000000; stroke-width: 0.5"/>
      </g>
     </g>
     <g id="text_14">
      <!-- 3.0 -->
      <g transform="translate(48.91625 220.559062) scale(0.12 -0.12)">
       <use xlink:href="#DejaVuSans-16"/>
       <use xlink:href="#DejaVuSans-11" transform="translate(63.625 0)"/>
       <use xlink:href="#DejaVuSans-13" transform="translate(95.40625 0)"/>
      </g>
     </g>
    </g>
    <g id="ytick_6">
     <g id="line2d_30">
      <g>
       <use xlink:href="#mebf891ec74" x="72" y="172.8" style="stroke: #000000; stroke-width: 0.5"/>
      </g>
     </g>
     <g id="line2d_31">
      <g>
       <use xlink:href="#m0be78051dd" x="518.4" y="172.8" style="stroke: #000000; stroke-width: 0.5"/>
      </g>
     </g>
     <g id="text_15">
      <!-- 3.5 -->
      <g transform="translate(48.91625 177.359062) scale(0.12 -0.12)">
       <use xlink:href="#DejaVuSans-16"/>
       <use xlink:href="#DejaVuSans-11" transform="translate(63.625 0)"/>
       <use xlink:href="#DejaVuSans-18" transform="translate(95.40625 0)"/>
      </g>
     </g>
    </g>
    <g id="ytick_7">
     <g id="line2d_32">
      <g>
       <use xlink:href="#mebf891ec74" x="72" y="129.6" style="stroke: #000000; stroke-width: 0.5"/>
      </g>
     </g>
     <g id="line2d_33">
      <g>
       <use xlink:href="#m0be78051dd" x="518.4" y="129.6" style="stroke: #000000; stroke-width: 0.5"/>
      </g>
     </g>
     <g id="text_16">
      <!-- 4.0 -->
      <g transform="translate(48.91625 134.159063) scale(0.12 -0.12)">
       <use xlink:href="#DejaVuSans-17"/>
       <use xlink:href="#DejaVuSans-11" transform="translate(63.625 0)"/>
       <use xlink:href="#DejaVuSans-13" transform="translate(95.40625 0)"/>
      </g>
     </g>
    </g>
    <g id="ytick_8">
     <g id="line2d_34">
      <g>
       <use xlink:href="#mebf891ec74" x="72" y="86.4" style="stroke: #000000; stroke-width: 0.5"/>
      </g>
     </g>
     <g id="line2d_35">
      <g>
       <use xlink:href="#m0be78051dd" x="518.4" y="86.4" style="stroke: #000000; stroke-width: 0.5"/>
      </g>
     </g>
     <g id="text_17">
      <!-- 4.5 -->
      <g transform="translate(48.91625 90.959062) scale(0.12 -0.12)">
       <use xlink:href="#DejaVuSans-17"/>
       <use xlink:href="#DejaVuSans-11" transform="translate(63.625 0)"/>
       <use xlink:href="#DejaVuSans-18" transform="translate(95.40625 0)"/>
      </g>
     </g>
    </g>
    <g id="ytick_9">
     <g id="line2d_36">
      <g>
       <use xlink:href="#mebf891ec74" x="72" y="43.2" style="stroke: #000000; stroke-width: 0.5"/>
      </g>
     </g>
     <g id="line2d_37">
      <g>
       <use xlink:href="#m0be78051dd" x="518.4" y="43.2" style="stroke: #000000; stroke-width: 0.5"/>
      </g>
     </g>
     <g id="text_18">
      <!-- 5.0 -->
      <g transform="translate(48.91625 47.759063) scale(0.12 -0.12)">
       <use xlink:href="#DejaVuSans-18"/>
       <use xlink:href="#DejaVuSans-11" transform="translate(63.625 0)"/>
       <use xlink:href="#DejaVuSans-13" transform="translate(95.40625 0)"/>
      </g>
     </g>
    </g>
   </g>
   <g id="text_19">
    <g id="patch_7">
     <path d="M 323.063437 241.752187 
C 330.771151 241.752187 338.164215 238.68988 343.614391 233.239704 
C 349.064568 227.789527 352.126875 220.396464 352.126875 212.68875 
C 352.126875 204.981036 349.064568 197.587973 343.614391 192.137796 
C 338.164215 186.68762 330.771151 183.625312 323.063437 183.625312 
C 315.355724 183.625312 307.96266 186.68762 302.512484 192.137796 
C 297.062307 197.587973 294 204.981036 294 212.68875 
C 294 220.396464 297.062307 227.789527 302.512484 233.239704 
C 307.96266 238.68988 315.355724 241.752187 323.063437 241.752187 
z
" style="fill: #ff0000; stroke: #000000; stroke-width: 3.75; stroke-linejoin: miter"/>
     <path d="M 329.063437 244.752187 
C 336.771151 244.752187 344.164215 241.68988 349.614391 236.239704 
C 355.064568 230.789527 358.126875 223.396464 358.126875 215.68875 
C 358.126875 207.981036 355.064568 200.587973 349.614391 195.137796 
C 344.164215 189.68762 336.771151 186.625312 329.063437 186.625312 
C 321.355724 186.625312 313.96266 189.68762 308.512484 195.137796 
C 303.062307 200.587973 300 207.981036 300 215.68875 
C 300 223.396464 303.062307 230.789527 308.512484 236.239704 
C 313.96266 241.68988 321.355724 244.752187 329.063437 244.752187 
z
" style="fill: #0000ff; opacity: 0.3"/>
     <path d="M 323.063437 241.752187 
C 330.771151 241.752187 338.164215 238.68988 343.614391 233.239704 
C 349.064568 227.789527 352.126875 220.396464 352.126875 212.68875 
C 352.126875 204.981036 349.064568 197.587973 343.614391 192.137796 
C 338.164215 186.68762 330.771151 183.625312 323.063437 183.625312 
C 315.355724 183.625312 307.96266 186.68762 302.512484 192.137796 
C 297.062307 197.587973 294 204.981036 294 212.68875 
C 294 220.396464 297.062307 227.789527 302.512484 233.239704 
C 307.96266 238.68988 315.355724 241.752187 323.063437 241.752187 
z
" style="fill: #ff0000; stroke: #ff0000; stroke-linejoin: miter"/>
    </g>
    <path d="M 297.560625 208.224375 
L 297.560625 215.026875 
L 298.99125 215.026875 
Q 300.8025 215.026875 301.6425 214.2075 
Q 302.4825 213.38625 302.4825 211.61625 
Q 302.4825 209.859375 301.6425 209.041875 
Q 300.8025 208.224375 298.99125 208.224375 
L 297.560625 208.224375 
z
M 296.3775 207.25125 
L 298.809375 207.25125 
Q 301.351875 207.25125 302.540625 208.30875 
Q 303.73125 209.36625 303.73125 211.61625 
Q 303.73125 213.879375 302.535 214.940625 
Q 301.340625 216 298.809375 216 
L 296.3775 216 
L 296.3775 207.25125 
z
M 309.373125 210.444375 
Q 309.19125 210.339375 308.9775 210.290625 
Q 308.76375 210.24 308.506875 210.24 
Q 307.591875 210.24 307.1025 210.834375 
Q 306.613125 211.42875 306.613125 212.5425 
L 306.613125 216 
L 305.529375 216 
L 305.529375 209.4375 
L 306.613125 209.4375 
L 306.613125 210.4575 
Q 306.954375 209.859375 307.498125 209.570625 
Q 308.04375 209.28 308.82375 209.28 
Q 308.934375 209.28 309.069375 209.295 
Q 309.204375 209.308125 309.3675 209.338125 
L 309.373125 210.444375 
z
M 312.781875 210.193125 
Q 311.915625 210.193125 311.41125 210.87 
Q 310.906875 211.546875 310.906875 212.724375 
Q 310.906875 213.901875 311.4075 214.57875 
Q 311.91 215.255625 312.781875 215.255625 
Q 313.644375 215.255625 314.146875 214.576875 
Q 314.65125 213.89625 314.65125 212.724375 
Q 314.65125 211.558125 314.146875 210.875625 
Q 313.644375 210.193125 312.781875 210.193125 
z
M 312.781875 209.28 
Q 314.188125 209.28 314.990625 210.195 
Q 315.795 211.108125 315.795 212.724375 
Q 315.795 214.335 314.990625 215.25375 
Q 314.188125 216.170625 312.781875 216.170625 
Q 311.37 216.170625 310.569375 215.25375 
Q 309.770625 214.335 309.770625 212.724375 
Q 309.770625 211.108125 310.569375 210.195 
Q 311.37 209.28 312.781875 209.28 
z
M 318.624375 215.015625 
L 318.624375 218.495625 
L 317.540625 218.495625 
L 317.540625 209.4375 
L 318.624375 209.4375 
L 318.624375 210.433125 
Q 318.965625 209.848125 319.483125 209.565 
Q 320.0025 209.28 320.7225 209.28 
Q 321.91875 209.28 322.665 210.22875 
Q 323.413125 211.1775 323.413125 212.724375 
Q 323.413125 214.27125 322.665 215.221875 
Q 321.91875 216.170625 320.7225 216.170625 
Q 320.0025 216.170625 319.483125 215.885625 
Q 318.965625 215.600625 318.624375 215.015625 
z
M 322.29375 212.724375 
Q 322.29375 211.535625 321.804375 210.85875 
Q 321.315 210.181875 320.46 210.181875 
Q 319.603125 210.181875 319.11375 210.85875 
Q 318.624375 211.535625 318.624375 212.724375 
Q 318.624375 213.913125 319.11375 214.59 
Q 319.603125 215.266875 320.46 215.266875 
Q 321.315 215.266875 321.804375 214.59 
Q 322.29375 213.913125 322.29375 212.724375 
z
M 330.080625 207.57375 
L 330.080625 209.4375 
L 332.300625 209.4375 
L 332.300625 210.275625 
L 330.080625 210.275625 
L 330.080625 213.838125 
Q 330.080625 214.640625 330.3 214.869375 
Q 330.519375 215.098125 331.194375 215.098125 
L 332.300625 215.098125 
L 332.300625 216 
L 331.194375 216 
Q 329.945625 216 329.47125 215.535 
Q 328.996875 215.068125 328.996875 213.838125 
L 328.996875 210.275625 
L 328.205625 210.275625 
L 328.205625 209.4375 
L 328.996875 209.4375 
L 328.996875 207.57375 
L 330.080625 207.57375 
z
M 339.331875 212.44875 
L 339.331875 212.975625 
L 334.374375 212.975625 
Q 334.445625 214.089375 335.045625 214.6725 
Q 335.645625 215.255625 336.718125 215.255625 
Q 337.33875 215.255625 337.921875 215.10375 
Q 338.505 214.951875 339.080625 214.64625 
L 339.080625 215.66625 
Q 338.499375 215.911875 337.89 216.04125 
Q 337.280625 216.170625 336.654375 216.170625 
Q 335.083125 216.170625 334.16625 215.2575 
Q 333.249375 214.3425 333.249375 212.7825 
Q 333.249375 211.171875 334.119375 210.226875 
Q 334.989375 209.28 336.466875 209.28 
Q 337.790625 209.28 338.56125 210.133125 
Q 339.331875 210.984375 339.331875 212.44875 
z
M 338.25375 212.131875 
Q 338.2425 211.24875 337.75875 210.721875 
Q 337.275 210.193125 336.478125 210.193125 
Q 335.57625 210.193125 335.034375 210.703125 
Q 334.4925 211.213125 334.41 212.139375 
L 338.25375 212.131875 
z
M 345.285 209.630625 
L 345.285 210.650625 
Q 344.829375 210.41625 344.33625 210.3 
Q 343.845 210.181875 343.31625 210.181875 
Q 342.51375 210.181875 342.1125 210.4275 
Q 341.71125 210.673125 341.71125 211.16625 
Q 341.71125 211.54125 341.998125 211.755 
Q 342.285 211.96875 343.153125 212.161875 
L 343.5225 212.244375 
Q 344.67 212.49 345.15375 212.938125 
Q 345.6375 213.38625 345.6375 214.18875 
Q 345.6375 215.10375 344.91375 215.638125 
Q 344.19 216.170625 342.924375 216.170625 
Q 342.3975 216.170625 341.825625 216.0675 
Q 341.25375 215.964375 340.621875 215.76 
L 340.621875 214.64625 
Q 341.22 214.9575 341.799375 215.113125 
Q 342.37875 215.266875 342.94875 215.266875 
Q 343.71 215.266875 344.11875 215.00625 
Q 344.529375 214.745625 344.529375 214.27125 
Q 344.529375 213.8325 344.233125 213.598125 
Q 343.93875 213.36375 342.935625 213.14625 
L 342.560625 213.058125 
Q 341.559375 212.848125 341.113125 212.41125 
Q 340.66875 211.974375 340.66875 211.213125 
Q 340.66875 210.286875 341.325 209.784375 
Q 341.98125 209.28 343.18875 209.28 
Q 343.785 209.28 344.311875 209.368125 
Q 344.840625 209.454375 345.285 209.630625 
z
M 348.42 207.57375 
L 348.42 209.4375 
L 350.64 209.4375 
L 350.64 210.275625 
L 348.42 210.275625 
L 348.42 213.838125 
Q 348.42 214.640625 348.639375 214.869375 
Q 348.85875 215.098125 349.53375 215.098125 
L 350.64 215.098125 
L 350.64 216 
L 349.53375 216 
Q 348.285 216 347.810625 215.535 
Q 347.33625 215.068125 347.33625 213.838125 
L 347.33625 210.275625 
L 346.545 210.275625 
L 346.545 209.4375 
L 347.33625 209.4375 
L 347.33625 207.57375 
L 348.42 207.57375 
z
" style="fill: #ffffff; stroke: #000000; stroke-width: 3.75"/>
    <path d="M 303.560625 211.224375 
L 303.560625 218.026875 
L 304.99125 218.026875 
Q 306.8025 218.026875 307.6425 217.2075 
Q 308.4825 216.38625 308.4825 214.61625 
Q 308.4825 212.859375 307.6425 212.041875 
Q 306.8025 211.224375 304.99125 211.224375 
L 303.560625 211.224375 
z
M 302.3775 210.25125 
L 304.809375 210.25125 
Q 307.351875 210.25125 308.540625 211.30875 
Q 309.73125 212.36625 309.73125 214.61625 
Q 309.73125 216.879375 308.535 217.940625 
Q 307.340625 219 304.809375 219 
L 302.3775 219 
L 302.3775 210.25125 
z
M 315.373125 213.444375 
Q 315.19125 213.339375 314.9775 213.290625 
Q 314.76375 213.24 314.506875 213.24 
Q 313.591875 213.24 313.1025 213.834375 
Q 312.613125 214.42875 312.613125 215.5425 
L 312.613125 219 
L 311.529375 219 
L 311.529375 212.4375 
L 312.613125 212.4375 
L 312.613125 213.4575 
Q 312.954375 212.859375 313.498125 212.570625 
Q 314.04375 212.28 314.82375 212.28 
Q 314.934375 212.28 315.069375 212.295 
Q 315.204375 212.308125 315.3675 212.338125 
L 315.373125 213.444375 
z
M 318.781875 213.193125 
Q 317.915625 213.193125 317.41125 213.87 
Q 316.906875 214.546875 316.906875 215.724375 
Q 316.906875 216.901875 317.4075 217.57875 
Q 317.91 218.255625 318.781875 218.255625 
Q 319.644375 218.255625 320.146875 217.576875 
Q 320.65125 216.89625 320.65125 215.724375 
Q 320.65125 214.558125 320.146875 213.875625 
Q 319.644375 213.193125 318.781875 213.193125 
z
M 318.781875 212.28 
Q 320.188125 212.28 320.990625 213.195 
Q 321.795 214.108125 321.795 215.724375 
Q 321.795 217.335 320.990625 218.25375 
Q 320.188125 219.170625 318.781875 219.170625 
Q 317.37 219.170625 316.569375 218.25375 
Q 315.770625 217.335 315.770625 215.724375 
Q 315.770625 214.108125 316.569375 213.195 
Q 317.37 212.28 318.781875 212.28 
z
M 324.624375 218.015625 
L 324.624375 221.495625 
L 323.540625 221.495625 
L 323.540625 212.4375 
L 324.624375 212.4375 
L 324.624375 213.433125 
Q 324.965625 212.848125 325.483125 212.565 
Q 326.0025 212.28 326.7225 212.28 
Q 327.91875 212.28 328.665 213.22875 
Q 329.413125 214.1775 329.413125 215.724375 
Q 329.413125 217.27125 328.665 218.221875 
Q 327.91875 219.170625 326.7225 219.170625 
Q 326.0025 219.170625 325.483125 218.885625 
Q 324.965625 218.600625 324.624375 218.015625 
z
M 328.29375 215.724375 
Q 328.29375 214.535625 327.804375 213.85875 
Q 327.315 213.181875 326.46 213.181875 
Q 325.603125 213.181875 325.11375 213.85875 
Q 324.624375 214.535625 324.624375 215.724375 
Q 324.624375 216.913125 325.11375 217.59 
Q 325.603125 218.266875 326.46 218.266875 
Q 327.315 218.266875 327.804375 217.59 
Q 328.29375 216.913125 328.29375 215.724375 
z
M 336.080625 210.57375 
L 336.080625 212.4375 
L 338.300625 212.4375 
L 338.300625 213.275625 
L 336.080625 213.275625 
L 336.080625 216.838125 
Q 336.080625 217.640625 336.3 217.869375 
Q 336.519375 218.098125 337.194375 218.098125 
L 338.300625 218.098125 
L 338.300625 219 
L 337.194375 219 
Q 335.945625 219 335.47125 218.535 
Q 334.996875 218.068125 334.996875 216.838125 
L 334.996875 213.275625 
L 334.205625 213.275625 
L 334.205625 212.4375 
L 334.996875 212.4375 
L 334.996875 210.57375 
L 336.080625 210.57375 
z
M 345.331875 215.44875 
L 345.331875 215.975625 
L 340.374375 215.975625 
Q 340.445625 217.089375 341.045625 217.6725 
Q 341.645625 218.255625 342.718125 218.255625 
Q 343.33875 218.255625 343.921875 218.10375 
Q 344.505 217.951875 345.080625 217.64625 
L 345.080625 218.66625 
Q 344.499375 218.911875 343.89 219.04125 
Q 343.280625 219.170625 342.654375 219.170625 
Q 341.083125 219.170625 340.16625 218.2575 
Q 339.249375 217.3425 339.249375 215.7825 
Q 339.249375 214.171875 340.119375 213.226875 
Q 340.989375 212.28 342.466875 212.28 
Q 343.790625 212.28 344.56125 213.133125 
Q 345.331875 213.984375 345.331875 215.44875 
z
M 344.25375 215.131875 
Q 344.2425 214.24875 343.75875 213.721875 
Q 343.275 213.193125 342.478125 213.193125 
Q 341.57625 213.193125 341.034375 213.703125 
Q 340.4925 214.213125 340.41 215.139375 
L 344.25375 215.131875 
z
M 351.285 212.630625 
L 351.285 213.650625 
Q 350.829375 213.41625 350.33625 213.3 
Q 349.845 213.181875 349.31625 213.181875 
Q 348.51375 213.181875 348.1125 213.4275 
Q 347.71125 213.673125 347.71125 214.16625 
Q 347.71125 214.54125 347.998125 214.755 
Q 348.285 214.96875 349.153125 215.161875 
L 349.5225 215.244375 
Q 350.67 215.49 351.15375 215.938125 
Q 351.6375 216.38625 351.6375 217.18875 
Q 351.6375 218.10375 350.91375 218.638125 
Q 350.19 219.170625 348.924375 219.170625 
Q 348.3975 219.170625 347.825625 219.0675 
Q 347.25375 218.964375 346.621875 218.76 
L 346.621875 217.64625 
Q 347.22 217.9575 347.799375 218.113125 
Q 348.37875 218.266875 348.94875 218.266875 
Q 349.71 218.266875 350.11875 218.00625 
Q 350.529375 217.745625 350.529375 217.27125 
Q 350.529375 216.8325 350.233125 216.598125 
Q 349.93875 216.36375 348.935625 216.14625 
L 348.560625 216.058125 
Q 347.559375 215.848125 347.113125 215.41125 
Q 346.66875 214.974375 346.66875 214.213125 
Q 346.66875 213.286875 347.325 212.784375 
Q 347.98125 212.28 349.18875 212.28 
Q 349.785 212.28 350.311875 212.368125 
Q 350.840625 212.454375 351.285 212.630625 
z
M 354.42 210.57375 
L 354.42 212.4375 
L 356.64 212.4375 
L 356.64 213.275625 
L 354.42 213.275625 
L 354.42 216.838125 
Q 354.42 217.640625 354.639375 217.869375 
Q 354.85875 218.098125 355.53375 218.098125 
L 356.64 218.098125 
L 356.64 219 
L 355.53375 219 
Q 354.285 219 353.810625 218.535 
Q 353.33625 218.068125 353.33625 216.838125 
L 353.33625 213.275625 
L 352.545 213.275625 
L 352.545 212.4375 
L 353.33625 212.4375 
L 353.33625 210.57375 
L 354.42 210.57375 
z
" style="fill: #0000ff; opacity: 0.3"/>
    <path d="M 297.560625 208.224375 
L 297.560625 215.026875 
L 298.99125 215.026875 
Q 300.8025 215.026875 301.6425 214.2075 
Q 302.4825 213.38625 302.4825 211.61625 
Q 302.4825 209.859375 301.6425 209.041875 
Q 300.8025 208.224375 298.99125 208.224375 
L 297.560625 208.224375 
z
M 296.3775 207.25125 
L 298.809375 207.25125 
Q 301.351875 207.25125 302.540625 208.30875 
Q 303.73125 209.36625 303.73125 211.61625 
Q 303.73125 213.879375 302.535 214.940625 
Q 301.340625 216 298.809375 216 
L 296.3775 216 
L 296.3775 207.25125 
z
M 309.373125 210.444375 
Q 309.19125 210.339375 308.9775 210.290625 
Q 308.76375 210.24 308.506875 210.24 
Q 307.591875 210.24 307.1025 210.834375 
Q 306.613125 211.42875 306.613125 212.5425 
L 306.613125 216 
L 305.529375 216 
L 305.529375 209.4375 
L 306.613125 209.4375 
L 306.613125 210.4575 
Q 306.954375 209.859375 307.498125 209.570625 
Q 308.04375 209.28 308.82375 209.28 
Q 308.934375 209.28 309.069375 209.295 
Q 309.204375 209.308125 309.3675 209.338125 
L 309.373125 210.444375 
z
M 312.781875 210.193125 
Q 311.915625 210.193125 311.41125 210.87 
Q 310.906875 211.546875 310.906875 212.724375 
Q 310.906875 213.901875 311.4075 214.57875 
Q 311.91 215.255625 312.781875 215.255625 
Q 313.644375 215.255625 314.146875 214.576875 
Q 314.65125 213.89625 314.65125 212.724375 
Q 314.65125 211.558125 314.146875 210.875625 
Q 313.644375 210.193125 312.781875 210.193125 
z
M 312.781875 209.28 
Q 314.188125 209.28 314.990625 210.195 
Q 315.795 211.108125 315.795 212.724375 
Q 315.795 214.335 314.990625 215.25375 
Q 314.188125 216.170625 312.781875 216.170625 
Q 311.37 216.170625 310.569375 215.25375 
Q 309.770625 214.335 309.770625 212.724375 
Q 309.770625 211.108125 310.569375 210.195 
Q 311.37 209.28 312.781875 209.28 
z
M 318.624375 215.015625 
L 318.624375 218.495625 
L 317.540625 218.495625 
L 317.540625 209.4375 
L 318.624375 209.4375 
L 318.624375 210.433125 
Q 318.965625 209.848125 319.483125 209.565 
Q 320.0025 209.28 320.7225 209.28 
Q 321.91875 209.28 322.665 210.22875 
Q 323.413125 211.1775 323.413125 212.724375 
Q 323.413125 214.27125 322.665 215.221875 
Q 321.91875 216.170625 320.7225 216.170625 
Q 320.0025 216.170625 319.483125 215.885625 
Q 318.965625 215.600625 318.624375 215.015625 
z
M 322.29375 212.724375 
Q 322.29375 211.535625 321.804375 210.85875 
Q 321.315 210.181875 320.46 210.181875 
Q 319.603125 210.181875 319.11375 210.85875 
Q 318.624375 211.535625 318.624375 212.724375 
Q 318.624375 213.913125 319.11375 214.59 
Q 319.603125 215.266875 320.46 215.266875 
Q 321.315 215.266875 321.804375 214.59 
Q 322.29375 213.913125 322.29375 212.724375 
z
M 330.080625 207.57375 
L 330.080625 209.4375 
L 332.300625 209.4375 
L 332.300625 210.275625 
L 330.080625 210.275625 
L 330.080625 213.838125 
Q 330.080625 214.640625 330.3 214.869375 
Q 330.519375 215.098125 331.194375 215.098125 
L 332.300625 215.098125 
L 332.300625 216 
L 331.194375 216 
Q 329.945625 216 329.47125 215.535 
Q 328.996875 215.068125 328.996875 213.838125 
L 328.996875 210.275625 
L 328.205625 210.275625 
L 328.205625 209.4375 
L 328.996875 209.4375 
L 328.996875 207.57375 
L 330.080625 207.57375 
z
M 339.331875 212.44875 
L 339.331875 212.975625 
L 334.374375 212.975625 
Q 334.445625 214.089375 335.045625 214.6725 
Q 335.645625 215.255625 336.718125 215.255625 
Q 337.33875 215.255625 337.921875 215.10375 
Q 338.505 214.951875 339.080625 214.64625 
L 339.080625 215.66625 
Q 338.499375 215.911875 337.89 216.04125 
Q 337.280625 216.170625 336.654375 216.170625 
Q 335.083125 216.170625 334.16625 215.2575 
Q 333.249375 214.3425 333.249375 212.7825 
Q 333.249375 211.171875 334.119375 210.226875 
Q 334.989375 209.28 336.466875 209.28 
Q 337.790625 209.28 338.56125 210.133125 
Q 339.331875 210.984375 339.331875 212.44875 
z
M 338.25375 212.131875 
Q 338.2425 211.24875 337.75875 210.721875 
Q 337.275 210.193125 336.478125 210.193125 
Q 335.57625 210.193125 335.034375 210.703125 
Q 334.4925 211.213125 334.41 212.139375 
L 338.25375 212.131875 
z
M 345.285 209.630625 
L 345.285 210.650625 
Q 344.829375 210.41625 344.33625 210.3 
Q 343.845 210.181875 343.31625 210.181875 
Q 342.51375 210.181875 342.1125 210.4275 
Q 341.71125 210.673125 341.71125 211.16625 
Q 341.71125 211.54125 341.998125 211.755 
Q 342.285 211.96875 343.153125 212.161875 
L 343.5225 212.244375 
Q 344.67 212.49 345.15375 212.938125 
Q 345.6375 213.38625 345.6375 214.18875 
Q 345.6375 215.10375 344.91375 215.638125 
Q 344.19 216.170625 342.924375 216.170625 
Q 342.3975 216.170625 341.825625 216.0675 
Q 341.25375 215.964375 340.621875 215.76 
L 340.621875 214.64625 
Q 341.22 214.9575 341.799375 215.113125 
Q 342.37875 215.266875 342.94875 215.266875 
Q 343.71 215.266875 344.11875 215.00625 
Q 344.529375 214.745625 344.529375 214.27125 
Q 344.529375 213.8325 344.233125 213.598125 
Q 343.93875 213.36375 342.935625 213.14625 
L 342.560625 213.058125 
Q 341.559375 212.848125 341.113125 212.41125 
Q 340.66875 211.974375 340.66875 211.213125 
Q 340.66875 210.286875 341.325 209.784375 
Q 341.98125 209.28 343.18875 209.28 
Q 343.785 209.28 344.311875 209.368125 
Q 344.840625 209.454375 345.285 209.630625 
z
M 348.42 207.57375 
L 348.42 209.4375 
L 350.64 209.4375 
L 350.64 210.275625 
L 348.42 210.275625 
L 348.42 213.838125 
Q 348.42 214.640625 348.639375 214.869375 
Q 348.85875 215.098125 349.53375 215.098125 
L 350.64 215.098125 
L 350.64 216 
L 349.53375 216 
Q 348.285 216 347.810625 215.535 
Q 347.33625 215.068125 347.33625 213.838125 
L 347.33625 210.275625 
L 346.545 210.275625 
L 346.545 209.4375 
L 347.33625 209.4375 
L 347.33625 207.57375 
L 348.42 207.57375 
z
" style="fill: #ffffff"/>
   </g>
   <g id="text_20">
    <path d="M 264.573 28.067105 
L 264.573 30.303605 
L 267.237 30.303605 
L 267.237 31.309355 
L 264.573 31.309355 
L 264.573 35.584355 
Q 264.573 36.547355 264.83625 36.821855 
Q 265.0995 37.096355 265.9095 37.096355 
L 267.237 37.096355 
L 267.237 38.178605 
L 265.9095 38.178605 
Q 264.411 38.178605 263.84175 37.620605 
Q 263.2725 37.060355 263.2725 35.584355 
L 263.2725 31.309355 
L 262.323 31.309355 
L 262.323 30.303605 
L 263.2725 30.303605 
L 263.2725 28.067105 
L 264.573 28.067105 
z
M 275.675344 33.917105 
L 275.675344 34.549355 
L 269.726344 34.549355 
Q 269.811844 35.885855 270.531844 36.585605 
Q 271.251844 37.285355 272.538844 37.285355 
Q 273.283594 37.285355 273.983344 37.103105 
Q 274.683094 36.920855 275.373844 36.554105 
L 275.373844 37.778105 
Q 274.676344 38.072855 273.945094 38.228105 
Q 273.213844 38.383355 272.462344 38.383355 
Q 270.576844 38.383355 269.476594 37.287605 
Q 268.376344 36.189605 268.376344 34.317605 
Q 268.376344 32.384855 269.420344 31.250855 
Q 270.464344 30.114605 272.237344 30.114605 
Q 273.825844 30.114605 274.750594 31.138355 
Q 275.675344 32.159855 275.675344 33.917105 
z
M 274.381594 33.536855 
Q 274.368094 32.477105 273.787594 31.844855 
Q 273.207094 31.210355 272.250844 31.210355 
Q 271.168594 31.210355 270.518344 31.822355 
Q 269.868094 32.434355 269.769094 33.545855 
L 274.381594 33.536855 
z
M 282.817969 30.535355 
L 282.817969 31.759355 
Q 282.271219 31.478105 281.679469 31.338605 
Q 281.089969 31.196855 280.455469 31.196855 
Q 279.492469 31.196855 279.010969 31.491605 
Q 278.529469 31.786355 278.529469 32.378105 
Q 278.529469 32.828105 278.873719 33.084605 
Q 279.217969 33.341105 280.259719 33.572855 
L 280.702969 33.671855 
Q 282.079969 33.966605 282.660469 34.504355 
Q 283.240969 35.042105 283.240969 36.005105 
Q 283.240969 37.103105 282.372469 37.744355 
Q 281.503969 38.383355 279.985219 38.383355 
Q 279.352969 38.383355 278.666719 38.259605 
Q 277.980469 38.135855 277.222219 37.890605 
L 277.222219 36.554105 
Q 277.939969 36.927605 278.635219 37.114355 
Q 279.330469 37.298855 280.014469 37.298855 
Q 280.927969 37.298855 281.418469 36.986105 
Q 281.911219 36.673355 281.911219 36.104105 
Q 281.911219 35.577605 281.555719 35.296355 
Q 281.202469 35.015105 279.998719 34.754105 
L 279.548719 34.648355 
Q 278.347219 34.396355 277.811719 33.872105 
Q 277.278469 33.347855 277.278469 32.434355 
Q 277.278469 31.322855 278.065969 30.719855 
Q 278.853469 30.114605 280.302469 30.114605 
Q 281.017969 30.114605 281.650219 30.220355 
Q 282.284719 30.323855 282.817969 30.535355 
z
M 286.580812 28.067105 
L 286.580812 30.303605 
L 289.244812 30.303605 
L 289.244812 31.309355 
L 286.580812 31.309355 
L 286.580812 35.584355 
Q 286.580812 36.547355 286.844062 36.821855 
Q 287.107312 37.096355 287.917312 37.096355 
L 289.244812 37.096355 
L 289.244812 38.178605 
L 287.917312 38.178605 
Q 286.418813 38.178605 285.849562 37.620605 
Q 285.280312 37.060355 285.280312 35.584355 
L 285.280312 31.309355 
L 284.330812 31.309355 
L 284.330812 30.303605 
L 285.280312 30.303605 
L 285.280312 28.067105 
L 286.580812 28.067105 
z
M 290.946656 30.303605 
L 292.240406 30.303605 
L 292.240406 38.178605 
L 290.946656 38.178605 
L 290.946656 30.303605 
z
M 290.946656 27.236855 
L 292.240406 27.236855 
L 292.240406 28.877105 
L 290.946656 28.877105 
L 290.946656 27.236855 
z
M 301.494937 33.424355 
L 301.494937 38.178605 
L 300.201187 38.178605 
L 300.201187 33.467105 
Q 300.201187 32.348855 299.764687 31.795355 
Q 299.328187 31.239605 298.457437 31.239605 
Q 297.408937 31.239605 296.803687 31.907855 
Q 296.198437 32.573855 296.198437 33.728105 
L 296.198437 38.178605 
L 294.897937 38.178605 
L 294.897937 30.303605 
L 296.198437 30.303605 
L 296.198437 31.527605 
Q 296.664187 30.816605 297.291937 30.465605 
Q 297.921937 30.114605 298.745437 30.114605 
Q 300.102187 30.114605 300.797438 30.953855 
Q 301.494937 31.793105 301.494937 33.424355 
z
M 309.25575 34.148855 
Q 309.25575 32.742605 308.67525 31.970855 
Q 308.097 31.196855 307.0485 31.196855 
Q 306.009 31.196855 305.4285 31.970855 
Q 304.848 32.742605 304.848 34.148855 
Q 304.848 35.548355 305.4285 36.322355 
Q 306.009 37.096355 307.0485 37.096355 
Q 308.097 37.096355 308.67525 36.322355 
Q 309.25575 35.548355 309.25575 34.148855 
z
M 310.5495 37.202105 
Q 310.5495 39.211355 309.65625 40.192355 
Q 308.76525 41.173355 306.9225 41.173355 
Q 306.24075 41.173355 305.6355 41.072105 
Q 305.03025 40.970855 304.461 40.759355 
L 304.461 39.501605 
Q 305.03025 39.809855 305.586 39.956105 
Q 306.14175 40.104605 306.71775 40.104605 
Q 307.99125 40.104605 308.6235 39.440855 
Q 309.25575 38.777105 309.25575 37.433855 
L 309.25575 36.792605 
Q 308.85525 37.490105 308.22975 37.834355 
Q 307.60425 38.178605 306.73125 38.178605 
Q 305.2845 38.178605 304.398 37.076105 
Q 303.5115 35.971355 303.5115 34.148855 
Q 303.5115 32.321855 304.398 31.219355 
Q 305.2845 30.114605 306.73125 30.114605 
Q 307.60425 30.114605 308.22975 30.458855 
Q 308.85525 30.803105 309.25575 31.498355 
L 309.25575 30.303605 
L 310.5495 30.303605 
L 310.5495 37.202105 
z
M 313.385203 33.106225 
L 313.385203 32.75185 
Q 314.645203 32.75185 314.645203 32.432125 
L 314.645203 27.140125 
Q 314.123878 27.392125 313.325353 27.392125 
L 313.325353 27.03775 
Q 314.561728 27.03775 315.191728 26.392 
L 315.333478 26.392 
Q 315.368128 26.392 315.399628 26.42035 
Q 315.432703 26.447125 315.432703 26.481775 
L 315.432703 32.432125 
Q 315.432703 32.75185 316.692703 32.75185 
L 316.692703 33.106225 
L 313.385203 33.106225 
z
M 317.992078 33.106225 
L 317.992078 32.835325 
Q 317.992078 32.810125 318.010978 32.781775 
L 319.576528 31.049275 
Q 319.930903 30.664975 320.151403 30.4051 
Q 320.373478 30.14365 320.589253 29.80345 
Q 320.806603 29.46325 320.932603 29.112025 
Q 321.058603 28.7608 321.058603 28.36705 
Q 321.058603 27.952825 320.905828 27.5764 
Q 320.753053 27.199975 320.450653 26.973175 
Q 320.148253 26.746375 319.719853 26.746375 
Q 319.282003 26.746375 318.932353 27.010975 
Q 318.582703 27.274 318.439378 27.691375 
Q 318.478753 27.681925 318.548053 27.681925 
Q 318.774853 27.681925 318.933928 27.8347 
Q 319.094578 27.987475 319.094578 28.22845 
Q 319.094578 28.459975 318.933928 28.620625 
Q 318.774853 28.7797 318.548053 28.7797 
Q 318.311803 28.7797 318.151153 28.6159 
Q 317.992078 28.450525 317.992078 28.22845 
Q 317.992078 27.848875 318.133828 27.518125 
Q 318.277153 27.1858 318.544903 26.9275 
Q 318.814228 26.667625 319.151278 26.5306 
Q 319.488328 26.392 319.866328 26.392 
Q 320.442778 26.392 320.938903 26.636125 
Q 321.436603 26.88025 321.726403 27.325975 
Q 322.017778 27.770125 322.017778 28.36705 
Q 322.017778 28.8049 321.825628 29.19865 
Q 321.633478 29.5924 321.332653 29.915275 
Q 321.033403 30.236575 320.565628 30.646075 
Q 320.097853 31.054 319.951378 31.191025 
L 318.809503 32.2888 
L 319.778128 32.2888 
Q 320.491603 32.2888 320.971978 32.277775 
Q 321.452353 32.265175 321.480703 32.239975 
Q 321.598828 32.1124 321.723253 31.30915 
L 322.017778 31.30915 
L 321.732703 33.106225 
L 317.992078 33.106225 
z
M 323.488828 32.328175 
Q 323.725078 32.6731 324.123553 32.84005 
Q 324.523603 33.007 324.980353 33.007 
Q 325.566253 33.007 325.811953 32.507725 
Q 326.059228 32.00845 326.059228 31.373725 
Q 326.059228 31.08865 326.007253 30.803575 
Q 325.955278 30.516925 325.832428 30.271225 
Q 325.709578 30.025525 325.495378 29.877475 
Q 325.281178 29.729425 324.970903 29.729425 
L 324.301528 29.729425 
Q 324.213328 29.729425 324.213328 29.6365 
L 324.213328 29.5483 
Q 324.213328 29.46955 324.301528 29.46955 
L 324.857503 29.423875 
Q 325.211878 29.423875 325.444978 29.159275 
Q 325.679653 28.8931 325.788328 28.51195 
Q 325.897003 28.1308 325.897003 27.785875 
Q 325.897003 27.303925 325.670203 26.99365 
Q 325.443403 26.683375 324.980353 26.683375 
Q 324.597628 26.683375 324.247978 26.828275 
Q 323.898328 26.973175 323.692003 27.269275 
Q 323.710903 27.26455 323.725078 27.2614 
Q 323.740828 27.25825 323.759728 27.25825 
Q 323.986528 27.25825 324.139303 27.41575 
Q 324.292078 27.57325 324.292078 27.795325 
Q 324.292078 28.012675 324.139303 28.170175 
Q 323.986528 28.327675 323.759728 28.327675 
Q 323.539228 28.327675 323.381728 28.170175 
Q 323.224228 28.012675 323.224228 27.795325 
Q 323.224228 27.3622 323.484103 27.042475 
Q 323.745553 26.72275 324.156628 26.557375 
Q 324.567703 26.392 324.980353 26.392 
Q 325.285903 26.392 325.624528 26.48335 
Q 325.964728 26.5747 326.240353 26.7448 
Q 326.515978 26.9149 326.690803 27.181075 
Q 326.865628 27.445675 326.865628 27.785875 
Q 326.865628 28.20955 326.676628 28.56865 
Q 326.487628 28.92775 326.156878 29.1892 
Q 325.827703 29.449075 325.433953 29.57665 
Q 325.871803 29.660125 326.265553 29.9074 
Q 326.659303 30.1531 326.897128 30.5374 
Q 327.136528 30.920125 327.136528 31.364275 
Q 327.136528 31.92025 326.830978 32.3707 
Q 326.527003 32.82115 326.029303 33.074725 
Q 325.531603 33.3283 324.980353 33.3283 
Q 324.507853 33.3283 324.032203 33.147175 
Q 323.558128 32.967625 323.255728 32.608525 
Q 322.953328 32.249425 322.953328 31.747 
Q 322.953328 31.496575 323.120278 31.329625 
Q 323.287228 31.162675 323.539228 31.162675 
Q 323.701453 31.162675 323.836903 31.238275 
Q 323.972353 31.313875 324.047953 31.452475 
Q 324.125128 31.5895 324.125128 31.747 
Q 324.125128 31.994275 323.951878 32.161225 
Q 323.780203 32.328175 323.539228 32.328175 
L 323.488828 32.328175 
z
" style="stroke: #ff0000"/>
    <path d="M 264.573 28.067105 
L 264.573 30.303605 
L 267.237 30.303605 
L 267.237 31.309355 
L 264.573 31.309355 
L 264.573 35.584355 
Q 264.573 36.547355 264.83625 36.821855 
Q 265.0995 37.096355 265.9095 37.096355 
L 267.237 37.096355 
L 267.237 38.178605 
L 265.9095 38.178605 
Q 264.411 38.178605 263.84175 37.620605 
Q 263.2725 37.060355 263.2725 35.584355 
L 263.2725 31.309355 
L 262.323 31.309355 
L 262.323 30.303605 
L 263.2725 30.303605 
L 263.2725 28.067105 
L 264.573 28.067105 
z
M 275.675344 33.917105 
L 275.675344 34.549355 
L 269.726344 34.549355 
Q 269.811844 35.885855 270.531844 36.585605 
Q 271.251844 37.285355 272.538844 37.285355 
Q 273.283594 37.285355 273.983344 37.103105 
Q 274.683094 36.920855 275.373844 36.554105 
L 275.373844 37.778105 
Q 274.676344 38.072855 273.945094 38.228105 
Q 273.213844 38.383355 272.462344 38.383355 
Q 270.576844 38.383355 269.476594 37.287605 
Q 268.376344 36.189605 268.376344 34.317605 
Q 268.376344 32.384855 269.420344 31.250855 
Q 270.464344 30.114605 272.237344 30.114605 
Q 273.825844 30.114605 274.750594 31.138355 
Q 275.675344 32.159855 275.675344 33.917105 
z
M 274.381594 33.536855 
Q 274.368094 32.477105 273.787594 31.844855 
Q 273.207094 31.210355 272.250844 31.210355 
Q 271.168594 31.210355 270.518344 31.822355 
Q 269.868094 32.434355 269.769094 33.545855 
L 274.381594 33.536855 
z
M 282.817969 30.535355 
L 282.817969 31.759355 
Q 282.271219 31.478105 281.679469 31.338605 
Q 281.089969 31.196855 280.455469 31.196855 
Q 279.492469 31.196855 279.010969 31.491605 
Q 278.529469 31.786355 278.529469 32.378105 
Q 278.529469 32.828105 278.873719 33.084605 
Q 279.217969 33.341105 280.259719 33.572855 
L 280.702969 33.671855 
Q 282.079969 33.966605 282.660469 34.504355 
Q 283.240969 35.042105 283.240969 36.005105 
Q 283.240969 37.103105 282.372469 37.744355 
Q 281.503969 38.383355 279.985219 38.383355 
Q 279.352969 38.383355 278.666719 38.259605 
Q 277.980469 38.135855 277.222219 37.890605 
L 277.222219 36.554105 
Q 277.939969 36.927605 278.635219 37.114355 
Q 279.330469 37.298855 280.014469 37.298855 
Q 280.927969 37.298855 281.418469 36.986105 
Q 281.911219 36.673355 281.911219 36.104105 
Q 281.911219 35.577605 281.555719 35.296355 
Q 281.202469 35.015105 279.998719 34.754105 
L 279.548719 34.648355 
Q 278.347219 34.396355 277.811719 33.872105 
Q 277.278469 33.347855 277.278469 32.434355 
Q 277.278469 31.322855 278.065969 30.719855 
Q 278.853469 30.114605 280.302469 30.114605 
Q 281.017969 30.114605 281.650219 30.220355 
Q 282.284719 30.323855 282.817969 30.535355 
z
M 286.580812 28.067105 
L 286.580812 30.303605 
L 289.244812 30.303605 
L 289.244812 31.309355 
L 286.580812 31.309355 
L 286.580812 35.584355 
Q 286.580812 36.547355 286.844062 36.821855 
Q 287.107312 37.096355 287.917312 37.096355 
L 289.244812 37.096355 
L 289.244812 38.178605 
L 287.917312 38.178605 
Q 286.418813 38.178605 285.849562 37.620605 
Q 285.280312 37.060355 285.280312 35.584355 
L 285.280312 31.309355 
L 284.330812 31.309355 
L 284.330812 30.303605 
L 285.280312 30.303605 
L 285.280312 28.067105 
L 286.580812 28.067105 
z
M 290.946656 30.303605 
L 292.240406 30.303605 
L 292.240406 38.178605 
L 290.946656 38.178605 
L 290.946656 30.303605 
z
M 290.946656 27.236855 
L 292.240406 27.236855 
L 292.240406 28.877105 
L 290.946656 28.877105 
L 290.946656 27.236855 
z
M 301.494937 33.424355 
L 301.494937 38.178605 
L 300.201187 38.178605 
L 300.201187 33.467105 
Q 300.201187 32.348855 299.764687 31.795355 
Q 299.328187 31.239605 298.457437 31.239605 
Q 297.408937 31.239605 296.803687 31.907855 
Q 296.198437 32.573855 296.198437 33.728105 
L 296.198437 38.178605 
L 294.897937 38.178605 
L 294.897937 30.303605 
L 296.198437 30.303605 
L 296.198437 31.527605 
Q 296.664187 30.816605 297.291937 30.465605 
Q 297.921937 30.114605 298.745437 30.114605 
Q 300.102187 30.114605 300.797438 30.953855 
Q 301.494937 31.793105 301.494937 33.424355 
z
M 309.25575 34.148855 
Q 309.25575 32.742605 308.67525 31.970855 
Q 308.097 31.196855 307.0485 31.196855 
Q 306.009 31.196855 305.4285 31.970855 
Q 304.848 32.742605 304.848 34.148855 
Q 304.848 35.548355 305.4285 36.322355 
Q 306.009 37.096355 307.0485 37.096355 
Q 308.097 37.096355 308.67525 36.322355 
Q 309.25575 35.548355 309.25575 34.148855 
z
M 310.5495 37.202105 
Q 310.5495 39.211355 309.65625 40.192355 
Q 308.76525 41.173355 306.9225 41.173355 
Q 306.24075 41.173355 305.6355 41.072105 
Q 305.03025 40.970855 304.461 40.759355 
L 304.461 39.501605 
Q 305.03025 39.809855 305.586 39.956105 
Q 306.14175 40.104605 306.71775 40.104605 
Q 307.99125 40.104605 308.6235 39.440855 
Q 309.25575 38.777105 309.25575 37.433855 
L 309.25575 36.792605 
Q 308.85525 37.490105 308.22975 37.834355 
Q 307.60425 38.178605 306.73125 38.178605 
Q 305.2845 38.178605 304.398 37.076105 
Q 303.5115 35.971355 303.5115 34.148855 
Q 303.5115 32.321855 304.398 31.219355 
Q 305.2845 30.114605 306.73125 30.114605 
Q 307.60425 30.114605 308.22975 30.458855 
Q 308.85525 30.803105 309.25575 31.498355 
L 309.25575 30.303605 
L 310.5495 30.303605 
L 310.5495 37.202105 
z
M 313.385203 33.106225 
L 313.385203 32.75185 
Q 314.645203 32.75185 314.645203 32.432125 
L 314.645203 27.140125 
Q 314.123878 27.392125 313.325353 27.392125 
L 313.325353 27.03775 
Q 314.561728 27.03775 315.191728 26.392 
L 315.333478 26.392 
Q 315.368128 26.392 315.399628 26.42035 
Q 315.432703 26.447125 315.432703 26.481775 
L 315.432703 32.432125 
Q 315.432703 32.75185 316.692703 32.75185 
L 316.692703 33.106225 
L 313.385203 33.106225 
z
M 317.992078 33.106225 
L 317.992078 32.835325 
Q 317.992078 32.810125 318.010978 32.781775 
L 319.576528 31.049275 
Q 319.930903 30.664975 320.151403 30.4051 
Q 320.373478 30.14365 320.589253 29.80345 
Q 320.806603 29.46325 320.932603 29.112025 
Q 321.058603 28.7608 321.058603 28.36705 
Q 321.058603 27.952825 320.905828 27.5764 
Q 320.753053 27.199975 320.450653 26.973175 
Q 320.148253 26.746375 319.719853 26.746375 
Q 319.282003 26.746375 318.932353 27.010975 
Q 318.582703 27.274 318.439378 27.691375 
Q 318.478753 27.681925 318.548053 27.681925 
Q 318.774853 27.681925 318.933928 27.8347 
Q 319.094578 27.987475 319.094578 28.22845 
Q 319.094578 28.459975 318.933928 28.620625 
Q 318.774853 28.7797 318.548053 28.7797 
Q 318.311803 28.7797 318.151153 28.6159 
Q 317.992078 28.450525 317.992078 28.22845 
Q 317.992078 27.848875 318.133828 27.518125 
Q 318.277153 27.1858 318.544903 26.9275 
Q 318.814228 26.667625 319.151278 26.5306 
Q 319.488328 26.392 319.866328 26.392 
Q 320.442778 26.392 320.938903 26.636125 
Q 321.436603 26.88025 321.726403 27.325975 
Q 322.017778 27.770125 322.017778 28.36705 
Q 322.017778 28.8049 321.825628 29.19865 
Q 321.633478 29.5924 321.332653 29.915275 
Q 321.033403 30.236575 320.565628 30.646075 
Q 320.097853 31.054 319.951378 31.191025 
L 318.809503 32.2888 
L 319.778128 32.2888 
Q 320.491603 32.2888 320.971978 32.277775 
Q 321.452353 32.265175 321.480703 32.239975 
Q 321.598828 32.1124 321.723253 31.30915 
L 322.017778 31.30915 
L 321.732703 33.106225 
L 317.992078 33.106225 
z
M 323.488828 32.328175 
Q 323.725078 32.6731 324.123553 32.84005 
Q 324.523603 33.007 324.980353 33.007 
Q 325.566253 33.007 325.811953 32.507725 
Q 326.059228 32.00845 326.059228 31.373725 
Q 326.059228 31.08865 326.007253 30.803575 
Q 325.955278 30.516925 325.832428 30.271225 
Q 325.709578 30.025525 325.495378 29.877475 
Q 325.281178 29.729425 324.970903 29.729425 
L 324.301528 29.729425 
Q 324.213328 29.729425 324.213328 29.6365 
L 324.213328 29.5483 
Q 324.213328 29.46955 324.301528 29.46955 
L 324.857503 29.423875 
Q 325.211878 29.423875 325.444978 29.159275 
Q 325.679653 28.8931 325.788328 28.51195 
Q 325.897003 28.1308 325.897003 27.785875 
Q 325.897003 27.303925 325.670203 26.99365 
Q 325.443403 26.683375 324.980353 26.683375 
Q 324.597628 26.683375 324.247978 26.828275 
Q 323.898328 26.973175 323.692003 27.269275 
Q 323.710903 27.26455 323.725078 27.2614 
Q 323.740828 27.25825 323.759728 27.25825 
Q 323.986528 27.25825 324.139303 27.41575 
Q 324.292078 27.57325 324.292078 27.795325 
Q 324.292078 28.012675 324.139303 28.170175 
Q 323.986528 28.327675 323.759728 28.327675 
Q 323.539228 28.327675 323.381728 28.170175 
Q 323.224228 28.012675 323.224228 27.795325 
Q 323.224228 27.3622 323.484103 27.042475 
Q 323.745553 26.72275 324.156628 26.557375 
Q 324.567703 26.392 324.980353 26.392 
Q 325.285903 26.392 325.624528 26.48335 
Q 325.964728 26.5747 326.240353 26.7448 
Q 326.515978 26.9149 326.690803 27.181075 
Q 326.865628 27.445675 326.865628 27.785875 
Q 326.865628 28.20955 326.676628 28.56865 
Q 326.487628 28.92775 326.156878 29.1892 
Q 325.827703 29.449075 325.433953 29.57665 
Q 325.871803 29.660125 326.265553 29.9074 
Q 326.659303 30.1531 326.897128 30.5374 
Q 327.136528 30.920125 327.136528 31.364275 
Q 327.136528 31.92025 326.830978 32.3707 
Q 326.527003 32.82115 326.029303 33.074725 
Q 325.531603 33.3283 324.980353 33.3283 
Q 324.507853 33.3283 324.032203 33.147175 
Q 323.558128 32.967625 323.255728 32.608525 
Q 322.953328 32.249425 322.953328 31.747 
Q 322.953328 31.496575 323.120278 31.329625 
Q 323.287228 31.162675 323.539228 31.162675 
Q 323.701453 31.162675 323.836903 31.238275 
Q 323.972353 31.313875 324.047953 31.452475 
Q 324.125128 31.5895 324.125128 31.747 
Q 324.125128 31.994275 323.951878 32.161225 
Q 323.780203 32.328175 323.539228 32.328175 
L 323.488828 32.328175 
z
"/>
   </g>
   <g id="legend_1">
    <g id="patch_8">
     <path d="M 84.08 77.8565 
L 180.416 77.8565 
Q 183.296 77.8565 183.296 74.9765 
L 183.296 55.28 
Q 183.296 52.4 180.416 52.4 
L 84.08 52.4 
Q 81.2 52.4 81.2 55.28 
L 81.2 74.9765 
Q 81.2 77.8565 84.08 77.8565 
z
" style="fill: #4c4c4c; opacity: 0.3"/>
     <path d="M 82.08 75.8565 
L 178.416 75.8565 
Q 181.296 75.8565 181.296 72.9765 
L 181.296 53.28 
Q 181.296 50.4 178.416 50.4 
L 82.08 50.4 
Q 79.2 50.4 79.2 53.28 
L 79.2 72.9765 
Q 79.2 75.8565 82.08 75.8565 
z
" style="fill: #ffffff; stroke: #000000; stroke-linejoin: miter"/>
    </g>
    <g id="line2d_38">
     <path d="M 91.28 64.06175 
L 111.44 64.06175 
" style="fill: none; opacity: 0.3; stroke: #000000; stroke-width: 4; stroke-linecap: square"/>
     <path d="M 89.28 62.06175 
L 109.44 62.06175 
" style="fill: none; stroke: #0000ff; stroke-width: 4; stroke-linecap: square"/>
     <path d="M 91.28 67.06175 
C 92.075609 67.06175 92.83874 66.745651 93.40132 66.18307 
C 93.963901 65.62049 94.28 64.857359 94.28 64.06175 
C 94.28 63.266141 93.963901 62.50301 93.40132 61.94043 
C 92.83874 61.377849 92.075609 61.06175 91.28 61.06175 
C 90.484391 61.06175 89.72126 61.377849 89.15868 61.94043 
C 88.596099 62.50301 88.28 63.266141 88.28 64.06175 
C 88.28 64.857359 88.596099 65.62049 89.15868 66.18307 
C 89.72126 66.745651 90.484391 67.06175 91.28 67.06175 
L 91.28 67.06175 
z
" style="fill: none; opacity: 0.3; stroke: #000000; stroke-width: 0.5"/>
     <path d="M 111.44 67.06175 
C 112.235609 67.06175 112.99874 66.745651 113.56132 66.18307 
C 114.123901 65.62049 114.44 64.857359 114.44 64.06175 
C 114.44 63.266141 114.123901 62.50301 113.56132 61.94043 
C 112.99874 61.377849 112.235609 61.06175 111.44 61.06175 
C 110.644391 61.06175 109.88126 61.377849 109.31868 61.94043 
C 108.756099 62.50301 108.44 63.266141 108.44 64.06175 
C 108.44 64.857359 108.756099 65.62049 109.31868 66.18307 
C 109.88126 66.745651 110.644391 67.06175 111.44 67.06175 
L 111.44 67.06175 
z
" style="fill: none; opacity: 0.3; stroke: #000000; stroke-width: 0.5"/>
     <path d="M 89.28 65.06175 
C 90.075609 65.06175 90.83874 64.745651 91.40132 64.18307 
C 91.963901 63.62049 92.28 62.857359 92.28 62.06175 
C 92.28 61.266141 91.963901 60.50301 91.40132 59.94043 
C 90.83874 59.377849 90.075609 59.06175 89.28 59.06175 
C 88.484391 59.06175 87.72126 59.377849 87.15868 59.94043 
C 86.596099 60.50301 86.28 61.266141 86.28 62.06175 
C 86.28 62.857359 86.596099 63.62049 87.15868 64.18307 
C 87.72126 64.745651 88.484391 65.06175 89.28 65.06175 
z
" style="fill: #0000ff; stroke: #000000; stroke-width: 0.5"/>
     <path d="M 109.44 65.06175 
C 110.235609 65.06175 110.99874 64.745651 111.56132 64.18307 
C 112.123901 63.62049 112.44 62.857359 112.44 62.06175 
C 112.44 61.266141 112.123901 60.50301 111.56132 59.94043 
C 110.99874 59.377849 110.235609 59.06175 109.44 59.06175 
C 108.644391 59.06175 107.88126 59.377849 107.31868 59.94043 
C 106.756099 60.50301 106.44 61.266141 106.44 62.06175 
C 106.44 62.857359 106.756099 63.62049 107.31868 64.18307 
C 107.88126 64.745651 108.644391 65.06175 109.44 65.06175 
z
" style="fill: #0000ff; stroke: #000000; stroke-width: 0.5"/>
    </g>
    <g id="text_21">
     <!-- Line 1$^2$ -->
     <g transform="translate(125.28 67.10175) scale(0.144 -0.144)">
      <defs>
       <path id="DejaVuSans-2f" d="M 628 4666 
L 1259 4666 
L 1259 531 
L 3531 531 
L 3531 0 
L 628 0 
L 628 4666 
z
" transform="scale(0.015625)"/>
       <path id="DejaVuSans-4c" d="M 603 3500 
L 1178 3500 
L 1178 0 
L 603 0 
L 603 3500 
z
M 603 4863 
L 1178 4863 
L 1178 4134 
L 603 4134 
L 603 4863 
z
" transform="scale(0.015625)"/>
       <path id="DejaVuSans-51" d="M 3513 2113 
L 3513 0 
L 2938 0 
L 2938 2094 
Q 2938 2591 2744 2837 
Q 2550 3084 2163 3084 
Q 1697 3084 1428 2787 
Q 1159 2491 1159 1978 
L 1159 0 
L 581 0 
L 581 3500 
L 1159 3500 
L 1159 2956 
Q 1366 3272 1645 3428 
Q 1925 3584 2291 3584 
Q 2894 3584 3203 3211 
Q 3513 2838 3513 2113 
z
" transform="scale(0.015625)"/>
       <path id="DejaVuSans-48" d="M 3597 1894 
L 3597 1613 
L 953 1613 
Q 991 1019 1311 708 
Q 1631 397 2203 397 
Q 2534 397 2845 478 
Q 3156 559 3463 722 
L 3463 178 
Q 3153 47 2828 -22 
Q 2503 -91 2169 -91 
Q 1331 -91 842 396 
Q 353 884 353 1716 
Q 353 2575 817 3079 
Q 1281 3584 2069 3584 
Q 2775 3584 3186 3129 
Q 3597 2675 3597 1894 
z
M 3022 2063 
Q 3016 2534 2758 2815 
Q 2500 3097 2075 3097 
Q 1594 3097 1305 2825 
Q 1016 2553 972 2059 
L 3022 2063 
z
" transform="scale(0.015625)"/>
       <path id="DejaVuSans-3" transform="scale(0.015625)"/>
       <path id="Cmr10-31" d="M 319 0 
L 319 172 
Q 319 188 331 206 
L 1325 1306 
Q 1550 1550 1690 1715 
Q 1831 1881 1968 2097 
Q 2106 2313 2186 2536 
Q 2266 2759 2266 3009 
Q 2266 3272 2169 3511 
Q 2072 3750 1880 3894 
Q 1688 4038 1416 4038 
Q 1138 4038 916 3870 
Q 694 3703 603 3438 
Q 628 3444 672 3444 
Q 816 3444 917 3347 
Q 1019 3250 1019 3097 
Q 1019 2950 917 2848 
Q 816 2747 672 2747 
Q 522 2747 420 2851 
Q 319 2956 319 3097 
Q 319 3338 409 3548 
Q 500 3759 670 3923 
Q 841 4088 1055 4175 
Q 1269 4263 1509 4263 
Q 1875 4263 2190 4108 
Q 2506 3953 2690 3670 
Q 2875 3388 2875 3009 
Q 2875 2731 2753 2481 
Q 2631 2231 2440 2026 
Q 2250 1822 1953 1562 
Q 1656 1303 1563 1216 
L 838 519 
L 1453 519 
Q 1906 519 2211 526 
Q 2516 534 2534 550 
Q 2609 631 2688 1141 
L 2875 1141 
L 2694 0 
L 319 0 
z
" transform="scale(0.015625)"/>
      </defs>
      <use xlink:href="#DejaVuSans-2f" transform="translate(0 0.148578)"/>
      <use xlink:href="#DejaVuSans-4c" transform="translate(55.712891 0.148578)"/>
      <use xlink:href="#DejaVuSans-51" transform="translate(83.496094 0.148578)"/>
      <use xlink:href="#DejaVuSans-48" transform="translate(146.875 0.148578)"/>
      <use xlink:href="#DejaVuSans-3" transform="translate(208.398438 0.148578)"/>
      <use xlink:href="#DejaVuSans-14" transform="translate(240.185547 0.148578)"/>
      <use xlink:href="#Cmr10-31" transform="translate(307.918161 35.373438) scale(0.7)"/>
     </g>
    </g>
   </g>
  </g>
  <g id="text_22">
   <g id="patch_9">
    <path d="M 22.410625 358.815625 
L 36.508281 358.815625 
L 36.508281 379.651563 
L 57.309062 379.651563 
L 57.309062 358.815625 
L 71.406719 358.815625 
L 71.406719 413.495313 
L 57.309062 413.495313 
L 57.309062 390.315625 
L 36.508281 390.315625 
L 36.508281 413.495313 
L 22.410625 413.495313 
L 22.410625 358.815625 
z
M 102.965312 395.038281 
Q 98.86375 395.038281 96.789531 396.432813 
Q 94.727031 397.815625 94.727031 400.534375 
Q 94.727031 403.01875 96.391094 404.436719 
Q 98.066875 405.842969 101.031719 405.842969 
Q 104.723125 405.842969 107.254375 403.194531 
Q 109.785625 400.534375 109.785625 396.538281 
L 109.785625 395.038281 
L 102.965312 395.038281 
z
M 123.004375 390.092969 
L 123.004375 413.495313 
L 109.785625 413.495313 
L 109.785625 407.413281 
Q 107.148906 411.151563 103.844219 412.8625 
Q 100.55125 414.561719 95.828594 414.561719 
Q 89.453594 414.561719 85.480937 410.846875 
Q 81.508281 407.120313 81.508281 401.190625 
Q 81.508281 393.971875 86.465312 390.608594 
Q 91.434062 387.233594 102.05125 387.233594 
L 109.785625 387.233594 
L 109.785625 386.214063 
Q 109.785625 383.096875 107.324687 381.655469 
Q 104.875469 380.202344 99.672344 380.202344 
Q 95.465312 380.202344 91.8325 381.046094 
Q 88.211406 381.889844 85.094219 383.577344 
L 85.094219 373.58125 
Q 89.312969 372.55 93.555156 372.022656 
Q 97.809062 371.495313 102.05125 371.495313 
Q 113.148906 371.495313 118.070781 375.866406 
Q 123.004375 380.2375 123.004375 390.092969 
z
M 149.512188 360.83125 
L 149.512188 372.479688 
L 163.035625 372.479688 
L 163.035625 381.854688 
L 149.512188 381.854688 
L 149.512188 399.245313 
Q 149.512188 402.104688 150.648906 403.1125 
Q 151.785625 404.120313 155.160625 404.120313 
L 161.898906 404.120313 
L 161.898906 413.495313 
L 150.648906 413.495313 
Q 142.891094 413.495313 139.645 410.260938 
Q 136.410625 407.014844 136.410625 399.245313 
L 136.410625 381.854688 
L 129.883281 381.854688 
L 129.883281 372.479688 
L 136.410625 372.479688 
L 136.410625 360.83125 
L 149.512188 360.83125 
z
M 204.191875 373.757031 
L 204.191875 384.45625 
Q 201.52 382.628125 198.824688 381.749219 
Q 196.129375 380.870313 193.234844 380.870313 
Q 187.750469 380.870313 184.691875 384.069531 
Q 181.633281 387.26875 181.633281 393.022656 
Q 181.633281 398.776563 184.691875 401.9875 
Q 187.750469 405.186719 193.234844 405.186719 
Q 196.316875 405.186719 199.0825 404.272656 
Q 201.848125 403.346875 204.191875 401.553906 
L 204.191875 412.288281 
Q 201.109844 413.425 197.945781 413.9875 
Q 194.781719 414.561719 191.594219 414.561719 
Q 180.496563 414.561719 174.227031 408.866406 
Q 167.969219 403.171094 167.969219 393.022656 
Q 167.969219 382.874219 174.227031 377.190625 
Q 180.496563 371.495313 191.594219 371.495313 
Q 194.816875 371.495313 197.945781 372.057813 
Q 201.074688 372.620313 204.191875 373.757031 
z
M 256.73875 388.522656 
L 256.73875 413.495313 
L 243.555156 413.495313 
L 243.555156 409.428906 
L 243.555156 394.452344 
Q 243.555156 389.073438 243.320781 387.057813 
Q 243.086406 385.042188 242.500469 384.092969 
Q 241.727031 382.803906 240.402813 382.089063 
Q 239.090313 381.374219 237.402813 381.374219 
Q 233.30125 381.374219 230.9575 384.55 
Q 228.61375 387.714063 228.61375 393.315625 
L 228.61375 413.495313 
L 215.512188 413.495313 
L 215.512188 356.507031 
L 228.61375 356.507031 
L 228.61375 378.479688 
Q 231.578594 374.89375 234.906719 373.194531 
Q 238.246563 371.495313 242.277813 371.495313 
Q 249.379375 371.495313 253.059063 375.854688 
Q 256.73875 380.202344 256.73875 388.522656 
z
M 327.05125 373.757031 
L 327.05125 383.717969 
Q 322.844219 381.960156 318.918437 381.08125 
Q 315.004375 380.202344 311.523906 380.202344 
Q 307.785625 380.202344 305.969219 381.139844 
Q 304.164531 382.077344 304.164531 384.010938 
Q 304.164531 385.592969 305.535625 386.436719 
Q 306.906719 387.26875 310.4575 387.678906 
L 312.766094 388.007031 
Q 322.844219 389.284375 326.312969 392.214063 
Q 329.793437 395.14375 329.793437 401.413281 
Q 329.793437 407.964063 324.953594 411.26875 
Q 320.125469 414.561719 310.539531 414.561719 
Q 306.473125 414.561719 302.125469 413.917188 
Q 297.789531 413.272656 293.2075 411.995313 
L 293.2075 402.034375 
Q 297.133281 403.932813 301.246562 404.89375 
Q 305.371562 405.842969 309.61375 405.842969 
Q 313.469219 405.842969 315.402812 404.788281 
Q 317.348125 403.721875 317.348125 401.624219 
Q 317.348125 399.866406 316.012187 399.010938 
Q 314.67625 398.155469 310.680156 397.675 
L 308.371562 397.382031 
Q 299.617656 396.280469 296.102031 393.315625 
Q 292.586406 390.350781 292.586406 384.303906 
Q 292.586406 377.788281 297.05125 374.647656 
Q 301.527812 371.495313 310.750469 371.495313 
Q 314.383281 371.495313 318.367656 372.046094 
Q 322.36375 372.585156 327.05125 373.757031 
z
M 380.875469 388.522656 
L 380.875469 413.495313 
L 367.691875 413.495313 
L 367.691875 409.428906 
L 367.691875 394.452344 
Q 367.691875 389.073438 367.4575 387.057813 
Q 367.223125 385.042188 366.637187 384.092969 
Q 365.86375 382.803906 364.539531 382.089063 
Q 363.227031 381.374219 361.539531 381.374219 
Q 357.437969 381.374219 355.094219 384.55 
Q 352.750469 387.714063 352.750469 393.315625 
L 352.750469 413.495313 
L 339.648906 413.495313 
L 339.648906 356.507031 
L 352.750469 356.507031 
L 352.750469 378.479688 
Q 355.715312 374.89375 359.043437 373.194531 
Q 362.383281 371.495313 366.414531 371.495313 
Q 373.516094 371.495313 377.195781 375.854688 
Q 380.875469 380.202344 380.875469 388.522656 
z
M 411.414531 395.038281 
Q 407.312969 395.038281 405.23875 396.432813 
Q 403.17625 397.815625 403.17625 400.534375 
Q 403.17625 403.01875 404.840312 404.436719 
Q 406.516094 405.842969 409.480937 405.842969 
Q 413.172344 405.842969 415.703594 403.194531 
Q 418.234844 400.534375 418.234844 396.538281 
L 418.234844 395.038281 
L 411.414531 395.038281 
z
M 431.453594 390.092969 
L 431.453594 413.495313 
L 418.234844 413.495313 
L 418.234844 407.413281 
Q 415.598125 411.151563 412.293437 412.8625 
Q 409.000469 414.561719 404.277812 414.561719 
Q 397.902812 414.561719 393.930156 410.846875 
Q 389.9575 407.120313 389.9575 401.190625 
Q 389.9575 393.971875 394.914531 390.608594 
Q 399.883281 387.233594 410.500469 387.233594 
L 418.234844 387.233594 
L 418.234844 386.214063 
Q 418.234844 383.096875 415.773906 381.655469 
Q 413.324687 380.202344 408.121562 380.202344 
Q 403.914531 380.202344 400.281719 381.046094 
Q 396.660625 381.889844 393.543437 383.577344 
L 393.543437 373.58125 
Q 397.762187 372.55 402.004375 372.022656 
Q 406.258281 371.495313 410.500469 371.495313 
Q 421.598125 371.495313 426.52 375.866406 
Q 431.453594 380.2375 431.453594 390.092969 
z
M 471.555156 378.479688 
L 471.555156 356.507031 
L 484.73875 356.507031 
L 484.73875 413.495313 
L 471.555156 413.495313 
L 471.555156 407.565625 
Q 468.848125 411.186719 465.578594 412.874219 
Q 462.320781 414.561719 458.043437 414.561719 
Q 450.461406 414.561719 445.586406 408.538281 
Q 440.723125 402.503125 440.723125 393.022656 
Q 440.723125 383.542188 445.586406 377.51875 
Q 450.461406 371.495313 458.043437 371.495313 
Q 462.285625 371.495313 465.566875 373.194531 
Q 468.848125 374.89375 471.555156 378.479688 
z
M 462.906719 405.034375 
Q 467.125469 405.034375 469.340312 401.964063 
Q 471.555156 398.882031 471.555156 393.022656 
Q 471.555156 387.163281 469.340312 384.092969 
Q 467.125469 381.010938 462.906719 381.010938 
Q 458.734844 381.010938 456.52 384.092969 
Q 454.305156 387.163281 454.305156 393.022656 
Q 454.305156 398.882031 456.52 401.964063 
Q 458.734844 405.034375 462.906719 405.034375 
z
M 516.848125 380.870313 
Q 512.48875 380.870313 510.203594 383.999219 
Q 507.918437 387.128125 507.918437 393.022656 
Q 507.918437 398.917188 510.203594 402.057813 
Q 512.48875 405.186719 516.848125 405.186719 
Q 521.137187 405.186719 523.398906 402.057813 
Q 525.672344 398.917188 525.672344 393.022656 
Q 525.672344 387.128125 523.398906 383.999219 
Q 521.137187 380.870313 516.848125 380.870313 
z
M 516.848125 371.495313 
Q 527.430156 371.495313 533.383281 377.214063 
Q 539.336406 382.921094 539.336406 393.022656 
Q 539.336406 403.135938 533.383281 408.854688 
Q 527.430156 414.561719 516.848125 414.561719 
Q 506.230937 414.561719 500.242656 408.854688 
Q 494.254375 403.135938 494.254375 393.022656 
Q 494.254375 382.921094 500.242656 377.214063 
Q 506.230937 371.495313 516.848125 371.495313 
z
M 545.195781 372.479688 
L 557.945781 372.479688 
L 564.824687 400.745313 
L 571.750469 372.479688 
L 582.695781 372.479688 
L 589.586406 400.452344 
L 596.500469 372.479688 
L 609.250469 372.479688 
L 598.445781 413.495313 
L 584.125469 413.495313 
L 577.199687 385.3 
L 570.320781 413.495313 
L 556.000469 413.495313 
L 545.195781 372.479688 
z
" style="fill: url(#h4bd34523cb); stroke: #000000; stroke-linejoin: miter"/>
   </g>
   <g id="patch_10">
    <path d="M 18.410625 354.815625 
L 32.508281 354.815625 
L 32.508281 375.651563 
L 53.309062 375.651563 
L 53.309062 354.815625 
L 67.406719 354.815625 
L 67.406719 409.495313 
L 53.309062 409.495313 
L 53.309062 386.315625 
L 32.508281 386.315625 
L 32.508281 409.495313 
L 18.410625 409.495313 
L 18.410625 354.815625 
z
M 98.965312 391.038281 
Q 94.86375 391.038281 92.789531 392.432813 
Q 90.727031 393.815625 90.727031 396.534375 
Q 90.727031 399.01875 92.391094 400.436719 
Q 94.066875 401.842969 97.031719 401.842969 
Q 100.723125 401.842969 103.254375 399.194531 
Q 105.785625 396.534375 105.785625 392.538281 
L 105.785625 391.038281 
L 98.965312 391.038281 
z
M 119.004375 386.092969 
L 119.004375 409.495313 
L 105.785625 409.495313 
L 105.785625 403.413281 
Q 103.148906 407.151563 99.844219 408.8625 
Q 96.55125 410.561719 91.828594 410.561719 
Q 85.453594 410.561719 81.480937 406.846875 
Q 77.508281 403.120313 77.508281 397.190625 
Q 77.508281 389.971875 82.465312 386.608594 
Q 87.434062 383.233594 98.05125 383.233594 
L 105.785625 383.233594 
L 105.785625 382.214063 
Q 105.785625 379.096875 103.324687 377.655469 
Q 100.875469 376.202344 95.672344 376.202344 
Q 91.465312 376.202344 87.8325 377.046094 
Q 84.211406 377.889844 81.094219 379.577344 
L 81.094219 369.58125 
Q 85.312969 368.55 89.555156 368.022656 
Q 93.809062 367.495313 98.05125 367.495313 
Q 109.148906 367.495313 114.070781 371.866406 
Q 119.004375 376.2375 119.004375 386.092969 
z
M 145.512188 356.83125 
L 145.512188 368.479688 
L 159.035625 368.479688 
L 159.035625 377.854688 
L 145.512188 377.854688 
L 145.512188 395.245313 
Q 145.512188 398.104688 146.648906 399.1125 
Q 147.785625 400.120313 151.160625 400.120313 
L 157.898906 400.120313 
L 157.898906 409.495313 
L 146.648906 409.495313 
Q 138.891094 409.495313 135.645 406.260938 
Q 132.410625 403.014844 132.410625 395.245313 
L 132.410625 377.854688 
L 125.883281 377.854688 
L 125.883281 368.479688 
L 132.410625 368.479688 
L 132.410625 356.83125 
L 145.512188 356.83125 
z
M 200.191875 369.757031 
L 200.191875 380.45625 
Q 197.52 378.628125 194.824688 377.749219 
Q 192.129375 376.870313 189.234844 376.870313 
Q 183.750469 376.870313 180.691875 380.069531 
Q 177.633281 383.26875 177.633281 389.022656 
Q 177.633281 394.776563 180.691875 397.9875 
Q 183.750469 401.186719 189.234844 401.186719 
Q 192.316875 401.186719 195.0825 400.272656 
Q 197.848125 399.346875 200.191875 397.553906 
L 200.191875 408.288281 
Q 197.109844 409.425 193.945781 409.9875 
Q 190.781719 410.561719 187.594219 410.561719 
Q 176.496563 410.561719 170.227031 404.866406 
Q 163.969219 399.171094 163.969219 389.022656 
Q 163.969219 378.874219 170.227031 373.190625 
Q 176.496563 367.495313 187.594219 367.495313 
Q 190.816875 367.495313 193.945781 368.057813 
Q 197.074688 368.620313 200.191875 369.757031 
z
M 252.73875 384.522656 
L 252.73875 409.495313 
L 239.555156 409.495313 
L 239.555156 405.428906 
L 239.555156 390.452344 
Q 239.555156 385.073438 239.320781 383.057813 
Q 239.086406 381.042188 238.500469 380.092969 
Q 237.727031 378.803906 236.402813 378.089063 
Q 235.090313 377.374219 233.402813 377.374219 
Q 229.30125 377.374219 226.9575 380.55 
Q 224.61375 383.714063 224.61375 389.315625 
L 224.61375 409.495313 
L 211.512188 409.495313 
L 211.512188 352.507031 
L 224.61375 352.507031 
L 224.61375 374.479688 
Q 227.578594 370.89375 230.906719 369.194531 
Q 234.246563 367.495313 238.277813 367.495313 
Q 245.379375 367.495313 249.059063 371.854688 
Q 252.73875 376.202344 252.73875 384.522656 
z
M 323.05125 369.757031 
L 323.05125 379.717969 
Q 318.844219 377.960156 314.918437 377.08125 
Q 311.004375 376.202344 307.523906 376.202344 
Q 303.785625 376.202344 301.969219 377.139844 
Q 300.164531 378.077344 300.164531 380.010938 
Q 300.164531 381.592969 301.535625 382.436719 
Q 302.906719 383.26875 306.4575 383.678906 
L 308.766094 384.007031 
Q 318.844219 385.284375 322.312969 388.214063 
Q 325.793437 391.14375 325.793437 397.413281 
Q 325.793437 403.964063 320.953594 407.26875 
Q 316.125469 410.561719 306.539531 410.561719 
Q 302.473125 410.561719 298.125469 409.917188 
Q 293.789531 409.272656 289.2075 407.995313 
L 289.2075 398.034375 
Q 293.133281 399.932813 297.246562 400.89375 
Q 301.371562 401.842969 305.61375 401.842969 
Q 309.469219 401.842969 311.402812 400.788281 
Q 313.348125 399.721875 313.348125 397.624219 
Q 313.348125 395.866406 312.012187 395.010938 
Q 310.67625 394.155469 306.680156 393.675 
L 304.371562 393.382031 
Q 295.617656 392.280469 292.102031 389.315625 
Q 288.586406 386.350781 288.586406 380.303906 
Q 288.586406 373.788281 293.05125 370.647656 
Q 297.527812 367.495313 306.750469 367.495313 
Q 310.383281 367.495313 314.367656 368.046094 
Q 318.36375 368.585156 323.05125 369.757031 
z
M 376.875469 384.522656 
L 376.875469 409.495313 
L 363.691875 409.495313 
L 363.691875 405.428906 
L 363.691875 390.452344 
Q 363.691875 385.073438 363.4575 383.057813 
Q 363.223125 381.042188 362.637187 380.092969 
Q 361.86375 378.803906 360.539531 378.089063 
Q 359.227031 377.374219 357.539531 377.374219 
Q 353.437969 377.374219 351.094219 380.55 
Q 348.750469 383.714063 348.750469 389.315625 
L 348.750469 409.495313 
L 335.648906 409.495313 
L 335.648906 352.507031 
L 348.750469 352.507031 
L 348.750469 374.479688 
Q 351.715312 370.89375 355.043437 369.194531 
Q 358.383281 367.495313 362.414531 367.495313 
Q 369.516094 367.495313 373.195781 371.854688 
Q 376.875469 376.202344 376.875469 384.522656 
z
M 407.414531 391.038281 
Q 403.312969 391.038281 401.23875 392.432813 
Q 399.17625 393.815625 399.17625 396.534375 
Q 399.17625 399.01875 400.840312 400.436719 
Q 402.516094 401.842969 405.480937 401.842969 
Q 409.172344 401.842969 411.703594 399.194531 
Q 414.234844 396.534375 414.234844 392.538281 
L 414.234844 391.038281 
L 407.414531 391.038281 
z
M 427.453594 386.092969 
L 427.453594 409.495313 
L 414.234844 409.495313 
L 414.234844 403.413281 
Q 411.598125 407.151563 408.293437 408.8625 
Q 405.000469 410.561719 400.277812 410.561719 
Q 393.902812 410.561719 389.930156 406.846875 
Q 385.9575 403.120313 385.9575 397.190625 
Q 385.9575 389.971875 390.914531 386.608594 
Q 395.883281 383.233594 406.500469 383.233594 
L 414.234844 383.233594 
L 414.234844 382.214063 
Q 414.234844 379.096875 411.773906 377.655469 
Q 409.324687 376.202344 404.121562 376.202344 
Q 399.914531 376.202344 396.281719 377.046094 
Q 392.660625 377.889844 389.543437 379.577344 
L 389.543437 369.58125 
Q 393.762187 368.55 398.004375 368.022656 
Q 402.258281 367.495313 406.500469 367.495313 
Q 417.598125 367.495313 422.52 371.866406 
Q 427.453594 376.2375 427.453594 386.092969 
z
M 467.555156 374.479688 
L 467.555156 352.507031 
L 480.73875 352.507031 
L 480.73875 409.495313 
L 467.555156 409.495313 
L 467.555156 403.565625 
Q 464.848125 407.186719 461.578594 408.874219 
Q 458.320781 410.561719 454.043437 410.561719 
Q 446.461406 410.561719 441.586406 404.538281 
Q 436.723125 398.503125 436.723125 389.022656 
Q 436.723125 379.542188 441.586406 373.51875 
Q 446.461406 367.495313 454.043437 367.495313 
Q 458.285625 367.495313 461.566875 369.194531 
Q 464.848125 370.89375 467.555156 374.479688 
z
M 458.906719 401.034375 
Q 463.125469 401.034375 465.340312 397.964063 
Q 467.555156 394.882031 467.555156 389.022656 
Q 467.555156 383.163281 465.340312 380.092969 
Q 463.125469 377.010938 458.906719 377.010938 
Q 454.734844 377.010938 452.52 380.092969 
Q 450.305156 383.163281 450.305156 389.022656 
Q 450.305156 394.882031 452.52 397.964063 
Q 454.734844 401.034375 458.906719 401.034375 
z
M 512.848125 376.870313 
Q 508.48875 376.870313 506.203594 379.999219 
Q 503.918437 383.128125 503.918437 389.022656 
Q 503.918437 394.917188 506.203594 398.057813 
Q 508.48875 401.186719 512.848125 401.186719 
Q 517.137187 401.186719 519.398906 398.057813 
Q 521.672344 394.917188 521.672344 389.022656 
Q 521.672344 383.128125 519.398906 379.999219 
Q 517.137187 376.870313 512.848125 376.870313 
z
M 512.848125 367.495313 
Q 523.430156 367.495313 529.383281 373.214063 
Q 535.336406 378.921094 535.336406 389.022656 
Q 535.336406 399.135938 529.383281 404.854688 
Q 523.430156 410.561719 512.848125 410.561719 
Q 502.230937 410.561719 496.242656 404.854688 
Q 490.254375 399.135938 490.254375 389.022656 
Q 490.254375 378.921094 496.242656 373.214063 
Q 502.230937 367.495313 512.848125 367.495313 
z
M 541.195781 368.479688 
L 553.945781 368.479688 
L 560.824687 396.745313 
L 567.750469 368.479688 
L 578.695781 368.479688 
L 585.586406 396.452344 
L 592.500469 368.479688 
L 605.250469 368.479688 
L 594.445781 409.495313 
L 580.125469 409.495313 
L 573.199687 381.3 
L 566.320781 409.495313 
L 552.000469 409.495313 
L 541.195781 368.479688 
z
" style="stroke: #ffffff; stroke-width: 1.1; stroke-linejoin: miter"/>
   </g>
  </g>
 </g>
 <defs>
  <clipPath id="pe2e2378c9e">
   <rect x="72" y="43.2" width="446.4" height="345.6"/>
  </clipPath>
 </defs>
 <defs>
  <pattern id="h4bd34523cb" patternUnits="userSpaceOnUse" x="0" y="0" width="72" height="72">
   <rect x="0" y="0" width="73" height="73" fill="#808080"/>
   <path d="M -36 36 
L 36 -36 
M -33 39 
L 39 -33 
M -30 42 
L 42 -30 
M -27 45 
L 45 -27 
M -24 48 
L 48 -24 
M -21 51 
L 51 -21 
M -18 54 
L 54 -18 
M -15 57 
L 57 -15 
M -12 60 
L 60 -12 
M -9 63 
L 63 -9 
M -6 66 
L 66 -6 
M -3 69 
L 69 -3 
M 0 72 
L 72 0 
M 3 75 
L 75 3 
M 6 78 
L 78 6 
M 9 81 
L 81 9 
M 12 84 
L 84 12 
M 15 87 
L 87 15 
M 18 90 
L 90 18 
M 21 93 
L 93 21 
M 24 96 
L 96 24 
M 27 99 
L 99 27 
M 30 102 
L 102 30 
M 33 105 
L 105 33 
M 36 108 
L 108 36 
M -36 36 
L 36 108 
M -33 33 
L 39 105 
M -30 30 
L 42 102 
M -27 27 
L 45 99 
M -24 24 
L 48 96 
M -21 21 
L 51 93 
M -18 18 
L 54 90 
M -15 15 
L 57 87 
M -12 12 
L 60 84 
M -9 9 
L 63 81 
M -6 6 
L 66 78 
M -3 3 
L 69 75 
M 0 0 
L 72 72 
M 3 -3 
L 75 69 
M 6 -6 
L 78 66 
M 9 -9 
L 81 63 
M 12 -12 
L 84 60 
M 15 -15 
L 87 57 
M 18 -18 
L 90 54 
M 21 -21 
L 93 51 
M 24 -24 
L 96 48 
M 27 -27 
L 99 45 
M 30 -30 
L 102 42 
M 33 -33 
L 105 39 
M 36 -36 
L 108 36 
" style="fill: #000000; stroke: #000000; stroke-width: 1.0; stroke-linecap: butt; stroke-linejoin: miter"/>
  </pattern>
 </defs>
</svg>
