<svg xmlns="http://www.w3.org/2000/svg" xmlns:dc="http://purl.org/dc/elements/1.1/" xmlns:ns2="http://creativecommons.org/ns#" xmlns:ns4="http://www.w3.org/1999/xlink" xmlns:rdf="http://www.w3.org/1999/02/22-rdf-syntax-ns#" width="460.8pt" height="345.6pt" viewBox="0 0 460.8 345.6" version="1.1" onload="init(event)">
 <script type="text/ecmascript">
    

    function init(event) {
        if ( window.svgDocument == null ) {
            svgDocument = event.target.ownerDocument;
            }
        }

    function ShowTooltip(obj) {
        var cur = obj.id.split("_")[1];
        var tip = svgDocument.getElementById('mytooltip_' + cur);
        tip.setAttribute('visibility', "visible")
        }

    function HideTooltip(obj) {
        var cur = obj.id.split("_")[1];
        var tip = svgDocument.getElementById('mytooltip_' + cur);
        tip.setAttribute('visibility', "hidden")
        }

    
    </script><metadata>
  <rdf:RDF>
   <ns2:Work>
    <dc:type rdf:resource="http://purl.org/dc/dcmitype/StillImage" />
    <dc:date>2026-03-25T12:36:20.674869</dc:date>
    <dc:format>image/svg+xml</dc:format>
    <dc:creator>
     <ns2:Agent>
      <dc:title>Matplotlib v3.10.0, https://matplotlib.org/</dc:title>
     </ns2:Agent>
    </dc:creator>
   </ns2:Work>
  </rdf:RDF>
 </metadata>
 <defs>
  <style type="text/css">*{stroke-linejoin: round; stroke-linecap: butt}</style>
 </defs>
 <g id="figure_1">
  <g id="patch_1">
   <path d="M 0 345.6  L 460.8 345.6  L 460.8 0  L 0 0  z " style="fill: #ffffff" />
  </g>
  <g id="axes_1">
   <g id="patch_2">
    <path d="M 103.104 307.584  L 369.216 307.584  L 369.216 41.472  L 103.104 41.472  z " style="fill: #ffffff" />
   </g>
   <g id="mypatch_000">
    <path d="M 280.512 263.232  L 324.864 263.232  L 324.864 241.056  L 280.512 241.056  z " clip-path="url(#p60f0075635)" style="fill: #0000ff" />
   </g>
   <g id="mypatch_000" onmouseover="ShowTooltip(this)" onmouseout="HideTooltip(this)">
    <path d="M 280.512 263.232  L 324.864 263.232  L 324.864 241.056  L 280.512 241.056  z " clip-path="url(#p60f0075635)" style="fill: #0000ff" />
   </g>
   <g id="mypatch_001">
    <path d="M 147.456 108  L 191.808 108  L 191.808 85.824  L 147.456 85.824  z " clip-path="url(#p60f0075635)" style="fill: #008000" />
   </g>
   <g id="mypatch_001" onmouseover="ShowTooltip(this)" onmouseout="HideTooltip(this)">
    <path d="M 147.456 108  L 191.808 108  L 191.808 85.824  L 147.456 85.824  z " clip-path="url(#p60f0075635)" style="fill: #008000" />
   </g>
   <g id="matplotlib.axis_1">
    <g id="xtick_1">
     <g id="line2d_1">
      <defs>
       <path id="m9f58bdc6a1" d="M 0 0  L 0 3.5  " style="stroke: #000000; stroke-width: 0.8" />
      </defs>
      <g>
       <use ns4:href="#m9f58bdc6a1" x="103.104" y="307.584" style="stroke: #000000; stroke-width: 0.8" />
      </g>
     </g>
     <g id="text_1">
      
      <g transform="translate(92.551656 322.182437) scale(0.1 -0.1)">
       <defs>
        <path id="DejaVuSans-2212" d="M 678 2272  L 4684 2272  L 4684 1741  L 678 1741  L 678 2272  z " transform="scale(0.015625)" />
        <path id="DejaVuSans-33" d="M 2597 2516  Q 3050 2419 3304 2112  Q 3559 1806 3559 1356  Q 3559 666 3084 287  Q 2609 -91 1734 -91  Q 1441 -91 1130 -33  Q 819 25 488 141  L 488 750  Q 750 597 1062 519  Q 1375 441 1716 441  Q 2309 441 2620 675  Q 2931 909 2931 1356  Q 2931 1769 2642 2001  Q 2353 2234 1838 2234  L 1294 2234  L 1294 2753  L 1863 2753  Q 2328 2753 2575 2939  Q 2822 3125 2822 3475  Q 2822 3834 2567 4026  Q 2313 4219 1838 4219  Q 1578 4219 1281 4162  Q 984 4106 628 3988  L 628 4550  Q 988 4650 1302 4700  Q 1616 4750 1894 4750  Q 2613 4750 3031 4423  Q 3450 4097 3450 3541  Q 3450 3153 3228 2886  Q 3006 2619 2597 2516  z " transform="scale(0.015625)" />
        <path id="DejaVuSans-30" d="M 2034 4250  Q 1547 4250 1301 3770  Q 1056 3291 1056 2328  Q 1056 1369 1301 889  Q 1547 409 2034 409  Q 2525 409 2770 889  Q 3016 1369 3016 2328  Q 3016 3291 2770 3770  Q 2525 4250 2034 4250  z M 2034 4750  Q 2819 4750 3233 4129  Q 3647 3509 3647 2328  Q 3647 1150 3233 529  Q 2819 -91 2034 -91  Q 1250 -91 836 529  Q 422 1150 422 2328  Q 422 3509 836 4129  Q 1250 4750 2034 4750  z " transform="scale(0.015625)" />
       </defs>
       <use ns4:href="#DejaVuSans-2212" />
       <use ns4:href="#DejaVuSans-33" transform="translate(83.789062 0)" />
       <use ns4:href="#DejaVuSans-30" transform="translate(147.412109 0)" />
      </g>
     </g>
    </g>
    <g id="xtick_2">
     <g id="line2d_2">
      <g>
       <use ns4:href="#m9f58bdc6a1" x="147.456" y="307.584" style="stroke: #000000; stroke-width: 0.8" />
      </g>
     </g>
     <g id="text_2">
      
      <g transform="translate(136.903656 322.182437) scale(0.1 -0.1)">
       <defs>
        <path id="DejaVuSans-32" d="M 1228 531  L 3431 531  L 3431 0  L 469 0  L 469 531  Q 828 903 1448 1529  Q 2069 2156 2228 2338  Q 2531 2678 2651 2914  Q 2772 3150 2772 3378  Q 2772 3750 2511 3984  Q 2250 4219 1831 4219  Q 1534 4219 1204 4116  Q 875 4013 500 3803  L 500 4441  Q 881 4594 1212 4672  Q 1544 4750 1819 4750  Q 2544 4750 2975 4387  Q 3406 4025 3406 3419  Q 3406 3131 3298 2873  Q 3191 2616 2906 2266  Q 2828 2175 2409 1742  Q 1991 1309 1228 531  z " transform="scale(0.015625)" />
       </defs>
       <use ns4:href="#DejaVuSans-2212" />
       <use ns4:href="#DejaVuSans-32" transform="translate(83.789062 0)" />
       <use ns4:href="#DejaVuSans-30" transform="translate(147.412109 0)" />
      </g>
     </g>
    </g>
    <g id="xtick_3">
     <g id="line2d_3">
      <g>
       <use ns4:href="#m9f58bdc6a1" x="191.808" y="307.584" style="stroke: #000000; stroke-width: 0.8" />
      </g>
     </g>
     <g id="text_3">
      
      <g transform="translate(181.255656 322.182437) scale(0.1 -0.1)">
       <defs>
        <path id="DejaVuSans-31" d="M 794 531  L 1825 531  L 1825 4091  L 703 3866  L 703 4441  L 1819 4666  L 2450 4666  L 2450 531  L 3481 531  L 3481 0  L 794 0  L 794 531  z " transform="scale(0.015625)" />
       </defs>
       <use ns4:href="#DejaVuSans-2212" />
       <use ns4:href="#DejaVuSans-31" transform="translate(83.789062 0)" />
       <use ns4:href="#DejaVuSans-30" transform="translate(147.412109 0)" />
      </g>
     </g>
    </g>
    <g id="xtick_4">
     <g id="line2d_4">
      <g>
       <use ns4:href="#m9f58bdc6a1" x="236.16" y="307.584" style="stroke: #000000; stroke-width: 0.8" />
      </g>
     </g>
     <g id="text_4">
      
      <g transform="translate(232.97875 322.182437) scale(0.1 -0.1)">
       <use ns4:href="#DejaVuSans-30" />
      </g>
     </g>
    </g>
    <g id="xtick_5">
     <g id="line2d_5">
      <g>
       <use ns4:href="#m9f58bdc6a1" x="280.512" y="307.584" style="stroke: #000000; stroke-width: 0.8" />
      </g>
     </g>
     <g id="text_5">
      
      <g transform="translate(274.1495 322.182437) scale(0.1 -0.1)">
       <use ns4:href="#DejaVuSans-31" />
       <use ns4:href="#DejaVuSans-30" transform="translate(63.623047 0)" />
      </g>
     </g>
    </g>
    <g id="xtick_6">
     <g id="line2d_6">
      <g>
       <use ns4:href="#m9f58bdc6a1" x="324.864" y="307.584" style="stroke: #000000; stroke-width: 0.8" />
      </g>
     </g>
     <g id="text_6">
      
      <g transform="translate(318.5015 322.182437) scale(0.1 -0.1)">
       <use ns4:href="#DejaVuSans-32" />
       <use ns4:href="#DejaVuSans-30" transform="translate(63.623047 0)" />
      </g>
     </g>
    </g>
    <g id="xtick_7">
     <g id="line2d_7">
      <g>
       <use ns4:href="#m9f58bdc6a1" x="369.216" y="307.584" style="stroke: #000000; stroke-width: 0.8" />
      </g>
     </g>
     <g id="text_7">
      
      <g transform="translate(362.8535 322.182437) scale(0.1 -0.1)">
       <use ns4:href="#DejaVuSans-33" />
       <use ns4:href="#DejaVuSans-30" transform="translate(63.623047 0)" />
      </g>
     </g>
    </g>
   </g>
   <g id="matplotlib.axis_2">
    <g id="ytick_1">
     <g id="line2d_8">
      <defs>
       <path id="m1581c599ff" d="M 0 0  L -3.5 0  " style="stroke: #000000; stroke-width: 0.8" />
      </defs>
      <g>
       <use ns4:href="#m1581c599ff" x="103.104" y="307.584" style="stroke: #000000; stroke-width: 0.8" />
      </g>
     </g>
     <g id="text_8">
      
      <g transform="translate(74.999313 311.383219) scale(0.1 -0.1)">
       <use ns4:href="#DejaVuSans-2212" />
       <use ns4:href="#DejaVuSans-33" transform="translate(83.789062 0)" />
       <use ns4:href="#DejaVuSans-30" transform="translate(147.412109 0)" />
      </g>
     </g>
    </g>
    <g id="ytick_2">
     <g id="line2d_9">
      <g>
       <use ns4:href="#m1581c599ff" x="103.104" y="263.232" style="stroke: #000000; stroke-width: 0.8" />
      </g>
     </g>
     <g id="text_9">
      
      <g transform="translate(74.999313 267.031219) scale(0.1 -0.1)">
       <use ns4:href="#DejaVuSans-2212" />
       <use ns4:href="#DejaVuSans-32" transform="translate(83.789062 0)" />
       <use ns4:href="#DejaVuSans-30" transform="translate(147.412109 0)" />
      </g>
     </g>
    </g>
    <g id="ytick_3">
     <g id="line2d_10">
      <g>
       <use ns4:href="#m1581c599ff" x="103.104" y="218.88" style="stroke: #000000; stroke-width: 0.8" />
      </g>
     </g>
     <g id="text_10">
      
      <g transform="translate(74.999313 222.679219) scale(0.1 -0.1)">
       <use ns4:href="#DejaVuSans-2212" />
       <use ns4:href="#DejaVuSans-31" transform="translate(83.789062 0)" />
       <use ns4:href="#DejaVuSans-30" transform="translate(147.412109 0)" />
      </g>
     </g>
    </g>
    <g id="ytick_4">
     <g id="line2d_11">
      <g>
       <use ns4:href="#m1581c599ff" x="103.104" y="174.528" style="stroke: #000000; stroke-width: 0.8" />
      </g>
     </g>
     <g id="text_11">
      
      <g transform="translate(89.7415 178.327219) scale(0.1 -0.1)">
       <use ns4:href="#DejaVuSans-30" />
      </g>
     </g>
    </g>
    <g id="ytick_5">
     <g id="line2d_12">
      <g>
       <use ns4:href="#m1581c599ff" x="103.104" y="130.176" style="stroke: #000000; stroke-width: 0.8" />
      </g>
     </g>
     <g id="text_12">
      
      <g transform="translate(83.379 133.975219) scale(0.1 -0.1)">
       <use ns4:href="#DejaVuSans-31" />
       <use ns4:href="#DejaVuSans-30" transform="translate(63.623047 0)" />
      </g>
     </g>
    </g>
    <g id="ytick_6">
     <g id="line2d_13">
      <g>
       <use ns4:href="#m1581c599ff" x="103.104" y="85.824" style="stroke: #000000; stroke-width: 0.8" />
      </g>
     </g>
     <g id="text_13">
      
      <g transform="translate(83.379 89.623219) scale(0.1 -0.1)">
       <use ns4:href="#DejaVuSans-32" />
       <use ns4:href="#DejaVuSans-30" transform="translate(63.623047 0)" />
      </g>
     </g>
    </g>
    <g id="ytick_7">
     <g id="line2d_14">
      <g>
       <use ns4:href="#m1581c599ff" x="103.104" y="41.472" style="stroke: #000000; stroke-width: 0.8" />
      </g>
     </g>
     <g id="text_14">
      
      <g transform="translate(83.379 45.271219) scale(0.1 -0.1)">
       <use ns4:href="#DejaVuSans-33" />
       <use ns4:href="#DejaVuSans-30" transform="translate(63.623047 0)" />
      </g>
     </g>
    </g>
   </g>
   <g id="patch_3">
    <path d="M 103.104 307.584  L 103.104 41.472  " style="fill: none; stroke: #000000; stroke-width: 0.8; stroke-linejoin: miter; stroke-linecap: square" />
   </g>
   <g id="patch_4">
    <path d="M 369.216 307.584  L 369.216 41.472  " style="fill: none; stroke: #000000; stroke-width: 0.8; stroke-linejoin: miter; stroke-linecap: square" />
   </g>
   <g id="patch_5">
    <path d="M 103.104 307.584  L 369.216 307.584  " style="fill: none; stroke: #000000; stroke-width: 0.8; stroke-linejoin: miter; stroke-linecap: square" />
   </g>
   <g id="patch_6">
    <path d="M 103.104 41.472  L 369.216 41.472  " style="fill: none; stroke: #000000; stroke-width: 0.8; stroke-linejoin: miter; stroke-linecap: square" />
   </g>
   <g id="mytooltip_000" visibility="hidden">
    <g id="patch_7">
     <path d="M 232.80825 268.89575  L 328.21575 268.89575  Q 332.21575 268.89575 332.21575 264.89575  L 332.21575 257.15325  Q 332.21575 253.15325 328.21575 253.15325  L 232.80825 253.15325  Q 228.80825 253.15325 228.80825 257.15325  L 228.80825 264.89575  Q 228.80825 268.89575 232.80825 268.89575  z " style="fill: #1a1a1a; fill-opacity: 0.92; stroke: #ffffff; stroke-linejoin: miter" />
    </g>
    
    <g style="fill: #ffffff" transform="translate(232.80825 263.232) scale(0.08 -0.08)">
     <defs>
      <path id="DejaVuSans-54" d="M -19 4666  L 3928 4666  L 3928 4134  L 2272 4134  L 2272 0  L 1638 0  L 1638 4134  L -19 4134  L -19 4666  z " transform="scale(0.015625)" />
      <path id="DejaVuSans-68" d="M 3513 2113  L 3513 0  L 2938 0  L 2938 2094  Q 2938 2591 2744 2837  Q 2550 3084 2163 3084  Q 1697 3084 1428 2787  Q 1159 2491 1159 1978  L 1159 0  L 581 0  L 581 4863  L 1159 4863  L 1159 2956  Q 1366 3272 1645 3428  Q 1925 3584 2291 3584  Q 2894 3584 3203 3211  Q 3513 2838 3513 2113  z " transform="scale(0.015625)" />
      <path id="DejaVuSans-69" d="M 603 3500  L 1178 3500  L 1178 0  L 603 0  L 603 3500  z M 603 4863  L 1178 4863  L 1178 4134  L 603 4134  L 603 4863  z " transform="scale(0.015625)" />
      <path id="DejaVuSans-73" d="M 2834 3397  L 2834 2853  Q 2591 2978 2328 3040  Q 2066 3103 1784 3103  Q 1356 3103 1142 2972  Q 928 2841 928 2578  Q 928 2378 1081 2264  Q 1234 2150 1697 2047  L 1894 2003  Q 2506 1872 2764 1633  Q 3022 1394 3022 966  Q 3022 478 2636 193  Q 2250 -91 1575 -91  Q 1294 -91 989 -36  Q 684 19 347 128  L 347 722  Q 666 556 975 473  Q 1284 391 1588 391  Q 1994 391 2212 530  Q 2431 669 2431 922  Q 2431 1156 2273 1281  Q 2116 1406 1581 1522  L 1381 1569  Q 847 1681 609 1914  Q 372 2147 372 2553  Q 372 3047 722 3315  Q 1072 3584 1716 3584  Q 2034 3584 2315 3537  Q 2597 3491 2834 3397  z " transform="scale(0.015625)" />
      <path id="DejaVuSans-20" transform="scale(0.015625)" />
      <path id="DejaVuSans-61" d="M 2194 1759  Q 1497 1759 1228 1600  Q 959 1441 959 1056  Q 959 750 1161 570  Q 1363 391 1709 391  Q 2188 391 2477 730  Q 2766 1069 2766 1631  L 2766 1759  L 2194 1759  z M 3341 1997  L 3341 0  L 2766 0  L 2766 531  Q 2569 213 2275 61  Q 1981 -91 1556 -91  Q 1019 -91 701 211  Q 384 513 384 1019  Q 384 1609 779 1909  Q 1175 2209 1959 2209  L 2766 2209  L 2766 2266  Q 2766 2663 2505 2880  Q 2244 3097 1772 3097  Q 1472 3097 1187 3025  Q 903 2953 641 2809  L 641 3341  Q 956 3463 1253 3523  Q 1550 3584 1831 3584  Q 2591 3584 2966 3190  Q 3341 2797 3341 1997  z " transform="scale(0.015625)" />
      <path id="DejaVuSans-62" d="M 3116 1747  Q 3116 2381 2855 2742  Q 2594 3103 2138 3103  Q 1681 3103 1420 2742  Q 1159 2381 1159 1747  Q 1159 1113 1420 752  Q 1681 391 2138 391  Q 2594 391 2855 752  Q 3116 1113 3116 1747  z M 1159 2969  Q 1341 3281 1617 3432  Q 1894 3584 2278 3584  Q 2916 3584 3314 3078  Q 3713 2572 3713 1747  Q 3713 922 3314 415  Q 2916 -91 2278 -91  Q 1894 -91 1617 61  Q 1341 213 1159 525  L 1159 0  L 581 0  L 581 4863  L 1159 4863  L 1159 2969  z " transform="scale(0.015625)" />
      <path id="DejaVuSans-6c" d="M 603 4863  L 1178 4863  L 1178 0  L 603 0  L 603 4863  z " transform="scale(0.015625)" />
      <path id="DejaVuSans-75" d="M 544 1381  L 544 3500  L 1119 3500  L 1119 1403  Q 1119 906 1312 657  Q 1506 409 1894 409  Q 2359 409 2629 706  Q 2900 1003 2900 1516  L 2900 3500  L 3475 3500  L 3475 0  L 2900 0  L 2900 538  Q 2691 219 2414 64  Q 2138 -91 1772 -91  Q 1169 -91 856 284  Q 544 659 544 1381  z M 1991 3584  L 1991 3584  z " transform="scale(0.015625)" />
      <path id="DejaVuSans-65" d="M 3597 1894  L 3597 1613  L 953 1613  Q 991 1019 1311 708  Q 1631 397 2203 397  Q 2534 397 2845 478  Q 3156 559 3463 722  L 3463 178  Q 3153 47 2828 -22  Q 2503 -91 2169 -91  Q 1331 -91 842 396  Q 353 884 353 1716  Q 353 2575 817 3079  Q 1281 3584 2069 3584  Q 2775 3584 3186 3129  Q 3597 2675 3597 1894  z M 3022 2063  Q 3016 2534 2758 2815  Q 2500 3097 2075 3097  Q 1594 3097 1305 2825  Q 1016 2553 972 2059  L 3022 2063  z " transform="scale(0.015625)" />
      <path id="DejaVuSans-72" d="M 2631 2963  Q 2534 3019 2420 3045  Q 2306 3072 2169 3072  Q 1681 3072 1420 2755  Q 1159 2438 1159 1844  L 1159 0  L 581 0  L 581 3500  L 1159 3500  L 1159 2956  Q 1341 3275 1631 3429  Q 1922 3584 2338 3584  Q 2397 3584 2469 3576  Q 2541 3569 2628 3553  L 2631 2963  z " transform="scale(0.015625)" />
      <path id="DejaVuSans-63" d="M 3122 3366  L 3122 2828  Q 2878 2963 2633 3030  Q 2388 3097 2138 3097  Q 1578 3097 1268 2742  Q 959 2388 959 1747  Q 959 1106 1268 751  Q 1578 397 2138 397  Q 2388 397 2633 464  Q 2878 531 3122 666  L 3122 134  Q 2881 22 2623 -34  Q 2366 -91 2075 -91  Q 1284 -91 818 406  Q 353 903 353 1747  Q 353 2603 823 3093  Q 1294 3584 2113 3584  Q 2378 3584 2631 3529  Q 2884 3475 3122 3366  z " transform="scale(0.015625)" />
      <path id="DejaVuSans-74" d="M 1172 4494  L 1172 3500  L 2356 3500  L 2356 3053  L 1172 3053  L 1172 1153  Q 1172 725 1289 603  Q 1406 481 1766 481  L 2356 481  L 2356 0  L 1766 0  Q 1100 0 847 248  Q 594 497 594 1153  L 594 3053  L 172 3053  L 172 3500  L 594 3500  L 594 4494  L 1172 4494  z " transform="scale(0.015625)" />
      <path id="DejaVuSans-6e" d="M 3513 2113  L 3513 0  L 2938 0  L 2938 2094  Q 2938 2591 2744 2837  Q 2550 3084 2163 3084  Q 1697 3084 1428 2787  Q 1159 2491 1159 1978  L 1159 0  L 581 0  L 581 3500  L 1159 3500  L 1159 2956  Q 1366 3272 1645 3428  Q 1925 3584 2291 3584  Q 2894 3584 3203 3211  Q 3513 2838 3513 2113  z " transform="scale(0.015625)" />
      <path id="DejaVuSans-67" d="M 2906 1791  Q 2906 2416 2648 2759  Q 2391 3103 1925 3103  Q 1463 3103 1205 2759  Q 947 2416 947 1791  Q 947 1169 1205 825  Q 1463 481 1925 481  Q 2391 481 2648 825  Q 2906 1169 2906 1791  z M 3481 434  Q 3481 -459 3084 -895  Q 2688 -1331 1869 -1331  Q 1566 -1331 1297 -1286  Q 1028 -1241 775 -1147  L 775 -588  Q 1028 -725 1275 -790  Q 1522 -856 1778 -856  Q 2344 -856 2625 -561  Q 2906 -266 2906 331  L 2906 616  Q 2728 306 2450 153  Q 2172 0 1784 0  Q 1141 0 747 490  Q 353 981 353 1791  Q 353 2603 747 3093  Q 1141 3584 1784 3584  Q 2172 3584 2450 3431  Q 2728 3278 2906 2969  L 2906 3500  L 3481 3500  L 3481 434  z " transform="scale(0.015625)" />
      <path id="DejaVuSans-2e" d="M 684 794  L 1344 794  L 1344 0  L 684 0  L 684 794  z " transform="scale(0.015625)" />
     </defs>
     <use ns4:href="#DejaVuSans-54" />
     <use ns4:href="#DejaVuSans-68" transform="translate(61.083984 0)" />
     <use ns4:href="#DejaVuSans-69" transform="translate(124.462891 0)" />
     <use ns4:href="#DejaVuSans-73" transform="translate(152.246094 0)" />
     <use ns4:href="#DejaVuSans-20" transform="translate(204.345703 0)" />
     <use ns4:href="#DejaVuSans-69" transform="translate(236.132812 0)" />
     <use ns4:href="#DejaVuSans-73" transform="translate(263.916016 0)" />
     <use ns4:href="#DejaVuSans-20" transform="translate(316.015625 0)" />
     <use ns4:href="#DejaVuSans-61" transform="translate(347.802734 0)" />
     <use ns4:href="#DejaVuSans-20" transform="translate(409.082031 0)" />
     <use ns4:href="#DejaVuSans-62" transform="translate(440.869141 0)" />
     <use ns4:href="#DejaVuSans-6c" transform="translate(504.345703 0)" />
     <use ns4:href="#DejaVuSans-75" transform="translate(532.128906 0)" />
     <use ns4:href="#DejaVuSans-65" transform="translate(595.507812 0)" />
     <use ns4:href="#DejaVuSans-20" transform="translate(657.03125 0)" />
     <use ns4:href="#DejaVuSans-72" transform="translate(688.818359 0)" />
     <use ns4:href="#DejaVuSans-65" transform="translate(727.681641 0)" />
     <use ns4:href="#DejaVuSans-63" transform="translate(789.205078 0)" />
     <use ns4:href="#DejaVuSans-74" transform="translate(844.185547 0)" />
     <use ns4:href="#DejaVuSans-61" transform="translate(883.394531 0)" />
     <use ns4:href="#DejaVuSans-6e" transform="translate(944.673828 0)" />
     <use ns4:href="#DejaVuSans-67" transform="translate(1008.052734 0)" />
     <use ns4:href="#DejaVuSans-6c" transform="translate(1071.529297 0)" />
     <use ns4:href="#DejaVuSans-65" transform="translate(1099.3125 0)" />
     <use ns4:href="#DejaVuSans-2e" transform="translate(1160.835938 0)" />
    </g>
   </g>
   <g id="mytooltip_001" visibility="hidden">
    <g id="patch_8">
     <path d="M 98.119125 113.66375  L 196.792875 113.66375  Q 200.792875 113.66375 200.792875 109.66375  L 200.792875 101.92125  Q 200.792875 97.92125 196.792875 97.92125  L 98.119125 97.92125  Q 94.119125 97.92125 94.119125 101.92125  L 94.119125 109.66375  Q 94.119125 113.66375 98.119125 113.66375  z " style="fill: #1a1a1a; fill-opacity: 0.92; stroke: #ffffff; stroke-linejoin: miter" />
    </g>
    
    <g style="fill: #ffffff" transform="translate(98.119125 108) scale(0.08 -0.08)">
     <use ns4:href="#DejaVuSans-54" />
     <use ns4:href="#DejaVuSans-68" transform="translate(61.083984 0)" />
     <use ns4:href="#DejaVuSans-69" transform="translate(124.462891 0)" />
     <use ns4:href="#DejaVuSans-73" transform="translate(152.246094 0)" />
     <use ns4:href="#DejaVuSans-20" transform="translate(204.345703 0)" />
     <use ns4:href="#DejaVuSans-69" transform="translate(236.132812 0)" />
     <use ns4:href="#DejaVuSans-73" transform="translate(263.916016 0)" />
     <use ns4:href="#DejaVuSans-20" transform="translate(316.015625 0)" />
     <use ns4:href="#DejaVuSans-61" transform="translate(347.802734 0)" />
     <use ns4:href="#DejaVuSans-20" transform="translate(409.082031 0)" />
     <use ns4:href="#DejaVuSans-67" transform="translate(440.869141 0)" />
     <use ns4:href="#DejaVuSans-72" transform="translate(504.345703 0)" />
     <use ns4:href="#DejaVuSans-65" transform="translate(543.208984 0)" />
     <use ns4:href="#DejaVuSans-65" transform="translate(604.732422 0)" />
     <use ns4:href="#DejaVuSans-6e" transform="translate(666.255859 0)" />
     <use ns4:href="#DejaVuSans-20" transform="translate(729.634766 0)" />
     <use ns4:href="#DejaVuSans-72" transform="translate(761.421875 0)" />
     <use ns4:href="#DejaVuSans-65" transform="translate(800.285156 0)" />
     <use ns4:href="#DejaVuSans-63" transform="translate(861.808594 0)" />
     <use ns4:href="#DejaVuSans-74" transform="translate(916.789062 0)" />
     <use ns4:href="#DejaVuSans-61" transform="translate(955.998047 0)" />
     <use ns4:href="#DejaVuSans-6e" transform="translate(1017.277344 0)" />
     <use ns4:href="#DejaVuSans-67" transform="translate(1080.65625 0)" />
     <use ns4:href="#DejaVuSans-6c" transform="translate(1144.132812 0)" />
     <use ns4:href="#DejaVuSans-65" transform="translate(1171.916016 0)" />
    </g>
   </g>
  </g>
 </g>
 <defs>
  <clipPath id="p60f0075635">
   <rect x="103.104" y="41.472" width="266.112" height="266.112" />
  </clipPath>
 </defs>
</svg>