<?xml version="1.0" encoding="utf-8" standalone="no"?>
<!DOCTYPE svg PUBLIC "-//W3C//DTD SVG 1.1//EN"
  "http://www.w3.org/Graphics/SVG/1.1/DTD/svg11.dtd">
<svg xmlns:xlink="http://www.w3.org/1999/xlink" width="378pt" height="54pt" viewBox="0 0 378 54" xmlns="http://www.w3.org/2000/svg" version="1.1">
 <metadata>
  <rdf:RDF xmlns:dc="http://purl.org/dc/elements/1.1/" xmlns:cc="http://creativecommons.org/ns#" xmlns:rdf="http://www.w3.org/1999/02/22-rdf-syntax-ns#">
   <cc:Work>
    <dc:type rdf:resource="http://purl.org/dc/dcmitype/StillImage"/>
    <dc:date>2025-04-24T03:43:09.960635</dc:date>
    <dc:format>image/svg+xml</dc:format>
    <dc:creator>
     <cc:Agent>
      <dc:title>Matplotlib v3.11.0.dev693+g8bfd78f319.d20250424, https://matplotlib.org/</dc:title>
     </cc:Agent>
    </dc:creator>
   </cc:Work>
  </rdf:RDF>
 </metadata>
 <defs>
  <style type="text/css">*{stroke-linejoin: round; stroke-linecap: butt}</style>
 </defs>
 <g id="figure_1">
  <g id="patch_1">
   <path d="M 0 54 
L 378 54 
L 378 0 
L 0 0 
z
" style="fill: #ffffff"/>
  </g>
  <g id="text_1">
   <!-- $\left\lceil M \middle/ ? \middle\backslash ? \right\rceil \left\lceil \frac{M}{B} \middle/ ? \middle\backslash ? \right\rceil \left\lceil \frac{\frac{M}{I}}{B} \middle/ ? \middle\backslash ? \right\rceil \left\lceil \frac{\frac{M}{I}}{\frac{B}{U}} \middle/ ? \middle\backslash ? \right\rceil \left\lceil\frac{\frac{\frac{M}{I}}{N}}{\frac{\frac{B}{U}}{G}} \middle/ ? \middle\backslash ? \right\rceil$ -->
   <g transform="translate(64.62 29.46) scale(0.12 -0.12)">
    <defs>
     <path id="Cmex10-a7" d="M 1294 -7419 
L 1294 256 
L 2875 256 
L 2875 0 
L 1550 0 
L 1550 -7419 
L 1294 -7419 
z
" transform="scale(0.015625)"/>
     <path id="Cmmi10-4d" d="M 325 0 
Q 263 0 263 84 
Q 266 100 275 137 
Q 284 175 300 200 
Q 316 225 347 225 
Q 956 225 1056 616 
L 1888 3956 
Q 1900 4019 1900 4044 
Q 1900 4113 1825 4122 
Q 1703 4147 1363 4147 
Q 1300 4147 1300 4231 
Q 1303 4247 1312 4286 
Q 1322 4325 1339 4348 
Q 1356 4372 1381 4372 
L 2509 4372 
Q 2581 4372 2591 4300 
L 3091 634 
L 5422 4300 
Q 5466 4372 5544 4372 
L 6631 4372 
Q 6694 4372 6694 4288 
Q 6691 4272 6681 4233 
Q 6672 4194 6655 4170 
Q 6638 4147 6613 4147 
Q 6222 4147 6069 4103 
Q 5984 4075 5947 3928 
L 5069 416 
Q 5056 353 5056 325 
Q 5056 300 5064 283 
Q 5072 266 5086 261 
Q 5100 256 5131 250 
Q 5253 225 5594 225 
Q 5656 225 5656 141 
Q 5634 50 5621 25 
Q 5609 0 5550 0 
L 3878 0 
Q 3816 0 3816 84 
Q 3819 100 3828 139 
Q 3838 178 3855 201 
Q 3872 225 3897 225 
Q 4288 225 4441 269 
Q 4525 297 4563 441 
L 5484 4147 
L 2900 72 
Q 2863 0 2772 0 
Q 2691 0 2681 72 
L 2138 4097 
L 1259 588 
Q 1253 572 1250 548 
Q 1247 525 1241 494 
Q 1241 328 1386 276 
Q 1531 225 1741 225 
Q 1806 225 1806 141 
Q 1784 56 1770 28 
Q 1756 0 1697 0 
L 325 0 
z
" transform="scale(0.015625)"/>
     <path id="Cmmi10-3d" d="M 359 -1472 
Q 359 -1453 366 -1447 
L 2591 4722 
Q 2603 4759 2634 4779 
Q 2666 4800 2706 4800 
Q 2763 4800 2798 4765 
Q 2834 4731 2834 4672 
L 2834 4647 
L 609 -1522 
Q 572 -1600 488 -1600 
Q 434 -1600 396 -1562 
Q 359 -1525 359 -1472 
z
" transform="scale(0.015625)"/>
     <path id="Cmr10-3f" d="M 1069 353 
Q 1069 497 1175 600 
Q 1281 703 1422 703 
Q 1509 703 1593 656 
Q 1678 609 1725 525 
Q 1772 441 1772 353 
Q 1772 213 1669 106 
Q 1566 0 1422 0 
Q 1281 0 1175 106 
Q 1069 213 1069 353 
z
M 1331 1275 
L 1331 1600 
Q 1331 2019 1484 2422 
Q 1638 2825 1919 3116 
Q 2013 3216 2056 3355 
Q 2100 3494 2100 3647 
Q 2100 3909 2040 4059 
Q 1981 4209 1834 4278 
Q 1688 4347 1422 4347 
Q 1175 4347 961 4247 
Q 747 4147 628 3950 
L 666 3950 
Q 794 3950 883 3861 
Q 972 3772 972 3641 
Q 972 3516 881 3425 
Q 791 3334 666 3334 
Q 541 3334 450 3425 
Q 359 3516 359 3641 
Q 359 3903 514 4101 
Q 669 4300 916 4406 
Q 1163 4513 1422 4513 
Q 1725 4513 2008 4433 
Q 2291 4353 2473 4156 
Q 2656 3959 2656 3641 
Q 2656 3453 2568 3279 
Q 2481 3106 2322 2994 
Q 1956 2738 1736 2369 
Q 1516 2000 1516 1588 
L 1516 1275 
Q 1516 1253 1497 1234 
Q 1478 1216 1459 1216 
L 1381 1216 
Q 1366 1216 1348 1236 
Q 1331 1256 1331 1275 
z
" transform="scale(0.015625)"/>
     <path id="Cmex10-b2" d="M 3072 -7341 
L 372 63 
Q 359 94 359 122 
Q 359 175 400 215 
Q 441 256 500 256 
Q 575 256 622 178 
L 3322 -7225 
Q 3334 -7250 3334 -7284 
Q 3334 -7338 3293 -7378 
Q 3253 -7419 3200 -7419 
Q 3116 -7419 3072 -7341 
z
" transform="scale(0.015625)"/>
     <path id="Cmex10-a8" d="M 1466 -7419 
L 1466 0 
L 141 0 
L 141 256 
L 1722 256 
L 1722 -7419 
L 1466 -7419 
z
" transform="scale(0.015625)"/>
     <path id="Cmmi10-42" d="M 319 0 
Q 256 0 256 84 
Q 259 100 268 137 
Q 278 175 293 200 
Q 309 225 341 225 
Q 522 225 656 234 
Q 791 244 884 269 
Q 959 297 1006 441 
L 1881 3956 
Q 1894 4019 1894 4044 
Q 1894 4113 1819 4122 
Q 1697 4147 1356 4147 
Q 1294 4147 1294 4231 
Q 1297 4247 1306 4286 
Q 1316 4325 1333 4348 
Q 1350 4372 1375 4372 
L 3669 4372 
Q 3878 4372 4083 4320 
Q 4288 4269 4461 4156 
Q 4634 4044 4736 3876 
Q 4838 3709 4838 3488 
Q 4838 3247 4714 3040 
Q 4591 2834 4395 2681 
Q 4200 2528 3973 2429 
Q 3747 2331 3500 2284 
Q 3675 2284 3854 2215 
Q 4034 2147 4175 2028 
Q 4316 1909 4402 1743 
Q 4488 1578 4488 1388 
Q 4488 1003 4219 684 
Q 3950 366 3542 183 
Q 3134 0 2753 0 
L 319 0 
z
M 1497 275 
Q 1497 225 1716 225 
L 2631 225 
Q 2944 225 3231 398 
Q 3519 572 3692 859 
Q 3866 1147 3866 1459 
Q 3866 1650 3786 1820 
Q 3706 1991 3556 2089 
Q 3406 2188 3213 2188 
L 1966 2188 
L 1522 416 
Q 1497 328 1497 275 
z
M 2009 2356 
L 2981 2356 
Q 3288 2356 3577 2512 
Q 3866 2669 4048 2937 
Q 4231 3206 4231 3506 
Q 4231 3784 4057 3965 
Q 3884 4147 3609 4147 
L 2731 4147 
Q 2559 4147 2500 4115 
Q 2441 4084 2400 3928 
L 2009 2356 
z
" transform="scale(0.015625)"/>
     <path id="Cmex10-b1" d="M 359 -7284 
Q 359 -7250 366 -7244 
L 3072 178 
Q 3084 216 3120 236 
Q 3156 256 3200 256 
Q 3253 256 3293 215 
Q 3334 175 3334 122 
Q 3334 91 3328 84 
L 622 -7341 
Q 609 -7372 570 -7395 
Q 531 -7419 500 -7419 
Q 441 -7419 400 -7378 
Q 359 -7338 359 -7284 
z
" transform="scale(0.015625)"/>
     <path id="Cmex10-6c" d="M 1447 -11256 
L 1447 256 
L 3256 256 
L 3256 -50 
L 1753 -50 
L 1753 -11256 
L 1447 -11256 
z
" transform="scale(0.015625)"/>
     <path id="Cmmi10-49" d="M 269 0 
Q 206 0 206 84 
Q 231 225 288 225 
Q 666 225 800 250 
Q 947 284 984 441 
L 1863 3956 
Q 1875 4019 1875 4038 
Q 1875 4078 1854 4095 
Q 1834 4113 1791 4122 
Q 1663 4147 1306 4147 
Q 1241 4147 1241 4231 
Q 1263 4313 1275 4342 
Q 1288 4372 1350 4372 
L 3138 4372 
Q 3200 4372 3200 4288 
Q 3197 4272 3187 4234 
Q 3178 4197 3162 4172 
Q 3147 4147 3116 4147 
Q 2741 4147 2597 4122 
Q 2456 4088 2419 3928 
L 1544 416 
Q 1528 338 1528 331 
Q 1528 316 1533 302 
Q 1538 288 1552 277 
Q 1566 266 1580 261 
Q 1594 256 1613 250 
Q 1734 225 2100 225 
Q 2163 225 2163 141 
Q 2141 50 2128 25 
Q 2116 0 2053 0 
L 269 0 
z
" transform="scale(0.015625)"/>
     <path id="Cmex10-2e" d="M 359 -11122 
L 359 -11084 
Q 363 -11078 364 -11072 
Q 366 -11066 366 -11059 
L 4525 153 
Q 4550 234 4653 256 
L 4691 256 
Q 4794 238 4825 122 
L 4825 84 
Q 4825 78 4823 70 
Q 4822 63 4819 56 
L 659 -11156 
Q 634 -11234 531 -11256 
L 494 -11256 
Q 391 -11238 359 -11122 
z
" transform="scale(0.015625)"/>
     <path id="Cmex10-2f" d="M 4531 -11169 
L 366 56 
L 359 84 
L 359 122 
Q 378 225 494 256 
L 531 256 
Q 616 256 653 166 
L 4819 -11059 
L 4825 -11084 
L 4825 -11122 
Q 4806 -11225 4691 -11256 
L 4653 -11256 
Q 4569 -11256 4531 -11169 
z
" transform="scale(0.015625)"/>
     <path id="Cmex10-6d" d="M 1619 -11256 
L 1619 -50 
L 116 -50 
L 116 256 
L 1925 256 
L 1925 -11256 
L 1619 -11256 
z
" transform="scale(0.015625)"/>
     <path id="Cmex10-bb" d="M 1594 -15097 
L 1594 256 
L 3641 256 
L 3641 -109 
L 1959 -109 
L 1959 -15097 
L 1594 -15097 
z
" transform="scale(0.015625)"/>
     <path id="Cmmi10-55" d="M 941 891 
Q 941 656 1033 472 
Q 1125 288 1300 186 
Q 1475 84 1709 84 
Q 1984 84 2245 196 
Q 2506 309 2715 509 
Q 2925 709 3073 965 
Q 3222 1222 3284 1472 
L 3859 3781 
Q 3872 3850 3872 3878 
Q 3872 4147 3378 4147 
Q 3316 4147 3316 4231 
Q 3338 4313 3350 4342 
Q 3363 4372 3425 4372 
L 4813 4372 
Q 4841 4372 4859 4344 
Q 4878 4316 4878 4288 
Q 4878 4284 4865 4239 
Q 4853 4194 4836 4170 
Q 4819 4147 4794 4147 
Q 4181 4147 4084 3756 
L 3506 1447 
Q 3434 1147 3264 864 
Q 3094 581 2845 351 
Q 2597 122 2298 -9 
Q 2000 -141 1691 -141 
Q 1338 -141 1045 14 
Q 753 169 587 447 
Q 422 725 422 1088 
Q 422 1297 469 1472 
L 1088 3956 
Q 1100 4019 1100 4044 
Q 1100 4113 1025 4122 
Q 903 4147 563 4147 
Q 500 4147 500 4231 
Q 522 4313 534 4342 
Q 547 4372 609 4372 
L 2328 4372 
Q 2394 4372 2394 4288 
Q 2391 4272 2381 4234 
Q 2372 4197 2356 4172 
Q 2341 4147 2309 4147 
Q 1919 4147 1766 4103 
Q 1681 4072 1644 3928 
L 1025 1447 
Q 941 1109 941 891 
z
" transform="scale(0.015625)"/>
     <path id="Cmex10-c1" d="M 359 -14925 
Q 359 -14903 372 -14859 
L 5984 147 
Q 6038 256 6144 256 
Q 6216 256 6266 206 
Q 6316 156 6316 84 
Q 6316 56 6303 19 
L 691 -14988 
Q 638 -15097 531 -15097 
Q 459 -15097 409 -15047 
Q 359 -14997 359 -14925 
z
" transform="scale(0.015625)"/>
     <path id="Cmex10-c2" d="M 5984 -14988 
L 372 19 
Q 359 56 359 84 
Q 359 156 409 206 
Q 459 256 531 256 
Q 638 256 691 147 
L 6303 -14859 
Q 6316 -14903 6316 -14925 
Q 6316 -14997 6266 -15047 
Q 6216 -15097 6144 -15097 
Q 6038 -15097 5984 -14988 
z
" transform="scale(0.015625)"/>
     <path id="Cmex10-bc" d="M 1766 -15097 
L 1766 -109 
L 84 -109 
L 84 256 
L 2131 256 
L 2131 -15097 
L 1766 -15097 
z
" transform="scale(0.015625)"/>
     <path id="Cmex10-26" d="M 1747 -18938 
L 1747 256 
L 4025 256 
L 4025 -159 
L 2163 -159 
L 2163 -18938 
L 1747 -18938 
z
" transform="scale(0.015625)"/>
     <path id="Cmmi10-4e" d="M 300 0 
Q 238 0 238 84 
Q 241 100 250 139 
Q 259 178 276 201 
Q 294 225 319 225 
Q 931 225 1031 616 
L 1900 4116 
Q 1722 4147 1338 4147 
Q 1275 4147 1275 4231 
Q 1278 4247 1287 4286 
Q 1297 4325 1314 4348 
Q 1331 4372 1356 4372 
L 2463 4372 
Q 2509 4372 2522 4331 
L 3944 947 
L 4653 3781 
Q 4666 3850 4666 3878 
Q 4666 4147 4172 4147 
Q 4109 4147 4109 4231 
Q 4131 4313 4143 4342 
Q 4156 4372 4219 4372 
L 5588 4372 
Q 5650 4372 5650 4288 
Q 5647 4272 5637 4233 
Q 5628 4194 5611 4170 
Q 5594 4147 5569 4147 
Q 4956 4147 4856 3756 
L 3938 56 
Q 3916 0 3872 0 
L 3794 0 
Q 3750 0 3738 44 
L 2106 3916 
L 2094 3956 
Q 2081 3969 2081 3975 
L 1234 588 
Q 1228 572 1225 548 
Q 1222 525 1216 494 
Q 1216 328 1359 276 
Q 1503 225 1716 225 
Q 1778 225 1778 141 
Q 1756 53 1740 26 
Q 1725 0 1672 0 
L 300 0 
z
" transform="scale(0.015625)"/>
     <path id="Cmmi10-47" d="M 934 1403 
Q 934 1006 1092 707 
Q 1250 409 1547 246 
Q 1844 84 2234 84 
Q 2616 84 2959 264 
Q 3303 444 3391 781 
L 3531 1331 
Q 3534 1350 3537 1370 
Q 3541 1391 3541 1403 
Q 3541 1469 3500 1478 
Q 3341 1522 2859 1522 
Q 2797 1522 2797 1606 
Q 2816 1684 2831 1715 
Q 2847 1747 2906 1747 
L 4556 1747 
Q 4622 1747 4622 1663 
Q 4619 1647 4609 1609 
Q 4600 1572 4584 1547 
Q 4569 1522 4538 1522 
Q 4325 1522 4226 1487 
Q 4128 1453 4091 1306 
L 3950 756 
L 3769 44 
Q 3759 0 3713 0 
Q 3659 0 3559 144 
Q 3459 288 3419 384 
Q 3197 122 2825 -9 
Q 2453 -141 2059 -141 
Q 1563 -141 1164 84 
Q 766 309 545 709 
Q 325 1109 325 1613 
Q 325 2150 564 2673 
Q 803 3197 1212 3611 
Q 1622 4025 2142 4269 
Q 2663 4513 3194 4513 
Q 3406 4513 3601 4447 
Q 3797 4381 3964 4251 
Q 4131 4122 4238 3950 
L 4744 4500 
Q 4744 4513 4775 4513 
L 4813 4513 
Q 4838 4513 4855 4492 
Q 4872 4472 4872 4447 
L 4434 2719 
Q 4434 2675 4384 2675 
L 4269 2675 
Q 4219 2675 4219 2747 
Q 4244 2888 4244 3078 
Q 4244 3394 4137 3672 
Q 4031 3950 3806 4119 
Q 3581 4288 3256 4288 
Q 2741 4288 2303 4027 
Q 1866 3766 1562 3337 
Q 1259 2909 1096 2396 
Q 934 1884 934 1403 
z
" transform="scale(0.015625)"/>
     <path id="Cmex10-2c" d="M 359 -18747 
Q 359 -18706 378 -18669 
L 7444 141 
Q 7500 256 7622 256 
Q 7703 256 7759 200 
Q 7816 144 7816 63 
Q 7816 44 7803 -19 
L 738 -18822 
Q 666 -18938 556 -18938 
Q 478 -18938 418 -18878 
Q 359 -18819 359 -18747 
z
" transform="scale(0.015625)"/>
     <path id="Cmex10-2d" d="M 7444 -18822 
L 378 -19 
Q 359 28 359 63 
Q 359 141 417 198 
Q 475 256 556 256 
Q 666 256 738 141 
L 7803 -18669 
Q 7816 -18719 7816 -18747 
Q 7816 -18822 7758 -18880 
Q 7700 -18938 7622 -18938 
Q 7500 -18938 7444 -18822 
z
" transform="scale(0.015625)"/>
     <path id="Cmex10-27" d="M 1919 -18938 
L 1919 -159 
L 56 -159 
L 56 256 
L 2338 256 
L 2338 -18938 
L 1919 -18938 
z
" transform="scale(0.015625)"/>
    </defs>
    <use xlink:href="#Cmex10-a7" transform="translate(0 69.13325) scale(0.588013)"/>
    <use xlink:href="#Cmmi10-4d" transform="translate(27.761993 0.977)"/>
    <use xlink:href="#Cmmi10-3d" transform="translate(124.783478 18.602) scale(0.705156)"/>
    <use xlink:href="#Cmr10-3f" transform="translate(160.04129 0.977)"/>
    <use xlink:href="#Cmex10-b2" transform="translate(207.258087 69.13325) scale(0.588013)"/>
    <use xlink:href="#Cmr10-3f" transform="translate(241.192612 0.977)"/>
    <use xlink:href="#Cmex10-a8" transform="translate(288.409409 69.13325) scale(0.588013)"/>
    <use xlink:href="#Cmex10-a7" transform="translate(316.171402 82.048875) scale(1.058085)"/>
    <use xlink:href="#Cmmi10-4d" transform="translate(366.12529 38.477) scale(0.7)"/>
    <use xlink:href="#Cmmi10-42" transform="translate(373.12529 -40.59175) scale(0.7)"/>
    <use xlink:href="#Cmex10-b1" transform="translate(446.540329 82.048875) scale(1.058085)"/>
    <use xlink:href="#Cmr10-3f" transform="translate(507.60083 0.977)"/>
    <use xlink:href="#Cmex10-b2" transform="translate(554.817627 82.048875) scale(1.058085)"/>
    <use xlink:href="#Cmr10-3f" transform="translate(615.878128 0.977)"/>
    <use xlink:href="#Cmex10-a8" transform="translate(663.094925 82.048875) scale(1.058085)"/>
    <use xlink:href="#Cmex10-6c" transform="translate(713.048813 123.548875) scale(0.93337)"/>
    <use xlink:href="#Cmmi10-4d" transform="translate(762.219238 93.825125) scale(0.49)"/>
    <use xlink:href="#Cmmi10-49" transform="translate(775.219238 38.477) scale(0.49)"/>
    <use xlink:href="#Cmmi10-42" transform="translate(764.219238 -40.59175) scale(0.7)"/>
    <use xlink:href="#Cmex10-2e" transform="translate(831.009766 123.548875) scale(0.93337)"/>
    <use xlink:href="#Cmr10-3f" transform="translate(906.702148 0.977)"/>
    <use xlink:href="#Cmex10-2f" transform="translate(953.918945 123.548875) scale(0.93337)"/>
    <use xlink:href="#Cmr10-3f" transform="translate(1029.611328 0.977)"/>
    <use xlink:href="#Cmex10-6d" transform="translate(1076.828125 123.548875) scale(0.93337)"/>
    <use xlink:href="#Cmex10-bb" transform="translate(1125.99855 123.763719) scale(0.875282)"/>
    <use xlink:href="#Cmmi10-4d" transform="translate(1177.020844 93.825125) scale(0.49)"/>
    <use xlink:href="#Cmmi10-49" transform="translate(1190.020844 38.477) scale(0.49)"/>
    <use xlink:href="#Cmmi10-42" transform="translate(1182.020844 -26.246125) scale(0.49)"/>
    <use xlink:href="#Cmmi10-55" transform="translate(1184.020844 -81.59425) scale(0.49)"/>
    <use xlink:href="#Cmex10-c1" transform="translate(1245.811371 123.763719) scale(0.875282)"/>
    <use xlink:href="#Cmr10-3f" transform="translate(1337.172897 0.977)"/>
    <use xlink:href="#Cmex10-c2" transform="translate(1384.389694 123.763719) scale(0.875282)"/>
    <use xlink:href="#Cmr10-3f" transform="translate(1475.751221 0.977)"/>
    <use xlink:href="#Cmex10-bc" transform="translate(1522.968018 123.763719) scale(0.875282)"/>
    <use xlink:href="#Cmex10-26" transform="translate(1573.990311 152.351766) scale(0.89765)"/>
    <use xlink:href="#Cmmi10-4d" transform="translate(1631.267288 132.568813) scale(0.343)"/>
    <use xlink:href="#Cmmi10-49" transform="translate(1640.267288 93.825125) scale(0.343)"/>
    <use xlink:href="#Cmmi10-4e" transform="translate(1631.267288 38.477) scale(0.49)"/>
    <use xlink:href="#Cmmi10-42" transform="translate(1634.267288 -16.204187) scale(0.343)"/>
    <use xlink:href="#Cmmi10-55" transform="translate(1635.267288 -54.947875) scale(0.343)"/>
    <use xlink:href="#Cmmi10-47" transform="translate(1631.267288 -112.131203) scale(0.49)"/>
    <use xlink:href="#Cmex10-2c" transform="translate(1691.920657 152.351766) scale(0.89765)"/>
    <use xlink:href="#Cmr10-3f" transform="translate(1806.518436 0.977)"/>
    <use xlink:href="#Cmex10-2d" transform="translate(1853.735233 152.351766) scale(0.89765)"/>
    <use xlink:href="#Cmr10-3f" transform="translate(1968.333011 0.977)"/>
    <use xlink:href="#Cmex10-27" transform="translate(2015.549808 152.351766) scale(0.89765)"/>
    <path d="M 366.12529 13.477 
L 366.12529 19.727 
L 434.040329 19.727 
L 434.040329 13.477 
L 366.12529 13.477 
z
"/>
    <path d="M 762.219238 76.325125 
L 762.219238 80.700125 
L 809.759766 80.700125 
L 809.759766 76.325125 
L 762.219238 76.325125 
z
"/>
    <path d="M 762.219238 13.477 
L 762.219238 19.727 
L 818.509766 19.727 
L 818.509766 13.477 
L 762.219238 13.477 
z
"/>
    <path d="M 1177.020844 76.325125 
L 1177.020844 80.700125 
L 1224.561371 80.700125 
L 1224.561371 76.325125 
L 1177.020844 76.325125 
z
"/>
    <path d="M 1177.020844 13.477 
L 1177.020844 19.727 
L 1233.311371 19.727 
L 1233.311371 13.477 
L 1177.020844 13.477 
z
"/>
    <path d="M 1182.020844 -43.746125 
L 1182.020844 -39.371125 
L 1219.153656 -39.371125 
L 1219.153656 -43.746125 
L 1182.020844 -43.746125 
z
"/>
    <path d="M 1631.267288 120.318813 
L 1631.267288 123.381313 
L 1664.545657 123.381313 
L 1664.545657 120.318813 
L 1631.267288 120.318813 
z
"/>
    <path d="M 1631.267288 76.325125 
L 1631.267288 80.700125 
L 1670.670657 80.700125 
L 1670.670657 76.325125 
L 1631.267288 76.325125 
z
"/>
    <path d="M 1631.267288 13.477 
L 1631.267288 19.727 
L 1679.420657 19.727 
L 1679.420657 13.477 
L 1631.267288 13.477 
z
"/>
    <path d="M 1634.267288 -28.454187 
L 1634.267288 -25.391687 
L 1660.260257 -25.391687 
L 1660.260257 -28.454187 
L 1634.267288 -28.454187 
z
"/>
    <path d="M 1631.267288 -73.203547 
L 1631.267288 -68.828547 
L 1669.787796 -68.828547 
L 1669.787796 -73.203547 
L 1631.267288 -73.203547 
z
"/>
   </g>
  </g>
 </g>
</svg>
